<svg width="2356" height="881" viewBox="0 0 2356 881" fill="none" xmlns="http://www.w3.org/2000/svg">
  <path
    d="M325.55 129.32C207.41 129.32 107.14 163.66 42.5801 204.88C32.9701 211.73 32.9701 221.35 39.8301 235.08L63.6901 280.48C93.8001 353.56 174.34 330.76 203.11 323.96C234.62 316.52 269.23 312.01 300.83 312.01C390.12 312.01 416.22 351.85 416.22 424.65V438.38C381.87 434.26 342.04 430.14 299.46 430.14C112.66 430.14 0 501.57 0 644.43C0 806.51 125 880.69 322.81 880.69C416.22 880.69 626.38 828.59 626.38 591.07V437.01C626.37 228.22 515.1 129.32 325.55 129.32ZM416.21 615.99C416.21 667.36 375.12 710.18 323.75 710.37C323.43 710.37 323.11 710.37 322.8 710.37C256.86 710.37 212.91 687.02 212.91 638.95C212.91 594.99 245.87 570.27 321.42 570.27C351.64 570.27 388.73 573.01 416.22 578.51V615.99H416.21Z"
    fill="#553682"/>

  <path
    d="M1226.38 710.36C1192.43 653.79 1074.43 695.24 1027.72 695.24C956.29 695.24 908.21 658.16 908.21 581.23V426.01C908.21 355.96 953.541 314.75 1029.09 314.75C1068.93 314.75 1159.5 360.61 1214.68 283.98L1251.62 228.21C1259.86 214.47 1257.11 202.11 1244.76 193.87C1174.69 151.29 1099.15 129.31 1019.47 129.31C814.81 129.31 695.311 244.69 695.311 426.01V581.23C695.311 765.3 813.441 880.69 1020.86 880.69C1115.65 880.69 1193.94 854.59 1264 805.13C1274.97 796.89 1276.36 784.53 1268.12 772.17L1226.38 710.36Z"
    fill="#553682"/>

  <path
    d="M1643.73 163.65H1520.1L1522.16 21.97C1520.79 6.86003 1512.55 0 1497.43 0C1497.43 0 1334.29 21.97 1311.3 183.45V616.95C1311.3 792.78 1418.44 879.32 1577.78 879.32C1586.03 879.32 1592.79 876.55 1598.31 872.4C1615.59 859.39 1613.62 832.97 1596.52 819.73C1520.31 760.74 1521.48 652.37 1521.48 590.86V342.23H1567.11C1689.4 334.75 1668.46 188.39 1668.46 188.39C1668.47 174.73 1657.39 163.65 1643.73 163.65Z"
    fill="#553682"/>

  <path
    d="M2029.69 129.31C1827.77 129.31 1702.77 240.58 1702.77 424.65V589.49C1702.77 770.81 1827.77 880.7 2029.69 880.7C2230.25 880.7 2355.24 770.81 2355.24 589.49V424.65C2355.24 240.58 2230.25 129.31 2029.69 129.31ZM2142.33 589.49C2142.33 658.16 2102.5 695.25 2029.69 695.25C1956.89 695.25 1917.06 658.16 1917.06 589.49V424.65C1917.06 355.96 1956.89 316.13 2029.69 316.13C2102.5 316.13 2142.33 355.95 2142.33 424.65V589.49Z"
    fill="#553682"/>
</svg>
