<svg width="400" height="357" viewBox="0 0 400 357" fill="none" xmlns="http://www.w3.org/2000/svg">
<g clip-path="url(#clip0_163_2)">
<mask id="mask0_163_2" style="mask-type:luminance" maskUnits="userSpaceOnUse" x="0" y="0" width="400" height="357">
<path d="M400 0H0V356.878H400V0Z" fill="white"/>
</mask>
<g mask="url(#mask0_163_2)">
<path d="M108.65 100.658C108.65 100.658 93.5112 92.5027 77.6776 94.1447C77.6776 94.1447 73.5095 97.5855 72.0728 116.144C70.636 134.702 88.5996 166.545 88.5996 166.545L108.65 100.658Z" fill="url(#paint0_linear_163_2)"/>
<path d="M77.6759 94.1448C77.6759 94.1448 93.2848 104.874 98.366 126.817L94.2674 131.029L73.3801 104.663C73.3801 104.663 75.8836 94.287 77.6759 94.1448Z" fill="url(#paint1_linear_163_2)"/>
<path d="M94.379 129.429C94.379 129.429 93.3495 109.922 78.0703 98.948C78.0703 98.948 65.9313 108.679 65.9168 134.334C65.9022 159.989 84.0016 171.195 84.0016 171.195L94.379 129.429Z" fill="url(#paint2_linear_163_2)"/>
<path opacity="0.72" d="M69.5257 112.506C69.5257 112.506 72.6578 105.881 79.0401 105.972C85.4223 106.062 90.316 125.372 86.817 126.689C83.3164 128.007 79.1887 117.149 76.013 116.028C72.8372 114.908 68.1584 116.711 68.1584 116.711L69.5257 112.506Z" fill="url(#paint3_linear_163_2)"/>
<path d="M167.011 239.835C162.524 253.49 154.209 272.642 142.823 286.602C123.985 309.721 97.7664 338.014 96.9583 338.909L96.9341 338.922C85.6468 341.61 74.4662 337.655 67.6234 334.28C63.4715 332.233 60.926 330.395 60.926 330.395C60.926 330.395 73.9442 301.131 101.711 272.205C115.661 257.67 131.522 245.076 144.537 236.233C144.611 236.194 144.666 236.15 144.722 236.107C144.865 235.987 145.044 235.88 145.204 235.767C145.309 235.698 145.39 235.641 145.469 235.585C145.568 235.535 145.648 235.478 145.71 235.415C145.839 235.333 145.944 235.265 146.049 235.195C146.073 235.182 146.099 235.169 146.104 235.152C146.128 235.139 146.153 235.126 146.153 235.126C159.323 226.311 169.225 221.584 170.531 222.977C171.316 223.806 170.061 230.55 167.011 239.835Z" fill="url(#paint4_linear_163_2)"/>
<path d="M61.4497 329.256C61.4497 329.256 80.0792 313.164 91.7592 319.821C103.439 326.478 96.9261 338.922 96.9261 338.922C96.9261 338.922 77.1604 345.314 61.4497 329.256Z" fill="url(#paint5_linear_163_2)"/>
<path opacity="0.3" d="M167.011 239.835C162.524 253.49 154.209 272.642 142.823 286.602C123.985 309.721 97.7664 338.014 96.9583 338.909L96.9341 338.922L67.6234 334.28C63.4715 332.233 60.926 330.395 60.926 330.395C60.926 330.395 73.9442 301.131 101.711 272.205C115.661 257.669 131.522 245.076 144.537 236.233C137.033 241.469 105.248 264.548 91.0222 288.294C74.8266 315.308 105.627 312.868 122.557 298.513C139.467 284.152 166.676 239.728 166.676 239.728L167.011 239.835Z" fill="url(#paint6_linear_163_2)"/>
<path d="M121.537 276.669C119.594 275.122 139.402 252.958 143.022 253.87C146.642 254.781 123.197 277.989 121.537 276.669Z" fill="white"/>
<path d="M119.486 279.053C118.041 277.563 114.827 281.87 116.191 283.095C117.556 284.32 121.12 280.739 119.486 279.053Z" fill="white"/>
<path d="M60.9244 330.394C60.9244 330.394 71.8496 322.217 83.1304 324.307C94.4113 326.397 97.3203 330.652 96.9341 338.922C96.5478 347.192 72.2327 369.881 46.4129 384.553C37.9668 382.57 38.7571 371.657 39.667 364.784C41.5078 359.101 54.3175 338.106 60.9244 330.394Z" fill="url(#paint7_linear_163_2)"/>
<path d="M91.1321 326.82C91.1321 326.82 61.6856 348.43 49.9846 362.581C43.6735 370.214 39.8206 375.32 39.8206 375.32C39.8206 375.32 40.766 390.39 53.141 382.041C70.665 370.219 94.9995 351.785 95.6945 339.342C96.286 328.808 95.1709 326.418 91.1321 326.82Z" fill="url(#paint8_linear_163_2)"/>
<path opacity="0.5" d="M65.6 347.244C65.6 347.244 63.5604 363.198 71.9272 368.389L85.0666 332.751C85.0666 332.751 69.8262 343.483 65.6 347.244Z" fill="url(#paint9_linear_163_2)"/>
<path d="M77.8132 339.88C75.3259 342.922 70.5857 366.503 72.2309 369.881C73.8778 373.259 81.0051 370.759 84.0871 366.667C87.1675 362.574 102.445 339.79 95.8673 328.772C95.8689 328.771 88.1922 327.187 77.8132 339.88Z" fill="url(#paint10_linear_163_2)"/>
<path d="M80.9665 344.278C79.8966 344.136 76.2408 351.559 76.6271 353.228C77.0133 354.896 78.7426 355.279 80.1099 353.778C81.4788 352.275 82.5875 344.494 80.9665 344.278Z" fill="white"/>
<path d="M325.521 250.35C325.521 250.35 333.545 268.084 331.426 282.379C330.232 290.516 324.776 297.344 317.094 302.115C311.234 305.76 304.099 308.212 296.53 309.176C279.021 311.402 258.107 292.034 242.02 270.935C225.933 249.836 235.756 236.824 237.901 236.651C241.863 236.347 255.381 243.567 269.684 249.136C276.966 251.969 284.44 254.371 290.966 255.151C310.322 257.443 325.521 250.35 325.521 250.35Z" fill="url(#paint11_linear_163_2)"/>
<path opacity="0.3" d="M317.092 302.115C311.232 305.76 304.097 308.212 296.528 309.176C279.019 311.402 258.106 292.034 242.018 270.935C225.931 249.836 235.754 236.824 237.899 236.651C241.862 236.347 255.379 243.567 269.682 249.136C269.682 249.136 269.427 269.603 283.171 290.962C296.926 312.299 317.092 302.115 317.092 302.115Z" fill="url(#paint12_linear_163_2)"/>
<path d="M310.036 254.696C302.385 261.506 315.027 292.226 325.256 292.244C335.486 292.26 335.382 260.406 325.519 250.356C325.519 250.356 315.67 249.681 310.036 254.696Z" fill="url(#paint13_linear_163_2)"/>
<path d="M312.42 257.855C312.42 257.855 308.927 267.004 316.262 275.984C323.596 284.963 340.286 285.703 357.159 277.807C374.03 269.91 379.348 252.747 378.351 244.221C378.351 244.221 372.462 239.34 354.088 243.012C341.596 245.509 325.517 250.356 325.517 250.356C325.517 250.356 317.113 252.758 312.42 257.855Z" fill="url(#paint14_linear_163_2)"/>
<path d="M317.808 277.627C317.808 277.627 334.959 275.735 351.174 264.58C367.389 253.427 356.301 243.247 356.301 243.247C356.301 243.247 345.686 242.817 337.047 244.81C328.409 246.804 311.958 256.163 311.958 256.163C311.958 256.163 306.251 268.545 317.808 277.627Z" fill="url(#paint15_linear_163_2)"/>
<path opacity="0.5" d="M333.409 283.234C333.409 283.234 329.296 269.941 325.112 264.564C325.112 264.564 336.039 275.412 340.246 282.898L333.409 283.234Z" fill="url(#paint16_linear_163_2)"/>
<path opacity="0.5" d="M326.078 257.556C326.078 257.556 337.776 262.534 349.084 260.415C360.392 258.296 361.933 245.831 361.933 245.831L356.375 242.94L326.078 257.556Z" fill="url(#paint17_linear_163_2)"/>
<path d="M313.357 256.431C307.253 249.729 342.637 233.842 348.706 234.743C351.408 235.143 357.067 238.187 356.892 241.694C356.716 245.201 345.888 252.186 340.808 253.901C335.73 255.617 317.365 260.832 313.357 256.431Z" fill="url(#paint18_linear_163_2)"/>
<path d="M344.14 252.451C344.14 252.451 340.281 244.879 342.902 239.976C345.524 235.072 349.912 235.035 349.912 235.035C349.912 235.035 356.95 236.569 356.893 241.694C356.835 246.82 347.256 252.359 344.14 252.451Z" fill="url(#paint19_linear_163_2)"/>
<path d="M274.536 92.6788C274.536 92.6788 289.282 83.8335 305.175 84.7434C305.175 84.7434 309.496 87.9887 311.788 106.461C314.08 124.934 297.605 157.571 297.605 157.571L274.536 92.6788Z" fill="url(#paint20_linear_163_2)"/>
<path d="M305.175 84.7451C305.175 84.7451 290.078 96.1827 286.014 118.339L290.301 122.356L309.951 95.053C309.951 95.0514 306.974 84.8033 305.175 84.7451Z" fill="url(#paint21_linear_163_2)"/>
<path d="M290.117 120.761C290.117 120.761 290.245 101.228 305.004 89.5596C305.004 89.5596 317.579 98.72 318.777 124.347C319.974 149.975 302.411 162.004 302.411 162.004L290.117 120.761Z" fill="url(#paint22_linear_163_2)"/>
<path opacity="0.72" d="M314.164 102.71C314.164 102.71 310.73 96.2376 304.357 96.6222C297.986 97.0068 293.988 116.522 297.545 117.676C301.102 118.83 304.726 107.795 307.845 106.528C310.966 105.262 315.722 106.848 315.722 106.848L314.164 102.71Z" fill="url(#paint23_linear_163_2)"/>
<path d="M257.244 348.509C252.703 375.328 228.697 393.199 194.269 393.199C164.305 393.199 138.922 382.032 132.218 357.435C125.514 332.858 128.108 287.402 137.055 259.09C138.392 254.862 140.005 250.793 141.873 246.92L141.893 246.882C143.583 243.383 145.471 240.039 147.556 236.913C147.575 236.894 147.575 236.874 147.575 236.874C158.507 220.419 174.511 209.663 192.6 209.663C211.434 209.663 225.847 217.409 235.657 228.873C240.218 234.201 243.796 240.335 246.353 246.862C249.303 254.373 251.78 262.335 253.745 270.554C253.745 270.613 253.765 270.691 253.784 270.79C259.977 296.504 261.295 324.561 257.244 348.509Z" fill="url(#paint24_linear_163_2)"/>
<path opacity="0.3" d="M257.244 348.509C252.703 375.328 228.697 393.199 194.269 393.199C164.305 393.199 138.922 382.031 132.218 357.435C125.514 332.858 128.108 287.402 137.055 259.09C138.392 254.862 140.005 250.793 141.873 246.92L141.893 246.882C141.893 246.882 123.766 306.987 138.255 345.267C152.745 383.547 220.262 382.741 243.108 357.299C264.853 333.096 254.806 276.236 253.784 270.789C259.977 296.504 261.295 324.561 257.244 348.509Z" fill="url(#paint25_linear_163_2)"/>
<path d="M133.506 332.596C138.629 296.606 167.501 272.21 199.568 275.237C234.135 278.5 252.716 311.497 252.22 339.809C251.724 368.121 231.029 390.226 193.941 390.226C156.853 390.226 128.714 366.255 133.506 332.596Z" fill="url(#paint26_linear_163_2)"/>
<path opacity="0.5" d="M235.656 228.869C228.322 240.372 187.955 247.067 164.624 244.937C144.314 243.084 147.396 237.6 147.552 236.911C147.572 236.892 147.572 236.873 147.572 236.873C158.503 220.417 174.508 209.661 192.596 209.661C211.433 209.661 225.846 217.408 235.656 228.869Z" fill="url(#paint27_linear_163_2)"/>
<path d="M221.307 248.806C219.433 249.425 219.342 264.556 221.307 266.995C223.273 269.432 226.426 268.682 227.476 265.12C228.528 261.558 224.147 247.869 221.307 248.806Z" fill="white"/>
<path d="M224.774 271.027C223.21 271.399 223.029 275.151 223.751 276.465C224.474 277.778 227.195 277.497 227.636 275.903C228.078 274.308 226.352 270.65 224.774 271.027Z" fill="white"/>
<path d="M87.9062 188.512C110.756 241.223 281.783 224.787 302.217 181.487C324.569 134.124 273.178 17.078 191.221 22.5406C121.983 27.1563 58.5341 120.75 87.9062 188.512Z" fill="url(#paint28_linear_163_2)"/>
<path d="M215.373 32.3361C213.813 34.1979 231.95 42.0751 234.372 40.9697C236.793 39.8626 220.588 26.1123 215.373 32.3361Z" fill="white"/>
<path opacity="0.5" d="M123.669 87.8593C121.952 98.1542 141.463 96.9841 172.669 95.9514C210.171 94.7102 247.851 126.995 269.778 103.824C273.392 100.005 237.487 49.8682 194.151 50.993C150.815 52.1179 125.159 78.9187 123.669 87.8593Z" fill="url(#paint29_linear_163_2)"/>
<path opacity="0.5" d="M142.991 195.32C141.01 202.781 156.624 210.246 195.019 208.367C241.437 206.095 251.292 196.368 249.012 193.676C247.641 192.058 233.736 200.816 195.615 192.459C170.439 186.94 145.075 187.467 142.991 195.32Z" fill="url(#paint30_linear_163_2)"/>
<path opacity="0.2" d="M101.508 172.118C101.508 172.118 99.8964 161.299 101.799 146.773C103.701 132.247 107.602 122.864 109.926 124.181C112.25 125.498 111.89 139.724 113.262 153.742C114.329 164.648 116.427 174.888 116.427 174.888C116.427 174.888 106.393 184.486 101.508 172.118Z" fill="url(#paint31_linear_163_2)"/>
<path d="M195.703 38.6619C250.56 39.8708 298.604 81.3076 308.31 137.67C285.855 128.404 244.664 114.793 191.738 116.427C138.928 118.057 98.728 134.119 76.8921 144.731C83.8351 83.2001 136.514 37.3577 195.703 38.6619Z" fill="url(#paint32_linear_163_2)"/>
<path d="M223.383 134.77C220.091 147.814 209.16 157.53 196.297 159.087C180.259 161.026 169.632 149.257 168.792 148.294C175.308 149.018 185.944 149.4 198.426 146.119C209.755 143.138 218.177 138.308 223.383 134.77Z" fill="url(#paint33_linear_163_2)"/>
<path d="M126.728 102.39C132.779 89.9765 145.563 82.6359 158.455 83.9579C174.531 85.608 182.342 99.8625 182.953 101.025C176.75 98.8298 166.452 96.0549 153.555 96.5575C141.85 97.0149 132.58 99.9934 126.728 102.39Z" fill="url(#paint34_linear_163_2)"/>
<path d="M256.226 102.39C250.175 89.9765 237.391 82.6359 224.499 83.9579C208.423 85.608 200.612 99.8625 200.001 101.025C206.204 98.8298 216.502 96.0549 229.399 96.5575C241.104 97.0149 250.374 99.9934 256.226 102.39Z" fill="url(#paint35_linear_163_2)"/>
</g>
</g>
<defs>
<linearGradient id="paint0_linear_163_2" x1="102.244" y1="163.392" x2="85.7685" y2="92.277" gradientUnits="userSpaceOnUse">
<stop stop-color="#B6ABD4"/>
<stop offset="1" stop-color="#E0D0E8"/>
</linearGradient>
<linearGradient id="paint1_linear_163_2" x1="89.6609" y1="132.104" x2="80.7045" y2="93.4446" gradientUnits="userSpaceOnUse">
<stop stop-color="#B59CCA"/>
<stop offset="1" stop-color="#938AC2"/>
</linearGradient>
<linearGradient id="paint2_linear_163_2" x1="88.547" y1="170.15" x2="72.3595" y2="100.278" gradientUnits="userSpaceOnUse">
<stop stop-color="#7AC5B1"/>
<stop offset="1" stop-color="#8CB32A"/>
</linearGradient>
<linearGradient id="paint3_linear_163_2" x1="86.6197" y1="115.357" x2="68.7971" y2="119.486" gradientUnits="userSpaceOnUse">
<stop stop-color="#020203"/>
<stop offset="1" stop-color="#D5E0F4"/>
</linearGradient>
<linearGradient id="paint4_linear_163_2" x1="87.2981" y1="343.524" x2="148.636" y2="212.672" gradientUnits="userSpaceOnUse">
<stop stop-color="#CABFE0"/>
<stop offset="1" stop-color="#E7DBED"/>
</linearGradient>
<linearGradient id="paint5_linear_163_2" x1="77.6861" y1="338.965" x2="84.7122" y2="317.285" gradientUnits="userSpaceOnUse">
<stop stop-color="#B59CCA"/>
<stop offset="1" stop-color="#938AC2"/>
</linearGradient>
<linearGradient id="paint6_linear_163_2" x1="95.1365" y1="343.203" x2="132.282" y2="228.587" gradientUnits="userSpaceOnUse">
<stop stop-color="#926AAB"/>
<stop offset="1" stop-color="#CDEAFC"/>
</linearGradient>
<linearGradient id="paint7_linear_163_2" x1="51.8599" y1="387.344" x2="82.2037" y2="322.611" gradientUnits="userSpaceOnUse">
<stop stop-color="#CABFE0"/>
<stop offset="1" stop-color="#E7DBED"/>
</linearGradient>
<linearGradient id="paint8_linear_163_2" x1="61.2526" y1="387.854" x2="75.1885" y2="323.07" gradientUnits="userSpaceOnUse">
<stop stop-color="#B59CCA"/>
<stop offset="1" stop-color="#938AC2"/>
</linearGradient>
<linearGradient id="paint9_linear_163_2" x1="69.3373" y1="367.837" x2="77.2455" y2="331.074" gradientUnits="userSpaceOnUse">
<stop stop-color="#8FA3D4"/>
<stop offset="1" stop-color="#6E5CA4"/>
</linearGradient>
<linearGradient id="paint10_linear_163_2" x1="73.4584" y1="371.103" x2="93.7612" y2="327.792" gradientUnits="userSpaceOnUse">
<stop stop-color="#CABFE0"/>
<stop offset="1" stop-color="#E7DBED"/>
</linearGradient>
<linearGradient id="paint11_linear_163_2" x1="297.557" y1="309.75" x2="271.706" y2="226.186" gradientUnits="userSpaceOnUse">
<stop stop-color="#CABFE0"/>
<stop offset="1" stop-color="#E7DBED"/>
</linearGradient>
<linearGradient id="paint12_linear_163_2" x1="291.313" y1="314.217" x2="253.085" y2="229.741" gradientUnits="userSpaceOnUse">
<stop stop-color="#926AAB"/>
<stop offset="1" stop-color="#CDEAFC"/>
</linearGradient>
<linearGradient id="paint13_linear_163_2" x1="332.962" y1="288.515" x2="312.357" y2="253.062" gradientUnits="userSpaceOnUse">
<stop stop-color="#B59CCA"/>
<stop offset="1" stop-color="#938AC2"/>
</linearGradient>
<linearGradient id="paint14_linear_163_2" x1="352.616" y1="279.862" x2="341.921" y2="245.29" gradientUnits="userSpaceOnUse">
<stop stop-color="#CABFE0"/>
<stop offset="1" stop-color="#E7DBED"/>
</linearGradient>
<linearGradient id="paint15_linear_163_2" x1="342.093" y1="270.117" x2="328.428" y2="246.606" gradientUnits="userSpaceOnUse">
<stop stop-color="#B59CCA"/>
<stop offset="1" stop-color="#938AC2"/>
</linearGradient>
<linearGradient id="paint16_linear_163_2" x1="337.366" y1="284.213" x2="327.907" y2="263.31" gradientUnits="userSpaceOnUse">
<stop stop-color="#8FA3D4"/>
<stop offset="1" stop-color="#6E5CA4"/>
</linearGradient>
<linearGradient id="paint17_linear_163_2" x1="328.513" y1="262.893" x2="362.679" y2="247.432" gradientUnits="userSpaceOnUse">
<stop stop-color="#6E5CA4"/>
<stop offset="1" stop-color="#CDEAFC"/>
</linearGradient>
<linearGradient id="paint18_linear_163_2" x1="334.42" y1="258.654" x2="335.225" y2="234.275" gradientUnits="userSpaceOnUse">
<stop stop-color="#CABFE0"/>
<stop offset="1" stop-color="#E7DBED"/>
</linearGradient>
<linearGradient id="paint19_linear_163_2" x1="352.032" y1="248.92" x2="345.081" y2="236.959" gradientUnits="userSpaceOnUse">
<stop stop-color="#CABFE0"/>
<stop offset="1" stop-color="#D0BDDD"/>
</linearGradient>
<linearGradient id="paint20_linear_163_2" x1="283.832" y1="155.061" x2="297.009" y2="83.2605" gradientUnits="userSpaceOnUse">
<stop stop-color="#B6ABD4"/>
<stop offset="1" stop-color="#E0D0E8"/>
</linearGradient>
<linearGradient id="paint21_linear_163_2" x1="294.957" y1="123.226" x2="302.12" y2="84.1931" gradientUnits="userSpaceOnUse">
<stop stop-color="#B59CCA"/>
<stop offset="1" stop-color="#938AC2"/>
</linearGradient>
<linearGradient id="paint22_linear_163_2" x1="297.826" y1="161.181" x2="310.773" y2="90.6343" gradientUnits="userSpaceOnUse">
<stop stop-color="#7AC5B1"/>
<stop offset="1" stop-color="#8CB32A"/>
</linearGradient>
<linearGradient id="paint23_linear_163_2" x1="297.222" y1="106.355" x2="315.216" y2="109.657" gradientUnits="userSpaceOnUse">
<stop stop-color="#020203"/>
<stop offset="1" stop-color="#D5E0F4"/>
</linearGradient>
<linearGradient id="paint24_linear_163_2" x1="184.718" y1="392.888" x2="207.56" y2="211.022" gradientUnits="userSpaceOnUse">
<stop stop-color="#CABFE0"/>
<stop offset="1" stop-color="#E7DBED"/>
</linearGradient>
<linearGradient id="paint25_linear_163_2" x1="194.002" y1="393.198" x2="194.002" y2="246.879" gradientUnits="userSpaceOnUse">
<stop stop-color="#926AAB"/>
<stop offset="1" stop-color="#CDEAFC"/>
</linearGradient>
<linearGradient id="paint26_linear_163_2" x1="192.601" y1="390.223" x2="192.601" y2="274.983" gradientUnits="userSpaceOnUse">
<stop stop-color="#B59CCA"/>
<stop offset="1" stop-color="#938AC2"/>
</linearGradient>
<linearGradient id="paint27_linear_163_2" x1="191.477" y1="245.33" x2="191.477" y2="209.661" gradientUnits="userSpaceOnUse">
<stop stop-color="#8FA3D4"/>
<stop offset="1" stop-color="#6E5CA4"/>
</linearGradient>
<linearGradient id="paint28_linear_163_2" x1="184.985" y1="224.25" x2="210.211" y2="23.4031" gradientUnits="userSpaceOnUse">
<stop stop-color="#CABFE0"/>
<stop offset="1" stop-color="#E7DBED"/>
</linearGradient>
<linearGradient id="paint29_linear_163_2" x1="123.564" y1="81.5969" x2="270.029" y2="81.5969" gradientUnits="userSpaceOnUse">
<stop stop-color="#020203"/>
<stop offset="1" stop-color="#7293CC"/>
</linearGradient>
<linearGradient id="paint30_linear_163_2" x1="142.825" y1="198.727" x2="249.315" y2="198.727" gradientUnits="userSpaceOnUse">
<stop stop-color="#020203"/>
<stop offset="1" stop-color="#7293CC"/>
</linearGradient>
<linearGradient id="paint31_linear_163_2" x1="107.805" y1="178.393" x2="111.521" y2="124.198" gradientUnits="userSpaceOnUse">
<stop stop-color="#020203"/>
<stop offset="1" stop-color="#60C4E5"/>
</linearGradient>
<linearGradient id="paint32_linear_163_2" x1="78.6892" y1="89.815" x2="309.636" y2="97.3707" gradientUnits="userSpaceOnUse">
<stop stop-color="#B59CCA"/>
<stop offset="0.065" stop-color="#9F83B8"/>
<stop offset="0.1563" stop-color="#8868A5"/>
<stop offset="0.2576" stop-color="#745397"/>
<stop offset="0.371" stop-color="#66448C"/>
<stop offset="0.5033" stop-color="#5C3B86"/>
<stop offset="0.6719" stop-color="#563682"/>
<stop offset="1" stop-color="#553582"/>
</linearGradient>
<linearGradient id="paint33_linear_163_2" x1="195.715" y1="137.507" x2="197.831" y2="158.948" gradientUnits="userSpaceOnUse">
<stop stop-color="#B59CCA"/>
<stop offset="0.065" stop-color="#9F83B8"/>
<stop offset="0.1563" stop-color="#8868A5"/>
<stop offset="0.2576" stop-color="#745397"/>
<stop offset="0.371" stop-color="#66448C"/>
<stop offset="0.5033" stop-color="#5C3B86"/>
<stop offset="0.6719" stop-color="#563682"/>
<stop offset="1" stop-color="#553582"/>
</linearGradient>
<linearGradient id="paint34_linear_163_2" x1="154.321" y1="105.856" x2="157.093" y2="83.78" gradientUnits="userSpaceOnUse">
<stop stop-color="#7AC5B1"/>
<stop offset="1" stop-color="#61C5E6"/>
</linearGradient>
<linearGradient id="paint35_linear_163_2" x1="228.634" y1="105.856" x2="225.861" y2="83.78" gradientUnits="userSpaceOnUse">
<stop stop-color="#7AC5B1"/>
<stop offset="1" stop-color="#61C5E6"/>
</linearGradient>
<clipPath id="clip0_163_2">
<rect width="400" height="356.878" fill="white"/>
</clipPath>
</defs>
</svg>
