<svg width="720" height="321" viewBox="0 0 720 321" fill="none" xmlns="http://www.w3.org/2000/svg">
<path d="M188.201 135.86C152.222 129.082 123.487 129.857 100.971 133.519C100.843 133.54 100.315 133.625 99.5257 133.759C75.113 137.892 36.2633 144.47 26.9236 165.922C25.995 168.056 23.8207 173.251 25.6582 178.832C28.0941 186.233 35.951 189.367 37.9357 190.098C31.7365 183.313 31.3605 178.476 31.6972 175.819C33.2716 163.428 56.1312 153.15 89.604 151.927C83.5257 152.94 75.847 154.833 67.4768 158.505C55.2958 163.849 46.543 170.812 40.9732 176.047C50.527 225.109 77.1336 263.259 104.388 265.662C137.991 268.626 185.752 218.418 188.201 135.86Z" fill="#E50C7E"/>
<path d="M209.447 138.075C220.711 140.614 234.872 145.643 248.433 155.797C257.733 162.761 263.144 169.433 264.382 170.986C272.551 181.239 276.54 191.422 278.559 198.073C274.711 208.689 263.926 234.003 237.548 254.526C212.46 274.048 186.779 278.72 175.527 280.095C181.051 273.868 187.42 265.327 192.741 254.273C195.246 249.071 197.131 244.114 198.564 239.591C192.668 250.259 174.108 280.428 140.027 288.718C135.926 289.716 100.5 297.936 89.7086 281.107C86.148 275.555 86.3196 268.913 87.1763 263.892C88.1196 266.771 89.9081 270.812 93.5046 274.272C108.059 288.27 135.845 277.015 137.553 276.297C146.227 272.655 152.142 267.602 156.793 263.134C190.377 230.867 201.576 187.298 204.893 171.999C206.619 164.023 208.658 152.416 209.447 138.075Z" fill="#8ABF41"/>
<path d="M210.532 120.664C210.378 111.105 209.274 98.7101 205.606 84.7209C201.563 69.3046 195.735 57.019 190.714 48.2041C204.733 51.8318 238.173 62.6788 260.331 94.2781C266.019 102.39 269.97 110.453 272.754 117.757C270.384 115.575 267.323 113.116 263.514 110.796C258.76 107.899 254.296 106.108 250.73 104.973C260.354 113.432 273.596 127.444 283.26 148.01C287.564 157.169 294.76 172.877 294.904 194.337C294.971 204.268 293.529 212.536 292.12 218.387C291.996 209.907 290.767 196.336 284.525 181.173C281.195 173.083 271.289 152.054 248.178 136.303C233.882 126.556 219.902 122.492 210.532 120.664Z" fill="#FEEB1A"/>
<path d="M43.8867 140.098C45.9286 130.134 53.9555 97.2743 84.6443 71.4933C117.777 43.659 154.779 43.0149 164.387 43.1407C162.993 40.7229 160.557 37.4614 156.54 35.2936C148.74 31.0823 138.232 32.745 129.662 39.3447C131.719 37.2129 141.886 27.0852 155.484 28.3326C164.165 29.1287 169.991 34.1754 172.743 36.5606C195.648 56.4105 189.679 110.386 189.089 115.292C171.68 112.182 144.091 109.439 111.226 115.545C81.4825 121.069 58.605 131.764 43.8867 140.098Z" fill="#2DABE3"/>
<path d="M343.002 86.6367H347.292L353.655 101.353H353.69L360.231 86.6367H364.413L365.736 108.004H362.232L361.268 91.873H361.196L355.047 105.498H352.152L346.183 92.0022H346.111L345.147 108.004H341.644L343.002 86.6367Z" fill="#553682"/>
<path d="M380.567 86.6367H394.435V89.496H384.248V95.6658H392.97V98.494H384.248V105.146H394.685V108.005H380.567V86.6367Z" fill="#553682"/>
<path d="M413.023 89.496H406.124V86.6367H423.746V89.496H416.705V108.004H413.023V89.496Z" fill="#553682"/>
<path d="M436.595 105.578C434.845 103.704 433.968 100.968 433.968 97.3677C433.968 94.7765 434.462 92.6496 435.451 90.9903C436.44 89.331 437.72 88.1261 439.293 87.3757C440.866 86.6253 442.546 86.251 444.333 86.251C447.215 86.251 449.574 87.1452 451.41 88.9337C453.244 90.7222 454.161 93.5341 454.161 97.3677C454.161 99.7676 453.745 101.792 452.911 103.441C452.077 105.091 450.897 106.328 449.373 107.152C447.848 107.978 446.05 108.39 443.977 108.39C440.807 108.39 438.346 107.453 436.595 105.578ZM448.945 103.312C449.921 101.749 450.41 99.7987 450.41 97.4642C450.41 96.1154 450.218 94.8027 449.837 93.5275C449.457 92.254 448.801 91.1881 447.871 90.3298C446.942 89.4732 445.703 89.0449 444.153 89.0449C442.675 89.0449 441.454 89.4307 440.49 90.2023C439.525 90.974 438.822 91.9745 438.381 93.2071C437.939 94.4398 437.72 95.7836 437.72 97.2402C437.72 99.6401 438.196 101.643 439.151 103.248C440.104 104.855 441.796 105.658 444.227 105.658C446.394 105.658 447.967 104.876 448.945 103.312Z" fill="#553682"/>
<path d="M468.245 86.6367H475.787C479.241 86.6367 481.94 87.477 483.882 89.1592C485.824 90.8415 486.795 93.31 486.795 96.5649C486.795 99.2428 486.307 101.433 485.331 103.135C484.353 104.839 483.055 106.075 481.435 106.846C479.815 107.618 478.003 108.004 476.002 108.004H468.247V86.6367H468.245ZM476.073 105.401C478.265 105.401 479.986 104.695 481.237 103.281C482.488 101.867 483.101 99.8215 483.078 97.1437C483.101 94.2729 482.44 92.2441 481.095 91.054C479.748 89.8655 477.907 89.2704 475.572 89.2704H471.927V105.401H476.073Z" fill="#553682"/>
<path d="M502.576 105.578C500.825 103.704 499.949 100.968 499.949 97.3677C499.949 94.7765 500.443 92.6496 501.432 90.9903C502.421 89.331 503.701 88.1261 505.274 87.3757C506.847 86.6253 508.527 86.251 510.314 86.251C513.196 86.251 515.555 87.1452 517.391 88.9337C519.225 90.7222 520.142 93.5341 520.142 97.3677C520.142 99.7676 519.726 101.792 518.892 103.441C518.058 105.091 516.878 106.328 515.354 107.152C513.829 107.978 512.031 108.39 509.958 108.39C506.788 108.39 504.329 107.453 502.576 105.578ZM514.926 103.312C515.902 101.749 516.391 99.7987 516.391 97.4642C516.391 96.1154 516.199 94.8027 515.818 93.5275C515.437 92.254 514.782 91.1881 513.852 90.3298C512.923 89.4732 511.684 89.0449 510.134 89.0449C508.656 89.0449 507.435 89.4307 506.471 90.2023C505.506 90.974 504.803 91.9745 504.362 93.2071C503.92 94.4398 503.701 95.7836 503.701 97.2402C503.701 99.6401 504.177 101.643 505.132 103.248C506.085 104.855 507.777 105.658 510.208 105.658C512.375 105.658 513.948 104.876 514.926 103.312Z" fill="#553682"/>
<path d="M534.262 86.6367H537.944V105.112H548.274V108.004H534.262V86.6367Z" fill="#553682"/>
<path d="M562.196 105.578C560.446 103.704 559.569 100.968 559.569 97.3677C559.569 94.7765 560.063 92.6496 561.052 90.9903C562.041 89.331 563.321 88.1261 564.894 87.3757C566.467 86.6253 568.147 86.251 569.934 86.251C572.816 86.251 575.175 87.1452 577.011 88.9337C578.845 90.7222 579.763 93.5341 579.763 97.3677C579.763 99.7676 579.346 101.792 578.512 103.441C577.678 105.091 576.498 106.328 574.974 107.152C573.449 107.978 571.651 108.39 569.578 108.39C566.408 108.39 563.947 107.453 562.196 105.578ZM574.546 103.312C575.522 101.749 576.011 99.7987 576.011 97.4642C576.011 96.1154 575.819 94.8027 575.438 93.5275C575.058 92.254 574.402 91.1881 573.472 90.3298C572.543 89.4732 571.304 89.0449 569.754 89.0449C568.276 89.0449 567.055 89.4307 566.091 90.2023C565.126 90.974 564.423 91.9745 563.982 93.2071C563.54 94.4398 563.321 95.7836 563.321 97.2402C563.321 99.6401 563.797 101.643 564.752 103.248C565.705 104.855 567.397 105.658 569.828 105.658C571.996 105.658 573.568 104.876 574.546 103.312Z" fill="#553682"/>
<path d="M595.633 105.611C593.822 103.759 592.916 101.01 592.916 97.3697C592.916 94.7572 593.416 92.6189 594.417 90.9596C595.417 89.3002 596.699 88.1003 598.259 87.3613C599.818 86.6224 601.469 86.2529 603.209 86.2529C604.757 86.2529 606.253 86.5374 607.695 87.1047C609.137 87.672 610.394 88.6201 611.466 89.9476L608.823 91.7132C608.012 90.8141 607.155 90.1438 606.25 89.7057C605.344 89.2675 604.332 89.0468 603.212 89.0468C601.162 89.0468 599.56 89.7596 598.404 91.1835C597.248 92.6091 596.671 94.5954 596.671 97.1441C596.671 102.843 598.947 105.691 603.498 105.691C604.332 105.691 605.161 105.599 605.983 105.418C606.805 105.236 607.454 105.006 607.932 104.726V98.9751H603V96.3724H611.363V106.366C610.386 106.987 609.182 107.479 607.754 107.844C606.323 108.208 604.822 108.39 603.25 108.39C599.982 108.39 597.444 107.463 595.633 105.611Z" fill="#553682"/>
<path d="M625.8 86.6367H629.446V108.004H625.8V86.6367Z" fill="#553682"/>
<path d="M650.606 86.6367H654.859L663.331 108.004H659.471L657.112 101.93H648.318L646.031 108.004H642.386L650.606 86.6367ZM656.326 99.3605L652.716 89.6252H652.644L649.106 99.3605H656.326Z" fill="#553682"/>
<path d="M357.823 140.544C338.51 140.544 322.117 146.158 311.563 152.897C309.992 154.016 309.992 155.589 311.114 157.834L315.014 165.256C319.937 177.203 333.103 173.476 337.807 172.364C342.958 171.148 348.616 170.41 353.782 170.41C368.379 170.41 372.646 176.923 372.646 188.825V191.07C367.031 190.396 360.519 189.722 353.558 189.722C323.02 189.722 304.602 201.4 304.602 224.755C304.602 251.252 325.037 263.379 357.376 263.379C372.646 263.379 407.004 254.862 407.004 216.031V190.846C407.002 156.712 388.811 140.544 357.823 140.544ZM372.645 220.105C372.645 228.503 365.927 235.504 357.529 235.535C357.477 235.535 357.425 235.535 357.374 235.535C346.594 235.535 339.409 231.718 339.409 223.859C339.409 216.672 344.797 212.631 357.148 212.631C362.089 212.631 368.152 213.079 372.646 213.978V220.105H372.645Z" fill="#553682"/>
<path d="M505.093 235.533C499.542 226.285 480.252 233.061 472.615 233.061C460.938 233.061 453.078 226.999 453.078 214.423V189.047C453.078 177.595 460.488 170.858 472.839 170.858C479.352 170.858 494.159 178.355 503.18 165.828L509.219 156.71C510.566 154.464 510.116 152.443 508.097 151.096C496.642 144.135 484.293 140.542 471.267 140.542C437.808 140.542 418.272 159.404 418.272 189.047V214.423C418.272 244.515 437.585 263.379 471.494 263.379C486.99 263.379 499.789 259.112 511.243 251.026C513.036 249.679 513.263 247.658 511.916 245.638L505.093 235.533Z" fill="#553682"/>
<path d="M573.321 146.156H553.11L553.447 122.994C553.223 120.524 551.876 119.402 549.404 119.402C549.404 119.402 522.734 122.994 518.975 149.393V220.262C518.975 249.007 536.49 263.155 562.54 263.155C563.888 263.155 564.993 262.702 565.896 262.024C568.721 259.897 568.399 255.577 565.603 253.413C553.144 243.769 553.336 226.053 553.336 215.997V175.351H560.795C580.787 174.128 577.364 150.201 577.364 150.201C577.366 147.967 575.554 146.156 573.321 146.156Z" fill="#553682"/>
<path d="M636.418 140.542C603.408 140.542 582.973 158.733 582.973 188.825V215.773C582.973 245.415 603.408 263.38 636.418 263.38C669.206 263.38 689.64 245.415 689.64 215.773V188.825C689.64 158.733 669.206 140.542 636.418 140.542ZM654.833 215.773C654.833 226.999 648.322 233.063 636.418 233.063C624.517 233.063 618.006 226.999 618.006 215.773V188.825C618.006 177.595 624.517 171.084 636.418 171.084C648.322 171.084 654.833 177.593 654.833 188.825V215.773Z" fill="#553682"/>
</svg>
