<svg width="668" height="294" viewBox="0 0 668 294" fill="none" xmlns="http://www.w3.org/2000/svg">
  <path
    d="M484.47 133.79C478.12 115.18 463.06 102.19 441.94 102.19C413.29 102.19 394.39 125.67 396.31 152.25C398.08 176.62 418.9 195.66 446.37 195.66C464.39 195.66 475.61 189.01 484.76 179.71L473.09 165.98C466.44 173.66 457.58 178.53 447.69 178.53C434.25 178.53 425.1 172.77 420.52 164.06L486.38 139.84L484.46 133.79H484.47ZM417.13 148.7C417.28 130.09 429.24 119.17 442.23 119.17C451.53 119.17 458.47 123.6 463.05 131.72L417.13 148.7ZM557.12 106.47L530.83 170.71L505.43 106.47H483.13L518.72 191.23H542.49L577.93 106.47H557.11H557.12ZM620.62 102.45C593.85 102.45 573.95 123.27 573.95 149.11C573.95 174.95 593.85 195.77 620.62 195.77C647.39 195.77 667.29 174.95 667.29 149.11C667.29 123.27 647.53 102.45 620.62 102.45ZM620.62 178.8C605.2 178.8 593.85 165.51 593.85 149.12C593.85 132.73 605.2 119.44 620.62 119.44C636.04 119.44 647.53 132.73 647.53 149.12C647.53 165.51 636.18 178.8 620.62 178.8Z"
    fill="#8061ff"/>

  <path
    d="M354.13 140.31C353.94 125.12 347.45 110.47 336.31 100.11C334.83 98.7302 334.03 96.8202 334.11 94.8702C334.16 93.6102 334.6 91.8102 336.39 90.4002C344.63 83.9402 355.43 72.9602 354 52.1702C351.99 22.9102 327.19 -0.00976562 297.54 -0.00976562H228.34C206.35 -0.00976562 188.46 17.8802 188.46 39.8702V96.5902C185.89 96.3702 183.24 96.2602 180.5 96.2602C171.34 96.2602 162.48 97.6602 154.1 100.26L119.4 19.7202C114.15 7.56023 102.66 0.000234375 89.41 0.000234375C76.16 0.000234375 64.67 7.56023 59.42 19.7202L2.67998 151.21C-1.69002 161.33 -0.680023 172.88 5.37998 182.09C11.44 191.3 21.64 196.8 32.67 196.8H53.12V170.37H32.67C29.75 170.37 28.16 168.61 27.47 167.57C26.78 166.52 25.8 164.37 26.96 161.68L83.69 30.1902C85.15 26.8002 88.17 26.4302 89.4 26.4302C90.63 26.4302 93.65 26.8002 95.11 30.1802L130.24 111.7C104.24 129.2 86.97 159.85 86.97 194.66C86.97 248.92 128.92 293.06 180.49 293.06C210.3 293.06 238.58 277.91 256.14 252.54L234.4 237.5C221.59 256.01 201.94 266.63 180.49 266.63C143.5 266.63 113.4 234.34 113.4 194.66C113.4 170.82 124.26 149.66 140.95 136.55L147.83 152.52C155.08 169.33 171.03 178.34 187.53 174.93C203.89 171.56 214.88 156.93 214.88 138.54V133.64C224.7 140.69 232.7 150.38 240.94 160.35C255.73 178.26 271.03 196.78 296.98 196.78C312.4 196.78 327.4 190.55 338.14 179.68C348.62 169.07 354.3 155.08 354.12 140.28L354.13 140.31ZM188.47 138.56C188.47 144.33 186.13 148.25 182.22 149.06C179.08 149.7 174.78 148.21 172.14 142.07L164.67 124.73C169.75 123.4 175.06 122.7 180.52 122.7C183.3 122.7 185.95 122.86 188.48 123.18V138.57L188.47 138.56ZM318.32 119.47C324.27 125 327.6 132.52 327.7 140.63C327.79 148.31 324.83 155.59 319.35 161.13C313.55 167 305.4 170.37 297 170.37C284.15 170.37 275.08 160.18 261.35 143.54C249.51 129.2 235.7 112.48 214.91 103.26V39.8702C214.91 32.4602 220.94 26.4302 228.35 26.4302H297.55C313.36 26.4302 326.58 38.5302 327.64 53.9802C328.05 59.9502 326.97 64.2102 320.1 69.5902C312.62 75.4402 308.11 84.2502 307.71 93.7502C307.3 103.45 311.17 112.82 318.32 119.47Z"
    fill="#8061ff"/>
</svg>
