<svg width="56" height="56" viewBox="0 0 56 56" fill="none" xmlns="http://www.w3.org/2000/svg">
<g clip-path="url(#clip0_245_585)">
<path d="M27.7 55.3C12.4 55.3 0 42.9 0 27.7V0H27.7C43 0 55.4 12.4 55.4 27.7C55.3 42.9 42.9 55.3 27.7 55.3Z" fill="#BE1622"/>
<path d="M37.3998 37.5004C36.6998 37.6004 35.9998 37.6004 35.2998 37.7004H35.1998C34.4998 37.7004 33.8998 37.7004 33.1998 37.8004C29.9998 37.9004 26.6998 37.8004 23.4998 37.8004C22.4998 37.8004 21.4998 37.7004 20.4998 37.7004C19.5998 37.7004 18.7998 37.6004 17.8998 37.5004C17.2998 37.5004 16.6998 37.4004 16.0998 37.3004C15.4998 37.2004 14.9998 37.2004 14.4998 37.0004C13.3998 36.6004 12.6998 35.8004 12.1998 34.8004C11.8998 34.1004 11.7998 33.4004 11.6998 32.7004C11.5998 32.0004 11.4998 31.3004 11.3998 30.5004C11.3998 30.2004 11.3998 30.0004 11.3998 29.7004C11.2998 27.9004 11.2998 26.2004 11.2998 24.4004C11.2998 23.6004 11.3998 22.8004 11.4998 22.0004C11.5998 20.9004 11.6998 19.7004 11.9998 18.6004C12.2998 17.6004 12.8998 16.9004 13.6998 16.3004C14.2998 15.9004 14.8998 15.8004 15.5998 15.7004C16.3998 15.6004 17.1998 15.5004 17.9998 15.4004C18.8998 15.3004 19.6998 15.3004 20.5998 15.2004C21.3998 15.2004 22.2998 15.1004 23.0998 15.1004C23.2998 15.1004 23.4998 15.1004 23.6998 15.1004C25.8998 15.0004 28.1998 15.0004 30.3998 15.1004C30.9998 15.1004 31.6998 15.1004 32.2998 15.1004C33.1998 15.1004 33.9998 15.2004 34.8998 15.2004C35.7998 15.2004 36.5998 15.3004 37.4998 15.4004C38.2998 15.5004 39.0998 15.5004 39.8998 15.7004C41.5998 16.1004 42.7998 17.4004 43.0998 19.0004C43.2998 19.8004 43.3998 20.6004 43.4998 21.4004C43.5998 21.9004 43.5998 22.5004 43.5998 23.0004C43.6998 24.4004 43.7998 25.7004 43.6998 27.1004C43.6998 27.9004 43.6998 28.6004 43.5998 29.4004C43.5998 30.2004 43.4998 30.9004 43.3998 31.7004C43.2998 32.7004 43.1998 33.7004 42.8998 34.6004C42.3998 36.1004 41.1998 36.9004 39.6998 37.2004C38.9998 37.3004 38.2998 37.4004 37.6998 37.5004C37.6998 37.5004 37.5998 37.5004 37.3998 37.5004ZM24.4998 21.6004C24.4998 24.9004 24.4998 28.1004 24.4998 31.3004C27.2998 29.7004 30.0998 28.1004 32.8998 26.5004C30.0998 24.8004 27.3998 23.2004 24.4998 21.6004Z" fill="white"/>
</g>
<defs>
<clipPath id="clip0_245_585">
<rect width="55.3" height="55.3" fill="white"/>
</clipPath>
</defs>
</svg>
