<svg width="56" height="56" viewBox="0 0 56 56" fill="none" xmlns="http://www.w3.org/2000/svg">
<g clip-path="url(#clip0_245_578)">
<path d="M27.7 55.3C12.4 55.3 0 42.9 0 27.7V0H27.7C43 0 55.4 12.4 55.4 27.7C55.3 42.9 42.9 55.3 27.7 55.3Z" fill="#E71D73"/>
<path d="M43.1996 26.7004C43.1996 29.3004 43.1996 32.0004 43.1996 34.6004C43.1996 39.2004 39.8996 42.5004 35.2996 42.5004C30.1996 42.5004 25.0996 42.5004 19.9996 42.5004C15.4996 42.5004 12.0996 39.1004 12.0996 34.6004C12.0996 29.3004 12.0996 24.0004 12.0996 18.8004C12.0996 14.3004 15.4996 10.9004 19.9996 10.9004C25.0996 10.9004 30.1996 10.9004 35.2996 10.9004C39.7996 10.9004 43.1996 14.3004 43.1996 18.8004C43.1996 21.4004 43.1996 24.0004 43.1996 26.7004ZM40.7996 26.7004C40.7996 24.4004 40.7996 22.2004 40.7996 19.9004C40.7996 16.1004 37.8996 13.3004 34.1996 13.3004C29.8996 13.3004 25.5996 13.3004 21.2996 13.3004C17.4996 13.3004 14.5996 16.1004 14.5996 20.0004C14.5996 24.5004 14.5996 28.9004 14.5996 33.4004C14.5996 37.2004 17.4996 40.1004 21.2996 40.1004C25.5996 40.1004 29.7996 40.1004 34.0996 40.1004C38.0996 40.1004 40.8996 37.3004 40.8996 33.3004C40.7996 31.1004 40.7996 28.9004 40.7996 26.7004Z" fill="white"/>
<path d="M35.5996 26.6002C35.5996 31.0002 32.0996 34.6002 27.5996 34.6002C23.1996 34.6002 19.6996 31.0002 19.5996 26.7002C19.5996 22.3002 23.1996 18.7002 27.5996 18.7002C31.9996 18.7002 35.5996 22.3002 35.5996 26.6002ZM33.4996 26.6002C33.4996 23.3002 30.7996 20.6002 27.5996 20.6002C24.3996 20.6002 21.6996 23.4002 21.7996 26.7002C21.7996 30.0002 24.4996 32.7002 27.6996 32.7002C30.8996 32.7002 33.4996 30.0002 33.4996 26.6002Z" fill="white"/>
<path d="M38.3 18.4004C38.3 19.7004 37.2 20.7004 35.9 20.7004C34.6 20.7004 33.5 19.6004 33.5 18.3004C33.5 17.0004 34.6 15.9004 35.9 15.9004C37.2 16.0004 38.3 17.1004 38.3 18.4004Z" fill="white"/>
</g>
<defs>
<clipPath id="clip0_245_578">
<rect width="55.3" height="55.3" fill="white"/>
</clipPath>
</defs>
</svg>
