<svg width="56" height="56" viewBox="0 0 56 56" fill="none" xmlns="http://www.w3.org/2000/svg">
<g clip-path="url(#clip0_245_571)">
<path d="M27.7 55.3C12.4 55.3 0 42.9 0 27.7V0H27.7C43 0 55.4 12.4 55.4 27.7C55.3 42.9 42.9 55.3 27.7 55.3Z" fill="#2D2E83"/>
<path d="M29.2998 22.1005C29.7998 21.6005 30.0998 21.1005 30.5998 20.7005C31.2998 20.1005 32.1998 19.7005 33.0998 19.6005C34.3998 19.4005 35.6998 19.5005 36.9998 20.0005C38.6998 20.7005 39.7998 22.0005 40.2998 23.8005C40.5998 24.8005 40.7998 25.8005 40.7998 26.8005C40.7998 29.9005 40.7998 33.1005 40.7998 36.2005C40.7998 36.5005 40.6998 36.7005 40.3998 36.7005C38.7998 36.7005 37.2998 36.7005 35.6998 36.7005C35.2998 36.7005 35.2998 36.6005 35.2998 36.2005C35.2998 33.4005 35.2998 30.6005 35.2998 27.8005C35.2998 26.9005 35.1998 26.1005 34.7998 25.3005C34.0998 23.6005 31.5998 23.6005 30.5998 24.6005C29.7998 25.3005 29.3998 26.1005 29.3998 27.2005C29.3998 30.2005 29.3998 33.2005 29.3998 36.2005C29.3998 36.6005 29.2998 36.7005 28.8998 36.7005C27.2998 36.7005 25.7998 36.7005 24.1998 36.7005C23.8998 36.7005 23.7998 36.6005 23.7998 36.3005C23.7998 31.0005 23.7998 25.6005 23.7998 20.3005C23.7998 20.0005 23.8998 19.9005 24.1998 19.9005C25.7998 19.9005 27.3998 19.9005 29.0998 19.9005C29.3998 19.9005 29.4998 20.0005 29.4998 20.2005C29.1998 20.8005 29.2998 21.4005 29.2998 22.1005Z" fill="white"/>
<path d="M15 28.2004C15 25.6004 15 22.9004 15 20.3004C15 20.0004 15 19.9004 15.4 19.9004C17 19.9004 18.6 19.9004 20.2 19.9004C20.5 19.9004 20.6 20.0004 20.6 20.3004C20.6 25.6004 20.6 31.0004 20.6 36.3004C20.6 36.6004 20.5 36.7004 20.2 36.7004C18.6 36.7004 17.1 36.7004 15.5 36.7004C15.1 36.7004 15 36.6004 15 36.2004C15 33.5004 15 30.8004 15 28.2004Z" fill="white"/>
<path d="M20.8997 14.7004C20.9997 16.2004 19.6997 17.3004 18.2997 17.5004C17.1997 17.7004 16.2997 17.4004 15.4997 16.6004C14.5997 15.7004 14.3997 14.6004 14.8997 13.5004C15.2997 12.5004 16.0997 11.9004 17.2997 11.7004C17.9997 11.6004 18.5997 11.7004 19.1997 11.9004C20.1997 12.4004 20.9997 13.5004 20.8997 14.7004Z" fill="white"/>
</g>
<defs>
<clipPath id="clip0_245_571">
<rect width="55.3" height="55.3" fill="white"/>
</clipPath>
</defs>
</svg>
