<svg width="56" height="56" viewBox="0 0 56 56" fill="none" xmlns="http://www.w3.org/2000/svg">
<g clip-path="url(#clip0_245_8)">
<path d="M27.7 55.3C12.4 55.3 0 42.9 0 27.7V0H27.7C43 0 55.4 12.4 55.4 27.7C55.3 42.9 42.9 55.3 27.7 55.3Z" fill="#009FE3"/>
<path d="M35.1002 9.8002C35.5002 10.0002 35.7002 10.3002 35.7002 10.7002C35.7002 12.3002 35.7002 13.9002 35.7002 15.4002C35.7002 16.1002 35.5002 16.3002 34.8002 16.3002C33.7002 16.3002 32.6002 16.3002 31.4002 16.4002C30.8002 16.4002 30.2002 16.6002 29.9002 17.2002C29.8002 17.5002 29.7002 17.8002 29.6002 18.1002C29.6002 19.3002 29.6002 20.6002 29.6002 21.9002C29.7002 21.9002 29.8002 21.9002 29.9002 21.9002C31.4002 21.9002 32.9002 21.9002 34.4002 21.9002C35.1002 21.9002 35.3002 22.1002 35.3002 22.8002C35.3002 24.5002 35.3002 26.2002 35.3002 27.9002C35.3002 28.5002 35.1002 28.8002 34.4002 28.8002C32.9002 28.8002 31.4002 28.8002 29.9002 28.8002C29.8002 28.8002 29.7002 28.8002 29.5002 28.8002C29.5002 29.0002 29.5002 29.1002 29.5002 29.2002C29.5002 33.6002 29.5002 38.0002 29.5002 42.5002C29.5002 43.3002 29.3002 43.5002 28.5002 43.5002C26.8002 43.5002 25.0002 43.5002 23.3002 43.5002C22.6002 43.5002 22.4002 43.3002 22.4002 42.6002C22.4002 38.2002 22.4002 33.7002 22.4002 29.3002C22.4002 29.2002 22.4002 29.0002 22.4002 28.9002C22.3002 28.9002 22.1002 28.9002 22.0002 28.9002C20.7002 28.9002 19.4002 28.9002 18.1002 28.9002C17.5002 28.9002 17.2002 28.7002 17.2002 28.0002C17.2002 26.3002 17.2002 24.5002 17.2002 22.8002C17.2002 22.2002 17.5002 21.9002 18.1002 21.9002C19.4002 21.9002 20.6002 21.9002 21.9002 21.9002C22.0002 21.9002 22.1002 21.9002 22.3002 21.9002C22.3002 21.8002 22.3002 21.6002 22.3002 21.5002C22.3002 20.1002 22.3002 18.8002 22.3002 17.4002C22.4002 15.5002 23.0002 13.7002 24.3002 12.2002C25.4002 11.0002 26.8002 10.3002 28.4002 9.9002C28.8002 9.8002 29.2002 9.8002 29.6002 9.7002C31.6002 9.8002 33.3002 9.8002 35.1002 9.8002Z" fill="white"/>
</g>
<defs>
<clipPath id="clip0_245_8">
<rect width="55.3" height="55.3" fill="white"/>
</clipPath>
</defs>
</svg>
