<svg width="360" height="190" viewBox="0 0 360 190" fill="none" xmlns="http://www.w3.org/2000/svg">
  <g clip-path="url(#clip0_306_851)">
    <rect width="360.299" height="195.794" fill="#FFFFAA" />
    <g opacity="0.05">
      <path
        d="M-5.30228 15.3699C1.16717 15.3699 5.14837 11.8735 5.14837 5.97975V0.685323C5.14837 -5.20847 1.16717 -8.80469 -5.30228 -8.80469C-11.7717 -8.80469 -15.7529 -5.20847 -15.7529 0.685323V5.97975C-15.7529 11.8735 -11.7717 15.3699 -5.30228 15.3699ZM-8.88536 0.785219C-8.88536 -1.41247 -7.59147 -2.7111 -5.30228 -2.7111C-3.01309 -2.7111 -1.7192 -1.41247 -1.7192 0.785219V6.07964C-1.7192 8.27733 -3.01309 9.47607 -5.30228 9.47607C-7.59147 9.47607 -8.88536 8.27733 -8.88536 6.07964V0.785219Z"
        fill="#1D1D1B" />
      <path
        d="M20.7746 0.885113C14.8028 0.885113 11.2197 3.1827 11.2197 7.77786C11.2197 12.9724 15.2009 15.3699 21.5708 15.3699C24.5567 15.3699 31.3248 13.6717 31.3248 6.07964V1.0849C31.3248 -5.60805 27.7417 -8.80469 21.6704 -8.80469C17.8882 -8.80469 14.7033 -7.70584 12.6131 -6.40721C12.3146 -6.20742 12.3146 -5.90774 12.5136 -5.40826L13.3099 -3.90984C14.3052 -1.51236 16.8929 -2.31152 17.7887 -2.51131C18.784 -2.7111 19.8788 -2.91089 20.8741 -2.91089C23.7605 -2.91089 24.5567 -1.61226 24.5567 0.685323V1.0849C23.4619 1.0849 22.168 0.885113 20.7746 0.885113ZM24.5567 6.8788C24.5567 8.57702 23.2629 9.87565 21.5708 9.87565C19.4807 9.87565 18.0873 9.07649 18.0873 7.57807C18.0873 6.17954 19.1821 5.38038 21.5708 5.38038C22.5661 5.38038 23.7605 5.48028 24.6563 5.68007V6.8788H24.5567Z"
        fill="#1D1D1B" />
      <path
        d="M43.8658 15.3702C46.9512 15.3702 49.4394 14.571 51.6291 12.9727C52.0272 12.673 52.0272 12.2734 51.7286 11.8738L50.4347 9.87593C49.3399 8.07783 45.5578 9.37646 44.0648 9.37646C41.7756 9.37646 40.2827 8.17772 40.2827 5.68035V0.685609C40.2827 -1.61197 41.7756 -2.91061 44.1644 -2.91061C45.4582 -2.91061 48.3446 -1.41218 50.1362 -3.90955L51.3305 -5.70766C51.6291 -6.10724 51.5296 -6.50682 51.1315 -6.8065C48.8423 -8.20503 46.4535 -8.9043 43.8658 -8.9043C37.2968 -8.9043 33.5146 -5.20819 33.5146 0.585714V5.58046C33.5146 11.674 37.2968 15.3702 43.8658 15.3702Z"
        fill="#1D1D1B" />
      <path
        d="M61.7805 15.3701C62.0791 15.3701 62.2782 15.2702 62.4773 15.1703C63.0744 14.7708 62.9749 13.8717 62.3777 13.4721C59.8895 11.5741 59.989 8.07781 59.989 6.07992V-1.91167H61.482C65.3636 -2.11146 64.7664 -6.90641 64.7664 -6.90641C64.7664 -7.30599 64.3683 -7.70557 63.9702 -7.70557H59.989L60.0885 -12.3007C60.0885 -12.8002 59.7899 -13 59.2923 -13C59.2923 -13 54.0172 -12.3007 53.3205 -7.1062V6.87907C53.221 12.5731 56.605 15.3701 61.7805 15.3701Z"
        fill="#1D1D1B" />
      <path
        d="M76.2133 15.3699C82.6828 15.3699 86.664 11.8735 86.664 5.97975V0.685323C86.664 -5.20847 82.6828 -8.80469 76.2133 -8.80469C69.7439 -8.80469 65.7627 -5.20847 65.7627 0.685323V5.97975C65.7627 11.8735 69.7439 15.3699 76.2133 15.3699ZM72.6303 0.785219C72.6303 -1.41247 73.9242 -2.7111 76.2133 -2.7111C78.5025 -2.7111 79.7964 -1.41247 79.7964 0.785219V6.07964C79.7964 8.27733 78.5025 9.47607 76.2133 9.47607C73.9242 9.47607 72.6303 8.27733 72.6303 6.07964V0.785219Z"
        fill="#1D1D1B" />
      <path
        d="M103.285 0.885113C97.3135 0.885113 93.7305 3.1827 93.7305 7.77786C93.7305 12.9724 97.7117 15.3699 104.082 15.3699C107.067 15.3699 113.836 13.6717 113.836 6.07964V1.0849C113.836 -5.60805 110.252 -8.80469 104.181 -8.80469C100.399 -8.80469 97.214 -7.70584 95.1239 -6.40721C94.8253 -6.20742 94.8253 -5.90774 95.0244 -5.40826L95.8206 -3.90984C96.8159 -1.51236 99.4037 -2.31152 100.299 -2.51131C101.295 -2.7111 102.39 -2.91089 103.385 -2.91089C106.271 -2.91089 107.067 -1.61226 107.067 0.685323V1.0849C105.973 0.985008 104.679 0.885113 103.285 0.885113ZM107.067 6.8788C107.067 8.57702 105.774 9.87565 104.082 9.87565C101.991 9.87565 100.598 9.07649 100.598 7.57807C100.598 6.17954 101.693 5.38038 104.082 5.38038C105.077 5.38038 106.271 5.48028 107.167 5.68007V6.8788H107.067Z"
        fill="#1D1D1B" />
      <path
        d="M132.945 9.87593C131.949 8.07783 128.167 9.37646 126.674 9.37646C124.385 9.37646 122.892 8.17772 122.892 5.68035V0.685609C122.892 -1.61197 124.385 -2.91061 126.774 -2.91061C128.068 -2.91061 130.954 -1.41218 132.746 -3.90955L133.94 -5.70766C134.238 -6.10724 134.139 -6.50682 133.741 -6.8065C131.452 -8.20503 129.063 -8.9043 126.475 -8.9043C119.906 -8.9043 116.124 -5.20819 116.124 0.585714V5.58046C116.124 11.4743 119.906 15.1704 126.575 15.1704C129.66 15.1704 132.148 14.3712 134.338 12.7729C134.736 12.4732 134.736 12.0736 134.438 11.674L132.945 9.87593Z"
        fill="#1D1D1B" />
      <path
        d="M144.291 15.3701C144.59 15.3701 144.789 15.2702 144.988 15.1703C145.585 14.7708 145.486 13.8717 144.888 13.4721C142.4 11.5741 142.5 8.07781 142.5 6.07992V-1.91167H143.993C147.874 -2.11146 147.277 -6.90641 147.277 -6.90641C147.277 -7.30599 146.879 -7.70557 146.481 -7.70557H142.5L142.599 -12.3007C142.599 -12.8002 142.301 -13 141.803 -13C141.803 -13 136.528 -12.3007 135.831 -7.1062V6.87907C135.732 12.5731 139.116 15.3701 144.291 15.3701Z"
        fill="#1D1D1B" />
      <path
        d="M158.723 15.3699C165.193 15.3699 169.174 11.8735 169.174 5.97975V0.685323C169.174 -5.20847 165.193 -8.80469 158.723 -8.80469C152.254 -8.80469 148.272 -5.20847 148.272 0.685323V5.97975C148.272 11.8735 152.254 15.3699 158.723 15.3699ZM155.14 0.685323C155.14 -1.51236 156.434 -2.811 158.723 -2.811C161.012 -2.811 162.306 -1.51236 162.306 0.685323V5.97975C162.306 8.17744 161.012 9.37618 158.723 9.37618C156.434 9.37618 155.14 8.17744 155.14 5.97975V0.685323Z"
        fill="#1D1D1B" />
      <path
        d="M-0.326172 33.1517V38.1465C-0.326172 44.0403 3.45597 47.7364 10.1245 47.7364C13.2099 47.7364 15.6982 46.9372 17.8878 45.3389C18.2859 45.0392 18.2859 44.6396 17.9873 44.24L16.6935 42.2421C15.5986 40.444 11.8165 41.7427 10.3235 41.7427C8.03435 41.7427 6.5414 40.5439 6.5414 38.0466V33.0518C6.5414 30.7542 8.03435 29.4556 10.4231 29.4556C11.717 29.4556 14.6033 30.954 16.3949 28.4567L17.5892 26.6585C17.8878 26.259 17.7883 25.8594 17.3902 25.5597C15.101 24.1612 12.7123 23.4619 10.1245 23.4619C3.45597 23.6617 -0.326172 27.3578 -0.326172 33.1517Z"
        fill="#1D1D1B" />
      <path
        d="M25.3527 19.4658C25.3527 19.4658 20.0776 20.1651 19.3809 25.3596V39.3449C19.3809 45.0389 22.7649 47.7361 27.9404 47.7361C28.239 47.7361 28.4381 47.6362 28.6371 47.5363C29.2343 47.1367 29.1348 46.2376 28.5376 45.8381C26.0494 43.9401 26.1489 40.4437 26.1489 38.4458V30.4543H27.6418C31.5235 30.2545 30.9263 25.4595 30.9263 25.4595C30.9263 25.0599 30.5282 24.6604 30.1301 24.6604H26.1489L26.2484 20.0652C26.0494 19.7655 25.8503 19.4658 25.3527 19.4658Z"
        fill="#1D1D1B" />
      <path
        d="M42.3725 47.8357C48.842 47.8357 52.8232 44.3394 52.8232 38.4456V33.1511C52.8232 27.2573 48.842 23.6611 42.3725 23.6611C35.9031 23.6611 31.9219 27.2573 31.9219 33.1511V38.4456C31.9219 44.2395 35.9031 47.8357 42.3725 47.8357ZM38.7894 33.1511C38.7894 30.9535 40.0833 29.6548 42.3725 29.6548C44.6617 29.6548 45.9556 30.9535 45.9556 33.1511V38.4456C45.9556 40.6433 44.6617 41.842 42.3725 41.842C40.0833 41.842 38.7894 40.6433 38.7894 38.4456V33.1511Z"
        fill="#1D1D1B" />
      <path
        d="M68.4494 33.3509C62.4776 33.3509 58.8945 35.6485 58.8945 40.2437C58.8945 45.4382 62.8757 47.8357 69.2457 47.8357C72.2316 47.8357 78.9996 46.1375 78.9996 38.5455V33.5507C78.9996 26.8578 75.4165 23.6611 69.3452 23.6611C65.563 23.6611 62.3781 24.76 60.288 26.0586C59.9894 26.2584 59.9894 26.5581 60.1884 27.0576L60.9847 28.556C61.98 30.9535 64.5677 30.1543 65.4635 29.9545C66.4588 29.7547 67.5536 29.5549 68.5489 29.5549C71.4353 29.5549 72.2316 30.8536 72.2316 33.1511V33.5507C71.0372 33.4508 69.8428 33.3509 68.4494 33.3509ZM72.132 39.3446C72.132 41.0428 70.8381 42.3415 69.1461 42.3415C67.056 42.3415 65.6626 41.5423 65.6626 40.0439C65.6626 38.6454 66.7574 37.8462 69.1461 37.8462C70.1414 37.8462 71.3358 37.9461 72.2316 38.1459V39.3446H72.132Z"
        fill="#1D1D1B" />
      <path
        d="M81.0898 33.1517V38.1465C81.0898 44.0403 84.872 47.7364 91.5405 47.7364C94.6259 47.7364 97.1142 46.9372 99.3038 45.3389C99.702 45.0392 99.702 44.6396 99.4034 44.24L98.1095 42.2421C97.0146 40.444 93.2325 41.7427 91.7396 41.7427C89.4504 41.7427 87.9574 40.5439 87.9574 38.0466V33.0518C87.9574 30.7542 89.4504 29.4556 91.8391 29.4556C93.133 29.4556 96.0193 30.954 97.8109 28.4567L99.0052 26.6585C99.3038 26.259 99.2043 25.8594 98.8062 25.5597C96.517 24.1612 94.1283 23.4619 91.5405 23.4619C84.9715 23.6617 81.0898 27.3578 81.0898 33.1517Z"
        fill="#1D1D1B" />
      <path
        d="M106.769 19.4658C106.769 19.4658 101.494 20.1651 100.797 25.3596V39.3449C100.797 45.0389 104.181 47.7361 109.356 47.7361C109.655 47.7361 109.854 47.6362 110.053 47.5363C110.65 47.1367 110.551 46.2376 109.954 45.8381C107.465 43.9401 107.565 40.4437 107.565 38.4458V30.4543H109.058C112.94 30.2545 112.342 25.4595 112.342 25.4595C112.342 25.0599 111.944 24.6604 111.546 24.6604H107.565L107.664 20.0652C107.565 19.6656 107.266 19.4658 106.769 19.4658Z"
        fill="#1D1D1B" />
      <path
        d="M123.888 47.8357C130.357 47.8357 134.339 44.3394 134.339 38.4456V33.1511C134.339 27.2573 130.357 23.6611 123.888 23.6611C117.419 23.6611 113.437 27.2573 113.437 33.1511V38.4456C113.338 44.2395 117.419 47.8357 123.888 47.8357ZM120.205 33.1511C120.205 30.9535 121.499 29.6548 123.788 29.6548C126.078 29.6548 127.372 30.9535 127.372 33.1511V38.4456C127.372 40.6433 126.078 41.842 123.788 41.842C121.499 41.842 120.205 40.6433 120.205 38.4456V33.1511Z"
        fill="#1D1D1B" />
      <path
        d="M150.96 33.2513C144.988 33.2513 141.405 35.5489 141.405 40.1441C141.405 45.3386 145.386 47.7361 151.756 47.7361C154.742 47.7361 161.51 46.0379 161.51 38.4459V33.4511C161.51 26.7582 157.927 23.5615 151.856 23.5615C148.074 23.5615 144.889 24.6604 142.799 25.959C142.5 26.1588 142.5 26.4585 142.699 26.9579L143.495 28.4564C144.491 30.8538 147.078 30.0547 147.974 29.8549C148.97 29.6551 150.064 29.4553 151.06 29.4553C153.946 29.4553 154.742 30.754 154.742 33.0515V33.4511C153.548 33.4511 152.354 33.2513 150.96 33.2513ZM154.643 39.245C154.643 40.9432 153.349 42.2419 151.657 42.2419C149.567 42.2419 148.173 41.4427 148.173 39.9443C148.173 38.5457 149.268 37.7466 151.657 37.7466C152.652 37.7466 153.847 37.8465 154.742 38.0463V39.245H154.643Z"
        fill="#1D1D1B" />
      <path
        d="M163.601 33.1517V38.1465C163.601 44.0403 167.383 47.7364 174.051 47.7364C177.137 47.7364 179.625 46.9372 181.815 45.3389C182.213 45.0392 182.213 44.6396 181.914 44.24L180.62 42.2421C179.525 40.444 175.743 41.7427 174.25 41.7427C171.961 41.7427 170.468 40.5439 170.468 38.0466V33.0518C170.468 30.7542 171.961 29.4556 174.35 29.4556C175.644 29.4556 178.53 30.954 180.322 28.4567L181.516 26.6585C181.815 26.259 181.715 25.8594 181.317 25.5597C179.028 24.1612 176.639 23.4619 174.051 23.4619C167.482 23.6617 163.601 27.3578 163.601 33.1517Z"
        fill="#1D1D1B" />
      <path
        d="M189.278 19.4658C189.278 19.4658 184.003 20.1651 183.307 25.3596V39.3449C183.307 45.0389 186.691 47.7361 191.866 47.7361C192.165 47.7361 192.364 47.6362 192.563 47.5363C193.16 47.1367 193.061 46.2376 192.463 45.8381C189.975 43.9401 190.075 40.4437 190.075 38.4458V30.4543H191.568C195.449 30.2545 194.852 25.4595 194.852 25.4595C194.852 25.0599 194.454 24.6604 194.056 24.6604H190.075L190.174 20.0652C190.075 19.6656 189.776 19.4658 189.278 19.4658Z"
        fill="#1D1D1B" />
      <path
        d="M206.398 47.7361C212.867 47.7361 216.848 44.2398 216.848 38.346V33.0515C216.848 27.1577 212.867 23.5615 206.398 23.5615C199.928 23.5615 195.947 27.1577 195.947 33.0515V38.346C195.848 44.2398 199.928 47.7361 206.398 47.7361ZM202.715 33.1514C202.715 30.9537 204.009 29.6551 206.298 29.6551C208.587 29.6551 209.881 30.9537 209.881 33.1514V38.4459C209.881 40.6435 208.587 41.8423 206.298 41.8423C204.009 41.8423 202.715 40.6435 202.715 38.4459V33.1514Z"
        fill="#1D1D1B" />
      <path
        d="M-5.40189 79.0027C1.06756 79.0027 5.04876 75.5064 5.04876 69.6126V64.3181C5.04876 58.4243 1.06756 54.8281 -5.40189 54.8281C-11.8713 54.8281 -15.8525 58.4243 -15.8525 64.3181V69.6126C-15.8525 75.5064 -11.8713 79.0027 -5.40189 79.0027ZM-8.98497 64.3181C-8.98497 62.1204 -7.69108 60.8218 -5.40189 60.8218C-3.1127 60.8218 -1.81881 62.1204 -1.81881 64.3181V69.6126C-1.81881 71.8102 -3.1127 73.009 -5.40189 73.009C-7.69108 73.009 -8.98497 71.8102 -8.98497 69.6126V64.3181Z"
        fill="#1D1D1B" />
      <path
        d="M31.1256 64.7177C31.1256 58.0248 27.5425 54.8281 21.4712 54.8281C17.689 54.8281 14.5041 55.927 12.4139 57.2256C12.1153 57.4254 12.1153 57.7251 12.3144 58.2246L13.1106 59.723C14.1059 62.1205 16.6937 61.3213 17.5895 61.1215C18.5848 60.9217 19.6796 60.7219 20.6749 60.7219C23.5613 60.7219 24.3575 62.0206 24.3575 64.3181V64.7177C23.2627 64.6178 21.9688 64.418 20.5754 64.418C14.6036 64.418 11.0205 66.7156 11.0205 71.3108C11.0205 76.5053 15.0017 78.9028 21.3716 78.9028C24.3575 78.9028 31.1256 77.2046 31.1256 69.6126V64.7177ZM24.4571 70.5116C24.4571 72.2098 23.1632 73.5085 21.4712 73.5085C19.381 73.5085 17.9876 72.7093 17.9876 71.2109C17.9876 69.8124 19.0824 69.0132 21.4712 69.0132C22.4665 69.0132 23.6608 69.1131 24.5566 69.3129V70.5116H24.4571Z"
        fill="#1D1D1B" />
      <path
        d="M44.0647 60.8218C45.3586 60.8218 48.245 62.3202 50.0365 59.8229L51.2309 58.0248C51.5295 57.6252 51.43 57.2256 51.0318 56.9259C48.7427 55.5274 46.3539 54.8281 43.7662 54.8281C37.1972 54.8281 33.415 58.5242 33.415 64.3181V69.3129C33.415 75.2067 37.1972 78.9028 43.8657 78.9028C46.9511 78.9028 49.4394 78.1036 51.629 76.5053C52.0271 76.2056 52.0271 75.806 51.7286 75.4065L50.4347 73.4086C49.3398 71.6105 45.5577 72.9091 44.0647 72.9091C41.7756 72.9091 40.2826 71.7104 40.2826 69.213V64.2182C40.1831 62.1205 41.676 60.8218 44.0647 60.8218Z"
        fill="#1D1D1B" />
      <path
        d="M61.6819 79.0029C61.9805 79.0029 62.1796 78.9031 62.3786 78.8032C62.9758 78.4036 62.8763 77.5045 62.2791 77.105C59.7908 75.2069 59.8904 71.7106 59.8904 69.7127V61.7211H61.3833C65.265 61.5214 64.6678 56.7264 64.6678 56.7264C64.6678 56.3268 64.2697 55.9272 63.8716 55.9272H59.8904L59.9899 51.3321C59.9899 50.8326 59.6913 50.6328 59.1937 50.6328C59.1937 50.6328 53.9186 51.3321 53.2219 56.5266V70.5119C53.1223 76.2059 56.5064 79.0029 61.6819 79.0029Z"
        fill="#1D1D1B" />
      <path
        d="M76.1137 79.0027C82.5832 79.0027 86.5644 75.5064 86.5644 69.6126V64.3181C86.5644 58.4243 82.5832 54.8281 76.1137 54.8281C69.6443 54.8281 65.6631 58.4243 65.6631 64.3181V69.6126C65.6631 75.5064 69.6443 79.0027 76.1137 79.0027ZM72.5307 64.3181C72.5307 62.1204 73.8245 60.8218 76.1137 60.8218C78.4029 60.8218 79.6968 62.1204 79.6968 64.3181V69.6126C79.6968 71.8102 78.4029 73.009 76.1137 73.009C73.8245 73.009 72.5307 71.8102 72.5307 69.6126V64.3181Z"
        fill="#1D1D1B" />
      <path
        d="M113.636 64.7177C113.636 58.0248 110.053 54.8281 103.982 54.8281C100.2 54.8281 97.0148 55.927 94.9247 57.2256C94.6261 57.4254 94.6261 57.7251 94.8251 58.2246L95.6214 59.723C96.6167 62.1205 99.2045 61.3213 100.1 61.1215C101.096 60.9217 102.19 60.7219 103.186 60.7219C106.072 60.7219 106.868 62.0206 106.868 64.3181V64.7177C105.773 64.6178 104.48 64.418 103.086 64.418C97.1143 64.418 93.5312 66.7156 93.5312 71.3108C93.5312 76.5053 97.5125 78.9028 103.882 78.9028C106.868 78.9028 113.636 77.2046 113.636 69.6126V64.7177ZM106.968 70.5116C106.968 72.2098 105.674 73.5085 103.982 73.5085C101.892 73.5085 100.498 72.7093 100.498 71.2109C100.498 69.8124 101.593 69.0132 103.982 69.0132C104.977 69.0132 106.172 69.1131 107.067 69.3129V70.5116H106.968Z"
        fill="#1D1D1B" />
      <path
        d="M132.846 73.5087C131.751 71.7106 127.969 73.0093 126.476 73.0093C124.187 73.0093 122.694 71.8105 122.694 69.3132V64.3184C122.694 62.0208 124.187 60.7222 126.575 60.7222C127.869 60.7222 130.756 62.2206 132.547 59.7233L133.742 57.9251C134.04 57.5256 133.941 57.126 133.543 56.8263C131.253 55.4278 128.865 54.7285 126.277 54.7285C119.708 54.7285 115.926 58.4246 115.926 64.2185V69.2133C115.926 75.1071 119.708 78.8032 126.376 78.8032C129.462 78.8032 131.95 78.004 134.14 76.4057C134.538 76.106 134.538 75.7064 134.239 75.3069L132.846 73.5087Z"
        fill="#1D1D1B" />
      <path
        d="M144.192 78.9033C144.49 78.9033 144.689 78.8034 144.888 78.7036C145.486 78.304 145.386 77.4049 144.789 77.0053C142.301 75.1073 142.4 71.611 142.4 69.6131V61.6215H143.893C147.775 61.4217 147.178 56.6268 147.178 56.6268C147.178 56.2272 146.779 55.8276 146.381 55.8276H142.4L142.5 51.2325C142.5 50.733 142.201 50.5332 141.703 50.5332C141.703 50.5332 136.428 51.2325 135.732 56.427V70.4123C135.632 76.2062 139.016 78.9033 144.192 78.9033Z"
        fill="#1D1D1B" />
      <path
        d="M158.624 79.0027C165.093 79.0027 169.074 75.5064 169.074 69.6126V64.3181C169.074 58.4243 165.093 54.8281 158.624 54.8281C152.154 54.8281 148.173 58.4243 148.173 64.3181V69.6126C148.173 75.4065 152.154 79.0027 158.624 79.0027ZM155.04 64.3181C155.04 62.1204 156.334 60.8218 158.624 60.8218C160.913 60.8218 162.207 62.1204 162.207 64.3181V69.6126C162.207 71.8102 160.913 73.009 158.624 73.009C156.334 73.009 155.04 71.8102 155.04 69.6126V64.3181Z"
        fill="#1D1D1B" />
      <path
        d="M17.8878 107.972L16.5939 105.975C15.4991 104.176 11.717 105.475 10.224 105.475C7.93482 105.475 6.44187 104.276 6.44187 101.779V96.7842C6.44187 94.4867 7.93482 93.188 10.3235 93.188C11.6174 93.188 14.5038 94.6864 16.2953 92.1891L17.4897 90.391C17.7883 89.9914 17.6888 89.5918 17.2906 89.2921C15.0014 87.8936 12.6127 87.1943 10.0249 87.1943C3.45597 87.1943 -0.326172 90.8904 -0.326172 96.6843V101.679C-0.326172 107.573 3.45597 111.269 10.1245 111.269C13.2099 111.269 15.6982 110.47 17.8878 108.872C18.0869 108.772 18.1864 108.372 17.8878 107.972Z"
        fill="#1D1D1B" />
      <path
        d="M26.0494 94.0874H27.5423C31.424 93.8876 30.8268 89.0926 30.8268 89.0926C30.8268 88.693 30.4287 88.2935 30.0306 88.2935H26.0494L26.1489 83.6983C26.1489 83.1988 25.8503 82.999 25.3527 82.999C25.3527 82.999 20.0776 83.6983 19.3809 88.8928V102.878C19.3809 108.572 22.7649 111.269 27.9404 111.269C28.239 111.269 28.4381 111.169 28.6371 111.069C29.2343 110.67 29.1348 109.771 28.5376 109.371C26.0494 107.473 26.1489 103.977 26.1489 101.979V94.0874H26.0494Z"
        fill="#1D1D1B" />
      <path
        d="M42.2729 111.469C48.7424 111.469 52.7236 107.973 52.7236 102.079V96.7849C52.7236 90.8911 48.7424 87.2949 42.2729 87.2949C35.8035 87.2949 31.8223 90.8911 31.8223 96.7849V102.079C31.8223 107.873 35.8035 111.469 42.2729 111.469ZM38.6898 96.7849C38.6898 94.5872 39.9837 93.2886 42.2729 93.2886C44.5621 93.2886 45.856 94.5872 45.856 96.7849V102.079C45.856 104.277 44.5621 105.476 42.2729 105.476C39.9837 105.476 38.6898 104.277 38.6898 102.079V96.7849Z"
        fill="#1D1D1B" />
      <path
        d="M68.3498 96.8841C62.378 96.8841 58.7949 99.1817 58.7949 103.777C58.7949 108.971 62.7761 111.369 69.146 111.369C72.1319 111.369 78.9 109.671 78.9 102.079V97.0839C78.9 90.391 75.3169 87.1943 69.2456 87.1943C65.4634 87.1943 62.2785 88.2932 60.1883 89.5918C59.8897 89.7916 59.8897 90.0913 60.0888 90.5908L60.8851 92.0892C61.8803 94.4867 64.4681 93.6875 65.3639 93.4877C66.3592 93.2879 67.454 93.0881 68.4493 93.0881C71.3357 93.0881 72.1319 94.3868 72.1319 96.6843V97.0839C70.9376 97.0839 69.7432 96.8841 68.3498 96.8841ZM72.0324 102.878C72.0324 104.576 70.7385 105.875 69.0465 105.875C66.9564 105.875 65.563 105.076 65.563 103.577C65.563 102.179 66.6578 101.379 69.0465 101.379C70.0418 101.379 71.2362 101.479 72.1319 101.679V102.878H72.0324Z"
        fill="#1D1D1B" />
      <path
        d="M91.7396 93.188C93.0334 93.188 95.9198 94.6864 97.7114 92.1891L98.9057 90.391C99.2043 89.9914 99.1048 89.5918 98.7066 89.2921C96.4175 87.8936 94.0287 87.1943 91.441 87.1943C84.872 87.1943 81.0898 90.8904 81.0898 96.6843V101.679C81.0898 107.573 84.872 111.269 91.5405 111.269C94.6259 111.269 97.1142 110.47 99.3038 108.872C99.702 108.572 99.702 108.172 99.4034 107.773L98.1095 105.775C97.0146 103.977 93.2325 105.275 91.7396 105.275C89.4504 105.275 87.9574 104.077 87.9574 101.579V96.5845C87.8579 94.5866 89.2513 93.188 91.7396 93.188Z"
        fill="#1D1D1B" />
      <path
        d="M106.669 83.0986C106.669 83.0986 101.394 83.7979 100.697 88.9924V102.978C100.697 108.672 104.081 111.369 109.257 111.369C109.555 111.369 109.754 111.269 109.954 111.169C110.551 110.77 110.451 109.87 109.854 109.471C107.366 107.573 107.465 104.077 107.465 102.079V94.0871H108.958C112.84 93.8873 112.243 89.0923 112.243 89.0923C112.243 88.6927 111.845 88.2932 111.447 88.2932H107.465L107.565 83.698C107.465 83.2984 107.167 83.0986 106.669 83.0986Z"
        fill="#1D1D1B" />
      <path
        d="M123.789 87.2949C117.319 87.2949 113.338 90.8911 113.338 96.7849V102.079C113.338 107.873 117.319 111.469 123.789 111.469C130.258 111.469 134.239 107.973 134.239 102.079V96.7849C134.239 90.7912 130.158 87.2949 123.789 87.2949ZM127.372 102.079C127.372 104.277 126.078 105.476 123.789 105.476C121.499 105.476 120.205 104.277 120.205 102.079V96.7849C120.205 94.5872 121.499 93.2886 123.789 93.2886C126.078 93.2886 127.372 94.5872 127.372 96.7849V102.079Z"
        fill="#1D1D1B" />
      <path
        d="M150.861 96.8841C144.889 96.8841 141.306 99.1817 141.306 103.777C141.306 108.971 145.287 111.369 151.657 111.369C154.643 111.369 161.411 109.671 161.411 102.079V97.0839C161.411 90.391 157.828 87.1943 151.756 87.1943C147.974 87.1943 144.789 88.2932 142.699 89.5918C142.401 89.7916 142.4 90.0913 142.6 90.5908L143.396 92.0892C144.391 94.4867 146.979 93.6875 147.875 93.4877C148.87 93.2879 149.965 93.0881 150.96 93.0881C153.846 93.0881 154.643 94.3868 154.643 96.6843V97.0839C153.448 97.0839 152.254 96.8841 150.861 96.8841ZM154.543 102.878C154.543 104.576 153.249 105.875 151.557 105.875C149.467 105.875 148.074 105.076 148.074 103.577C148.074 102.179 149.169 101.379 151.557 101.379C152.553 101.379 153.747 101.479 154.643 101.679V102.878H154.543Z"
        fill="#1D1D1B" />
      <path
        d="M174.25 93.188C175.544 93.188 178.431 94.6864 180.222 92.1891L181.416 90.391C181.715 89.9914 181.616 89.5918 181.217 89.2921C178.928 87.8936 176.539 87.1943 173.952 87.1943C167.383 87.1943 163.601 90.8904 163.601 96.6843V101.679C163.601 107.573 167.383 111.269 174.051 111.269C177.137 111.269 179.625 110.47 181.815 108.872C182.213 108.572 182.213 108.172 181.914 107.773L180.62 105.775C179.525 103.977 175.743 105.275 174.25 105.275C171.961 105.275 170.468 104.077 170.468 101.579V96.5845C170.369 94.4867 171.762 93.188 174.25 93.188Z"
        fill="#1D1D1B" />
      <path
        d="M189.18 83.0986C189.18 83.0986 183.905 83.7979 183.208 88.9924V102.978C183.208 108.672 186.592 111.369 191.768 111.369C192.066 111.369 192.265 111.269 192.464 111.169C193.061 110.77 192.962 109.87 192.365 109.471C189.877 107.573 189.976 104.077 189.976 102.079V94.0871H191.469C195.351 93.8873 194.753 89.0923 194.753 89.0923C194.753 88.6927 194.355 88.2932 193.957 88.2932H189.976L190.076 83.698C189.976 83.2984 189.677 83.0986 189.18 83.0986Z"
        fill="#1D1D1B" />
      <path
        d="M206.298 87.1943C199.829 87.1943 195.848 90.7906 195.848 96.6843V101.979C195.848 107.773 199.829 111.369 206.298 111.369C212.768 111.369 216.749 107.873 216.749 101.979V96.6843C216.649 90.7906 212.668 87.1943 206.298 87.1943ZM209.881 101.979C209.881 104.176 208.587 105.375 206.298 105.375C204.009 105.375 202.715 104.176 202.715 101.979V96.6843C202.715 94.4867 204.009 93.188 206.298 93.188C208.587 93.188 209.881 94.4867 209.881 96.6843V101.979Z"
        fill="#1D1D1B" />
      <path
        d="M-6.39701 142.736C0.0724417 142.736 4.05364 139.24 4.05364 133.346V128.052C4.05364 122.158 0.0724417 118.562 -6.39701 118.562C-12.8665 118.562 -16.8477 122.158 -16.8477 128.052V133.346C-16.8477 139.24 -12.8665 142.736 -6.39701 142.736ZM-9.98009 128.052C-9.98009 125.854 -8.6862 124.555 -6.39701 124.555C-4.10782 124.555 -2.81393 125.854 -2.81393 128.052V133.346C-2.81393 135.544 -4.10782 136.742 -6.39701 136.742C-8.6862 136.742 -9.98009 135.544 -9.98009 133.346V128.052Z"
        fill="#1D1D1B" />
      <path
        d="M20.476 118.562C16.6939 118.562 13.5089 119.66 11.4188 120.959C11.1202 121.159 11.1202 121.458 11.3193 121.958L12.1155 123.456C13.1108 125.854 15.6986 125.055 16.5944 124.855C17.5897 124.655 18.6845 124.455 19.6798 124.455C22.5662 124.455 23.3624 125.754 23.3624 128.052V128.451C22.2676 128.351 20.9737 128.151 19.5803 128.151C13.6085 128.151 10.0254 130.449 10.0254 135.044C10.0254 140.239 14.0066 142.636 20.3765 142.636C23.3624 142.636 30.1304 140.938 30.1304 133.346V128.351C30.1304 121.758 26.5474 118.562 20.476 118.562ZM23.4619 134.245C23.4619 135.943 22.168 137.242 20.476 137.242C18.3859 137.242 16.9925 136.443 16.9925 134.944C16.9925 133.546 18.0873 132.747 20.476 132.747C21.4713 132.747 22.6657 132.846 23.5615 133.046V134.245H23.4619Z"
        fill="#1D1D1B" />
      <path
        d="M43.0696 124.555C44.3635 124.555 47.2499 126.054 49.0414 123.556L50.2358 121.758C50.5344 121.359 50.4349 120.959 50.0367 120.659C47.7475 119.261 45.3588 118.562 42.771 118.562C36.2021 118.562 32.4199 122.258 32.4199 128.052V133.046C32.4199 138.94 36.2021 142.636 42.8706 142.636C45.956 142.636 48.4443 141.837 50.6339 140.239C51.032 139.939 51.032 139.539 50.7334 139.14L49.4396 137.142C48.3447 135.344 44.5626 136.642 43.0696 136.642C40.7804 136.642 39.2875 135.444 39.2875 132.946V127.952C39.188 125.854 40.6809 124.555 43.0696 124.555Z"
        fill="#1D1D1B" />
      <path
        d="M58.0988 114.466C58.0988 114.466 52.8237 115.165 52.127 120.36V134.345C52.127 140.039 55.511 142.736 60.6865 142.736C60.9851 142.736 61.1842 142.636 61.3832 142.536C61.9804 142.137 61.8809 141.238 61.2837 140.838C58.7955 138.94 58.895 135.444 58.895 133.446V125.454H60.3879C64.2696 125.254 63.6724 120.46 63.6724 120.46C63.6724 120.06 63.2743 119.66 62.8762 119.66H58.895L58.9945 115.065C58.7955 114.666 58.4969 114.466 58.0988 114.466Z"
        fill="#1D1D1B" />
      <path
        d="M75.1176 118.562C68.6482 118.562 64.667 122.158 64.667 128.052V133.346C64.667 139.14 68.6482 142.736 75.1176 142.736C81.5871 142.736 85.5683 139.24 85.5683 133.346V128.052C85.5683 122.158 81.4876 118.562 75.1176 118.562ZM78.7007 133.346C78.7007 135.544 77.4068 136.742 75.1176 136.742C72.8285 136.742 71.5346 135.544 71.5346 133.346V128.052C71.5346 125.854 72.8285 124.555 75.1176 124.555C77.4068 124.555 78.7007 125.854 78.7007 128.052V133.346Z"
        fill="#1D1D1B" />
      <path
        d="M102.987 118.562C99.2046 118.562 96.0197 119.66 93.9296 120.959C93.631 121.159 93.631 121.458 93.83 121.958L94.6263 123.456C95.6216 125.854 98.2093 125.055 99.1051 124.855C100.1 124.655 101.195 124.455 102.191 124.455C105.077 124.455 105.873 125.754 105.873 128.052V128.451C104.778 128.351 103.484 128.151 102.091 128.151C96.1192 128.151 92.5361 130.449 92.5361 135.044C92.5361 140.239 96.5173 142.636 102.887 142.636C105.873 142.636 112.641 140.938 112.641 133.346V128.351C112.641 121.758 109.058 118.562 102.987 118.562ZM105.973 134.245C105.973 135.943 104.679 137.242 102.987 137.242C100.897 137.242 99.5032 136.443 99.5032 134.944C99.5032 133.546 100.598 132.747 102.987 132.747C103.982 132.747 105.176 132.846 106.072 133.046V134.245H105.973Z"
        fill="#1D1D1B" />
      <path
        d="M131.85 137.242C130.755 135.444 126.973 136.743 125.48 136.743C123.191 136.743 121.698 135.544 121.698 133.047V128.052C121.698 125.754 123.191 124.456 125.579 124.456C126.873 124.456 129.76 125.954 131.551 123.457L132.746 121.659C133.044 121.259 132.945 120.859 132.546 120.56C130.257 119.161 127.869 118.462 125.281 118.462C118.712 118.462 114.93 122.158 114.93 127.952V132.947C114.93 138.84 118.712 142.537 125.38 142.537C128.466 142.537 130.954 141.737 133.144 140.139C133.542 139.839 133.542 139.44 133.243 139.04L131.85 137.242Z"
        fill="#1D1D1B" />
      <path
        d="M143.097 142.636C143.395 142.636 143.594 142.536 143.793 142.436C144.391 142.036 144.291 141.137 143.694 140.738C141.206 138.84 141.305 135.343 141.305 133.346V125.354H142.798C146.68 125.154 146.083 120.359 146.083 120.359C146.083 119.96 145.685 119.56 145.286 119.56H141.305L141.405 114.965C141.405 114.465 141.106 114.266 140.609 114.266C140.609 114.266 135.333 114.965 134.637 120.159V134.145C134.637 139.839 138.021 142.636 143.097 142.636Z"
        fill="#1D1D1B" />
      <path
        d="M157.628 142.736C164.098 142.736 168.079 139.24 168.079 133.346V128.052C168.079 122.158 164.098 118.562 157.628 118.562C151.159 118.562 147.178 122.158 147.178 128.052V133.346C147.178 139.14 151.159 142.736 157.628 142.736ZM154.045 128.052C154.045 125.854 155.339 124.555 157.628 124.555C159.918 124.555 161.211 125.854 161.211 128.052V133.346C161.211 135.544 159.918 136.742 157.628 136.742C155.339 136.742 154.045 135.544 154.045 133.346V128.052Z"
        fill="#1D1D1B" />
      <path
        d="M9.22881 156.921C10.5227 156.921 13.4091 158.42 15.2006 155.922L16.395 154.124C16.6936 153.725 16.594 153.325 16.1959 153.026C13.9067 151.627 11.518 150.928 8.93022 150.928C2.36124 150.928 -1.4209 154.624 -1.4209 160.418V165.412C-1.4209 171.306 2.36124 175.002 9.02975 175.002C12.1152 175.002 14.6034 174.203 16.7931 172.605C17.1912 172.305 17.1912 171.906 16.8926 171.506L15.5987 169.508C14.5039 167.71 10.7218 169.009 9.22881 169.009C6.93962 169.009 5.44667 167.81 5.44667 165.313V160.318C5.34714 158.32 6.84009 156.921 9.22881 156.921Z"
        fill="#1D1D1B" />
      <path
        d="M24.2579 146.832C24.2579 146.832 18.9828 147.531 18.2861 152.726V166.711C18.2861 172.405 21.6702 175.102 26.8457 175.102C27.1443 175.102 27.3434 175.002 27.5424 174.902C28.1396 174.503 28.0401 173.604 27.4429 173.204C24.9546 171.306 25.0542 167.81 25.0542 165.812V157.82H26.5471C30.4288 157.621 29.8316 152.826 29.8316 152.826C29.8316 152.426 29.4335 152.027 29.0354 152.027H25.0542L25.1537 147.431C24.9546 147.032 24.7556 146.832 24.2579 146.832Z"
        fill="#1D1D1B" />
      <path
        d="M41.2778 151.027C34.8083 151.027 30.8271 154.624 30.8271 160.517V165.812C30.8271 171.606 34.8083 175.202 41.2778 175.202C47.7472 175.202 51.7284 171.706 51.7284 165.812V160.517C51.7284 154.524 47.7472 151.027 41.2778 151.027ZM44.8609 165.812C44.8609 168.009 43.567 169.208 41.2778 169.208C38.9886 169.208 37.6947 168.009 37.6947 165.812V160.517C37.6947 158.32 38.9886 157.021 41.2778 157.021C43.567 157.021 44.8609 158.32 44.8609 160.517V165.812Z"
        fill="#1D1D1B" />
      <path
        d="M67.3547 160.618C61.3829 160.618 57.7998 162.915 57.7998 167.51C57.7998 172.705 61.781 175.102 68.1509 175.102C71.1368 175.102 77.9049 173.404 77.9049 165.812V160.817C77.9049 154.124 74.3218 150.928 68.2505 150.928C64.4683 150.928 61.2833 152.027 59.1932 153.325C58.8946 153.525 58.8946 153.825 59.0937 154.324L59.8899 155.823C60.8852 158.22 63.473 157.421 64.3688 157.221C65.3641 157.021 66.4589 156.822 67.4542 156.822C70.3406 156.822 71.1368 158.12 71.1368 160.418V160.817C69.9425 160.817 68.6486 160.618 67.3547 160.618ZM71.0373 166.611C71.0373 168.309 69.7434 169.608 68.0514 169.608C65.9613 169.608 64.5678 168.809 64.5678 167.31C64.5678 165.912 65.6627 165.113 68.0514 165.113C69.0467 165.113 70.241 165.213 71.1368 165.412V166.611H71.0373Z"
        fill="#1D1D1B" />
      <path
        d="M98.2092 172.704C98.6073 172.404 98.6073 172.005 98.3087 171.605L97.0148 169.607C95.92 167.809 92.1379 169.108 90.6449 169.108C88.3557 169.108 86.8628 167.909 86.8628 165.412V160.417C86.8628 158.119 88.3557 156.821 90.7444 156.821C92.0383 156.821 94.9247 158.319 96.7162 155.822L97.9106 154.024C98.2092 153.624 98.1097 153.225 97.7115 152.925C95.4223 151.526 93.0336 150.827 90.4458 150.827C83.8769 150.827 80.0947 154.523 80.0947 160.317V165.312C80.0947 171.206 83.8769 174.902 90.5454 174.902C93.4317 175.102 96.0195 174.302 98.2092 172.704Z"
        fill="#1D1D1B" />
      <path
        d="M105.674 146.832C105.674 146.832 100.399 147.531 99.7021 152.726V166.711C99.7021 172.405 103.086 175.102 108.262 175.102C108.56 175.102 108.759 175.002 108.958 174.902C109.556 174.503 109.456 173.604 108.859 173.204C106.371 171.306 106.47 167.81 106.47 165.812V157.82H107.963C111.845 157.621 111.248 152.826 111.248 152.826C111.248 152.426 110.85 152.027 110.451 152.027H106.47L106.57 147.431C106.47 147.032 106.172 146.832 105.674 146.832Z"
        fill="#1D1D1B" />
      <path
        d="M122.793 175.102C129.263 175.102 133.244 171.606 133.244 165.712V160.418C133.244 154.524 129.263 150.928 122.793 150.928C116.324 150.928 112.343 154.524 112.343 160.418V165.712C112.243 171.606 116.324 175.102 122.793 175.102ZM119.111 160.518C119.111 158.32 120.405 157.021 122.694 157.021C124.983 157.021 126.277 158.32 126.277 160.518V165.812C126.277 168.01 124.983 169.208 122.694 169.208C120.405 169.208 119.111 168.01 119.111 165.812V160.518Z"
        fill="#1D1D1B" />
      <path
        d="M149.865 160.618C143.894 160.618 140.311 162.915 140.311 167.51C140.311 172.705 144.292 175.102 150.662 175.102C153.648 175.102 160.416 173.404 160.416 165.812V160.817C160.416 154.124 156.833 150.928 150.761 150.928C146.979 150.928 143.794 152.027 141.704 153.325C141.405 153.525 141.405 153.825 141.604 154.324L142.401 155.823C143.396 158.22 145.984 157.421 146.88 157.221C147.875 157.021 148.97 156.822 149.965 156.822C152.851 156.822 153.648 158.12 153.648 160.418V160.817C152.453 160.717 151.159 160.618 149.865 160.618ZM153.548 166.611C153.548 168.309 152.254 169.608 150.562 169.608C148.472 169.608 147.079 168.809 147.079 167.31C147.079 165.912 148.173 165.113 150.562 165.113C151.557 165.113 152.752 165.213 153.648 165.412V166.611H153.548Z"
        fill="#1D1D1B" />
      <path
        d="M180.719 172.704C181.117 172.404 181.117 172.005 180.818 171.605L179.525 169.607C178.43 167.809 174.648 169.108 173.155 169.108C170.865 169.108 169.373 167.909 169.373 165.412V160.417C169.373 158.119 170.865 156.821 173.254 156.821C174.548 156.821 177.434 158.319 179.226 155.822L180.42 154.024C180.719 153.624 180.619 153.225 180.221 152.925C177.932 151.526 175.543 150.827 172.956 150.827C166.387 150.827 162.604 154.523 162.604 160.317V165.312C162.604 171.206 166.387 174.902 173.055 174.902C175.942 175.102 178.529 174.302 180.719 172.704Z"
        fill="#1D1D1B" />
      <path
        d="M188.184 146.832C188.184 146.832 182.909 147.531 182.212 152.726V166.711C182.212 172.405 185.596 175.102 190.771 175.102C191.07 175.102 191.269 175.002 191.468 174.902C192.065 174.503 191.966 173.604 191.369 173.204C188.88 171.306 188.98 167.81 188.98 165.812V157.82H190.473C194.355 157.621 193.757 152.826 193.757 152.826C193.757 152.426 193.359 152.027 192.961 152.027H188.98L189.079 147.431C188.98 147.032 188.681 146.832 188.184 146.832Z"
        fill="#1D1D1B" />
      <path
        d="M205.303 175.102C211.772 175.102 215.754 171.606 215.754 165.712V160.418C215.754 154.524 211.772 150.928 205.303 150.928C198.834 150.928 194.852 154.524 194.852 160.418V165.712C194.753 171.606 198.834 175.102 205.303 175.102ZM201.62 160.418C201.62 158.22 202.914 156.921 205.203 156.921C207.493 156.921 208.787 158.22 208.787 160.418V165.712C208.787 167.91 207.493 169.109 205.203 169.109C202.914 169.109 201.62 167.91 201.62 165.712V160.418Z"
        fill="#1D1D1B" />
      <path
        d="M-6.49662 206.369C-0.0271658 206.369 3.95403 202.873 3.95403 196.979V191.684C3.95403 185.791 -0.0271658 182.194 -6.49662 182.194C-12.9661 182.194 -16.9473 185.791 -16.9473 191.684V196.979C-16.9473 202.773 -12.9661 206.369 -6.49662 206.369ZM-10.0797 191.684C-10.0797 189.487 -8.78581 188.188 -6.49662 188.188C-4.20743 188.188 -2.91354 189.487 -2.91354 191.684V196.979C-2.91354 199.176 -4.20743 200.375 -6.49662 200.375C-8.78581 200.375 -10.0797 199.176 -10.0797 196.979V191.684Z"
        fill="#1D1D1B" />
      <path
        d="M20.3764 182.194C16.5943 182.194 13.4093 183.293 11.3192 184.592C11.0206 184.792 11.0206 185.091 11.2197 185.591L12.0159 187.089C13.0112 189.487 15.599 188.688 16.4948 188.488C17.4901 188.288 18.5849 188.088 19.5802 188.088C22.4666 188.088 23.2628 189.387 23.2628 191.684V192.084C22.168 191.984 20.8741 191.784 19.4807 191.784C13.5089 191.784 9.92578 194.082 9.92578 198.677C9.92578 203.872 13.907 206.269 20.2769 206.269C23.2628 206.269 30.0308 204.571 30.0308 196.979V191.984C30.0308 185.391 26.5473 182.194 20.3764 182.194ZM23.3623 197.878C23.3623 199.576 22.0684 200.875 20.3764 200.875C18.2863 200.875 16.8929 200.076 16.8929 198.577C16.8929 197.179 17.9877 196.379 20.3764 196.379C21.3717 196.379 22.5661 196.479 23.4619 196.679V197.878H23.3623Z"
        fill="#1D1D1B" />
      <path
        d="M42.97 188.188C44.2639 188.188 47.1503 189.686 48.9418 187.189L50.1362 185.391C50.4348 184.991 50.3352 184.592 49.9371 184.292C47.6479 182.894 45.2592 182.194 42.6714 182.194C36.1025 182.194 32.3203 185.89 32.3203 191.684V196.679C32.3203 202.573 36.1024 206.269 42.771 206.269C45.8564 206.269 48.3446 205.47 50.5343 203.872C50.9324 203.572 50.9324 203.172 50.6338 202.773L49.3399 200.775C48.2451 198.977 44.463 200.275 42.97 200.275C40.6808 200.275 39.1879 199.077 39.1879 196.579V191.584C39.0883 189.487 40.5813 188.188 42.97 188.188Z"
        fill="#1D1D1B" />
      <path
        d="M61.1841 206.07C61.7813 205.67 61.6818 204.771 61.0846 204.372C58.5963 202.474 58.6959 198.977 58.6959 196.979V188.988H60.1888C64.0705 188.788 63.4733 183.993 63.4733 183.993C63.4733 183.593 63.0752 183.194 62.6771 183.194H58.6959L58.7954 178.599C58.7954 178.099 58.4968 177.899 57.9991 177.899C57.9991 177.899 52.7241 178.599 52.0273 183.793V197.778C52.0273 203.473 55.4114 206.17 60.5869 206.17C60.786 206.27 60.985 206.17 61.1841 206.07Z"
        fill="#1D1D1B" />
      <path
        d="M75.019 206.369C81.4885 206.369 85.4697 202.873 85.4697 196.979V191.684C85.4697 185.791 81.4885 182.194 75.019 182.194C68.5496 182.194 64.5684 185.791 64.5684 191.684V196.979C64.5684 202.773 68.5496 206.369 75.019 206.369ZM71.4359 191.684C71.4359 189.487 72.7298 188.188 75.019 188.188C77.3082 188.188 78.6021 189.487 78.6021 191.684V196.979C78.6021 199.176 77.3082 200.375 75.019 200.375C72.7298 200.375 71.4359 199.176 71.4359 196.979V191.684Z"
        fill="#1D1D1B" />
      <path
        d="M102.091 191.884C96.1192 191.884 92.5361 194.182 92.5361 198.777C92.5361 203.971 96.5173 206.369 102.887 206.369C105.873 206.369 112.641 204.671 112.641 197.079V192.084C112.641 185.391 109.058 182.194 102.987 182.194C99.2046 182.194 96.0197 183.293 93.9296 184.592C93.631 184.792 93.631 185.091 93.83 185.591L94.6263 187.089C95.6216 189.487 98.2093 188.688 99.1051 188.488C100.1 188.288 101.195 188.088 102.191 188.088C105.077 188.088 105.873 189.387 105.873 191.684V192.084C104.778 191.984 103.484 191.884 102.091 191.884ZM105.873 197.778C105.873 199.476 104.579 200.775 102.887 200.775C100.797 200.775 99.4037 199.976 99.4037 198.477C99.4037 197.079 100.499 196.28 102.887 196.28C103.883 196.28 105.077 196.379 105.973 196.579V197.778H105.873Z"
        fill="#1D1D1B" />
      <path
        d="M131.75 200.875C130.655 199.077 126.873 200.375 125.38 200.375C123.091 200.375 121.598 199.177 121.598 196.679V191.685C121.598 189.387 123.091 188.088 125.48 188.088C126.774 188.088 129.66 189.587 131.452 187.089L132.646 185.291C132.945 184.892 132.845 184.492 132.447 184.193C130.158 182.794 127.769 182.095 125.181 182.095C118.612 182.095 114.83 185.791 114.83 191.585V196.579C114.83 202.473 118.612 206.169 125.281 206.169C128.366 206.169 130.854 205.37 133.044 203.772C133.442 203.472 133.442 203.073 133.144 202.673L131.75 200.875Z"
        fill="#1D1D1B" />
      <path
        d="M143.694 206.07C144.291 205.67 144.192 204.771 143.594 204.372C141.106 202.474 141.206 198.977 141.206 196.979V188.988H142.699C146.58 188.788 145.983 183.993 145.983 183.993C145.983 183.593 145.585 183.194 145.187 183.194H141.206L141.305 178.599C141.305 178.099 141.007 177.899 140.509 177.899C140.509 177.899 135.234 178.599 134.537 183.793V197.778C134.537 203.473 137.921 206.17 143.097 206.17C143.296 206.27 143.495 206.17 143.694 206.07Z"
        fill="#1D1D1B" />
      <path
        d="M157.529 206.369C163.998 206.369 167.979 202.873 167.979 196.979V191.684C167.979 185.791 163.998 182.194 157.529 182.194C151.059 182.194 147.078 185.791 147.078 191.684V196.979C147.078 202.773 151.059 206.369 157.529 206.369ZM153.946 191.684C153.946 189.487 155.24 188.188 157.529 188.188C159.818 188.188 161.112 189.487 161.112 191.684V196.979C161.112 199.176 159.818 200.375 157.529 200.375C155.24 200.375 153.946 199.176 153.946 196.979V191.684Z"
        fill="#1D1D1B" />
      <path
        d="M186.393 0.9857C180.421 0.9857 176.838 3.28328 176.838 7.87844C176.838 13.073 180.819 15.4705 187.189 15.4705C190.175 15.4705 196.943 13.7722 196.943 6.18023V1.18549C196.943 -5.50747 193.36 -8.7041 187.289 -8.7041C183.506 -8.7041 180.321 -7.60526 178.231 -6.30662C177.933 -6.10683 177.933 -5.80715 178.132 -5.30768L178.928 -3.80925C179.923 -1.41178 182.511 -2.21094 183.407 -2.41073C184.402 -2.61052 185.497 -2.8103 186.492 -2.8103C189.379 -2.8103 190.175 -1.51167 190.175 0.785909V1.18549C188.981 1.08559 187.786 0.9857 186.393 0.9857ZM190.175 6.97939C190.175 8.6776 188.881 9.97624 187.189 9.97624C185.099 9.97624 183.705 9.17708 183.705 7.67865C183.705 6.28013 184.8 5.48097 187.189 5.48097C188.184 5.48097 189.379 5.58086 190.274 5.78065V6.97939H190.175Z"
        fill="#1D1D1B" />
      <path
        d="M216.053 9.97554C214.958 8.17744 211.176 9.47607 209.683 9.47607C207.394 9.47607 205.901 8.27733 205.901 5.77996V0.785219C205.901 -1.51236 207.394 -2.811 209.783 -2.811C211.076 -2.811 213.963 -1.31257 215.754 -3.80994L216.949 -5.60805C217.247 -6.00763 217.148 -6.40721 216.75 -6.7069C214.46 -8.10542 212.072 -8.80469 209.484 -8.80469C202.915 -8.80469 199.133 -5.10858 199.133 0.685323V5.68007C199.133 11.5739 202.915 15.27 209.583 15.27C212.669 15.27 215.157 14.4708 217.347 12.8725C217.745 12.5728 217.745 12.1732 217.446 11.7737L216.053 9.97554Z"
        fill="#1D1D1B" />
      <path
        d="M227.3 15.3701C227.598 15.3701 227.798 15.2702 227.997 15.1703C228.594 14.7708 228.494 13.8717 227.897 13.4721C225.409 11.5741 225.508 8.07781 225.508 6.07992V-1.91167H227.001C230.883 -2.11146 230.286 -6.90641 230.286 -6.90641C230.286 -7.30599 229.888 -7.70557 229.49 -7.70557H225.508L225.608 -12.3007C225.608 -12.8002 225.309 -13 224.812 -13C224.812 -13 219.537 -12.3007 218.84 -7.1062V6.87907C218.84 12.673 222.224 15.3701 227.3 15.3701Z"
        fill="#1D1D1B" />
      <path
        d="M241.831 15.4705C248.3 15.4705 252.281 11.9741 252.281 6.08034V0.785909C252.281 -5.10789 248.3 -8.7041 241.831 -8.7041C235.361 -8.7041 231.38 -5.10789 231.38 0.785909V6.08034C231.38 11.9741 235.361 15.4705 241.831 15.4705ZM238.247 0.785909C238.247 -1.41178 239.541 -2.71041 241.831 -2.71041C244.12 -2.71041 245.414 -1.41178 245.414 0.785909V6.08034C245.414 8.27802 244.12 9.47676 241.831 9.47676C239.541 9.47676 238.247 8.27802 238.247 6.08034V0.785909Z"
        fill="#1D1D1B" />
      <path
        d="M268.903 0.9857C262.931 0.9857 259.348 3.28328 259.348 7.87844C259.348 13.073 263.329 15.4705 269.699 15.4705C272.685 15.4705 279.453 13.7722 279.453 6.18023V1.18549C279.453 -5.50747 275.87 -8.7041 269.798 -8.7041C266.016 -8.7041 262.831 -7.60526 260.741 -6.30662C260.443 -6.10683 260.443 -5.80715 260.642 -5.30768L261.438 -3.80925C262.433 -1.41178 265.021 -2.21094 265.917 -2.41073C266.912 -2.61052 268.007 -2.8103 269.002 -2.8103C271.888 -2.8103 272.685 -1.51167 272.685 0.785909V1.18549C271.49 1.08559 270.296 0.9857 268.903 0.9857ZM272.585 6.97939C272.585 8.6776 271.291 9.97624 269.599 9.97624C267.509 9.97624 266.116 9.17708 266.116 7.67865C266.116 6.28013 267.211 5.48097 269.599 5.48097C270.595 5.48097 271.789 5.58086 272.685 5.78065V6.97939H272.585Z"
        fill="#1D1D1B" />
      <path
        d="M298.563 9.97554C297.468 8.17744 293.686 9.47607 292.193 9.47607C289.904 9.47607 288.411 8.27733 288.411 5.77996V0.785219C288.411 -1.51236 289.904 -2.811 292.292 -2.811C293.586 -2.811 296.473 -1.31257 298.264 -3.80994L299.458 -5.60805C299.757 -6.00763 299.657 -6.40721 299.259 -6.7069C296.97 -8.10542 294.581 -8.80469 291.994 -8.80469C285.425 -8.80469 281.643 -5.10858 281.643 0.685323V5.68007C281.643 11.5739 285.425 15.27 292.093 15.27C295.179 15.27 297.667 14.4708 299.857 12.8725C300.255 12.5728 300.255 12.1732 299.956 11.7737L298.563 9.97554Z"
        fill="#1D1D1B" />
      <path
        d="M309.81 15.3701C310.108 15.3701 310.307 15.2702 310.506 15.1703C311.104 14.7708 311.004 13.8717 310.407 13.4721C307.919 11.5741 308.018 8.07781 308.018 6.07992V-1.91167H309.511C313.393 -2.11146 312.796 -6.90641 312.796 -6.90641C312.796 -7.30599 312.397 -7.70557 311.999 -7.70557H308.018L308.118 -12.3007C308.118 -12.8002 307.819 -13 307.321 -13C307.321 -13 302.046 -12.3007 301.35 -7.1062V6.87907C301.35 12.5731 304.734 15.3701 309.81 15.3701Z"
        fill="#1D1D1B" />
      <path
        d="M324.341 15.4705C330.811 15.4705 334.792 11.9741 334.792 6.08034V0.785909C334.792 -5.10789 330.811 -8.7041 324.341 -8.7041C317.872 -8.7041 313.891 -5.10789 313.891 0.785909V6.08034C313.891 11.8742 317.872 15.4705 324.341 15.4705ZM320.758 0.785909C320.758 -1.41178 322.052 -2.71041 324.341 -2.71041C326.63 -2.71041 327.924 -1.41178 327.924 0.785909V6.08034C327.924 8.27802 326.63 9.47676 324.341 9.47676C322.052 9.47676 320.758 8.27802 320.758 6.08034V0.785909Z"
        fill="#1D1D1B" />
      <path
        d="M350.418 0.9857C344.446 0.9857 340.863 3.28328 340.863 7.87844C340.863 13.073 344.844 15.4705 351.214 15.4705C354.2 15.4705 360.968 13.7722 360.968 6.18023V1.18549C360.968 -5.50747 357.385 -8.7041 351.314 -8.7041C347.532 -8.7041 344.347 -7.60526 342.257 -6.30662C341.958 -6.10683 341.958 -5.80715 342.157 -5.30768L342.953 -3.80925C343.949 -1.41178 346.536 -2.21094 347.432 -2.41073C348.428 -2.61052 349.522 -2.8103 350.518 -2.8103C353.404 -2.8103 354.2 -1.51167 354.2 0.785909V1.18549C353.006 1.08559 351.712 0.9857 350.418 0.9857ZM354.101 6.8795C354.101 8.57771 352.807 9.87634 351.115 9.87634C349.025 9.87634 347.631 9.07718 347.631 7.57876C347.631 6.18023 348.726 5.38107 351.115 5.38107C352.11 5.38107 353.305 5.48097 354.2 5.68076V6.8795H354.101Z"
        fill="#1D1D1B" />
      <path
        d="M234.068 33.3509C228.096 33.3509 224.513 35.6485 224.513 40.2437C224.513 45.4382 228.494 47.8357 234.864 47.8357C237.85 47.8357 244.618 46.1375 244.618 38.5455V33.5507C244.618 26.8578 241.035 23.6611 234.963 23.6611C231.181 23.6611 227.996 24.76 225.906 26.0586C225.608 26.2584 225.608 26.5581 225.807 27.0576L226.603 28.556C227.598 30.9535 230.186 30.1543 231.082 29.9545C232.077 29.7547 233.172 29.5549 234.167 29.5549C237.053 29.5549 237.85 30.8536 237.85 33.1511V33.5507C236.655 33.5507 235.361 33.3509 234.068 33.3509ZM237.75 39.3446C237.75 41.0428 236.456 42.3415 234.764 42.3415C232.674 42.3415 231.281 41.5423 231.281 40.0439C231.281 38.6454 232.376 37.8462 234.764 37.8462C235.76 37.8462 236.954 37.9461 237.85 38.1459V39.3446H237.75Z"
        fill="#1D1D1B" />
      <path
        d="M246.708 33.2513V38.2461C246.708 44.1399 250.49 47.836 257.159 47.836C260.244 47.836 262.732 47.0368 264.922 45.4385C265.32 45.1388 265.32 44.7392 265.022 44.3397L263.728 42.3418C262.633 40.5436 258.851 41.8423 257.358 41.8423C255.069 41.8423 253.576 40.6435 253.576 38.1462V33.1514C253.576 30.8538 255.069 29.5552 257.457 29.5552C258.751 29.5552 261.637 31.0536 263.429 28.5563L264.623 26.7582C264.922 26.3586 264.822 25.959 264.424 25.6593C262.135 24.2608 259.746 23.5615 257.159 23.5615C250.59 23.6614 246.708 27.4574 246.708 33.2513Z"
        fill="#1D1D1B" />
      <path
        d="M272.387 19.5654C272.387 19.5654 267.112 20.2647 266.415 25.4592V39.4445C266.415 45.1385 269.799 47.8357 274.975 47.8357C275.273 47.8357 275.472 47.7358 275.671 47.6359C276.269 47.2363 276.169 46.3372 275.572 45.9377C273.084 44.0397 273.183 40.5433 273.183 38.5455V30.5539H274.676C278.558 30.3541 277.961 25.5591 277.961 25.5591C277.961 25.1595 277.562 24.76 277.164 24.76H273.183L273.283 20.1648C273.183 19.7652 272.884 19.5654 272.387 19.5654Z"
        fill="#1D1D1B" />
      <path
        d="M289.505 47.8357C295.975 47.8357 299.956 44.3394 299.956 38.4456V33.1511C299.956 27.2573 295.975 23.6611 289.505 23.6611C283.036 23.6611 279.055 27.2573 279.055 33.1511V38.4456C278.955 44.3394 283.036 47.8357 289.505 47.8357ZM285.823 33.1511C285.823 30.9535 287.116 29.6548 289.406 29.6548C291.695 29.6548 292.989 30.9535 292.989 33.1511V38.4456C292.989 40.6433 291.695 41.842 289.406 41.842C287.116 41.842 285.823 40.6433 285.823 38.4456V33.1511Z"
        fill="#1D1D1B" />
      <path
        d="M316.578 33.3509C310.606 33.3509 307.023 35.6485 307.023 40.2437C307.023 45.4382 311.005 47.8357 317.375 47.8357C320.36 47.8357 327.128 46.1375 327.128 38.5455V33.5507C327.128 26.8578 323.545 23.6611 317.474 23.6611C313.692 23.6611 310.507 24.76 308.417 26.0586C308.118 26.2584 308.118 26.5581 308.317 27.0576L309.114 28.556C310.109 30.9535 312.697 30.1543 313.592 29.9545C314.588 29.7547 315.683 29.5549 316.678 29.5549C319.564 29.5549 320.36 30.8536 320.36 33.1511V33.5507C319.166 33.4508 317.872 33.3509 316.578 33.3509ZM320.261 39.3446C320.261 41.0428 318.967 42.3415 317.275 42.3415C315.185 42.3415 313.791 41.5423 313.791 40.0439C313.791 38.6454 314.886 37.8462 317.275 37.8462C318.27 37.8462 319.465 37.9461 320.36 38.1459V39.3446H320.261Z"
        fill="#1D1D1B" />
      <path
        d="M329.218 33.2513V38.2461C329.218 44.1399 333 47.836 339.668 47.836C342.754 47.836 345.242 47.0368 347.432 45.4385C347.83 45.1388 347.83 44.7392 347.531 44.3397L346.237 42.3418C345.143 40.5436 341.36 41.8423 339.867 41.8423C337.578 41.8423 336.085 40.6435 336.085 38.1462V33.1514C336.085 30.8538 337.578 29.5552 339.967 29.5552C341.261 29.5552 344.147 31.0536 345.939 28.5563L347.133 26.7582C347.432 26.3586 347.332 25.959 346.934 25.6593C344.645 24.2608 342.256 23.5615 339.668 23.5615C333 23.6614 329.218 27.3575 329.218 33.2513Z"
        fill="#1D1D1B" />
      <path
        d="M354.897 19.5654C354.897 19.5654 349.622 20.2647 348.925 25.4592V39.4445C348.925 45.1385 352.309 47.8357 357.484 47.8357C357.783 47.8357 357.982 47.7358 358.181 47.6359C358.778 47.2363 358.679 46.3372 358.082 45.9377C355.593 44.0397 355.693 40.5433 355.693 38.5455V30.5539H357.186C361.067 30.3541 360.47 25.5591 360.47 25.5591C360.47 25.1595 360.072 24.76 359.674 24.76H355.693L355.792 20.1648C355.693 19.7652 355.394 19.5654 354.897 19.5654Z"
        fill="#1D1D1B" />
      <path
        d="M196.744 64.8183C196.744 58.1253 193.161 54.9287 187.089 54.9287C183.307 54.9287 180.122 56.0276 178.032 57.3262C177.734 57.526 177.734 57.8257 177.933 58.3251L178.729 59.8236C179.724 62.221 182.312 61.4219 183.208 61.2221C184.203 61.0223 185.298 60.8225 186.293 60.8225C189.179 60.8225 189.976 62.1211 189.976 64.4187V64.8183C188.881 64.7184 187.587 64.5186 186.194 64.5186C180.222 64.5186 176.639 66.8162 176.639 71.4114C176.639 76.6059 180.62 79.0034 186.99 79.0034C189.976 79.0034 196.744 77.3052 196.744 69.7132V64.8183ZM190.075 70.5123C190.075 72.2105 188.781 73.5092 187.089 73.5092C184.999 73.5092 183.606 72.71 183.606 71.2116C183.606 69.813 184.701 69.0139 187.089 69.0139C188.085 69.0139 189.279 69.1138 190.175 69.3136V70.5123H190.075Z"
        fill="#1D1D1B" />
      <path
        d="M215.953 73.6084C214.858 71.8103 211.076 73.1089 209.583 73.1089C207.294 73.1089 205.801 71.9101 205.801 69.4128V64.418C205.801 62.1204 207.294 60.8218 209.683 60.8218C210.977 60.8218 213.863 62.3202 215.655 59.8229L216.849 58.0248C217.148 57.6252 217.048 57.2256 216.65 56.9259C214.361 55.5274 211.972 54.8281 209.384 54.8281C202.815 54.8281 199.033 58.5242 199.033 64.3181V69.3129C199.033 75.2067 202.815 78.9028 209.484 78.9028C212.569 78.9028 215.058 78.1036 217.247 76.5053C217.645 76.2056 217.645 75.806 217.347 75.4065L215.953 73.6084Z"
        fill="#1D1D1B" />
      <path
        d="M227.2 79.0029C227.499 79.0029 227.698 78.9031 227.897 78.8032C228.494 78.4036 228.395 77.5045 227.797 77.105C225.309 75.2069 225.409 71.7106 225.409 69.7127V61.7211H226.902C230.783 61.5214 230.186 56.7264 230.186 56.7264C230.186 56.3268 229.788 55.9272 229.39 55.9272H225.409L225.508 51.3321C225.508 50.8326 225.21 50.6328 224.712 50.6328C224.712 50.6328 219.437 51.3321 218.74 56.5266V70.5119C218.74 76.2059 222.124 79.0029 227.2 79.0029Z"
        fill="#1D1D1B" />
      <path
        d="M241.731 79.1033C248.2 79.1033 252.182 75.6069 252.182 69.7132V64.4187C252.182 58.5249 248.2 54.9287 241.731 54.9287C235.261 54.9287 231.28 58.5249 231.28 64.4187V69.7132C231.28 75.5071 235.261 79.1033 241.731 79.1033ZM238.148 64.4187C238.148 62.221 239.442 60.9224 241.731 60.9224C244.02 60.9224 245.314 62.221 245.314 64.4187V69.7132C245.314 71.9108 244.02 73.1096 241.731 73.1096C239.442 73.1096 238.148 71.9108 238.148 69.7132V64.4187Z"
        fill="#1D1D1B" />
      <path
        d="M279.254 64.8183C279.254 58.1253 275.671 54.9287 269.6 54.9287C265.818 54.9287 262.633 56.0276 260.543 57.3262C260.244 57.526 260.244 57.8257 260.443 58.3251L261.24 59.8236C262.235 62.221 264.823 61.4219 265.718 61.2221C266.714 61.0223 267.809 60.8225 268.804 60.8225C271.69 60.8225 272.486 62.1211 272.486 64.4187V64.8183C271.392 64.7184 270.098 64.5186 268.704 64.5186C262.732 64.5186 259.149 66.8162 259.149 71.4114C259.149 76.6059 263.131 79.0034 269.501 79.0034C272.486 79.0034 279.254 77.3052 279.254 69.7132V64.8183ZM272.586 70.5123C272.586 72.2105 271.292 73.5092 269.6 73.5092C267.51 73.5092 266.117 72.71 266.117 71.2116C266.117 69.813 267.211 69.0139 269.6 69.0139C270.595 69.0139 271.79 69.1138 272.685 69.3136V70.5123H272.586Z"
        fill="#1D1D1B" />
      <path
        d="M298.463 73.6084C297.368 71.8103 293.586 73.1089 292.093 73.1089C289.804 73.1089 288.311 71.9101 288.311 69.4128V64.418C288.311 62.1204 289.804 60.8218 292.193 60.8218C293.487 60.8218 296.373 62.3202 298.164 59.8229L299.359 58.0248C299.657 57.6252 299.558 57.2256 299.16 56.9259C296.871 55.5274 294.482 54.8281 291.894 54.8281C285.325 54.8281 281.543 58.5242 281.543 64.3181V69.3129C281.543 75.2067 285.325 78.9028 291.994 78.9028C295.079 78.9028 297.567 78.1036 299.757 76.5053C300.155 76.2056 300.155 75.806 299.856 75.4065L298.463 73.6084Z"
        fill="#1D1D1B" />
      <path
        d="M309.71 79.0029C310.009 79.0029 310.208 78.9031 310.407 78.8032C311.004 78.4036 310.904 77.5045 310.307 77.105C307.819 75.2069 307.919 71.7106 307.919 69.7127V61.7211H309.411C313.293 61.5214 312.696 56.7264 312.696 56.7264C312.696 56.3268 312.298 55.9272 311.9 55.9272H307.919L308.018 51.3321C308.018 50.8326 307.719 50.6328 307.222 50.6328C307.222 50.6328 301.947 51.3321 301.25 56.5266V70.5119C301.25 76.2059 304.634 79.0029 309.71 79.0029Z"
        fill="#1D1D1B" />
      <path
        d="M324.242 79.0027C330.711 79.0027 334.692 75.5064 334.692 69.6126V64.3181C334.692 58.4243 330.711 54.8281 324.242 54.8281C317.772 54.8281 313.791 58.4243 313.791 64.3181V69.6126C313.791 75.5064 317.772 79.0027 324.242 79.0027ZM320.659 64.418C320.659 62.2203 321.952 60.9217 324.242 60.9217C326.531 60.9217 327.825 62.2203 327.825 64.418V69.7125C327.825 71.9101 326.531 73.1089 324.242 73.1089C321.952 73.1089 320.659 71.9101 320.659 69.7125V64.418Z"
        fill="#1D1D1B" />
      <path
        d="M360.769 64.8183C360.769 58.1253 357.186 54.9287 351.115 54.9287C347.333 54.9287 344.148 56.0276 342.057 57.3262C341.759 57.526 341.759 57.8257 341.958 58.3251L342.754 59.8236C343.749 62.221 346.337 61.4219 347.233 61.2221C348.228 61.0223 349.323 60.8225 350.318 60.8225C353.205 60.8225 354.001 62.1211 354.001 64.4187V64.8183C352.906 64.7184 351.612 64.5186 350.219 64.5186C344.247 64.5186 340.664 66.8162 340.664 71.4114C340.664 76.6059 344.645 79.0034 351.015 79.0034C354.001 79.0034 360.769 77.3052 360.769 69.7132V64.8183ZM354.001 70.5123C354.001 72.2105 352.707 73.5092 351.015 73.5092C348.925 73.5092 347.532 72.71 347.532 71.2116C347.532 69.813 348.626 69.0139 351.015 69.0139C352.01 69.0139 353.205 69.1138 354.101 69.3136V70.5123H354.001Z"
        fill="#1D1D1B" />
      <path
        d="M233.968 96.9847C227.996 96.9847 224.413 99.2823 224.413 103.877C224.413 109.072 228.394 111.469 234.764 111.469C237.75 111.469 244.518 109.771 244.518 102.179V97.1845C244.518 90.4916 240.935 87.2949 234.864 87.2949C231.082 87.2949 227.897 88.3938 225.807 89.6924C225.508 89.8922 225.508 90.1919 225.707 90.6913L226.503 92.1898C227.499 94.5872 230.086 93.7881 230.982 93.5883C231.977 93.3885 233.072 93.1887 234.067 93.1887C236.954 93.1887 237.75 94.4874 237.75 96.7849V97.2844C236.556 97.0846 235.262 96.9847 233.968 96.9847ZM237.651 102.978C237.651 104.677 236.357 105.975 234.665 105.975C232.575 105.975 231.181 105.176 231.181 103.678C231.181 102.279 232.276 101.48 234.665 101.48C235.66 101.48 236.854 101.58 237.75 101.78V102.978H237.651Z"
        fill="#1D1D1B" />
      <path
        d="M257.258 93.2886C258.552 93.2886 261.438 94.787 263.23 92.2897L264.424 90.4916C264.723 90.092 264.623 89.6924 264.225 89.3927C261.936 87.9942 259.547 87.2949 256.96 87.2949C250.391 87.2949 246.608 90.991 246.608 96.7849V101.78C246.608 107.673 250.391 111.37 257.059 111.37C260.144 111.37 262.633 110.57 264.822 108.972C265.22 108.672 265.221 108.273 264.922 107.873L263.628 105.875C262.533 104.077 258.751 105.376 257.258 105.376C254.969 105.376 253.476 104.177 253.476 101.68V96.685C253.476 94.5872 254.869 93.2886 257.258 93.2886Z"
        fill="#1D1D1B" />
      <path
        d="M272.287 83.1992C272.287 83.1992 267.012 83.8985 266.315 89.093V103.078C266.315 108.772 269.699 111.469 274.875 111.469C275.174 111.469 275.373 111.37 275.572 111.27C276.169 110.87 276.069 109.971 275.472 109.571C272.984 107.673 273.083 104.177 273.083 102.179V94.1877H274.576C278.458 93.9879 277.861 89.1929 277.861 89.1929C277.861 88.7933 277.463 88.3937 277.065 88.3937H273.083L273.183 83.7986C273.083 83.399 272.785 83.1992 272.287 83.1992Z"
        fill="#1D1D1B" />
      <path
        d="M289.406 87.2949C282.936 87.2949 278.955 90.8911 278.955 96.7849V102.079C278.955 107.873 282.936 111.469 289.406 111.469C295.875 111.469 299.856 107.973 299.856 102.079V96.7849C299.757 90.8911 295.776 87.2949 289.406 87.2949ZM292.989 102.079C292.989 104.277 291.695 105.476 289.406 105.476C287.117 105.476 285.823 104.277 285.823 102.079V96.7849C285.823 94.5872 287.117 93.2886 289.406 93.2886C291.695 93.2886 292.989 94.5872 292.989 96.7849V102.079Z"
        fill="#1D1D1B" />
      <path
        d="M316.479 96.9847C310.507 96.9847 306.924 99.2823 306.924 103.877C306.924 109.072 310.905 111.469 317.275 111.469C320.261 111.469 327.029 109.771 327.029 102.179V97.1845C327.029 90.4916 323.446 87.2949 317.374 87.2949C313.592 87.2949 310.407 88.3938 308.317 89.6924C308.019 89.8922 308.019 90.1919 308.218 90.6913L309.014 92.1898C310.009 94.5872 312.597 93.7881 313.493 93.5883C314.488 93.3885 315.583 93.1887 316.578 93.1887C319.465 93.1887 320.261 94.4874 320.261 96.7849V97.1845C319.066 97.0846 317.773 96.9847 316.479 96.9847ZM320.161 102.978C320.161 104.677 318.867 105.975 317.175 105.975C315.085 105.975 313.692 105.176 313.692 103.678C313.692 102.279 314.787 101.48 317.175 101.48C318.171 101.48 319.365 101.58 320.261 101.78V102.978H320.161Z"
        fill="#1D1D1B" />
      <path
        d="M347.432 107.972L346.138 105.975C345.043 104.176 341.261 105.475 339.768 105.475C337.479 105.475 335.986 104.276 335.986 101.779V96.7842C335.986 94.4867 337.479 93.188 339.867 93.188C341.161 93.188 344.048 94.6864 345.839 92.1891L347.034 90.391C347.332 89.9914 347.233 89.5918 346.835 89.2921C344.545 87.8936 342.157 87.1943 339.569 87.1943C333 87.1943 329.218 90.8904 329.218 96.6843V101.679C329.218 107.573 333 111.269 339.668 111.269C342.754 111.269 345.242 110.47 347.432 108.872C347.73 108.772 347.73 108.372 347.432 107.972Z"
        fill="#1D1D1B" />
      <path
        d="M355.593 94.0874H357.086C360.968 93.8876 360.371 89.0926 360.371 89.0926C360.371 88.693 359.973 88.2935 359.575 88.2935H355.593L355.693 83.6983C355.693 83.1988 355.394 82.999 354.897 82.999C354.897 82.999 349.622 83.6983 348.925 88.8928V102.878C348.925 108.572 352.309 111.269 357.484 111.269C357.783 111.269 357.982 111.169 358.181 111.069C358.778 110.67 358.679 109.771 358.082 109.371C355.593 107.473 355.693 103.977 355.693 101.979V94.0874H355.593Z"
        fill="#1D1D1B" />
      <path
        d="M186.094 118.661C182.312 118.661 179.127 119.76 177.037 121.059C176.738 121.258 176.738 121.558 176.937 122.058L177.734 123.556C178.729 125.953 181.317 125.154 182.213 124.955C183.208 124.755 184.303 124.555 185.298 124.555C188.184 124.555 188.981 125.854 188.981 128.151V128.551C187.886 128.451 186.592 128.251 185.198 128.251C179.227 128.251 175.644 130.549 175.644 135.144C175.644 140.338 179.625 142.736 185.995 142.736C188.981 142.736 195.749 141.038 195.749 133.446V128.451C195.749 121.858 192.166 118.661 186.094 118.661ZM188.981 134.245C188.981 135.943 187.687 137.242 185.995 137.242C183.905 137.242 182.511 136.442 182.511 134.944C182.511 133.545 183.606 132.746 185.995 132.746C186.99 132.746 188.184 132.846 189.08 133.046V134.245H188.981Z"
        fill="#1D1D1B" />
      <path
        d="M214.957 137.342C213.862 135.544 210.08 136.842 208.587 136.842C206.298 136.842 204.805 135.644 204.805 133.146V128.151C204.805 125.854 206.298 124.555 208.687 124.555C209.981 124.555 212.867 126.054 214.659 123.556L215.853 121.758C216.152 121.359 216.052 120.959 215.654 120.659C213.365 119.261 210.976 118.562 208.388 118.562C201.819 118.562 198.037 122.258 198.037 128.052V133.046C198.037 138.94 201.819 142.636 208.488 142.636C211.573 142.636 214.061 141.837 216.251 140.239C216.649 139.939 216.649 139.539 216.351 139.14L214.957 137.342Z"
        fill="#1D1D1B" />
      <path
        d="M226.204 142.736C226.503 142.736 226.702 142.636 226.901 142.537C227.498 142.137 227.399 141.238 226.801 140.838C224.313 138.94 224.413 135.444 224.413 133.446V125.455H225.906C229.787 125.255 229.19 120.46 229.19 120.46C229.19 120.06 228.792 119.661 228.394 119.661H224.413L224.512 115.065C224.512 114.566 224.214 114.366 223.716 114.366C223.716 114.366 218.441 115.065 217.744 120.26V134.245C217.744 139.939 221.128 142.736 226.204 142.736Z"
        fill="#1D1D1B" />
      <path
        d="M240.736 142.836C247.205 142.836 251.186 139.339 251.186 133.446V128.151C251.186 122.257 247.205 118.661 240.736 118.661C234.266 118.661 230.285 122.257 230.285 128.151V133.446C230.185 139.239 234.266 142.836 240.736 142.836ZM237.053 128.151C237.053 125.953 238.347 124.655 240.636 124.655C242.925 124.655 244.219 125.953 244.219 128.151V133.446C244.219 135.643 242.925 136.842 240.636 136.842C238.347 136.842 237.053 135.643 237.053 133.446V128.151Z"
        fill="#1D1D1B" />
      <path
        d="M268.604 118.661C264.822 118.661 261.637 119.76 259.547 121.059C259.248 121.258 259.248 121.558 259.447 122.058L260.243 123.556C261.239 125.953 263.827 125.154 264.722 124.955C265.718 124.755 266.812 124.555 267.808 124.555C270.694 124.555 271.49 125.854 271.49 128.151V128.551C270.396 128.451 269.102 128.251 267.708 128.251C261.736 128.251 258.153 130.549 258.153 135.144C258.153 140.338 262.135 142.736 268.504 142.736C271.49 142.736 278.258 141.038 278.258 133.446V128.451C278.258 121.758 274.675 118.661 268.604 118.661ZM271.49 134.245C271.49 135.943 270.196 137.242 268.504 137.242C266.414 137.242 265.021 136.442 265.021 134.944C265.021 133.545 266.116 132.746 268.504 132.746C269.5 132.746 270.694 132.846 271.59 133.046V134.245H271.49Z"
        fill="#1D1D1B" />
      <path
        d="M297.468 137.342C296.373 135.544 292.591 136.842 291.098 136.842C288.809 136.842 287.316 135.644 287.316 133.146V128.151C287.316 125.854 288.809 124.555 291.198 124.555C292.491 124.555 295.378 126.054 297.169 123.556L298.364 121.758C298.662 121.359 298.563 120.959 298.165 120.659C295.875 119.261 293.487 118.562 290.899 118.562C284.33 118.562 280.548 122.258 280.548 128.052V133.046C280.548 138.94 284.33 142.636 290.999 142.636C294.084 142.636 296.572 141.837 298.762 140.239C299.16 139.939 299.16 139.539 298.861 139.14L297.468 137.342Z"
        fill="#1D1D1B" />
      <path
        d="M308.715 142.736C309.014 142.736 309.213 142.636 309.412 142.537C310.009 142.137 309.909 141.238 309.312 140.838C306.824 138.94 306.924 135.444 306.924 133.446V125.455H308.416C312.298 125.255 311.701 120.46 311.701 120.46C311.701 120.06 311.303 119.661 310.905 119.661H306.924L307.023 115.065C307.023 114.566 306.724 114.366 306.227 114.366C306.227 114.366 300.952 115.065 300.255 120.26V134.245C300.155 139.939 303.639 142.736 308.715 142.736Z"
        fill="#1D1D1B" />
      <path
        d="M323.246 142.736C329.716 142.736 333.697 139.24 333.697 133.346V128.052C333.697 122.158 329.716 118.562 323.246 118.562C316.777 118.562 312.796 122.158 312.796 128.052V133.346C312.696 139.24 316.777 142.736 323.246 142.736ZM319.564 128.151C319.564 125.954 320.858 124.655 323.147 124.655C325.436 124.655 326.73 125.954 326.73 128.151V133.446C326.73 135.644 325.436 136.842 323.147 136.842C320.858 136.842 319.564 135.644 319.564 133.446V128.151Z"
        fill="#1D1D1B" />
      <path
        d="M350.12 118.562C346.337 118.562 343.152 119.66 341.062 120.959C340.764 121.159 340.764 121.458 340.963 121.958L341.759 123.456C342.754 125.854 345.342 125.055 346.238 124.855C347.233 124.655 348.328 124.455 349.323 124.455C352.21 124.455 353.006 125.754 353.006 128.052V128.451C351.911 128.351 350.617 128.151 349.224 128.151C343.252 128.151 339.669 130.449 339.669 135.044C339.669 140.239 343.65 142.636 350.02 142.636C353.006 142.636 359.774 140.938 359.774 133.346V128.351C359.774 121.758 356.191 118.562 350.12 118.562ZM353.006 134.245C353.006 135.943 351.712 137.242 350.02 137.242C347.93 137.242 346.537 136.443 346.537 134.944C346.537 133.546 347.631 132.747 350.02 132.747C351.015 132.747 352.21 132.846 353.105 133.046V134.245H353.006Z"
        fill="#1D1D1B" />
      <path
        d="M232.973 160.717C227.001 160.717 223.418 163.015 223.418 167.61C223.418 172.804 227.399 175.202 233.769 175.202C236.755 175.202 243.523 173.504 243.523 165.912V160.917C243.523 154.224 239.94 151.027 233.869 151.027C230.086 151.027 226.902 152.126 224.811 153.425C224.513 153.625 224.513 153.924 224.712 154.424L225.508 155.922C226.503 158.32 229.091 157.521 229.987 157.321C230.982 157.121 232.077 156.921 233.072 156.921C235.959 156.921 236.755 158.22 236.755 160.517V160.917C235.561 160.817 234.267 160.717 232.973 160.717ZM236.655 166.711C236.655 168.409 235.362 169.708 233.67 169.708C231.579 169.708 230.186 168.909 230.186 167.41C230.186 166.012 231.281 165.212 233.67 165.212C234.665 165.212 235.859 165.312 236.755 165.512V166.711H236.655Z"
        fill="#1D1D1B" />
      <path
        d="M263.827 172.805C264.225 172.505 264.225 172.105 263.927 171.706L262.633 169.708C261.538 167.91 257.756 169.208 256.263 169.208C253.974 169.208 252.481 168.01 252.481 165.512V160.518C252.481 158.22 253.974 156.921 256.363 156.921C257.656 156.921 260.543 158.42 262.334 155.922L263.529 154.124C263.827 153.725 263.728 153.325 263.33 153.026C261.04 151.627 258.652 150.928 256.064 150.928C249.495 150.928 245.713 154.624 245.713 160.418V165.412C245.713 171.306 249.495 175.002 256.164 175.002C259.05 175.202 261.538 174.403 263.827 172.805Z"
        fill="#1D1D1B" />
      <path
        d="M271.292 146.832C271.292 146.832 266.017 147.531 265.32 152.726V166.711C265.32 172.405 268.704 175.102 273.88 175.102C274.178 175.102 274.378 175.002 274.577 174.902C275.174 174.503 275.074 173.604 274.477 173.204C271.989 171.306 272.088 167.81 272.088 165.812V157.82H273.581C277.463 157.621 276.866 152.826 276.866 152.826C276.866 152.426 276.468 152.027 276.07 152.027H272.088L272.188 147.431C272.088 147.132 271.79 146.832 271.292 146.832Z"
        fill="#1D1D1B" />
      <path
        d="M288.311 175.202C294.78 175.202 298.762 171.706 298.762 165.812V160.517C298.762 154.624 294.78 151.027 288.311 151.027C281.842 151.027 277.86 154.624 277.86 160.517V165.812C277.86 171.706 281.842 175.202 288.311 175.202ZM284.728 160.517C284.728 158.32 286.022 157.021 288.311 157.021C290.6 157.021 291.894 158.32 291.894 160.517V165.812C291.894 168.009 290.6 169.208 288.311 169.208C286.022 169.208 284.728 168.009 284.728 165.812V160.517Z"
        fill="#1D1D1B" />
      <path
        d="M315.483 160.717C309.511 160.717 305.928 163.015 305.928 167.61C305.928 172.804 309.909 175.202 316.279 175.202C319.265 175.202 326.033 173.504 326.033 165.912V160.917C326.033 154.224 322.45 151.027 316.378 151.027C312.596 151.027 309.411 152.126 307.321 153.425C307.023 153.625 307.023 153.924 307.222 154.424L308.018 155.922C309.013 158.32 311.601 157.521 312.497 157.321C313.492 157.121 314.587 156.921 315.582 156.921C318.468 156.921 319.265 158.22 319.265 160.517V160.917C318.07 160.817 316.777 160.717 315.483 160.717ZM319.165 166.611C319.165 168.309 317.871 169.608 316.179 169.608C314.089 169.608 312.696 168.809 312.696 167.31C312.696 165.912 313.791 165.113 316.179 165.113C317.175 165.113 318.369 165.212 319.265 165.412V166.611H319.165Z"
        fill="#1D1D1B" />
      <path
        d="M338.773 157.021C340.067 157.021 342.953 158.519 344.745 156.022L345.939 154.224C346.237 153.824 346.138 153.425 345.74 153.125C343.451 151.727 341.062 151.027 338.474 151.027C331.905 151.027 328.123 154.723 328.123 160.517V165.512C328.123 171.406 331.905 175.102 338.574 175.102C341.659 175.102 344.147 174.303 346.337 172.705C346.735 172.405 346.735 172.005 346.437 171.606L345.143 169.608C344.048 167.81 340.266 169.108 338.773 169.108C336.484 169.108 334.991 167.91 334.991 165.412V160.417C334.891 158.32 336.384 157.021 338.773 157.021Z"
        fill="#1D1D1B" />
      <path
        d="M353.802 146.832C353.802 146.832 348.527 147.531 347.83 152.726V166.711C347.83 172.405 351.214 175.102 356.39 175.102C356.688 175.102 356.887 175.002 357.086 174.902C357.684 174.503 357.584 173.604 356.987 173.204C354.499 171.306 354.598 167.81 354.598 165.812V157.82H356.091C359.973 157.621 359.376 152.826 359.376 152.826C359.376 152.426 358.977 152.027 358.579 152.027H354.598L354.698 147.431C354.598 147.032 354.3 146.832 353.802 146.832Z"
        fill="#1D1D1B" />
      <path
        d="M185.198 191.884C179.227 191.884 175.644 194.182 175.644 198.777C175.644 203.971 179.625 206.369 185.995 206.369C188.981 206.369 195.749 204.671 195.749 197.079V192.084C195.749 185.391 192.166 182.194 186.094 182.194C182.312 182.194 179.127 183.293 177.037 184.592C176.738 184.792 176.738 185.091 176.937 185.591L177.734 187.089C178.729 189.487 181.317 188.688 182.213 188.488C183.208 188.288 184.303 188.088 185.298 188.088C188.184 188.088 188.981 189.387 188.981 191.684V192.084C187.786 192.084 186.592 191.884 185.198 191.884ZM188.881 197.878C188.881 199.576 187.587 200.875 185.895 200.875C183.805 200.875 182.412 200.076 182.412 198.577C182.412 197.179 183.506 196.379 185.895 196.379C186.89 196.379 188.085 196.479 188.981 196.679V197.878H188.881Z"
        fill="#1D1D1B" />
      <path
        d="M214.859 200.875C213.764 199.077 209.982 200.375 208.489 200.375C206.199 200.375 204.707 199.177 204.707 196.679V191.685C204.707 189.387 206.199 188.088 208.588 188.088C209.882 188.088 212.768 189.587 214.56 187.089L215.754 185.291C216.053 184.892 215.953 184.492 215.555 184.193C213.266 182.794 210.877 182.095 208.29 182.095C201.721 182.095 197.938 185.791 197.938 191.585V196.579C197.938 202.473 201.721 206.169 208.389 206.169C211.475 206.169 213.963 205.37 216.152 203.772C216.551 203.472 216.551 203.073 216.252 202.673L214.859 200.875Z"
        fill="#1D1D1B" />
      <path
        d="M226.801 206.169C227.398 205.77 227.299 204.871 226.702 204.471C224.214 202.573 224.313 199.077 224.313 197.079V189.087H225.806C229.688 188.888 229.09 184.093 229.09 184.093C229.09 183.693 228.692 183.293 228.294 183.293H224.313L224.413 178.698C224.413 178.199 224.114 177.999 223.616 177.999C223.616 177.999 218.341 178.698 217.645 183.893V197.878C217.645 203.572 221.029 206.269 226.204 206.269C226.403 206.369 226.602 206.269 226.801 206.169Z"
        fill="#1D1D1B" />
      <path
        d="M240.636 206.369C247.106 206.369 251.087 202.873 251.087 196.979V191.684C251.087 185.791 247.106 182.194 240.636 182.194C234.167 182.194 230.186 185.791 230.186 191.684V196.979C230.186 202.873 234.167 206.369 240.636 206.369ZM236.954 191.784C236.954 189.587 238.247 188.288 240.537 188.288C242.826 188.288 244.12 189.587 244.12 191.784V197.079C244.12 199.276 242.826 200.475 240.537 200.475C238.247 200.475 236.954 199.276 236.954 197.079V191.784Z"
        fill="#1D1D1B" />
      <path
        d="M267.708 191.884C261.736 191.884 258.153 194.182 258.153 198.777C258.153 203.971 262.135 206.369 268.504 206.369C271.49 206.369 278.258 204.671 278.258 197.079V192.084C278.258 185.391 274.675 182.194 268.604 182.194C264.822 182.194 261.637 183.293 259.547 184.592C259.248 184.792 259.248 185.091 259.447 185.591L260.243 187.089C261.239 189.487 263.827 188.688 264.722 188.488C265.718 188.288 266.812 188.088 267.808 188.088C270.694 188.088 271.49 189.387 271.49 191.684V192.084C270.296 191.984 269.102 191.884 267.708 191.884ZM271.391 197.878C271.391 199.576 270.097 200.875 268.405 200.875C266.315 200.875 264.921 200.076 264.921 198.577C264.921 197.179 266.016 196.379 268.405 196.379C269.4 196.379 270.595 196.479 271.49 196.679V197.878H271.391Z"
        fill="#1D1D1B" />
      <path
        d="M297.368 200.875C296.274 199.077 292.491 200.375 290.998 200.375C288.709 200.375 287.216 199.177 287.216 196.679V191.685C287.216 189.387 288.709 188.088 291.098 188.088C292.392 188.088 295.278 189.587 297.07 187.089L298.264 185.291C298.563 184.892 298.463 184.492 298.065 184.193C295.776 182.794 293.387 182.095 290.799 182.095C284.23 182.095 280.448 185.791 280.448 191.585V196.579C280.448 202.473 284.23 206.169 290.899 206.169C293.984 206.169 296.473 205.37 298.662 203.772C299.06 203.472 299.06 203.073 298.762 202.673L297.368 200.875Z"
        fill="#1D1D1B" />
      <path
        d="M309.312 206.07C309.909 205.67 309.81 204.771 309.213 204.372C306.724 202.474 306.824 198.977 306.824 196.979V188.988H308.317C312.198 188.788 311.601 183.993 311.601 183.993C311.601 183.593 311.203 183.194 310.805 183.194H306.824L306.923 178.599C306.923 178.099 306.625 177.899 306.127 177.899C306.127 177.899 300.852 178.599 300.155 183.793V197.778C300.155 203.473 303.539 206.17 308.715 206.17C308.914 206.369 309.113 206.27 309.312 206.07Z"
        fill="#1D1D1B" />
      <path
        d="M323.147 206.369C329.616 206.369 333.598 202.873 333.598 196.979V191.684C333.598 185.791 329.616 182.194 323.147 182.194C316.677 182.194 312.696 185.791 312.696 191.684V196.979C312.696 202.873 316.677 206.369 323.147 206.369ZM319.464 191.684C319.464 189.487 320.758 188.188 323.047 188.188C325.337 188.188 326.63 189.487 326.63 191.684V196.979C326.63 199.176 325.337 200.375 323.047 200.375C320.758 200.375 319.464 199.176 319.464 196.979V191.684Z"
        fill="#1D1D1B" />
      <path
        d="M350.02 182.194C346.238 182.194 343.053 183.293 340.963 184.592C340.664 184.792 340.664 185.091 340.863 185.591L341.659 187.089C342.655 189.487 345.243 188.688 346.138 188.488C347.134 188.288 348.228 188.088 349.224 188.088C352.11 188.088 352.906 189.387 352.906 191.684V192.084C351.812 191.984 350.518 191.784 349.124 191.784C343.152 191.784 339.569 194.082 339.569 198.677C339.569 203.872 343.551 206.269 349.92 206.269C352.906 206.269 359.674 204.571 359.674 196.979V191.984C359.674 185.391 356.091 182.194 350.02 182.194ZM352.906 197.878C352.906 199.576 351.612 200.875 349.92 200.875C347.83 200.875 346.437 200.076 346.437 198.577C346.437 197.179 347.532 196.379 349.92 196.379C350.916 196.379 352.11 196.479 353.006 196.679V197.878H352.906Z"
        fill="#1D1D1B" />
    </g>
  </g>
  <defs>
    <clipPath id="clip0_306_851">
      <rect width="360" height="190" fill="white" />
    </clipPath>
  </defs>
</svg>
