<svg width="362" height="191" viewBox="0 0 362 191" fill="none" xmlns="http://www.w3.org/2000/svg">
<path d="M90.2998 13.2002H348.5V95.2002C348.5 140.5 311.8 177.2 266.5 177.2H90.2998C44.9998 177.2 8.2998 140.5 8.2998 95.2002C8.2998 49.9002 44.9998 13.2002 90.2998 13.2002Z" fill="#D2EDD1"/>
<g opacity="0.05">
<mask id="mask0_245_591" style="mask-type:luminance" maskUnits="userSpaceOnUse" x="8" y="13" width="341" height="164">
<path d="M90.2998 13H348.5V95C348.5 140.3 311.8 177 266.5 177H90.2998C44.9998 177 8.2998 140.3 8.2998 95C8.2998 49.7 44.9998 13 90.2998 13Z" fill="white"/>
</mask>
<g mask="url(#mask0_245_591)">
<path d="M14.1 26.9002C8.1 26.9002 4.5 29.2002 4.5 33.8002C4.5 39.0002 8.5 41.4002 14.9 41.4002C17.9 41.4002 24.7 39.7002 24.7 32.1002V27.1002C24.7 20.4002 21.1 17.2002 15 17.2002C11.2 17.2002 8 18.3002 5.9 19.6002C5.6 19.8002 5.6 20.1002 5.8 20.6002L6.6 22.1002C7.6 24.5002 10.2 23.7002 11.1 23.5002C12.1 23.3002 13.2 23.1002 14.2 23.1002C17.1 23.1002 17.9 24.4002 17.9 26.7002V27.1002C16.8 27.0002 15.5 26.9002 14.1 26.9002ZM17.9 32.8002C17.9 34.5002 16.6 35.8002 14.9 35.8002C12.8 35.8002 11.4 35.0002 11.4 33.5002C11.4 32.1002 12.5 31.3002 14.9 31.3002C15.9 31.3002 17.1 31.4002 18 31.6002V32.8002H17.9Z" fill="#1D1D1B"/>
<path d="M26.9004 26.7V31.7C26.9004 37.6 30.7004 41.3 37.4004 41.3C40.5004 41.3 43.0004 40.5 45.2004 38.9C45.6004 38.6 45.6004 38.2 45.3004 37.8L44.0004 35.8C42.9004 34 39.1004 35.3 37.6004 35.3C35.3004 35.3 33.8004 34.1 33.8004 31.6V26.6C33.8004 24.3 35.3004 23 37.7004 23C39.0004 23 41.9004 24.5 43.7004 22L44.9004 20.2C45.2004 19.8 45.1004 19.4 44.7004 19.1C42.4004 17.7 40.0004 17 37.4004 17C30.7004 17.2 26.9004 20.9 26.9004 26.7Z" fill="#1D1D1B"/>
<path d="M52.7002 13C52.7002 13 47.4002 13.7 46.7002 18.9V32.9C46.7002 38.6 50.1002 41.3 55.3002 41.3C55.6002 41.3 55.8002 41.2 56.0002 41.1C56.6002 40.7 56.5002 39.8 55.9002 39.4C53.4002 37.5 53.5002 34 53.5002 32V24H55.0002C58.9002 23.8 58.3002 19 58.3002 19C58.3002 18.6 57.9002 18.2 57.5002 18.2H53.5002L53.6002 13.6C53.4002 13.2 53.2002 13 52.7002 13Z" fill="#1D1D1B"/>
<path d="M69.7998 41.4002C76.2998 41.4002 80.2998 37.9002 80.2998 32.0002V26.7002C80.2998 20.8002 76.2998 17.2002 69.7998 17.2002C63.2998 17.2002 59.2998 20.8002 59.2998 26.7002V32.0002C59.2998 37.8002 63.2998 41.4002 69.7998 41.4002ZM66.1998 26.7002C66.1998 24.5002 67.4998 23.2002 69.7998 23.2002C72.0998 23.2002 73.3998 24.5002 73.3998 26.7002V32.0002C73.3998 34.2002 72.0998 35.4002 69.7998 35.4002C67.4998 35.4002 66.1998 34.2002 66.1998 32.0002V26.7002Z" fill="#1D1D1B"/>
<path d="M96.0004 26.9002C90.0004 26.9002 86.4004 29.2002 86.4004 33.8002C86.4004 39.0002 90.4004 41.4002 96.8004 41.4002C99.8004 41.4002 106.6 39.7002 106.6 32.1002V27.1002C106.6 20.4002 103 17.2002 96.9004 17.2002C93.1004 17.2002 89.9004 18.3002 87.8004 19.6002C87.5004 19.8002 87.5004 20.1002 87.7004 20.6002L88.5004 22.1002C89.5004 24.5002 92.1004 23.7002 93.0004 23.5002C94.0004 23.3002 95.1004 23.1002 96.1004 23.1002C99.0004 23.1002 99.8004 24.4002 99.8004 26.7002V27.1002C98.6004 27.0002 97.4004 26.9002 96.0004 26.9002ZM99.8004 32.8002C99.8004 34.5002 98.5004 35.8002 96.8004 35.8002C94.7004 35.8002 93.3004 35.0002 93.3004 33.5002C93.3004 32.1002 94.4004 31.3002 96.8004 31.3002C97.8004 31.3002 99.0004 31.4002 99.9004 31.6002V32.8002H99.8004Z" fill="#1D1D1B"/>
<path d="M108.7 26.7V31.7C108.7 37.6 112.5 41.3 119.2 41.3C122.3 41.3 124.8 40.5 127 38.9C127.4 38.6 127.4 38.2 127.1 37.8L125.8 35.8C124.7 34 120.9 35.3 119.4 35.3C117.1 35.3 115.6 34.1 115.6 31.6V26.6C115.6 24.3 117.1 23 119.5 23C120.8 23 123.7 24.5 125.5 22L126.7 20.2C127 19.8 126.9 19.4 126.5 19.1C124.2 17.7 121.8 17 119.2 17C112.6 17.2 108.7 20.9 108.7 26.7Z" fill="#1D1D1B"/>
<path d="M134.6 13C134.6 13 129.3 13.7 128.6 18.9V32.9C128.6 38.6 132 41.3 137.2 41.3C137.5 41.3 137.7 41.2 137.9 41.1C138.5 40.7 138.4 39.8 137.8 39.4C135.3 37.5 135.4 34 135.4 32V24H136.9C140.8 23.8 140.2 19 140.2 19C140.2 18.6 139.8 18.2 139.4 18.2H135.4L135.5 13.6C135.3 13.2 135 13 134.6 13Z" fill="#1D1D1B"/>
<path d="M151.7 41.4002C158.2 41.4002 162.2 37.9002 162.2 32.0002V26.7002C162.2 20.8002 158.2 17.2002 151.7 17.2002C145.2 17.2002 141.2 20.8002 141.2 26.7002V32.0002C141.2 37.8002 145.2 41.4002 151.7 41.4002ZM148.1 26.7002C148.1 24.5002 149.4 23.2002 151.7 23.2002C154 23.2002 155.3 24.5002 155.3 26.7002V32.0002C155.3 34.2002 154 35.4002 151.7 35.4002C149.4 35.4002 148.1 34.2002 148.1 32.0002V26.7002Z" fill="#1D1D1B"/>
<path d="M178.9 26.7996C172.9 26.7996 169.3 29.0996 169.3 33.6996C169.3 38.8996 173.3 41.2996 179.7 41.2996C182.7 41.2996 189.5 39.5996 189.5 31.9996V26.9996C189.5 20.2996 185.9 17.0996 179.8 17.0996C176 17.0996 172.8 18.1996 170.7 19.4996C170.4 19.6996 170.4 19.9996 170.6 20.4996L171.4 21.9996C172.4 24.3996 175 23.5996 175.9 23.3996C176.9 23.1996 178 22.9996 179 22.9996C181.9 22.9996 182.7 24.2996 182.7 26.5996V26.9996C181.5 26.9996 180.3 26.7996 178.9 26.7996ZM182.7 32.7996C182.7 34.4996 181.4 35.7996 179.7 35.7996C177.6 35.7996 176.2 34.9996 176.2 33.4996C176.2 32.0996 177.3 31.2996 179.7 31.2996C180.7 31.2996 181.9 31.3996 182.8 31.5996V32.7996H182.7Z" fill="#1D1D1B"/>
<path d="M191.6 26.7V31.7C191.6 37.6 195.4 41.3 202.1 41.3C205.2 41.3 207.7 40.5 209.9 38.9C210.3 38.6 210.3 38.2 210 37.8L208.7 35.8C207.6 34 203.8 35.3 202.3 35.3C200 35.3 198.5 34.1 198.5 31.6V26.6C198.5 24.3 200 23 202.4 23C203.7 23 206.6 24.5 208.4 22L209.6 20.2C209.9 19.8 209.8 19.4 209.4 19.1C207.1 17.7 204.7 17 202.1 17C195.5 17.2 191.6 20.9 191.6 26.7Z" fill="#1D1D1B"/>
<path d="M217.4 13C217.4 13 212.1 13.7 211.4 18.9V32.9C211.4 38.6 214.8 41.3 220 41.3C220.3 41.3 220.5 41.2 220.7 41.1C221.3 40.7 221.2 39.8 220.6 39.4C218.1 37.5 218.2 34 218.2 32V24H219.7C223.6 23.8 223 19 223 19C223 18.6 222.6 18.2 222.2 18.2H218.2L218.3 13.6C218.2 13.2 217.9 13 217.4 13Z" fill="#1D1D1B"/>
<path d="M234.6 41.2996C241.1 41.2996 245.1 37.7996 245.1 31.8996V26.5996C245.1 20.6996 241.1 17.0996 234.6 17.0996C228.1 17.0996 224.1 20.6996 224.1 26.5996V31.9996C224.1 37.7996 228.1 41.2996 234.6 41.2996ZM231 26.6996C231 24.4996 232.3 23.1996 234.6 23.1996C236.9 23.1996 238.2 24.4996 238.2 26.6996V31.9996C238.2 34.1996 236.9 35.3996 234.6 35.3996C232.3 35.3996 231 34.1996 231 31.9996V26.6996Z" fill="#1D1D1B"/>
<path d="M7.3002 72.5998C7.6002 72.5998 7.8002 72.4998 8.0002 72.3998C8.6002 71.9998 8.5002 71.0998 7.9002 70.6998C5.4002 68.7998 5.5002 65.2998 5.5002 63.2998V55.2998H7.0002C10.9002 55.0998 10.3002 50.2998 10.3002 50.2998C10.3002 49.8998 9.9002 49.4998 9.5002 49.4998H5.5002V44.9998C5.5002 44.4998 5.2002 44.2998 4.7002 44.2998C4.7002 44.2998 -0.599805 44.9998 -1.2998 50.1998V64.1998C-1.2998 69.7998 2.2002 72.5998 7.3002 72.5998Z" fill="#1D1D1B"/>
<path d="M21.7998 72.6004C28.2998 72.6004 32.2998 69.1004 32.2998 63.2004V57.9004C32.2998 52.0004 28.2998 48.4004 21.7998 48.4004C15.2998 48.4004 11.2998 52.0004 11.2998 57.9004V63.2004C11.2998 69.1004 15.2998 72.6004 21.7998 72.6004ZM18.1998 57.9004C18.1998 55.7004 19.4998 54.4004 21.7998 54.4004C24.0998 54.4004 25.3998 55.7004 25.3998 57.9004V63.2004C25.3998 65.4004 24.0998 66.6004 21.7998 66.6004C19.4998 66.6004 18.1998 65.4004 18.1998 63.2004V57.9004Z" fill="#1D1D1B"/>
<path d="M58.4998 58.3004C58.4998 51.6004 54.8998 48.4004 48.7998 48.4004C44.9998 48.4004 41.7998 49.5004 39.6998 50.8004C39.3998 51.0004 39.3998 51.3004 39.5998 51.8004L40.3998 53.3004C41.3998 55.7004 43.9998 54.9004 44.8998 54.7004C45.8998 54.5004 46.9998 54.3004 47.9998 54.3004C50.8998 54.3004 51.6998 55.6004 51.6998 57.9004V58.3004C50.5998 58.2004 49.2998 58.0004 47.8998 58.0004C41.8998 58.0004 38.2998 60.3004 38.2998 64.9004C38.2998 70.1004 42.2998 72.5004 48.6998 72.5004C51.6998 72.5004 58.4998 70.8004 58.4998 63.2004V58.3004ZM51.7998 64.1004C51.7998 65.8004 50.4998 67.1004 48.7998 67.1004C46.6998 67.1004 45.2998 66.3004 45.2998 64.8004C45.2998 63.4004 46.3998 62.6004 48.7998 62.6004C49.7998 62.6004 50.9998 62.7004 51.8998 62.9004V64.1004H51.7998Z" fill="#1D1D1B"/>
<path d="M71.4998 54.4004C72.7998 54.4004 75.6998 55.9004 77.4998 53.4004L78.6998 51.6004C78.9998 51.2004 78.8998 50.8004 78.4998 50.5004C76.1998 49.1004 73.7998 48.4004 71.1998 48.4004C64.5998 48.4004 60.7998 52.1004 60.7998 57.9004V62.9004C60.7998 68.8004 64.5998 72.5004 71.2998 72.5004C74.3998 72.5004 76.8998 71.7004 79.0998 70.1004C79.4998 69.8004 79.4998 69.4004 79.1998 69.0004L77.8998 67.0004C76.7998 65.2004 72.9998 66.5004 71.4998 66.5004C69.1998 66.5004 67.6998 65.3004 67.6998 62.8004V57.8004C67.5998 55.7004 69.0998 54.4004 71.4998 54.4004Z" fill="#1D1D1B"/>
<path d="M89.2004 72.6002C89.5004 72.6002 89.7004 72.5002 89.9004 72.4002C90.5004 72.0002 90.4004 71.1002 89.8004 70.7002C87.3004 68.8002 87.4004 65.3002 87.4004 63.3002V55.3002H88.9004C92.8004 55.1002 92.2004 50.3002 92.2004 50.3002C92.2004 49.9002 91.8004 49.5002 91.4004 49.5002H87.4004L87.5004 44.9002C87.5004 44.4002 87.2004 44.2002 86.7004 44.2002C86.7004 44.2002 81.4004 44.9002 80.7004 50.1002V64.1002C80.6004 69.8002 84.0004 72.6002 89.2004 72.6002Z" fill="#1D1D1B"/>
<path d="M103.7 72.6004C110.2 72.6004 114.2 69.1004 114.2 63.2004V57.9004C114.2 52.0004 110.2 48.4004 103.7 48.4004C97.2002 48.4004 93.2002 52.0004 93.2002 57.9004V63.2004C93.2002 69.1004 97.2002 72.6004 103.7 72.6004ZM100.1 57.9004C100.1 55.7004 101.4 54.4004 103.7 54.4004C106 54.4004 107.3 55.7004 107.3 57.9004V63.2004C107.3 65.4004 106 66.6004 103.7 66.6004C101.4 66.6004 100.1 65.4004 100.1 63.2004V57.9004Z" fill="#1D1D1B"/>
<path d="M141.4 58.3004C141.4 51.6004 137.8 48.4004 131.7 48.4004C127.9 48.4004 124.7 49.5004 122.6 50.8004C122.3 51.0004 122.3 51.3004 122.5 51.8004L123.3 53.3004C124.3 55.7004 126.9 54.9004 127.8 54.7004C128.8 54.5004 129.9 54.3004 130.9 54.3004C133.8 54.3004 134.6 55.6004 134.6 57.9004V58.3004C133.5 58.2004 132.2 58.0004 130.8 58.0004C124.8 58.0004 121.2 60.3004 121.2 64.9004C121.2 70.1004 125.2 72.5004 131.6 72.5004C134.6 72.5004 141.4 70.8004 141.4 63.2004V58.3004ZM134.7 64.1004C134.7 65.8004 133.4 67.1004 131.7 67.1004C129.6 67.1004 128.2 66.3004 128.2 64.8004C128.2 63.4004 129.3 62.6004 131.7 62.6004C132.7 62.6004 133.9 62.7004 134.8 62.9004V64.1004H134.7Z" fill="#1D1D1B"/>
<path d="M160.8 67.0998C159.7 65.2998 155.9 66.5998 154.4 66.5998C152.1 66.5998 150.6 65.3998 150.6 62.8998V57.8998C150.6 55.5998 152.1 54.2998 154.5 54.2998C155.8 54.2998 158.7 55.7998 160.5 53.2998L161.7 51.4998C162 51.0998 161.9 50.6998 161.5 50.3998C159.2 48.9998 156.8 48.2998 154.2 48.2998C147.6 48.2998 143.8 51.9998 143.8 57.7998V62.7998C143.8 68.6998 147.6 72.3998 154.3 72.3998C157.4 72.3998 159.9 71.5998 162.1 69.9998C162.5 69.6998 162.5 69.2998 162.2 68.8998L160.8 67.0998Z" fill="#1D1D1B"/>
<path d="M172.1 72.4996C172.4 72.4996 172.6 72.3996 172.8 72.2996C173.4 71.8996 173.3 70.9996 172.7 70.5996C170.2 68.6996 170.3 65.1996 170.3 63.1996V55.1996H171.8C175.7 54.9996 175.1 50.1996 175.1 50.1996C175.1 49.7996 174.7 49.3996 174.3 49.3996H170.3L170.4 44.7996C170.4 44.2996 170.1 44.0996 169.6 44.0996C169.6 44.0996 164.3 44.7996 163.6 49.9996V63.9996C163.5 69.6996 166.9 72.4996 172.1 72.4996Z" fill="#1D1D1B"/>
<path d="M186.6 72.6004C193.1 72.6004 197.1 69.1004 197.1 63.2004V57.9004C197.1 52.0004 193.1 48.4004 186.6 48.4004C180.1 48.4004 176.1 52.0004 176.1 57.9004V63.2004C176.1 69.0004 180.1 72.6004 186.6 72.6004ZM183 57.9004C183 55.7004 184.3 54.4004 186.6 54.4004C188.9 54.4004 190.2 55.7004 190.2 57.9004V63.2004C190.2 65.4004 188.9 66.6004 186.6 66.6004C184.3 66.6004 183 65.4004 183 63.2004V57.9004Z" fill="#1D1D1B"/>
<path d="M14.0004 90.4998C8.00039 90.4998 4.40039 92.7998 4.40039 97.3998C4.40039 102.6 8.40039 105 14.8004 105C17.8004 105 24.6004 103.3 24.6004 95.6998V90.6998C24.6004 83.9998 21.0004 80.7998 14.9004 80.7998C11.1004 80.7998 7.90039 81.8998 5.80039 83.1998C5.50039 83.3998 5.50039 83.6998 5.70039 84.1998L6.50039 85.6998C7.50039 88.0998 10.1004 87.2998 11.0004 87.0998C12.0004 86.8998 13.1004 86.6998 14.1004 86.6998C17.0004 86.6998 17.8004 87.9998 17.8004 90.2998V90.6998C16.7004 90.6998 15.4004 90.4998 14.0004 90.4998ZM17.8004 96.4998C17.8004 98.1998 16.5004 99.4998 14.8004 99.4998C12.7004 99.4998 11.3004 98.6998 11.3004 97.1998C11.3004 95.7998 12.4004 94.9998 14.8004 94.9998C15.8004 94.9998 17.0004 95.0998 17.9004 95.2998V96.4998H17.8004Z" fill="#1D1D1B"/>
<path d="M45.2004 101.5L43.9004 99.5002C42.8004 97.7002 39.0004 99.0002 37.5004 99.0002C35.2004 99.0002 33.7004 97.8002 33.7004 95.3002V90.3002C33.7004 88.0002 35.2004 86.7002 37.6004 86.7002C38.9004 86.7002 41.8004 88.2002 43.6004 85.7002L44.8004 83.9002C45.1004 83.5002 45.0004 83.1002 44.6004 82.8002C42.3004 81.4002 39.9004 80.7002 37.3004 80.7002C30.7004 80.7002 26.9004 84.4002 26.9004 90.2002V95.2002C26.9004 101.1 30.7004 104.8 37.4004 104.8C40.5004 104.8 43.0004 104 45.2004 102.4C45.4004 102.3 45.5004 101.9 45.2004 101.5Z" fill="#1D1D1B"/>
<path d="M53.4002 87.6996H54.9002C58.8002 87.4996 58.2002 82.6996 58.2002 82.6996C58.2002 82.2996 57.8002 81.8996 57.4002 81.8996H53.4002L53.5002 77.2996C53.5002 76.7996 53.2002 76.5996 52.7002 76.5996C52.7002 76.5996 47.4002 77.2996 46.7002 82.4996V96.4996C46.7002 102.2 50.1002 104.9 55.3002 104.9C55.6002 104.9 55.8002 104.8 56.0002 104.7C56.6002 104.3 56.5002 103.4 55.9002 103C53.4002 101.1 53.5002 97.5996 53.5002 95.5996V87.6996H53.4002Z" fill="#1D1D1B"/>
<path d="M69.7002 105C76.2002 105 80.2002 101.5 80.2002 95.5998V90.2998C80.2002 84.3998 76.2002 80.7998 69.7002 80.7998C63.2002 80.7998 59.2002 84.3998 59.2002 90.2998V95.5998C59.2002 101.5 63.2002 105 69.7002 105ZM66.1002 90.3998C66.1002 88.1998 67.4002 86.8998 69.7002 86.8998C72.0002 86.8998 73.3002 88.1998 73.3002 90.3998V95.6998C73.3002 97.8998 72.0002 99.0998 69.7002 99.0998C67.4002 99.0998 66.1002 97.8998 66.1002 95.6998V90.3998Z" fill="#1D1D1B"/>
<path d="M95.8998 90.4998C89.8998 90.4998 86.2998 92.7998 86.2998 97.3998C86.2998 102.6 90.2998 105 96.6998 105C99.6998 105 106.5 103.3 106.5 95.6998V90.6998C106.5 83.9998 102.9 80.7998 96.7998 80.7998C92.9998 80.7998 89.7998 81.8998 87.6998 83.1998C87.3998 83.3998 87.3998 83.6998 87.5998 84.1998L88.3998 85.6998C89.3998 88.0998 91.9998 87.2998 92.8998 87.0998C93.8998 86.8998 94.9998 86.6998 95.9998 86.6998C98.8998 86.6998 99.6998 87.9998 99.6998 90.2998V90.6998C98.5998 90.6998 97.2998 90.4998 95.8998 90.4998ZM99.6998 96.4998C99.6998 98.1998 98.3998 99.4998 96.6998 99.4998C94.5998 99.4998 93.1998 98.6998 93.1998 97.1998C93.1998 95.7998 94.2998 94.9998 96.6998 94.9998C97.6998 94.9998 98.8998 95.0998 99.7998 95.2998V96.4998H99.6998Z" fill="#1D1D1B"/>
<path d="M119.4 86.7998C120.7 86.7998 123.6 88.2998 125.4 85.7998L126.6 83.9998C126.9 83.5998 126.8 83.1998 126.4 82.8998C124.1 81.4998 121.7 80.7998 119.1 80.7998C112.5 80.7998 108.7 84.4998 108.7 90.2998V95.2998C108.7 101.2 112.5 104.9 119.2 104.9C122.3 104.9 124.8 104.1 127 102.5C127.4 102.2 127.4 101.8 127.1 101.4L125.8 99.3998C124.7 97.5998 120.9 98.8998 119.4 98.8998C117.1 98.8998 115.6 97.6998 115.6 95.1998V90.1998C115.5 88.0998 116.9 86.7998 119.4 86.7998Z" fill="#1D1D1B"/>
<path d="M134.5 76.7002C134.5 76.7002 129.2 77.4002 128.5 82.6002V96.6002C128.5 102.3 131.9 105 137.1 105C137.4 105 137.6 104.9 137.8 104.8C138.4 104.4 138.3 103.5 137.7 103.1C135.2 101.2 135.3 97.7002 135.3 95.7002V87.7002H136.8C140.7 87.5002 140.1 82.7002 140.1 82.7002C140.1 82.3002 139.7 81.9002 139.3 81.9002H135.3L135.4 77.3002C135.2 76.9002 134.9 76.7002 134.5 76.7002Z" fill="#1D1D1B"/>
<path d="M151.6 80.7998C145.1 80.7998 141.1 84.3998 141.1 90.2998V95.5998C141.1 101.4 145.1 105 151.6 105C158.1 105 162.1 101.5 162.1 95.5998V90.2998C162.1 84.3998 158 80.7998 151.6 80.7998ZM155.2 95.6998C155.2 97.8998 153.9 99.0998 151.6 99.0998C149.3 99.0998 148 97.8998 148 95.6998V90.3998C148 88.1998 149.3 86.8998 151.6 86.8998C153.9 86.8998 155.2 88.1998 155.2 90.3998V95.6998Z" fill="#1D1D1B"/>
<path d="M178.8 90.4998C172.8 90.4998 169.2 92.7998 169.2 97.3998C169.2 102.6 173.2 105 179.6 105C182.6 105 189.4 103.3 189.4 95.6998V90.6998C189.4 83.9998 185.8 80.7998 179.7 80.7998C175.9 80.7998 172.7 81.8998 170.6 83.1998C170.3 83.3998 170.3 83.6998 170.5 84.1998L171.3 85.6998C172.3 88.0998 174.9 87.2998 175.8 87.0998C176.8 86.8998 177.9 86.6998 178.9 86.6998C181.8 86.6998 182.6 87.9998 182.6 90.2998V90.6998C181.4 90.5998 180.2 90.4998 178.8 90.4998ZM182.6 96.4998C182.6 98.1998 181.3 99.4998 179.6 99.4998C177.5 99.4998 176.1 98.6998 176.1 97.1998C176.1 95.7998 177.2 94.9998 179.6 94.9998C180.6 94.9998 181.8 95.0998 182.7 95.2998V96.4998H182.6Z" fill="#1D1D1B"/>
<path d="M202.3 86.7998C203.6 86.7998 206.5 88.2998 208.3 85.7998L209.5 83.9998C209.8 83.5998 209.7 83.1998 209.3 82.8998C207 81.4998 204.6 80.7998 202 80.7998C195.4 80.7998 191.6 84.4998 191.6 90.2998V95.2998C191.6 101.2 195.4 104.9 202.1 104.9C205.2 104.9 207.7 104.1 209.9 102.5C210.3 102.2 210.3 101.8 210 101.4L208.7 99.3998C207.6 97.5998 203.8 98.8998 202.3 98.8998C200 98.8998 198.5 97.6998 198.5 95.1998V90.1998C198.4 88.0998 199.8 86.7998 202.3 86.7998Z" fill="#1D1D1B"/>
<path d="M217.4 76.7002C217.4 76.7002 212.1 77.4002 211.4 82.6002V96.6002C211.4 102.3 214.8 105 220 105C220.3 105 220.5 104.9 220.7 104.8C221.3 104.4 221.2 103.5 220.6 103.1C218.1 101.2 218.2 97.7002 218.2 95.7002V87.7002H219.7C223.6 87.5002 223 82.7002 223 82.7002C223 82.3002 222.6 81.9002 222.2 81.9002H218.2L218.3 77.3002C218.1 76.9002 217.8 76.7002 217.4 76.7002Z" fill="#1D1D1B"/>
<path d="M234.5 80.7998C228 80.7998 224 84.3998 224 90.2998V95.5998C224 101.4 228 105 234.5 105C241 105 245 101.5 245 95.5998V90.2998C245 84.3998 240.9 80.7998 234.5 80.7998ZM238.1 95.5998C238.1 97.7998 236.8 98.9998 234.5 98.9998C232.2 98.9998 230.9 97.7998 230.9 95.5998V90.2998C230.9 88.0998 232.2 86.7998 234.5 86.7998C236.8 86.7998 238.1 88.0998 238.1 90.2998V95.5998Z" fill="#1D1D1B"/>
<path d="M6.29994 136.4C6.59994 136.4 6.79994 136.3 6.99994 136.2C7.59994 135.8 7.49994 134.9 6.89994 134.5C4.39994 132.6 4.49994 129.1 4.49994 127.1V119.1H5.99994C9.89994 118.9 9.29994 114.1 9.29994 114.1C9.29994 113.7 8.89994 113.3 8.49994 113.3H4.49994L4.59994 108.7C4.59994 108.2 4.29994 108 3.79994 108C3.79994 108 -1.50006 108.7 -2.20006 113.9V127.9C-2.30006 133.6 1.19994 136.4 6.29994 136.4Z" fill="#1D1D1B"/>
<path d="M20.7998 136.4C27.2998 136.4 31.2998 132.9 31.2998 127V121.7C31.2998 115.8 27.2998 112.2 20.7998 112.2C14.2998 112.2 10.2998 115.8 10.2998 121.7V127C10.2998 132.9 14.2998 136.4 20.7998 136.4ZM17.1998 121.7C17.1998 119.5 18.4998 118.2 20.7998 118.2C23.0998 118.2 24.3998 119.5 24.3998 121.7V127C24.3998 129.2 23.0998 130.4 20.7998 130.4C18.4998 130.4 17.1998 129.2 17.1998 127V121.7Z" fill="#1D1D1B"/>
<path d="M47.9004 112.2C44.1004 112.2 40.9004 113.3 38.8004 114.6C38.5004 114.8 38.5004 115.1 38.7004 115.6L39.5004 117.1C40.5004 119.5 43.1004 118.7 44.0004 118.5C45.0004 118.3 46.1004 118.1 47.1004 118.1C50.0004 118.1 50.8004 119.4 50.8004 121.7V122.1C49.7004 122 48.4004 121.8 47.0004 121.8C41.0004 121.8 37.4004 124.1 37.4004 128.7C37.4004 133.9 41.4004 136.3 47.8004 136.3C50.8004 136.3 57.6004 134.6 57.6004 127V122C57.5004 115.4 54.0004 112.2 47.9004 112.2ZM50.8004 127.9C50.8004 129.6 49.5004 130.9 47.8004 130.9C45.7004 130.9 44.3004 130.1 44.3004 128.6C44.3004 127.2 45.4004 126.4 47.8004 126.4C48.8004 126.4 50.0004 126.5 50.9004 126.7V127.9H50.8004Z" fill="#1D1D1B"/>
<path d="M70.4998 118.2C71.7998 118.2 74.6998 119.7 76.4998 117.2L77.6998 115.4C77.9998 115 77.8998 114.6 77.4998 114.3C75.1998 112.9 72.7998 112.2 70.1998 112.2C63.5998 112.2 59.7998 115.9 59.7998 121.7V126.7C59.7998 132.6 63.5998 136.3 70.2998 136.3C73.3998 136.3 75.8998 135.5 78.0998 133.9C78.4998 133.6 78.4998 133.2 78.1998 132.8L76.8998 130.8C75.7998 129 71.9998 130.3 70.4998 130.3C68.1998 130.3 66.6998 129.1 66.6998 126.6V121.6C66.5998 119.5 68.0998 118.2 70.4998 118.2Z" fill="#1D1D1B"/>
<path d="M85.5996 108C85.5996 108 80.2996 108.7 79.5996 113.9V127.9C79.5996 133.6 82.9996 136.3 88.1996 136.3C88.4996 136.3 88.6996 136.2 88.8996 136.1C89.4996 135.7 89.3996 134.8 88.7996 134.4C86.2996 132.5 86.3996 129 86.3996 127V119H87.8996C91.7996 118.8 91.1996 114 91.1996 114C91.1996 113.6 90.7996 113.2 90.3996 113.2H86.3996L86.4996 108.6C86.2996 108.3 86.0996 108 85.5996 108Z" fill="#1D1D1B"/>
<path d="M102.7 112.2C96.2002 112.2 92.2002 115.8 92.2002 121.7V127C92.2002 132.8 96.2002 136.4 102.7 136.4C109.2 136.4 113.2 132.9 113.2 127V121.7C113.2 115.8 109.2 112.2 102.7 112.2ZM106.3 127C106.3 129.2 105 130.4 102.7 130.4C100.4 130.4 99.1002 129.2 99.1002 127V121.7C99.1002 119.5 100.4 118.2 102.7 118.2C105 118.2 106.3 119.5 106.3 121.7V127Z" fill="#1D1D1B"/>
<path d="M130.8 112.2C127 112.2 123.8 113.3 121.7 114.6C121.4 114.8 121.4 115.1 121.6 115.6L122.4 117.1C123.4 119.5 126 118.7 126.9 118.5C127.9 118.3 129 118.1 130 118.1C132.9 118.1 133.7 119.4 133.7 121.7V122.1C132.6 122 131.3 121.8 129.9 121.8C123.9 121.8 120.3 124.1 120.3 128.7C120.3 133.9 124.3 136.3 130.7 136.3C133.7 136.3 140.5 134.6 140.5 127V122C140.4 115.4 136.9 112.2 130.8 112.2ZM133.7 127.8C133.7 129.5 132.4 130.8 130.7 130.8C128.6 130.8 127.2 130 127.2 128.5C127.2 127.1 128.3 126.3 130.7 126.3C131.7 126.3 132.9 126.4 133.8 126.6V127.8H133.7Z" fill="#1D1D1B"/>
<path d="M159.7 130.9C158.6 129.1 154.8 130.4 153.3 130.4C151 130.4 149.5 129.2 149.5 126.7V121.7C149.5 119.4 151 118.1 153.4 118.1C154.7 118.1 157.6 119.6 159.4 117.1L160.6 115.3C160.9 114.9 160.8 114.5 160.4 114.2C158.1 112.8 155.7 112.1 153.1 112.1C146.5 112.1 142.7 115.8 142.7 121.6V126.6C142.7 132.5 146.5 136.2 153.2 136.2C156.3 136.2 158.8 135.4 161 133.8C161.4 133.5 161.4 133.1 161.1 132.7L159.7 130.9Z" fill="#1D1D1B"/>
<path d="M171.1 136.3C171.4 136.3 171.6 136.2 171.8 136.1C172.4 135.7 172.3 134.8 171.7 134.4C169.2 132.5 169.3 129 169.3 127V119H170.8C174.7 118.8 174.1 114 174.1 114C174.1 113.6 173.7 113.2 173.3 113.2H169.3L169.4 108.6C169.4 108.1 169.1 107.9 168.6 107.9C168.6 107.9 163.3 108.6 162.6 113.8V127.8C162.5 133.5 165.9 136.3 171.1 136.3Z" fill="#1D1D1B"/>
<path d="M185.6 136.4C192.1 136.4 196.1 132.9 196.1 127V121.7C196.1 115.8 192.1 112.2 185.6 112.2C179.1 112.2 175.1 115.8 175.1 121.7V127C175.1 132.8 179.1 136.4 185.6 136.4ZM182 121.7C182 119.5 183.3 118.2 185.6 118.2C187.9 118.2 189.2 119.5 189.2 121.7V127C189.2 129.2 187.9 130.4 185.6 130.4C183.3 130.4 182 129.2 182 127V121.7Z" fill="#1D1D1B"/>
<path d="M13.0004 154.3C7.00039 154.3 3.40039 156.6 3.40039 161.2C3.40039 166.4 7.40039 168.8 13.8004 168.8C16.8004 168.8 23.6004 167.1 23.6004 159.5V154.5C23.6004 147.8 20.0004 144.6 13.9004 144.6C10.1004 144.6 6.90039 145.7 4.80039 147C4.50039 147.2 4.50039 147.5 4.70039 148L5.50039 149.5C6.50039 151.9 9.10039 151.1 10.0004 150.9C11.0004 150.7 12.1004 150.5 13.1004 150.5C16.0004 150.5 16.8004 151.8 16.8004 154.1V154.5C15.7004 154.5 14.4004 154.3 13.0004 154.3ZM16.8004 160.3C16.8004 162 15.5004 163.3 13.8004 163.3C11.7004 163.3 10.3004 162.5 10.3004 161C10.3004 159.6 11.4004 158.8 13.8004 158.8C14.8004 158.8 16.0004 158.9 16.9004 159.1V160.3H16.8004Z" fill="#1D1D1B"/>
<path d="M36.4998 150.6C37.7998 150.6 40.6998 152.1 42.4998 149.6L43.6998 147.8C43.9998 147.4 43.8998 147 43.4998 146.7C41.1998 145.3 38.7998 144.6 36.1998 144.6C29.5998 144.6 25.7998 148.3 25.7998 154.1V159.1C25.7998 165 29.5998 168.7 36.2998 168.7C39.3998 168.7 41.8998 167.9 44.0998 166.3C44.4998 166 44.4998 165.6 44.1998 165.2L42.8998 163.2C41.7998 161.4 37.9998 162.7 36.4998 162.7C34.1998 162.7 32.6998 161.5 32.6998 159V154C32.5998 151.9 34.0998 150.6 36.4998 150.6Z" fill="#1D1D1B"/>
<path d="M51.5996 140.5C51.5996 140.5 46.2996 141.2 45.5996 146.4V160.4C45.5996 166.1 48.9996 168.8 54.1996 168.8C54.4996 168.8 54.6996 168.7 54.8996 168.6C55.4996 168.2 55.3996 167.3 54.7996 166.9C52.2996 165 52.3996 161.5 52.3996 159.5V151.5H53.8996C57.7996 151.3 57.1996 146.5 57.1996 146.5C57.1996 146.1 56.7996 145.7 56.3996 145.7H52.3996L52.4996 141.1C52.2996 140.7 52.0996 140.5 51.5996 140.5Z" fill="#1D1D1B"/>
<path d="M68.7002 144.7C62.2002 144.7 58.2002 148.3 58.2002 154.2V159.5C58.2002 165.3 62.2002 168.9 68.7002 168.9C75.2002 168.9 79.2002 165.4 79.2002 159.5V154.2C79.2002 148.2 75.2002 144.7 68.7002 144.7ZM72.3002 159.5C72.3002 161.7 71.0002 162.9 68.7002 162.9C66.4002 162.9 65.1002 161.7 65.1002 159.5V154.2C65.1002 152 66.4002 150.7 68.7002 150.7C71.0002 150.7 72.3002 152 72.3002 154.2V159.5Z" fill="#1D1D1B"/>
<path d="M94.8998 154.3C88.8998 154.3 85.2998 156.6 85.2998 161.2C85.2998 166.4 89.2998 168.8 95.6998 168.8C98.6998 168.8 105.5 167.1 105.5 159.5V154.5C105.5 147.8 101.9 144.6 95.7998 144.6C91.9998 144.6 88.7998 145.7 86.6998 147C86.3998 147.2 86.3998 147.5 86.5998 148L87.3998 149.5C88.3998 151.9 90.9998 151.1 91.8998 150.9C92.8998 150.7 93.9998 150.5 94.9998 150.5C97.8998 150.5 98.6998 151.8 98.6998 154.1V154.5C97.4998 154.5 96.2998 154.3 94.8998 154.3ZM98.5998 160.3C98.5998 162 97.2998 163.3 95.5998 163.3C93.4998 163.3 92.0998 162.5 92.0998 161C92.0998 159.6 93.1998 158.8 95.5998 158.8C96.5998 158.8 97.7998 158.9 98.6998 159.1V160.3H98.5998Z" fill="#1D1D1B"/>
<path d="M125.9 166.4C126.3 166.1 126.3 165.7 126 165.3L124.7 163.3C123.6 161.5 119.8 162.8 118.3 162.8C116 162.8 114.5 161.6 114.5 159.1V154.1C114.5 151.8 116 150.5 118.4 150.5C119.7 150.5 122.6 152 124.4 149.5L125.6 147.7C125.9 147.3 125.8 146.9 125.4 146.6C123.1 145.2 120.7 144.5 118.1 144.5C111.5 144.5 107.7 148.2 107.7 154V159C107.7 164.9 111.5 168.6 118.2 168.6C121.2 168.8 123.7 168 125.9 166.4Z" fill="#1D1D1B"/>
<path d="M133.4 140.5C133.4 140.5 128.1 141.2 127.4 146.4V160.4C127.4 166.1 130.8 168.8 136 168.8C136.3 168.8 136.5 168.7 136.7 168.6C137.3 168.2 137.2 167.3 136.6 166.9C134.1 165 134.2 161.5 134.2 159.5V151.5H135.7C139.6 151.3 139 146.5 139 146.5C139 146.1 138.6 145.7 138.2 145.7H134.2L134.3 141.1C134.2 140.7 133.9 140.5 133.4 140.5Z" fill="#1D1D1B"/>
<path d="M150.6 168.8C157.1 168.8 161.1 165.3 161.1 159.4V154.1C161.1 148.2 157.1 144.6 150.6 144.6C144.1 144.6 140.1 148.2 140.1 154.1V159.4C140.1 165.3 144.1 168.8 150.6 168.8ZM146.9 154.1C146.9 151.9 148.2 150.6 150.5 150.6C152.8 150.6 154.1 151.9 154.1 154.1V159.4C154.1 161.6 152.8 162.8 150.5 162.8C148.2 162.8 146.9 161.6 146.9 159.4V154.1Z" fill="#1D1D1B"/>
<path d="M177.8 154.3C171.8 154.3 168.2 156.6 168.2 161.2C168.2 166.4 172.2 168.8 178.6 168.8C181.6 168.8 188.4 167.1 188.4 159.5V154.5C188.4 147.8 184.8 144.6 178.7 144.6C174.9 144.6 171.7 145.7 169.6 147C169.3 147.2 169.3 147.5 169.5 148L170.3 149.5C171.3 151.9 173.9 151.1 174.8 150.9C175.8 150.7 176.9 150.5 177.9 150.5C180.8 150.5 181.6 151.8 181.6 154.1V154.5C180.4 154.4 179.2 154.3 177.8 154.3ZM181.5 160.3C181.5 162 180.2 163.3 178.5 163.3C176.4 163.3 175 162.5 175 161C175 159.6 176.1 158.8 178.5 158.8C179.5 158.8 180.7 158.9 181.6 159.1V160.3H181.5Z" fill="#1D1D1B"/>
<path d="M208.8 166.4C209.2 166.1 209.2 165.7 208.9 165.3L207.6 163.3C206.5 161.5 202.7 162.8 201.2 162.8C198.9 162.8 197.4 161.6 197.4 159.1V154.1C197.4 151.8 198.9 150.5 201.3 150.5C202.6 150.5 205.5 152 207.3 149.5L208.5 147.7C208.8 147.3 208.7 146.9 208.3 146.6C206 145.2 203.6 144.5 201 144.5C194.4 144.5 190.6 148.2 190.6 154V159C190.6 164.9 194.4 168.6 201.1 168.6C204.1 168.8 206.6 168 208.8 166.4Z" fill="#1D1D1B"/>
<path d="M216.3 140.5C216.3 140.5 211 141.2 210.3 146.4V160.4C210.3 166.1 213.7 168.8 218.9 168.8C219.2 168.8 219.4 168.7 219.6 168.6C220.2 168.2 220.1 167.3 219.5 166.9C217 165 217.1 161.5 217.1 159.5V151.5H218.6C222.5 151.3 221.9 146.5 221.9 146.5C221.9 146.1 221.5 145.7 221.1 145.7H217.1L217.2 141.1C217.1 140.7 216.8 140.5 216.3 140.5Z" fill="#1D1D1B"/>
<path d="M233.5 168.8C240 168.8 244 165.3 244 159.4V154.1C244 148.2 240 144.6 233.5 144.6C227 144.6 223 148.2 223 154.1V159.4C222.9 165.3 227 168.8 233.5 168.8ZM229.8 154.1C229.8 151.9 231.1 150.6 233.4 150.6C235.7 150.6 237 151.9 237 154.1V159.4C237 161.6 235.7 162.8 233.4 162.8C231.1 162.8 229.8 161.6 229.8 159.4V154.1Z" fill="#1D1D1B"/>
<path d="M6.9002 199.8C7.5002 199.4 7.4002 198.5 6.8002 198.1C4.3002 196.2 4.4002 192.7 4.4002 190.7V182.7H5.9002C9.8002 182.5 9.2002 177.7 9.2002 177.7C9.2002 177.3 8.80019 176.9 8.4002 176.9H4.4002L4.5002 172.3C4.5002 171.8 4.2002 171.6 3.7002 171.6C3.7002 171.6 -1.5998 172.3 -2.2998 177.5V191.5C-2.2998 197.2 1.1002 199.9 6.3002 199.9C6.5002 200 6.7002 199.9 6.9002 199.8Z" fill="#1D1D1B"/>
<path d="M20.7002 200.1C27.2002 200.1 31.2002 196.6 31.2002 190.7V185.4C31.2002 179.5 27.2002 175.9 20.7002 175.9C14.2002 175.9 10.2002 179.5 10.2002 185.4V190.7C10.2002 196.5 14.2002 200.1 20.7002 200.1ZM17.1002 185.4C17.1002 183.2 18.4002 181.9 20.7002 181.9C23.0002 181.9 24.3002 183.2 24.3002 185.4V190.7C24.3002 192.9 23.0002 194.1 20.7002 194.1C18.4002 194.1 17.1002 192.9 17.1002 190.7V185.4Z" fill="#1D1D1B"/>
<path d="M47.7998 175.9C43.9998 175.9 40.7998 177 38.6998 178.3C38.3998 178.5 38.3998 178.8 38.5998 179.3L39.3998 180.8C40.3998 183.2 42.9998 182.4 43.8998 182.2C44.8998 182 45.9998 181.8 46.9998 181.8C49.8998 181.8 50.6998 183.1 50.6998 185.4V185.8C49.5998 185.7 48.2998 185.5 46.8998 185.5C40.8998 185.5 37.2998 187.8 37.2998 192.4C37.2998 197.6 41.2998 200 47.6998 200C50.6998 200 57.4998 198.3 57.4998 190.7V185.7C57.3998 179.1 53.8998 175.9 47.7998 175.9ZM50.6998 191.5C50.6998 193.2 49.3998 194.5 47.6998 194.5C45.5998 194.5 44.1998 193.7 44.1998 192.2C44.1998 190.8 45.2998 190 47.6998 190C48.6998 190 49.8998 190.1 50.7998 190.3V191.5H50.6998Z" fill="#1D1D1B"/>
<path d="M70.4002 181.8C71.7002 181.8 74.6002 183.3 76.4002 180.8L77.6002 179C77.9002 178.6 77.8002 178.2 77.4002 177.9C75.1002 176.5 72.7002 175.8 70.1002 175.8C63.5002 175.8 59.7002 179.5 59.7002 185.3V190.3C59.7002 196.2 63.5002 199.9 70.2002 199.9C73.3002 199.9 75.8002 199.1 78.0002 197.5C78.4002 197.2 78.4002 196.8 78.1002 196.4L76.8002 194.4C75.7002 192.6 71.9002 193.9 70.4002 193.9C68.1002 193.9 66.6002 192.7 66.6002 190.2V185.2C66.5002 183.2 68.0002 181.8 70.4002 181.8Z" fill="#1D1D1B"/>
<path d="M88.7 199.8C89.3 199.4 89.2 198.5 88.6 198.1C86.1 196.2 86.2 192.7 86.2 190.7V182.7H87.7C91.6 182.5 91 177.7 91 177.7C91 177.3 90.6 176.9 90.2 176.9H86.2L86.3 172.3C86.3 171.8 86 171.6 85.5 171.6C85.5 171.6 80.2 172.3 79.5 177.5V191.5C79.5 197.2 82.9 199.9 88.1 199.9C88.3 200 88.5 199.9 88.7 199.8Z" fill="#1D1D1B"/>
<path d="M102.6 200.1C109.1 200.1 113.1 196.6 113.1 190.7V185.4C113.1 179.5 109.1 175.9 102.6 175.9C96.0996 175.9 92.0996 179.5 92.0996 185.4V190.7C92.0996 196.5 96.0996 200.1 102.6 200.1ZM98.9996 185.4C98.9996 183.2 100.3 181.9 102.6 181.9C104.9 181.9 106.2 183.2 106.2 185.4V190.7C106.2 192.9 104.9 194.1 102.6 194.1C100.3 194.1 98.9996 192.9 98.9996 190.7V185.4Z" fill="#1D1D1B"/>
<path d="M129.8 185.5C123.8 185.5 120.2 187.8 120.2 192.4C120.2 197.6 124.2 200 130.6 200C133.6 200 140.4 198.3 140.4 190.7V185.7C140.4 179 136.8 175.8 130.7 175.8C126.9 175.8 123.7 176.9 121.6 178.2C121.3 178.4 121.3 178.7 121.5 179.2L122.3 180.7C123.3 183.1 125.9 182.3 126.8 182.1C127.8 181.9 128.9 181.7 129.9 181.7C132.8 181.7 133.6 183 133.6 185.3V185.7C132.5 185.7 131.2 185.5 129.8 185.5ZM133.6 191.5C133.6 193.2 132.3 194.5 130.6 194.5C128.5 194.5 127.1 193.7 127.1 192.2C127.1 190.8 128.2 190 130.6 190C131.6 190 132.8 190.1 133.7 190.3V191.5H133.6Z" fill="#1D1D1B"/>
<path d="M159.6 194.6C158.5 192.8 154.7 194.1 153.2 194.1C150.9 194.1 149.4 192.9 149.4 190.4V185.4C149.4 183.1 150.9 181.8 153.3 181.8C154.6 181.8 157.5 183.3 159.3 180.8L160.5 179C160.8 178.6 160.7 178.2 160.3 177.9C158 176.5 155.6 175.8 153 175.8C146.4 175.8 142.6 179.5 142.6 185.3V190.3C142.6 196.2 146.4 199.9 153.1 199.9C156.2 199.9 158.7 199.1 160.9 197.5C161.3 197.2 161.3 196.8 161 196.4L159.6 194.6Z" fill="#1D1D1B"/>
<path d="M171.6 199.8C172.2 199.4 172.1 198.5 171.5 198.1C169 196.2 169.1 192.7 169.1 190.7V182.7H170.6C174.5 182.5 173.9 177.7 173.9 177.7C173.9 177.3 173.5 176.9 173.1 176.9H169.1L169.2 172.3C169.2 171.8 168.9 171.6 168.4 171.6C168.4 171.6 163.1 172.3 162.4 177.5V191.5C162.4 197.2 165.8 199.9 171 199.9C171.2 200 171.4 199.9 171.6 199.8Z" fill="#1D1D1B"/>
<path d="M185.5 200C192 200 196 196.5 196 190.6V185.3C196 179.4 192 175.8 185.5 175.8C179 175.8 175 179.4 175 185.3V190.6C175 196.5 179 200 185.5 200ZM181.9 185.4C181.9 183.2 183.2 181.9 185.5 181.9C187.8 181.9 189.1 183.2 189.1 185.4V190.7C189.1 192.9 187.8 194.1 185.5 194.1C183.2 194.1 181.9 192.9 181.9 190.7V185.4Z" fill="#1D1D1B"/>
<path d="M262.4 26.9002C256.4 26.9002 252.8 29.2002 252.8 33.8002C252.8 39.0002 256.8 41.4002 263.2 41.4002C266.2 41.4002 273 39.7002 273 32.1002V27.1002C273 20.4002 269.4 17.2002 263.3 17.2002C259.5 17.2002 256.3 18.3002 254.2 19.6002C253.9 19.8002 253.9 20.1002 254.1 20.6002L254.9 22.1002C255.9 24.5002 258.5 23.7002 259.4 23.5002C260.4 23.3002 261.5 23.1002 262.5 23.1002C265.4 23.1002 266.2 24.4002 266.2 26.7002V27.1002C265 27.0002 263.7 26.9002 262.4 26.9002ZM266.1 32.9002C266.1 34.6002 264.8 35.9002 263.1 35.9002C261 35.9002 259.6 35.1002 259.6 33.6002C259.6 32.2002 260.7 31.4002 263.1 31.4002C264.1 31.4002 265.3 31.5002 266.2 31.7002V32.9002H266.1Z" fill="#1D1D1B"/>
<path d="M275.1 26.7996V31.7996C275.1 37.6996 278.9 41.3996 285.6 41.3996C288.7 41.3996 291.2 40.5996 293.4 38.9996C293.8 38.6996 293.8 38.2996 293.5 37.8996L292.2 35.8996C291.1 34.0996 287.3 35.3996 285.8 35.3996C283.5 35.3996 282 34.1996 282 31.6996V26.6996C282 24.3996 283.5 23.0996 285.9 23.0996C287.2 23.0996 290.1 24.5996 291.9 22.0996L293.1 20.2996C293.4 19.8996 293.3 19.4996 292.9 19.1996C290.6 17.7996 288.2 17.0996 285.6 17.0996C279 17.1996 275.1 20.8996 275.1 26.7996Z" fill="#1D1D1B"/>
<path d="M300.9 13.0996C300.9 13.0996 295.6 13.7996 294.9 18.9996V32.9996C294.9 38.6996 298.3 41.3996 303.5 41.3996C303.8 41.3996 304 41.2996 304.2 41.1996C304.8 40.7996 304.7 39.8996 304.1 39.4996C301.6 37.5996 301.7 34.0996 301.7 32.0996V24.0996H303.2C307.1 23.8996 306.5 19.0996 306.5 19.0996C306.5 18.6996 306.1 18.2996 305.7 18.2996H301.7L301.8 13.6996C301.7 13.2996 301.4 13.0996 300.9 13.0996Z" fill="#1D1D1B"/>
<path d="M318.1 41.4002C324.6 41.4002 328.6 37.9002 328.6 32.0002V26.7002C328.6 20.8002 324.6 17.2002 318.1 17.2002C311.6 17.2002 307.6 20.8002 307.6 26.7002V32.0002C307.5 37.9002 311.6 41.4002 318.1 41.4002ZM314.4 26.7002C314.4 24.5002 315.7 23.2002 318 23.2002C320.3 23.2002 321.6 24.5002 321.6 26.7002V32.0002C321.6 34.2002 320.3 35.4002 318 35.4002C315.7 35.4002 314.4 34.2002 314.4 32.0002V26.7002Z" fill="#1D1D1B"/>
<path d="M345.3 26.9002C339.3 26.9002 335.7 29.2002 335.7 33.8002C335.7 39.0002 339.7 41.4002 346.1 41.4002C349.1 41.4002 355.9 39.7002 355.9 32.1002V27.1002C355.9 20.4002 352.3 17.2002 346.2 17.2002C342.4 17.2002 339.2 18.3002 337.1 19.6002C336.8 19.8002 336.8 20.1002 337 20.6002L337.8 22.1002C338.8 24.5002 341.4 23.7002 342.3 23.5002C343.3 23.3002 344.4 23.1002 345.4 23.1002C348.3 23.1002 349.1 24.4002 349.1 26.7002V27.1002C347.9 27.0002 346.6 26.9002 345.3 26.9002ZM349 32.9002C349 34.6002 347.7 35.9002 346 35.9002C343.9 35.9002 342.5 35.1002 342.5 33.6002C342.5 32.2002 343.6 31.4002 346 31.4002C347 31.4002 348.2 31.5002 349.1 31.7002V32.9002H349Z" fill="#1D1D1B"/>
<path d="M224.9 58.4C224.9 51.7 221.3 48.5 215.2 48.5C211.4 48.5 208.2 49.6 206.1 50.9C205.8 51.1 205.8 51.4 206 51.9L206.8 53.4C207.8 55.8 210.4 55 211.3 54.8C212.3 54.6 213.4 54.4 214.4 54.4C217.3 54.4 218.1 55.7 218.1 58V58.4C217 58.3 215.7 58.1 214.3 58.1C208.3 58.1 204.7 60.4 204.7 65C204.7 70.2 208.7 72.6 215.1 72.6C218.1 72.6 224.9 70.9 224.9 63.3V58.4ZM218.2 64.1C218.2 65.8 216.9 67.1 215.2 67.1C213.1 67.1 211.7 66.3 211.7 64.8C211.7 63.4 212.8 62.6 215.2 62.6C216.2 62.6 217.4 62.7 218.3 62.9V64.1H218.2Z" fill="#1D1D1B"/>
<path d="M244.2 67.2004C243.1 65.4004 239.3 66.7004 237.8 66.7004C235.5 66.7004 234 65.5004 234 63.0004V58.0004C234 55.7004 235.5 54.4004 237.9 54.4004C239.2 54.4004 242.1 55.9004 243.9 53.4004L245.1 51.6004C245.4 51.2004 245.3 50.8004 244.9 50.5004C242.6 49.1004 240.2 48.4004 237.6 48.4004C231 48.4004 227.2 52.1004 227.2 57.9004V62.9004C227.2 68.8004 231 72.5004 237.7 72.5004C240.8 72.5004 243.3 71.7004 245.5 70.1004C245.9 69.8004 245.9 69.4004 245.6 69.0004L244.2 67.2004Z" fill="#1D1D1B"/>
<path d="M255.5 72.6002C255.8 72.6002 256 72.5002 256.2 72.4002C256.8 72.0002 256.7 71.1002 256.1 70.7002C253.6 68.8002 253.7 65.3002 253.7 63.3002V55.3002H255.2C259.1 55.1002 258.5 50.3002 258.5 50.3002C258.5 49.9002 258.1 49.5002 257.7 49.5002H253.7L253.8 44.9002C253.8 44.4002 253.5 44.2002 253 44.2002C253 44.2002 247.7 44.9002 247 50.1002V64.1002C247 69.8002 250.4 72.6002 255.5 72.6002Z" fill="#1D1D1B"/>
<path d="M270.1 72.7C276.6 72.7 280.6 69.2 280.6 63.3V58C280.6 52.1 276.6 48.5 270.1 48.5C263.6 48.5 259.6 52.1 259.6 58V63.3C259.6 69.1 263.6 72.7 270.1 72.7ZM266.5 58C266.5 55.8 267.8 54.5 270.1 54.5C272.4 54.5 273.7 55.8 273.7 58V63.3C273.7 65.5 272.4 66.7 270.1 66.7C267.8 66.7 266.5 65.5 266.5 63.3V58Z" fill="#1D1D1B"/>
<path d="M307.8 58.3004C307.8 51.6004 304.2 48.4004 298.1 48.4004C294.3 48.4004 291.1 49.5004 289 50.8004C288.7 51.0004 288.7 51.3004 288.9 51.8004L289.7 53.3004C290.7 55.7004 293.3 54.9004 294.2 54.7004C295.2 54.5004 296.3 54.3004 297.3 54.3004C300.2 54.3004 301 55.6004 301 57.9004V58.3004C299.9 58.2004 298.6 58.0004 297.2 58.0004C291.2 58.0004 287.6 60.3004 287.6 64.9004C287.6 70.1004 291.6 72.5004 298 72.5004C301 72.5004 307.8 70.8004 307.8 63.2004V58.3004ZM301.1 64.1004C301.1 65.8004 299.8 67.1004 298.1 67.1004C296 67.1004 294.6 66.3004 294.6 64.8004C294.6 63.4004 295.7 62.6004 298.1 62.6004C299.1 62.6004 300.3 62.7004 301.2 62.9004V64.1004H301.1Z" fill="#1D1D1B"/>
<path d="M327.1 67.0998C326 65.2998 322.2 66.5998 320.7 66.5998C318.4 66.5998 316.9 65.3998 316.9 62.8998V57.8998C316.9 55.5998 318.4 54.2998 320.8 54.2998C322.1 54.2998 325 55.7998 326.8 53.2998L328 51.4998C328.3 51.0998 328.2 50.6998 327.8 50.3998C325.5 48.9998 323.1 48.2998 320.5 48.2998C313.9 48.2998 310.1 51.9998 310.1 57.7998V62.7998C310.1 68.6998 313.9 72.3998 320.6 72.3998C323.7 72.3998 326.2 71.5998 328.4 69.9998C328.8 69.6998 328.8 69.2998 328.5 68.8998L327.1 67.0998Z" fill="#1D1D1B"/>
<path d="M338.4 72.6002C338.7 72.6002 338.9 72.5002 339.1 72.4002C339.7 72.0002 339.6 71.1002 339 70.7002C336.5 68.8002 336.6 65.3002 336.6 63.3002V55.3002H338.1C342 55.1002 341.4 50.3002 341.4 50.3002C341.4 49.9002 341 49.5002 340.6 49.5002H336.6L336.7 44.9002C336.7 44.4002 336.4 44.2002 335.9 44.2002C335.9 44.2002 330.6 44.9002 329.9 50.1002V64.1002C329.9 69.8002 333.3 72.6002 338.4 72.6002Z" fill="#1D1D1B"/>
<path d="M353 72.6C359.5 72.6 363.5 69.1 363.5 63.2V58C363.5 52.1 359.5 48.5 353 48.5C346.5 48.5 342.5 52.1 342.5 58V63.3C342.5 69.1 346.5 72.6 353 72.6ZM349.4 58C349.4 55.8 350.7 54.5 353 54.5C355.3 54.5 356.6 55.8 356.6 58V63.3C356.6 65.5 355.3 66.7 353 66.7C350.7 66.7 349.4 65.5 349.4 63.3V58Z" fill="#1D1D1B"/>
<path d="M262.3 90.6004C256.3 90.6004 252.7 92.9004 252.7 97.5004C252.7 102.7 256.7 105.1 263.1 105.1C266.1 105.1 272.9 103.4 272.9 95.8004V90.8004C272.9 84.1004 269.3 80.9004 263.2 80.9004C259.4 80.9004 256.2 82.0004 254.1 83.3004C253.8 83.5004 253.8 83.8004 254 84.3004L254.8 85.8004C255.8 88.2004 258.4 87.4004 259.3 87.2004C260.3 87.0004 261.4 86.8004 262.4 86.8004C265.3 86.8004 266.1 88.1004 266.1 90.4004V90.8004C264.9 90.7004 263.6 90.6004 262.3 90.6004ZM266 96.6004C266 98.3004 264.7 99.6004 263 99.6004C260.9 99.6004 259.5 98.8004 259.5 97.3004C259.5 95.9004 260.6 95.1004 263 95.1004C264 95.1004 265.2 95.2004 266.1 95.4004V96.6004H266Z" fill="#1D1D1B"/>
<path d="M285.8 86.9004C287.1 86.9004 290 88.4004 291.8 85.9004L293 84.1004C293.3 83.7004 293.2 83.3004 292.8 83.0004C290.5 81.6004 288.1 80.9004 285.5 80.9004C278.9 80.9004 275.1 84.6004 275.1 90.4004V95.4004C275.1 101.3 278.9 105 285.6 105C288.7 105 291.2 104.2 293.4 102.6C293.8 102.3 293.8 101.9 293.5 101.5L292.2 99.5004C291.1 97.7004 287.3 99.0004 285.8 99.0004C283.5 99.0004 282 97.8004 282 95.3004V90.3004C281.9 88.2004 283.3 86.9004 285.8 86.9004Z" fill="#1D1D1B"/>
<path d="M300.8 76.7002C300.8 76.7002 295.5 77.4002 294.8 82.6002V96.6002C294.8 102.3 298.2 105 303.4 105C303.7 105 303.9 104.9 304.1 104.8C304.7 104.4 304.6 103.5 304 103.1C301.5 101.2 301.6 97.7002 301.6 95.7002V87.7002H303.1C307 87.5002 306.4 82.7002 306.4 82.7002C306.4 82.3002 306 81.9002 305.6 81.9002H301.6L301.7 77.3002C301.6 77.0002 301.3 76.7002 300.8 76.7002Z" fill="#1D1D1B"/>
<path d="M318 80.9004C311.5 80.9004 307.5 84.5004 307.5 90.4004V95.7004C307.5 101.5 311.5 105.1 318 105.1C324.5 105.1 328.5 101.6 328.5 95.7004V90.4004C328.4 84.5004 324.4 80.9004 318 80.9004ZM321.6 95.7004C321.6 97.9004 320.3 99.1004 318 99.1004C315.7 99.1004 314.4 97.9004 314.4 95.7004V90.4004C314.4 88.2004 315.7 86.9004 318 86.9004C320.3 86.9004 321.6 88.2004 321.6 90.4004V95.7004Z" fill="#1D1D1B"/>
<path d="M345.2 90.6004C339.2 90.6004 335.6 92.9004 335.6 97.5004C335.6 102.7 339.6 105.1 346 105.1C349 105.1 355.8 103.4 355.8 95.8004V90.8004C355.8 84.1004 352.2 80.9004 346.1 80.9004C342.3 80.9004 339.1 82.0004 337 83.3004C336.7 83.5004 336.7 83.8004 336.9 84.3004L337.7 85.8004C338.7 88.2004 341.3 87.4004 342.2 87.2004C343.2 87.0004 344.3 86.8004 345.3 86.8004C348.2 86.8004 349 88.1004 349 90.4004V90.8004C347.8 90.7004 346.5 90.6004 345.2 90.6004ZM348.9 96.5004C348.9 98.2004 347.6 99.5004 345.9 99.5004C343.8 99.5004 342.4 98.7004 342.4 97.2004C342.4 95.8004 343.5 95.0004 345.9 95.0004C346.9 95.0004 348.1 95.1004 349 95.3004V96.5004H348.9Z" fill="#1D1D1B"/>
<path d="M214.2 112.3C210.4 112.3 207.2 113.4 205.1 114.7C204.8 114.9 204.8 115.2 205 115.7L205.8 117.2C206.8 119.6 209.4 118.8 210.3 118.6C211.3 118.4 212.4 118.2 213.4 118.2C216.3 118.2 217.1 119.5 217.1 121.8V122.2C216 122.1 214.7 121.9 213.3 121.9C207.3 121.9 203.7 124.2 203.7 128.8C203.7 134 207.7 136.4 214.1 136.4C217.1 136.4 223.9 134.7 223.9 127.1V122.1C223.9 115.4 220.3 112.3 214.2 112.3ZM217.2 127.9C217.2 129.6 215.9 130.9 214.2 130.9C212.1 130.9 210.7 130.1 210.7 128.6C210.7 127.2 211.8 126.4 214.2 126.4C215.2 126.4 216.4 126.5 217.3 126.7V127.9H217.2Z" fill="#1D1D1B"/>
<path d="M243.2 131C242.1 129.2 238.3 130.5 236.8 130.5C234.5 130.5 233 129.3 233 126.8V121.8C233 119.5 234.5 118.2 236.9 118.2C238.2 118.2 241.1 119.7 242.9 117.2L244.1 115.4C244.4 115 244.3 114.6 243.9 114.3C241.6 112.9 239.2 112.2 236.6 112.2C230 112.2 226.2 115.9 226.2 121.7V126.7C226.2 132.6 230 136.3 236.7 136.3C239.8 136.3 242.3 135.5 244.5 133.9C244.9 133.6 244.9 133.2 244.6 132.8L243.2 131Z" fill="#1D1D1B"/>
<path d="M254.5 136.4C254.8 136.4 255 136.3 255.2 136.2C255.8 135.8 255.7 134.9 255.1 134.5C252.6 132.6 252.7 129.1 252.7 127.1V119.1H254.2C258.1 118.9 257.5 114.1 257.5 114.1C257.5 113.7 257.1 113.3 256.7 113.3H252.7L252.8 108.7C252.8 108.2 252.5 108 252 108C252 108 246.7 108.7 246 113.9V127.9C246 133.6 249.4 136.4 254.5 136.4Z" fill="#1D1D1B"/>
<path d="M269.1 136.4C275.6 136.4 279.6 132.9 279.6 127V121.7C279.6 115.8 275.6 112.2 269.1 112.2C262.6 112.2 258.6 115.8 258.6 121.7V127C258.6 132.9 262.6 136.4 269.1 136.4ZM265.5 121.8C265.5 119.6 266.8 118.3 269.1 118.3C271.4 118.3 272.7 119.6 272.7 121.8V127.1C272.7 129.3 271.4 130.5 269.1 130.5C266.8 130.5 265.5 129.3 265.5 127.1V121.8Z" fill="#1D1D1B"/>
<path d="M297.1 112.2C293.3 112.2 290.1 113.3 288 114.6C287.7 114.8 287.7 115.1 287.9 115.6L288.7 117.1C289.7 119.5 292.3 118.7 293.2 118.5C294.2 118.3 295.3 118.1 296.3 118.1C299.2 118.1 300 119.4 300 121.7V122.1C298.9 122 297.6 121.8 296.2 121.8C290.2 121.8 286.6 124.1 286.6 128.7C286.6 133.9 290.6 136.3 297 136.3C300 136.3 306.8 134.6 306.8 127V122C306.8 115.4 303.2 112.2 297.1 112.2ZM300.1 127.9C300.1 129.6 298.8 130.9 297.1 130.9C295 130.9 293.6 130.1 293.6 128.6C293.6 127.2 294.7 126.4 297.1 126.4C298.1 126.4 299.3 126.5 300.2 126.7V127.9H300.1Z" fill="#1D1D1B"/>
<path d="M326.1 130.9C325 129.1 321.2 130.4 319.7 130.4C317.4 130.4 315.9 129.2 315.9 126.7V121.7C315.9 119.4 317.4 118.1 319.8 118.1C321.1 118.1 324 119.6 325.8 117.1L327 115.3C327.3 114.9 327.2 114.5 326.8 114.2C324.5 112.8 322.1 112.1 319.5 112.1C312.9 112.1 309.1 115.8 309.1 121.6V126.6C309.1 132.5 312.9 136.2 319.6 136.2C322.7 136.2 325.2 135.4 327.4 133.8C327.8 133.5 327.8 133.1 327.5 132.7L326.1 130.9Z" fill="#1D1D1B"/>
<path d="M337.4 136.4C337.7 136.4 337.9 136.3 338.1 136.2C338.7 135.8 338.6 134.9 338 134.5C335.5 132.6 335.6 129.1 335.6 127.1V119.1H337.1C341 118.9 340.4 114.1 340.4 114.1C340.4 113.7 340 113.3 339.6 113.3H335.6L335.7 108.7C335.7 108.2 335.4 108 334.9 108C334.9 108 329.6 108.7 328.9 113.9V127.9C328.9 133.6 332.3 136.4 337.4 136.4Z" fill="#1D1D1B"/>
<path d="M352 136.4C358.5 136.4 362.5 132.9 362.5 127V121.7C362.5 115.8 358.5 112.2 352 112.2C345.5 112.2 341.5 115.8 341.5 121.7V127C341.5 132.9 345.5 136.4 352 136.4ZM348.4 121.7C348.4 119.5 349.7 118.2 352 118.2C354.3 118.2 355.6 119.5 355.6 121.7V127C355.6 129.2 354.3 130.4 352 130.4C349.7 130.4 348.4 129.2 348.4 127V121.7Z" fill="#1D1D1B"/>
<path d="M261.3 154.4C255.3 154.4 251.7 156.7 251.7 161.3C251.7 166.5 255.7 168.9 262.1 168.9C265.1 168.9 271.9 167.2 271.9 159.6V154.6C271.9 147.9 268.3 144.7 262.2 144.7C258.4 144.7 255.2 145.8 253.1 147.1C252.8 147.3 252.8 147.6 253 148.1L253.8 149.6C254.8 152 257.4 151.2 258.3 151C259.3 150.8 260.4 150.6 261.4 150.6C264.3 150.6 265.1 151.9 265.1 154.2V154.6C263.9 154.5 262.6 154.4 261.3 154.4ZM265 160.4C265 162.1 263.7 163.4 262 163.4C259.9 163.4 258.5 162.6 258.5 161.1C258.5 159.7 259.6 158.9 262 158.9C263 158.9 264.2 159 265.1 159.2V160.4H265Z" fill="#1D1D1B"/>
<path d="M292.3 166.4C292.7 166.1 292.7 165.7 292.4 165.3L291.1 163.3C290 161.5 286.2 162.8 284.7 162.8C282.4 162.8 280.9 161.6 280.9 159.1V154.1C280.9 151.8 282.4 150.5 284.8 150.5C286.1 150.5 289 152 290.8 149.5L292 147.7C292.3 147.3 292.2 146.9 291.8 146.6C289.5 145.2 287.1 144.5 284.5 144.5C277.9 144.5 274.1 148.2 274.1 154V159C274.1 164.9 277.9 168.6 284.6 168.6C287.5 168.9 290.1 168 292.3 166.4Z" fill="#1D1D1B"/>
<path d="M299.8 140.5C299.8 140.5 294.5 141.2 293.8 146.4V160.4C293.8 166.1 297.2 168.8 302.4 168.8C302.7 168.8 302.9 168.7 303.1 168.6C303.7 168.2 303.6 167.3 303 166.9C300.5 165 300.6 161.5 300.6 159.5V151.5H302.1C306 151.3 305.4 146.5 305.4 146.5C305.4 146.1 305 145.7 304.6 145.7H300.6L300.7 141.1C300.6 140.8 300.3 140.5 299.8 140.5Z" fill="#1D1D1B"/>
<path d="M317 168.9C323.5 168.9 327.5 165.4 327.5 159.5V154.2C327.5 148.3 323.5 144.7 317 144.7C310.5 144.7 306.5 148.3 306.5 154.2V159.5C306.4 165.3 310.5 168.9 317 168.9ZM313.3 154.2C313.3 152 314.6 150.7 316.9 150.7C319.2 150.7 320.5 152 320.5 154.2V159.5C320.5 161.7 319.2 162.9 316.9 162.9C314.6 162.9 313.3 161.7 313.3 159.5V154.2Z" fill="#1D1D1B"/>
<path d="M344.2 154.4C338.2 154.4 334.6 156.7 334.6 161.3C334.6 166.5 338.6 168.9 345 168.9C348 168.9 354.8 167.2 354.8 159.6V154.6C354.8 147.9 351.2 144.7 345.1 144.7C341.3 144.7 338.1 145.8 336 147.1C335.7 147.3 335.7 147.6 335.9 148.1L336.7 149.6C337.7 152 340.3 151.2 341.2 151C342.2 150.8 343.3 150.6 344.3 150.6C347.2 150.6 348 151.9 348 154.2V154.6C346.8 154.5 345.5 154.4 344.2 154.4ZM347.9 160.3C347.9 162 346.6 163.3 344.9 163.3C342.8 163.3 341.4 162.5 341.4 161C341.4 159.6 342.5 158.8 344.9 158.8C345.9 158.8 347.1 158.9 348 159.1V160.3H347.9Z" fill="#1D1D1B"/>
<path d="M213.3 185.6C207.3 185.6 203.7 187.9 203.7 192.5C203.7 197.7 207.7 200.1 214.1 200.1C217.1 200.1 223.9 198.4 223.9 190.8V185.8C223.9 179.1 220.3 175.9 214.2 175.9C210.4 175.9 207.2 177 205.1 178.3C204.8 178.5 204.8 178.8 205 179.3L205.8 180.8C206.8 183.2 209.4 182.4 210.3 182.2C211.3 182 212.4 181.8 213.4 181.8C216.3 181.8 217.1 183.1 217.1 185.4V185.8C216 185.7 214.7 185.6 213.3 185.6ZM217.1 191.6C217.1 193.3 215.8 194.6 214.1 194.6C212 194.6 210.6 193.8 210.6 192.3C210.6 190.9 211.7 190.1 214.1 190.1C215.1 190.1 216.3 190.2 217.2 190.4V191.6H217.1Z" fill="#1D1D1B"/>
<path d="M243.1 194.6C242 192.8 238.2 194.1 236.7 194.1C234.4 194.1 232.9 192.9 232.9 190.4V185.4C232.9 183.1 234.4 181.8 236.8 181.8C238.1 181.8 241 183.3 242.8 180.8L244 179C244.3 178.6 244.2 178.2 243.8 177.9C241.5 176.5 239.1 175.8 236.5 175.8C229.9 175.8 226.1 179.5 226.1 185.3V190.3C226.1 196.2 229.9 199.9 236.6 199.9C239.7 199.9 242.2 199.1 244.4 197.5C244.8 197.2 244.8 196.8 244.5 196.4L243.1 194.6Z" fill="#1D1D1B"/>
<path d="M255.1 199.8C255.7 199.4 255.6 198.5 255 198.1C252.5 196.2 252.6 192.7 252.6 190.7V182.7H254.1C258 182.5 257.4 177.7 257.4 177.7C257.4 177.3 257 176.9 256.6 176.9H252.6L252.7 172.3C252.7 171.8 252.4 171.6 251.9 171.6C251.9 171.6 246.6 172.3 245.9 177.5V191.5C245.9 197.2 249.3 199.9 254.5 199.9C254.7 200.1 254.9 200 255.1 199.8Z" fill="#1D1D1B"/>
<path d="M269 200.1C275.5 200.1 279.5 196.6 279.5 190.7V185.4C279.5 179.5 275.5 175.9 269 175.9C262.5 175.9 258.5 179.5 258.5 185.4V190.7C258.5 196.6 262.5 200.1 269 200.1ZM265.4 185.4C265.4 183.2 266.7 181.9 269 181.9C271.3 181.9 272.6 183.2 272.6 185.4V190.7C272.6 192.9 271.3 194.1 269 194.1C266.7 194.1 265.4 192.9 265.4 190.7V185.4Z" fill="#1D1D1B"/>
<path d="M296.2 185.6C290.2 185.6 286.6 187.9 286.6 192.5C286.6 197.7 290.6 200.1 297 200.1C300 200.1 306.8 198.4 306.8 190.8V185.8C306.8 179.1 303.2 175.9 297.1 175.9C293.3 175.9 290.1 177 288 178.3C287.7 178.5 287.7 178.8 287.9 179.3L288.7 180.8C289.7 183.2 292.3 182.4 293.2 182.2C294.2 182 295.3 181.8 296.3 181.8C299.2 181.8 300 183.1 300 185.4V185.8C298.8 185.7 297.6 185.6 296.2 185.6ZM300 191.6C300 193.3 298.7 194.6 297 194.6C294.9 194.6 293.5 193.8 293.5 192.3C293.5 190.9 294.6 190.1 297 190.1C298 190.1 299.2 190.2 300.1 190.4V191.6H300Z" fill="#1D1D1B"/>
<path d="M326 194.6C324.9 192.8 321.1 194.1 319.6 194.1C317.3 194.1 315.8 192.9 315.8 190.4V185.4C315.8 183.1 317.3 181.8 319.7 181.8C321 181.8 323.9 183.3 325.7 180.8L326.9 179C327.2 178.6 327.1 178.2 326.7 177.9C324.4 176.5 322 175.8 319.4 175.8C312.8 175.8 309 179.5 309 185.3V190.3C309 196.2 312.8 199.9 319.5 199.9C322.6 199.9 325.1 199.1 327.3 197.5C327.7 197.2 327.7 196.8 327.4 196.4L326 194.6Z" fill="#1D1D1B"/>
<path d="M338 199.8C338.6 199.4 338.5 198.5 337.9 198.1C335.4 196.2 335.5 192.7 335.5 190.7V182.7H337C340.9 182.5 340.3 177.7 340.3 177.7C340.3 177.3 339.9 176.9 339.5 176.9H335.5L335.6 172.3C335.6 171.8 335.3 171.6 334.8 171.6C334.8 171.6 329.5 172.3 328.8 177.5V191.5C328.8 197.2 332.2 199.9 337.4 199.9C337.6 200 337.8 200 338 199.8Z" fill="#1D1D1B"/>
<path d="M351.9 200.1C358.4 200.1 362.4 196.6 362.4 190.7V185.4C362.4 179.5 358.4 175.9 351.9 175.9C345.4 175.9 341.4 179.5 341.4 185.4V190.7C341.4 196.6 345.4 200.1 351.9 200.1ZM348.3 185.4C348.3 183.2 349.6 181.9 351.9 181.9C354.2 181.9 355.5 183.2 355.5 185.4V190.7C355.5 192.9 354.2 194.1 351.9 194.1C349.6 194.1 348.3 192.9 348.3 190.7V185.4Z" fill="#1D1D1B"/>
</g>
</g>
<path d="M75.5996 63.9004H80.1996V85.1004H75.5996V63.9004Z" fill="#553581"/>
<path d="M84.3 71.9L84 69H87.7L88 70.9C88.6 70.1 89.2 69.5 90 69.1C90.8 68.7 91.7 68.5 92.8 68.5C94.4 68.5 95.7 68.9 96.6 69.9C97.5 70.8 97.9 72.2 97.9 74.1V85.1H93.5V74.9C93.5 73.9 93.4 73.1 93.1 72.6C92.8 72.1 92.3 71.8 91.5 71.8C91 71.8 90.5 72 90.1 72.2C89.7 72.5 89.4 72.8 89.1 73.2C88.9 73.6 88.7 74.1 88.7 74.6V85H84.3V71.9Z" fill="#553581"/>
<path d="M101.5 68.1004C101.5 66.9004 101.6 65.8004 101.9 64.9004C102.2 64.0004 102.8 63.3004 103.6 62.7004C104.4 62.1004 105.7 61.9004 107.4 61.9004C108.4 61.9004 109.5 62.0004 110.5 62.3004C111.5 62.6004 112.5 62.9004 113.4 63.4004L112.3 66.3004C111.6 66.0004 110.9 65.7004 110.2 65.5004C109.4 65.3004 108.8 65.2004 108.2 65.2004C107.4 65.2004 106.8 65.4004 106.4 65.8004C106 66.2004 105.8 66.9004 105.8 67.8004V69.0004H115.1V85.2004H110.6V72.4004H106V91.8004H101.6V68.1004H101.5Z" fill="#553581"/>
<path d="M118.9 71.9004L118.6 68.9004H122.3L122.6 70.8004C123.2 70.0004 123.8 69.4004 124.6 69.0004C125.4 68.6004 126.3 68.4004 127.4 68.4004C129 68.4004 130.3 68.8004 131.2 69.8004C132.1 70.7004 132.5 72.1004 132.5 74.0004V85.0004H128.1V74.9004C128.1 73.9004 128 73.1004 127.7 72.6004C127.4 72.1004 126.9 71.8004 126.1 71.8004C125.6 71.8004 125.1 72.0004 124.7 72.2004C124.3 72.5004 124 72.8004 123.7 73.2004C123.5 73.6004 123.3 74.1004 123.3 74.6004V85.0004H118.9V71.9004Z" fill="#553581"/>
<path d="M136.4 66.0004C136 65.6004 135.7 65.0004 135.8 64.3004C135.8 63.6004 136 63.1004 136.5 62.6004C137 62.1004 137.5 61.9004 138.2 61.9004C138.9 61.9004 139.5 62.1004 140 62.6004C140.5 63.1004 140.7 63.6004 140.7 64.3004C140.7 65.0004 140.5 65.5004 140 66.0004C139.5 66.4004 139 66.7004 138.2 66.6004C137.4 66.7004 136.8 66.4004 136.4 66.0004ZM136 69.0004H140.4V85.2004H136V69.0004Z" fill="#553581"/>
<path d="M145.9 84.8008C145.1 84.3008 144.6 83.6008 144.4 82.8008C144.2 82.0008 144.1 81.0008 144.1 79.8008V62.8008H148.5V68.8008H152.7V72.2008H148.5V79.6008C148.5 80.5008 148.7 81.1008 149.1 81.5008C149.5 81.9008 150 82.1008 150.6 82.1008C151.2 82.1008 151.9 81.9008 152.5 81.5008L153.6 84.4008C153.1 84.7008 152.4 85.0008 151.7 85.2008C151 85.4008 150.1 85.5008 149.4 85.5008C147.8 85.6008 146.6 85.3008 145.9 84.8008Z" fill="#553581"/>
<path d="M157.7 92.5C156.8 91.7 156.3 90.7 156.3 89.3C156.3 88.2 156.6 87.2 157.2 86.3C157.8 85.4 158.6 84.6 159.6 83.9C158.2 83.7 157.2 83.1 156.5 82.3C155.8 81.5 155.5 80.3 155.5 78.7V69H159.9V78.4C159.9 79.1 160 79.7 160.1 80C160.2 80.4 160.4 80.7 160.7 81C161 81.2 161.5 81.4 162.2 81.4C162.6 81.4 163 81.3 163.4 81.1C163.8 80.9 164.1 80.6 164.3 80.1C164.5 79.7 164.7 79.2 164.7 78.7V69H169.2V82.5C169.2 83.2 169.2 83.9 169.1 84.8C169 85.7 169 86.4 168.9 86.9C168.6 89.1 167.9 90.8 166.7 91.9C165.5 93 163.8 93.6 161.7 93.6C160 93.6 158.6 93.2 157.7 92.5ZM164.1 89.4C164.5 88.7 164.7 87.7 164.7 86.4V83.4C163.4 84 162.3 84.8 161.5 85.6C160.7 86.4 160.3 87.4 160.2 88.5C160.2 89.1 160.4 89.6 160.7 89.9C161 90.2 161.5 90.4 162.1 90.4C163.1 90.4 163.7 90.1 164.1 89.4Z" fill="#553581"/>
<path d="M177.1 89.7002C175.1 89.1002 173.5 88.4002 172.5 87.7002L175.3 80.8002C176.3 81.4002 177.6 82.0002 179.2 82.6002C180.8 83.2002 182.1 83.4002 183 83.4002C184.1 83.4002 184.7 83.0002 184.7 82.1002C184.7 81.7002 184.5 81.4002 184.3 81.2002C184 81.0002 183.7 80.8002 183.3 80.6002C182.9 80.4002 182.3 80.2002 181.5 79.9002C180 79.5002 178.8 79.0002 177.7 78.4002C176.6 77.8002 175.7 77.0002 174.9 75.8002C174.1 74.7002 173.8 73.3002 173.8 71.5002C173.8 69.6002 174.2 68.0002 175.1 66.7002C176 65.4002 177.2 64.4002 178.7 63.7002C180.2 63.0002 182 62.7002 183.9 62.7002C185.9 62.7002 187.8 63.1002 189.6 63.8002C191.4 64.5002 193 65.5002 194.3 66.9002L190 72.4002C187.5 70.7002 185.5 69.8002 184 69.8002C183.5 69.8002 183.1 69.9002 182.9 70.1002C182.6 70.3002 182.5 70.6002 182.5 70.9002C182.5 71.3002 182.6 71.6002 182.9 71.9002C183.2 72.2002 183.6 72.4002 184.1 72.6002C184.6 72.8002 185.2 73.1002 186.1 73.3002C187.7 73.8002 189 74.3002 190 74.9002C191.1 75.5002 192 76.3002 192.7 77.4002C193.4 78.5002 193.8 79.9002 193.7 81.6002C193.7 84.4002 192.7 86.6002 190.8 88.1002C188.8 89.7002 186.2 90.4002 183 90.4002C181.1 90.6002 179.1 90.3002 177.1 89.7002Z" fill="#553581"/>
<path d="M202 70.5998H195.1V63.2998H217.4V70.5998H210.3V90.0998H202V70.5998Z" fill="#553581"/>
<path d="M226.5 63.2998H235.7L244.9 90.0998H236L234.6 85.2998H227.5L226.1 90.0998H218L226.5 63.2998ZM233.2 79.2998L231.1 71.1998H230.9L228.8 79.2998H233.2Z" fill="#553581"/>
<path d="M246.6 63.2998H256.5C260 63.2998 262.7 63.8998 264.6 65.0998C266.5 66.2998 267.4 68.2998 267.4 70.9998C267.4 72.4998 267 73.7998 266.3 74.9998C265.5 76.1998 264.6 77.0998 263.4 77.6998C263.8 77.8998 264.1 78.1998 264.4 78.5998C264.7 78.9998 265 79.4998 265.2 80.1998L269.6 90.1998H260.6L257.1 81.3998C256.9 80.9998 256.7 80.6998 256.4 80.5998C256.1 80.3998 255.7 80.2998 255.3 80.2998H254.9V90.1998H246.6V63.2998ZM256.5 74.3998C257.2 74.3998 257.8 74.1998 258.2 73.7998C258.6 73.3998 258.8 72.7998 258.8 71.8998C258.8 71.3998 258.7 70.9998 258.5 70.6998C258.3 70.3998 258.1 70.0998 257.7 69.9998C257.3 69.8998 256.9 69.7998 256.4 69.7998H254.9V74.3998H256.5Z" fill="#553581"/>
<path d="M276.9 70.5998H270V63.2998H292.3V70.5998H285.2V90.0998H276.9V70.5998Z" fill="#553581"/>
<path d="M52.2 108.6C51.4 108.2 51 107.4 51 106.3C51 105.3 51.3 104.1 52 102.7C52.8 100.9 54 98.9996 55.5 97.0996L59.5 98.5996L57.4 109C56.6 109.2 55.8 109.2 55.1 109.2C53.9 109.2 53 109 52.2 108.6ZM60.8 108.6C60 108.2 59.6 107.4 59.6 106.3C59.6 105.3 59.9 104.1 60.6 102.7C61.4 100.9 62.6 98.9996 64.1 97.0996L68.1 98.5996L66.1 109C65.3 109.2 64.5 109.2 63.8 109.2C62.6 109.2 61.6 109 60.8 108.6Z" fill="#553581"/>
<path d="M70.7002 100.199H90.1002V107.499H79.1002V110.199H88.2002V117.499H79.1002V127.099H70.8002V100.199H70.7002Z" fill="#553581"/>
<path d="M93.2002 100.199H101.5V126.999H93.2002V100.199Z" fill="#553581"/>
<path d="M105.5 100.199H115.3C119.6 100.199 122.9 101.199 125.2 103.299C127.5 105.399 128.7 108.499 128.6 112.699C128.6 115.999 128 118.699 126.8 120.899C125.6 122.999 124 124.599 122 125.599C120 126.599 117.8 127.099 115.4 127.099H105.4V100.199H105.5ZM115.6 120.599C117.1 120.599 118.3 119.999 119.1 118.799C119.9 117.599 120.3 115.799 120.3 113.399C120.3 110.899 119.8 109.199 118.9 108.199C118 107.199 116.7 106.699 115.1 106.699H113.9V120.599H115.6Z" fill="#553581"/>
<path d="M131.6 100.199H150V107.499H140V109.699H148.6V116.899H140V119.699H150.4V126.999H131.7V100.199H131.6Z" fill="#553581"/>
<path d="M153.4 100.199H161.8V119.599H172V126.999H153.4V100.199Z" fill="#553581"/>
<path d="M174.8 100.199H183.1V126.999H174.8V100.199Z" fill="#553581"/>
<path d="M187.1 100.199H196.9C201.2 100.199 204.5 101.199 206.8 103.299C209.1 105.399 210.3 108.499 210.2 112.699C210.2 115.999 209.6 118.699 208.4 120.899C207.2 122.999 205.6 124.599 203.6 125.599C201.6 126.599 199.4 127.099 197 127.099H187V100.199H187.1ZM197.2 120.599C198.7 120.599 199.9 119.999 200.7 118.799C201.5 117.599 201.9 115.799 201.9 113.399C201.9 110.899 201.4 109.199 200.5 108.199C199.6 107.199 198.3 106.699 196.7 106.699H195.5V120.599H197.2Z" fill="#553581"/>
<path d="M219.8 100.199H229L238.2 126.999H229.4L228 122.199H220.9L219.5 126.999H211.4L219.8 100.199ZM226.5 116.199L224.4 108.099H224.2L222.1 116.199H226.5Z" fill="#553581"/>
<path d="M239.9 100.199H249.7C254 100.199 257.3 101.199 259.6 103.299C261.9 105.399 263.1 108.499 263 112.699C263 115.999 262.4 118.699 261.2 120.899C260 122.999 258.4 124.599 256.4 125.599C254.4 126.599 252.2 127.099 249.8 127.099H239.8V100.199H239.9ZM249.9 120.599C251.4 120.599 252.6 119.999 253.4 118.799C254.2 117.599 254.6 115.799 254.6 113.399C254.6 110.899 254.1 109.199 253.2 108.199C252.3 107.199 251 106.699 249.4 106.699H248.2V120.599H249.9Z" fill="#553581"/>
<path d="M266 100.199H284.4V107.499H274.3V109.699H282.9V116.899H274.3V119.699H284.7V126.999H266V100.199Z" fill="#553581"/>
<path d="M287.3 108.3L288.9 97.6998C289.1 97.5998 289.5 97.5998 290.1 97.4998C290.7 97.3998 291.2 97.3998 291.7 97.4998C292.9 97.3998 293.9 97.5998 294.6 98.0998C295.4 98.4998 295.7 99.2998 295.7 100.4C295.7 101.6 295.2 103.1 294.2 105.1C293.2 107.1 292.3 108.6 291.4 109.8L287.3 108.3ZM295.9 108.3L297.5 97.6998C297.7 97.5998 298.1 97.5998 298.7 97.4998C299.3 97.3998 299.8 97.3998 300.3 97.4998C301.5 97.3998 302.5 97.5998 303.2 98.0998C304 98.4998 304.3 99.2998 304.3 100.4C304.3 101.6 303.8 103.1 302.8 105.1C301.8 107.1 300.9 108.6 300 109.8L295.9 108.3Z" fill="#553581"/>
</svg>
