<svg width="362" height="191" viewBox="0 0 362 191" fill="none" xmlns="http://www.w3.org/2000/svg">
<path d="M92.7998 13H351V95C351 140.3 314.3 177 269 177H92.7998C47.4998 177 10.7998 140.3 10.7998 95C10.7998 49.8 47.4998 13 92.7998 13Z" fill="#BFA1DE"/>
<g opacity="0.1">
<mask id="mask0_245_14" style="mask-type:luminance" maskUnits="userSpaceOnUse" x="10" y="13" width="341" height="165">
<path d="M92.7998 13.0996H351V95.0996C351 140.4 314.3 177.1 269 177.1H92.7998C47.4998 177.1 10.7998 140.4 10.7998 95.0996C10.7998 49.7996 47.4998 13.0996 92.7998 13.0996Z" fill="white"/>
</mask>
<g mask="url(#mask0_245_14)">
<path d="M16.6 26.9998C10.6 26.9998 7 29.2998 7 33.8998C7 39.0998 11 41.4998 17.4 41.4998C20.4 41.4998 27.2 39.7998 27.2 32.1998V27.1998C27.2 20.4998 23.6 17.2998 17.5 17.2998C13.7 17.2998 10.5 18.3998 8.4 19.6998C8 19.9998 8 20.2998 8.3 20.6998L9 22.1998C10 24.5998 12.6 23.7998 13.5 23.5998C14.5 23.3998 15.6 23.1998 16.6 23.1998C19.5 23.1998 20.3 24.4998 20.3 26.7998V27.1998C19.3 27.0998 18 26.9998 16.6 26.9998ZM20.4 32.9998C20.4 34.6998 19.1 35.9998 17.4 35.9998C15.3 35.9998 13.9 35.1998 13.9 33.6998C13.9 32.2998 15 31.4998 17.4 31.4998C18.4 31.4998 19.6 31.5998 20.5 31.7998V32.9998H20.4Z" fill="#1D1D1B"/>
<path d="M29.4004 26.8992V31.8992C29.4004 37.7992 33.2004 41.4992 39.9004 41.4992C43.0004 41.4992 45.5004 40.6992 47.7004 39.0992C48.1004 38.7992 48.1004 38.3992 47.8004 37.9992L46.5004 35.9992C45.4004 34.1992 41.6004 35.4992 40.1004 35.4992C37.8004 35.4992 36.3004 34.2992 36.3004 31.7992V26.7992C36.3004 24.4992 37.8004 23.1992 40.2004 23.1992C41.5004 23.1992 44.4004 24.6992 46.2004 22.1992L47.4004 20.3992C47.7004 19.9992 47.6004 19.5992 47.2004 19.2992C44.9004 17.8992 42.5004 17.1992 39.9004 17.1992C33.2004 17.2992 29.4004 20.9992 29.4004 26.8992Z" fill="#1D1D1B"/>
<path d="M55.2002 13.1992C55.2002 13.1992 49.9002 13.8992 49.2002 19.0992V33.0992C49.2002 38.7992 52.6002 41.4992 57.8002 41.4992C58.1002 41.4992 58.3002 41.3992 58.5002 41.2992C59.1002 40.8992 59.0002 39.9992 58.4002 39.5992C55.9002 37.6992 56.0002 34.1992 56.0002 32.1992V24.1992H57.5002C61.4002 23.9992 60.8002 19.1992 60.8002 19.1992C60.8002 18.7992 60.4002 18.3992 60.0002 18.3992H56.0002L56.1002 13.7992C55.9002 13.3992 55.7002 13.1992 55.2002 13.1992Z" fill="#1D1D1B"/>
<path d="M72.2998 41.4998C78.7998 41.4998 82.7998 37.9998 82.7998 32.0998V26.7998C82.7998 20.8998 78.7998 17.2998 72.2998 17.2998C65.7998 17.2998 61.7998 20.8998 61.7998 26.7998V32.0998C61.7998 37.9998 65.7998 41.4998 72.2998 41.4998ZM68.6998 26.7998C68.6998 24.5998 69.9998 23.2998 72.2998 23.2998C74.5998 23.2998 75.8998 24.5998 75.8998 26.7998V32.0998C75.8998 34.2998 74.5998 35.4998 72.2998 35.4998C69.9998 35.4998 68.6998 34.2998 68.6998 32.0998V26.7998Z" fill="#1D1D1B"/>
<path d="M98.5004 26.9998C92.5004 26.9998 88.9004 29.2998 88.9004 33.8998C88.9004 39.0998 92.9004 41.4998 99.3004 41.4998C102.3 41.4998 109.1 39.7998 109.1 32.1998V27.1998C109.1 20.4998 105.5 17.2998 99.4004 17.2998C95.6004 17.2998 92.4004 18.3998 90.3004 19.6998C90.0004 19.8998 90.0004 20.1998 90.2004 20.6998L91.0004 22.1998C92.0004 24.5998 94.6004 23.7998 95.5004 23.5998C96.5004 23.3998 97.6004 23.1998 98.6004 23.1998C101.5 23.1998 102.3 24.4998 102.3 26.7998V27.1998C101.1 27.0998 99.9004 26.9998 98.5004 26.9998ZM102.3 32.9998C102.3 34.6998 101 35.9998 99.3004 35.9998C97.2004 35.9998 95.8004 35.1998 95.8004 33.6998C95.8004 32.2998 96.9004 31.4998 99.3004 31.4998C100.3 31.4998 101.5 31.5998 102.4 31.7998V32.9998H102.3Z" fill="#1D1D1B"/>
<path d="M111.2 26.8992V31.8992C111.2 37.7992 115 41.4992 121.7 41.4992C124.8 41.4992 127.3 40.6992 129.5 39.0992C129.9 38.7992 129.9 38.3992 129.6 37.9992L128.3 35.9992C127.2 34.1992 123.4 35.4992 121.9 35.4992C119.6 35.4992 118.1 34.2992 118.1 31.7992V26.7992C118.1 24.4992 119.6 23.1992 122 23.1992C123.3 23.1992 126.2 24.6992 128 22.1992L129.2 20.3992C129.5 19.9992 129.4 19.5992 129 19.2992C126.7 17.8992 124.3 17.1992 121.7 17.1992C115.1 17.2992 111.2 20.9992 111.2 26.8992Z" fill="#1D1D1B"/>
<path d="M137 13.1992C137 13.1992 131.7 13.8992 131 19.0992V33.0992C131 38.7992 134.4 41.4992 139.6 41.4992C139.9 41.4992 140.1 41.3992 140.3 41.2992C140.9 40.8992 140.8 39.9992 140.2 39.5992C137.7 37.6992 137.8 34.1992 137.8 32.1992V24.1992H139.3C143.2 23.9992 142.6 19.1992 142.6 19.1992C142.6 18.7992 142.2 18.3992 141.8 18.3992H137.8L137.9 13.7992C137.8 13.3992 137.5 13.1992 137 13.1992Z" fill="#1D1D1B"/>
<path d="M154.2 41.4998C160.7 41.4998 164.7 37.9998 164.7 32.0998V26.7998C164.7 20.8998 160.7 17.2998 154.2 17.2998C147.7 17.2998 143.7 20.8998 143.7 26.7998V32.0998C143.7 37.9998 147.7 41.4998 154.2 41.4998ZM150.6 26.7998C150.6 24.5998 151.9 23.2998 154.2 23.2998C156.5 23.2998 157.8 24.5998 157.8 26.7998V32.0998C157.8 34.2998 156.5 35.4998 154.2 35.4998C151.9 35.4998 150.6 34.2998 150.6 32.0998V26.7998Z" fill="#1D1D1B"/>
<path d="M181.4 26.9998C175.4 26.9998 171.8 29.2998 171.8 33.8998C171.8 39.0998 175.8 41.4998 182.2 41.4998C185.2 41.4998 192 39.7998 192 32.1998V27.1998C192 20.4998 188.4 17.2998 182.3 17.2998C178.5 17.2998 175.3 18.3998 173.2 19.6998C172.9 19.8998 172.9 20.1998 173.1 20.6998L173.9 22.1998C174.9 24.5998 177.5 23.7998 178.4 23.5998C179.4 23.3998 180.5 23.1998 181.5 23.1998C184.4 23.1998 185.2 24.4998 185.2 26.7998V27.1998C184 27.0998 182.8 26.9998 181.4 26.9998ZM185.1 32.9998C185.1 34.6998 183.8 35.9998 182.1 35.9998C180 35.9998 178.6 35.1998 178.6 33.6998C178.6 32.2998 179.7 31.4998 182.1 31.4998C183.1 31.4998 184.3 31.5998 185.2 31.7998V32.9998H185.1Z" fill="#1D1D1B"/>
<path d="M194.1 26.7996V31.7996C194.1 37.6996 197.9 41.3996 204.6 41.3996C207.7 41.3996 210.2 40.5996 212.4 38.9996C212.8 38.6996 212.8 38.2996 212.5 37.8996L211.2 35.8996C210.1 34.0996 206.3 35.3996 204.8 35.3996C202.5 35.3996 201 34.1996 201 31.6996V26.6996C201 24.3996 202.5 23.0996 204.9 23.0996C206.2 23.0996 209.1 24.5996 210.9 22.0996L212.1 20.2996C212.4 19.8996 212.3 19.4996 211.9 19.1996C209.6 17.7996 207.2 17.0996 204.6 17.0996C198 17.2996 194.1 20.9996 194.1 26.7996Z" fill="#1D1D1B"/>
<path d="M219.9 13.0996C219.9 13.0996 214.6 13.7996 213.9 18.9996V32.9996C213.9 38.6996 217.3 41.3996 222.5 41.3996C222.8 41.3996 223 41.2996 223.2 41.1996C223.8 40.7996 223.7 39.8996 223.1 39.4996C220.6 37.5996 220.7 34.0996 220.7 32.0996V24.0996H222.2C226.1 23.8996 225.5 19.0996 225.5 19.0996C225.5 18.6996 225.1 18.2996 224.7 18.2996H220.7L220.8 13.6996C220.7 13.3996 220.4 13.0996 219.9 13.0996Z" fill="#1D1D1B"/>
<path d="M237.1 41.4998C243.6 41.4998 247.6 37.9998 247.6 32.0998V26.7998C247.6 20.8998 243.6 17.2998 237.1 17.2998C230.6 17.2998 226.6 20.8998 226.6 26.7998V32.0998C226.6 37.8998 230.6 41.4998 237.1 41.4998ZM233.5 26.7998C233.5 24.5998 234.8 23.2998 237.1 23.2998C239.4 23.2998 240.7 24.5998 240.7 26.7998V32.0998C240.7 34.2998 239.4 35.4998 237.1 35.4998C234.8 35.4998 233.5 34.2998 233.5 32.0998V26.7998Z" fill="#1D1D1B"/>
<path d="M9.8002 72.6994C10.1002 72.6994 10.3002 72.5994 10.5002 72.4994C11.1002 72.0994 11.0002 71.1994 10.4002 70.7994C8.0002 68.8994 8.0002 65.3994 8.0002 63.3994V55.3994H9.5002C13.4002 55.1994 12.8002 50.3994 12.8002 50.3994C12.8002 49.9994 12.4002 49.5994 12.0002 49.5994H8.0002V45.0994C8.0002 44.5994 7.7002 44.3994 7.2002 44.3994C7.2002 44.3994 1.9002 45.0994 1.2002 50.2994V64.2994C1.2002 69.8994 4.7002 72.6994 9.8002 72.6994Z" fill="#1D1D1B"/>
<path d="M24.2998 72.7C30.7998 72.7 34.7998 69.2 34.7998 63.3V58C34.7998 52.1 30.7998 48.5 24.2998 48.5C17.7998 48.5 13.7998 52.1 13.7998 58V63.3C13.7998 69.2 17.7998 72.7 24.2998 72.7ZM20.6998 58.1C20.6998 55.9 21.9998 54.6 24.2998 54.6C26.5998 54.6 27.8998 55.9 27.8998 58.1V63.4C27.8998 65.6 26.5998 66.8 24.2998 66.8C21.9998 66.8 20.6998 65.6 20.6998 63.4V58.1Z" fill="#1D1D1B"/>
<path d="M60.9998 58.4996C60.9998 51.7996 57.3998 48.5996 51.2998 48.5996C47.4998 48.5996 44.2998 49.6996 42.1998 50.9996C41.8998 51.1996 41.8998 51.4996 42.0998 51.9996L42.8998 53.4996C43.8998 55.8996 46.4998 55.0996 47.3998 54.8996C48.3998 54.6996 49.4998 54.4996 50.4998 54.4996C53.3998 54.4996 54.1998 55.7996 54.1998 58.0996V58.4996C53.0998 58.3996 51.7998 58.1996 50.3998 58.1996C44.3998 58.1996 40.7998 60.4996 40.7998 65.0996C40.7998 70.2996 44.7998 72.6996 51.1998 72.6996C54.1998 72.6996 60.9998 70.9996 60.9998 63.3996V58.4996ZM54.2998 64.1996C54.2998 65.8996 52.9998 67.1996 51.2998 67.1996C49.1998 67.1996 47.7998 66.3996 47.7998 64.8996C47.7998 63.4996 48.8998 62.6996 51.2998 62.6996C52.2998 62.6996 53.4998 62.7996 54.3998 62.9996V64.1996H54.2998Z" fill="#1D1D1B"/>
<path d="M73.9998 54.5C75.2998 54.5 78.1998 56 79.9998 53.5L81.1998 51.7C81.4998 51.3 81.3998 50.9 80.9998 50.6C78.6998 49.2 76.2998 48.5 73.6998 48.5C67.0998 48.5 63.2998 52.2 63.2998 58V63C63.2998 68.9 67.0998 72.6 73.7998 72.6C76.8998 72.6 79.3998 71.8 81.5998 70.2C81.9998 69.9 81.9998 69.5 81.6998 69.1L80.3998 67.1C79.2998 65.3 75.4998 66.6 73.9998 66.6C71.6998 66.6 70.1998 65.4 70.1998 62.9V57.9C70.0998 55.8 71.5998 54.5 73.9998 54.5Z" fill="#1D1D1B"/>
<path d="M91.7004 72.6998C92.0004 72.6998 92.2004 72.5998 92.4004 72.4998C93.0004 72.0998 92.9004 71.1998 92.3004 70.7998C89.8004 68.8998 89.9004 65.3998 89.9004 63.3998V55.3998H91.4004C95.3004 55.1998 94.7004 50.3998 94.7004 50.3998C94.7004 49.9998 94.3004 49.5998 93.9004 49.5998H89.9004L90.0004 44.9998C90.0004 44.4998 89.7004 44.2998 89.2004 44.2998C89.2004 44.2998 83.9004 44.9998 83.2004 50.1998V64.1998C83.1004 69.8998 86.5004 72.6998 91.7004 72.6998Z" fill="#1D1D1B"/>
<path d="M106.2 72.7C112.7 72.7 116.7 69.2 116.7 63.3V58C116.7 52.1 112.7 48.5 106.2 48.5C99.7002 48.5 95.7002 52.1 95.7002 58V63.3C95.7002 69.2 99.7002 72.7 106.2 72.7ZM102.6 58.1C102.6 55.9 103.9 54.6 106.2 54.6C108.5 54.6 109.8 55.9 109.8 58.1V63.4C109.8 65.6 108.5 66.8 106.2 66.8C103.9 66.8 102.6 65.6 102.6 63.4V58.1Z" fill="#1D1D1B"/>
<path d="M143.9 58.4C143.9 51.7 140.3 48.5 134.2 48.5C130.4 48.5 127.2 49.6 125.1 50.9C124.8 51.1 124.8 51.4 125 51.9L125.8 53.4C126.8 55.8 129.4 55 130.3 54.8C131.3 54.6 132.4 54.4 133.4 54.4C136.3 54.4 137.1 55.7 137.1 58V58.4C136 58.3 134.7 58.1 133.3 58.1C127.3 58.1 123.7 60.4 123.7 65C123.7 70.2 127.7 72.6 134.1 72.6C137.1 72.6 143.9 70.9 143.9 63.3V58.4ZM137.2 64.2C137.2 65.9 135.9 67.2 134.2 67.2C132.1 67.2 130.7 66.4 130.7 64.9C130.7 63.5 131.8 62.7 134.2 62.7C135.2 62.7 136.4 62.8 137.3 63V64.2H137.2Z" fill="#1D1D1B"/>
<path d="M163.3 67.1994C162.2 65.3994 158.4 66.6994 156.9 66.6994C154.6 66.6994 153.1 65.4994 153.1 62.9994V57.9994C153.1 55.6994 154.6 54.3994 157 54.3994C158.3 54.3994 161.2 55.8994 163 53.3994L164.2 51.5994C164.5 51.1994 164.4 50.7994 164 50.4994C161.7 49.0994 159.3 48.3994 156.7 48.3994C150.1 48.3994 146.3 52.0994 146.3 57.8994V62.8994C146.3 68.7994 150.1 72.4994 156.8 72.4994C159.9 72.4994 162.4 71.6994 164.6 70.0994C165 69.7994 165 69.3994 164.7 68.9994L163.3 67.1994Z" fill="#1D1D1B"/>
<path d="M174.6 72.6998C174.9 72.6998 175.1 72.5998 175.3 72.4998C175.9 72.0998 175.8 71.1998 175.2 70.7998C172.7 68.8998 172.8 65.3998 172.8 63.3998V55.3998H174.3C178.2 55.1998 177.6 50.3998 177.6 50.3998C177.6 49.9998 177.2 49.5998 176.8 49.5998H172.8L172.9 44.9998C172.9 44.4998 172.6 44.2998 172.1 44.2998C172.1 44.2998 166.8 44.9998 166.1 50.1998V64.1998C166 69.8998 169.4 72.6998 174.6 72.6998Z" fill="#1D1D1B"/>
<path d="M189.1 72.7C195.6 72.7 199.6 69.2 199.6 63.3V58C199.6 52.1 195.6 48.5 189.1 48.5C182.6 48.5 178.6 52.1 178.6 58V63.3C178.6 69.2 182.6 72.7 189.1 72.7ZM185.5 58C185.5 55.8 186.8 54.5 189.1 54.5C191.4 54.5 192.7 55.8 192.7 58V63.3C192.7 65.5 191.4 66.7 189.1 66.7C186.8 66.7 185.5 65.5 185.5 63.3V58Z" fill="#1D1D1B"/>
<path d="M16.5004 90.7C10.5004 90.7 6.90039 93 6.90039 97.6C6.90039 102.8 10.9004 105.2 17.3004 105.2C20.3004 105.2 27.1004 103.5 27.1004 95.9V90.9C27.1004 84.2 23.5004 81 17.4004 81C13.6004 81 10.4004 82.1 8.30039 83.4C8.00039 83.7 8.00039 84 8.20039 84.4L9.00039 85.9C10.0004 88.3 12.6004 87.5 13.5004 87.3C14.5004 87.1 15.6004 86.9 16.6004 86.9C19.5004 86.9 20.3004 88.2 20.3004 90.5V90.9C19.2004 90.8 17.9004 90.7 16.5004 90.7ZM20.3004 96.7C20.3004 98.4 19.0004 99.7 17.3004 99.7C15.2004 99.7 13.8004 98.9 13.8004 97.4C13.8004 96 14.9004 95.2 17.3004 95.2C18.3004 95.2 19.5004 95.3 20.4004 95.5V96.7H20.3004Z" fill="#1D1D1B"/>
<path d="M47.7004 101.699L46.4004 99.6994C45.3004 97.8994 41.5004 99.1994 40.0004 99.1994C37.7004 99.1994 36.2004 97.9994 36.2004 95.4994V90.4994C36.2004 88.1994 37.7004 86.8994 40.1004 86.8994C41.4004 86.8994 44.3004 88.3994 46.1004 85.8994L47.3004 84.0994C47.6004 83.6994 47.5004 83.2994 47.1004 82.9994C44.8004 81.5994 42.4004 80.8994 39.8004 80.8994C33.2004 80.8994 29.4004 84.5994 29.4004 90.3994V95.3994C29.4004 101.299 33.2004 104.999 39.9004 104.999C43.0004 104.999 45.5004 104.199 47.7004 102.599C47.9004 102.499 48.0004 102.099 47.7004 101.699Z" fill="#1D1D1B"/>
<path d="M55.9002 87.8998H57.4002C61.3002 87.6998 60.7002 82.8998 60.7002 82.8998C60.7002 82.4998 60.3002 82.0998 59.9002 82.0998H55.9002L56.0002 77.4998C56.0002 76.9998 55.7002 76.7998 55.2002 76.7998C55.2002 76.7998 49.9002 77.4998 49.2002 82.6998V96.6998C49.2002 102.4 52.6002 105.1 57.8002 105.1C58.1002 105.1 58.3002 105 58.5002 104.9C59.1002 104.5 59.0002 103.6 58.4002 103.2C55.9002 101.3 56.0002 97.7998 56.0002 95.7998V87.8998H55.9002Z" fill="#1D1D1B"/>
<path d="M72.2002 105.2C78.7002 105.2 82.7002 101.7 82.7002 95.8V90.5C82.7002 84.6 78.7002 81 72.2002 81C65.7002 81 61.7002 84.6 61.7002 90.5V95.8C61.7002 101.6 65.7002 105.2 72.2002 105.2ZM68.6002 90.5C68.6002 88.3 69.9002 87 72.2002 87C74.5002 87 75.8002 88.3 75.8002 90.5V95.8C75.8002 98 74.5002 99.2 72.2002 99.2C69.9002 99.2 68.6002 98 68.6002 95.8V90.5Z" fill="#1D1D1B"/>
<path d="M98.3998 90.7C92.3998 90.7 88.7998 93 88.7998 97.6C88.7998 102.8 92.7998 105.2 99.1998 105.2C102.2 105.2 109 103.5 109 95.9V90.9C109 84.2 105.4 81 99.2998 81C95.4998 81 92.2998 82.1 90.1998 83.4C89.8998 83.6 89.8998 83.9 90.0998 84.4L90.8998 85.9C91.8998 88.3 94.4998 87.5 95.3998 87.3C96.3998 87.1 97.4998 86.9 98.4998 86.9C101.4 86.9 102.2 88.2 102.2 90.5V90.9C101 90.8 99.7998 90.7 98.3998 90.7ZM102.2 96.7C102.2 98.4 100.9 99.7 99.1998 99.7C97.0998 99.7 95.6998 98.9 95.6998 97.4C95.6998 96 96.7998 95.2 99.1998 95.2C100.2 95.2 101.4 95.3 102.3 95.5V96.7H102.2Z" fill="#1D1D1B"/>
<path d="M121.9 87C123.2 87 126.1 88.5 127.9 86L129.1 84.2C129.4 83.8 129.3 83.4 128.9 83.1C126.6 81.7 124.2 81 121.6 81C115 81 111.2 84.7 111.2 90.5V95.5C111.2 101.4 115 105.1 121.7 105.1C124.8 105.1 127.3 104.3 129.5 102.7C129.9 102.4 129.9 102 129.6 101.6L128.3 99.6C127.2 97.8 123.4 99.1 121.9 99.1C119.6 99.1 118.1 97.9 118.1 95.4V90.4C118 88.3 119.4 87 121.9 87Z" fill="#1D1D1B"/>
<path d="M137 76.7998C137 76.7998 131.7 77.4998 131 82.6998V96.6998C131 102.4 134.4 105.1 139.6 105.1C139.9 105.1 140.1 105 140.3 104.9C140.9 104.5 140.8 103.6 140.2 103.2C137.7 101.3 137.8 97.7998 137.8 95.7998V87.7998H139.3C143.2 87.5998 142.6 82.7998 142.6 82.7998C142.6 82.3998 142.2 81.9998 141.8 81.9998H137.8L137.9 77.3998C137.7 76.9998 137.4 76.7998 137 76.7998Z" fill="#1D1D1B"/>
<path d="M154.1 81C147.6 81 143.6 84.6 143.6 90.5V95.8C143.6 101.6 147.6 105.2 154.1 105.2C160.6 105.2 164.6 101.7 164.6 95.8V90.5C164.6 84.6 160.5 81 154.1 81ZM157.7 95.8C157.7 98 156.4 99.2 154.1 99.2C151.8 99.2 150.5 98 150.5 95.8V90.5C150.5 88.3 151.8 87 154.1 87C156.4 87 157.7 88.3 157.7 90.5V95.8Z" fill="#1D1D1B"/>
<path d="M181.3 90.5994C175.3 90.5994 171.7 92.8994 171.7 97.4994C171.7 102.699 175.7 105.099 182.1 105.099C185.1 105.099 191.9 103.399 191.9 95.7994V90.7994C191.9 84.0994 188.3 80.8994 182.2 80.8994C178.4 80.8994 175.2 81.9994 173.1 83.2994C172.8 83.4994 172.8 83.7994 173 84.2994L173.8 85.7994C174.8 88.1994 177.4 87.3994 178.3 87.1994C179.3 86.9994 180.4 86.7994 181.4 86.7994C184.3 86.7994 185.1 88.0994 185.1 90.3994V90.7994C183.9 90.7994 182.7 90.5994 181.3 90.5994ZM185.1 96.5994C185.1 98.2994 183.8 99.5994 182.1 99.5994C180 99.5994 178.6 98.7994 178.6 97.2994C178.6 95.8994 179.7 95.0994 182.1 95.0994C183.1 95.0994 184.3 95.1994 185.2 95.3994V96.5994H185.1Z" fill="#1D1D1B"/>
<path d="M204.8 86.8994C206.1 86.8994 209 88.3994 210.8 85.8994L212 84.0994C212.3 83.6994 212.2 83.2994 211.8 82.9994C209.5 81.5994 207.1 80.8994 204.5 80.8994C197.9 80.8994 194.1 84.5994 194.1 90.3994V95.3994C194.1 101.299 197.9 104.999 204.6 104.999C207.7 104.999 210.2 104.199 212.4 102.599C212.8 102.299 212.8 101.899 212.5 101.499L211.2 99.4994C210.1 97.6994 206.3 98.9994 204.8 98.9994C202.5 98.9994 201 97.7994 201 95.2994V90.2994C200.9 88.2994 202.3 86.8994 204.8 86.8994Z" fill="#1D1D1B"/>
<path d="M219.8 76.7998C219.8 76.7998 214.5 77.4998 213.8 82.6998V96.6998C213.8 102.4 217.2 105.1 222.4 105.1C222.7 105.1 222.9 105 223.1 104.9C223.7 104.5 223.6 103.6 223 103.2C220.5 101.3 220.6 97.7998 220.6 95.7998V87.7998H222.1C226 87.5998 225.4 82.7998 225.4 82.7998C225.4 82.3998 225 81.9998 224.6 81.9998H220.6L220.7 77.3998C220.6 76.9998 220.3 76.7998 219.8 76.7998Z" fill="#1D1D1B"/>
<path d="M237 81C230.5 81 226.5 84.6 226.5 90.5V95.8C226.5 101.6 230.5 105.2 237 105.2C243.5 105.2 247.5 101.7 247.5 95.8V90.5C247.5 84.5 243.4 81 237 81ZM240.6 95.8C240.6 98 239.3 99.2 237 99.2C234.7 99.2 233.4 98 233.4 95.8V90.5C233.4 88.3 234.7 87 237 87C239.3 87 240.6 88.3 240.6 90.5V95.8Z" fill="#1D1D1B"/>
<path d="M8.79994 136.5C9.09994 136.5 9.29994 136.4 9.49994 136.3C10.0999 135.9 9.99994 135 9.39994 134.6C6.89994 132.7 6.99994 129.2 6.99994 127.2V119.2H8.49994C12.3999 119 11.7999 114.2 11.7999 114.2C11.7999 113.8 11.3999 113.4 10.9999 113.4H6.99994L7.09994 108.8C7.09994 108.3 6.79994 108.1 6.29994 108.1C6.29994 108.1 0.99994 108.8 0.29994 114V128C0.19994 133.7 3.69994 136.5 8.79994 136.5Z" fill="#1D1D1B"/>
<path d="M23.2998 136.5C29.7998 136.5 33.7998 133 33.7998 127.1V121.8C33.7998 115.9 29.7998 112.3 23.2998 112.3C16.7998 112.3 12.7998 115.9 12.7998 121.8V127.1C12.7998 133 16.7998 136.5 23.2998 136.5ZM19.6998 121.9C19.6998 119.7 20.9998 118.4 23.2998 118.4C25.5998 118.4 26.8998 119.7 26.8998 121.9V127.2C26.8998 129.4 25.5998 130.6 23.2998 130.6C20.9998 130.6 19.6998 129.4 19.6998 127.2V121.9Z" fill="#1D1D1B"/>
<path d="M50.4004 112.3C46.6004 112.3 43.4004 113.4 41.3004 114.7C41.0004 114.9 41.0004 115.2 41.2004 115.7L42.0004 117.2C43.0004 119.6 45.6004 118.8 46.5004 118.6C47.5004 118.4 48.6004 118.2 49.6004 118.2C52.5004 118.2 53.3004 119.5 53.3004 121.8V122.2C52.2004 122.1 50.9004 121.9 49.5004 121.9C43.5004 121.9 39.9004 124.2 39.9004 128.8C39.9004 134 43.9004 136.4 50.3004 136.4C53.3004 136.4 60.1004 134.7 60.1004 127.1V122.1C60.0004 115.5 56.5004 112.3 50.4004 112.3ZM53.3004 128C53.3004 129.7 52.0004 131 50.3004 131C48.2004 131 46.8004 130.2 46.8004 128.7C46.8004 127.3 47.9004 126.5 50.3004 126.5C51.3004 126.5 52.5004 126.6 53.4004 126.8V128H53.3004Z" fill="#1D1D1B"/>
<path d="M72.9998 118.3C74.2998 118.3 77.1998 119.8 78.9998 117.3L80.1998 115.5C80.4998 115.1 80.3998 114.7 79.9998 114.4C77.6998 113 75.2998 112.3 72.6998 112.3C66.0998 112.3 62.2998 116 62.2998 121.8V126.8C62.2998 132.7 66.0998 136.4 72.7998 136.4C75.8998 136.4 78.3998 135.6 80.5998 134C80.9998 133.7 80.9998 133.3 80.6998 132.9L79.3998 130.9C78.2998 129.1 74.4998 130.4 72.9998 130.4C70.6998 130.4 69.1998 129.2 69.1998 126.7V121.7C69.0998 119.6 70.5998 118.3 72.9998 118.3Z" fill="#1D1D1B"/>
<path d="M88.0996 108.199C88.0996 108.199 82.7996 108.899 82.0996 114.099V128.099C82.0996 133.799 85.4996 136.499 90.6996 136.499C90.9996 136.499 91.1996 136.399 91.3996 136.299C91.9996 135.899 91.8996 134.999 91.2996 134.599C88.7996 132.699 88.8996 129.199 88.8996 127.199V119.199H90.3996C94.2996 118.999 93.6996 114.199 93.6996 114.199C93.6996 113.799 93.2996 113.399 92.8996 113.399H88.8996L88.9996 108.799C88.7996 108.399 88.5996 108.199 88.0996 108.199Z" fill="#1D1D1B"/>
<path d="M105.2 112.3C98.7002 112.3 94.7002 115.9 94.7002 121.8V127.1C94.7002 132.9 98.7002 136.5 105.2 136.5C111.7 136.5 115.7 133 115.7 127.1V121.8C115.7 115.9 111.7 112.3 105.2 112.3ZM108.8 127.2C108.8 129.4 107.5 130.6 105.2 130.6C102.9 130.6 101.6 129.4 101.6 127.2V121.9C101.6 119.7 102.9 118.4 105.2 118.4C107.5 118.4 108.8 119.7 108.8 121.9V127.2Z" fill="#1D1D1B"/>
<path d="M133.3 112.3C129.5 112.3 126.3 113.4 124.2 114.7C123.9 114.9 123.9 115.2 124.1 115.7L124.9 117.2C125.9 119.6 128.5 118.8 129.4 118.6C130.4 118.4 131.5 118.2 132.5 118.2C135.4 118.2 136.2 119.5 136.2 121.8V122.2C135.1 122.1 133.8 121.9 132.4 121.9C126.4 121.9 122.8 124.2 122.8 128.8C122.8 134 126.8 136.4 133.2 136.4C136.2 136.4 143 134.7 143 127.1V122.1C142.9 115.5 139.4 112.3 133.3 112.3ZM136.2 128C136.2 129.7 134.9 131 133.2 131C131.1 131 129.7 130.2 129.7 128.7C129.7 127.3 130.8 126.5 133.2 126.5C134.2 126.5 135.4 126.6 136.3 126.8V128H136.2Z" fill="#1D1D1B"/>
<path d="M162.2 130.999C161.1 129.199 157.3 130.499 155.8 130.499C153.5 130.499 152 129.299 152 126.799V121.799C152 119.499 153.5 118.199 155.9 118.199C157.2 118.199 160.1 119.699 161.9 117.199L163.1 115.399C163.4 114.999 163.3 114.599 162.9 114.299C160.6 112.899 158.2 112.199 155.6 112.199C149 112.199 145.2 115.899 145.2 121.699V126.699C145.2 132.599 149 136.299 155.7 136.299C158.8 136.299 161.3 135.499 163.5 133.899C163.9 133.599 163.9 133.199 163.6 132.799L162.2 130.999Z" fill="#1D1D1B"/>
<path d="M173.6 136.5C173.9 136.5 174.1 136.4 174.3 136.3C174.9 135.9 174.8 135 174.2 134.6C171.7 132.7 171.8 129.2 171.8 127.2V119.2H173.3C177.2 119 176.6 114.2 176.6 114.2C176.6 113.8 176.2 113.4 175.8 113.4H171.8L171.9 108.8C171.9 108.3 171.6 108.1 171.1 108.1C171.1 108.1 165.8 108.8 165.1 114V128C165 133.7 168.4 136.5 173.6 136.5Z" fill="#1D1D1B"/>
<path d="M188.1 136.5C194.6 136.5 198.6 133 198.6 127.1V121.8C198.6 115.9 194.6 112.3 188.1 112.3C181.6 112.3 177.6 115.9 177.6 121.8V127.1C177.6 133 181.6 136.5 188.1 136.5ZM184.5 121.8C184.5 119.6 185.8 118.3 188.1 118.3C190.4 118.3 191.7 119.6 191.7 121.8V127.1C191.7 129.3 190.4 130.5 188.1 130.5C185.8 130.5 184.5 129.3 184.5 127.1V121.8Z" fill="#1D1D1B"/>
<path d="M15.5004 154.5C9.50039 154.5 5.90039 156.8 5.90039 161.4C5.90039 166.6 9.90039 169 16.3004 169C19.3004 169 26.1004 167.3 26.1004 159.7V154.7C26.1004 148 22.5004 144.8 16.4004 144.8C12.6004 144.8 9.40039 145.9 7.30039 147.2C7.00039 147.4 7.00039 147.7 7.20039 148.2L8.00039 149.7C9.00039 152.1 11.6004 151.3 12.5004 151.1C13.5004 150.9 14.6004 150.7 15.6004 150.7C18.5004 150.7 19.3004 152 19.3004 154.3V154.7C18.2004 154.6 16.9004 154.5 15.5004 154.5ZM19.3004 160.5C19.3004 162.2 18.0004 163.5 16.3004 163.5C14.2004 163.5 12.8004 162.7 12.8004 161.2C12.8004 159.8 13.9004 159 16.3004 159C17.3004 159 18.5004 159.1 19.4004 159.3V160.5H19.3004Z" fill="#1D1D1B"/>
<path d="M38.9998 150.8C40.2998 150.8 43.1998 152.3 44.9998 149.8L46.1998 148C46.4998 147.6 46.3998 147.2 45.9998 146.9C43.6998 145.5 41.2998 144.8 38.6998 144.8C32.0998 144.8 28.2998 148.5 28.2998 154.3V159.3C28.2998 165.2 32.0998 168.9 38.7998 168.9C41.8998 168.9 44.3998 168.1 46.5998 166.5C46.9998 166.2 46.9998 165.8 46.6998 165.4L45.3998 163.4C44.2998 161.6 40.4998 162.9 38.9998 162.9C36.6998 162.9 35.1998 161.7 35.1998 159.2V154.2C35.0998 152.1 36.5998 150.8 38.9998 150.8Z" fill="#1D1D1B"/>
<path d="M54.0996 140.6C54.0996 140.6 48.7996 141.3 48.0996 146.5V160.5C48.0996 166.2 51.4996 168.9 56.6996 168.9C56.9996 168.9 57.1996 168.8 57.3996 168.7C57.9996 168.3 57.8996 167.4 57.2996 167C54.7996 165.1 54.8996 161.6 54.8996 159.6V151.6H56.3996C60.2996 151.4 59.6996 146.6 59.6996 146.6C59.6996 146.2 59.2996 145.8 58.8996 145.8H54.8996L54.9996 141.2C54.7996 140.9 54.5996 140.6 54.0996 140.6Z" fill="#1D1D1B"/>
<path d="M71.2002 144.8C64.7002 144.8 60.7002 148.4 60.7002 154.3V159.6C60.7002 165.4 64.7002 169 71.2002 169C77.7002 169 81.7002 165.5 81.7002 159.6V154.3C81.7002 148.4 77.7002 144.8 71.2002 144.8ZM74.8002 159.6C74.8002 161.8 73.5002 163 71.2002 163C68.9002 163 67.6002 161.8 67.6002 159.6V154.3C67.6002 152.1 68.9002 150.8 71.2002 150.8C73.5002 150.8 74.8002 152.1 74.8002 154.3V159.6Z" fill="#1D1D1B"/>
<path d="M97.3998 154.5C91.3998 154.5 87.7998 156.8 87.7998 161.4C87.7998 166.6 91.7998 169 98.1998 169C101.2 169 108 167.3 108 159.7V154.7C108 148 104.4 144.8 98.2998 144.8C94.4998 144.8 91.2998 145.9 89.1998 147.2C88.8998 147.4 88.8998 147.7 89.0998 148.2L89.8998 149.7C90.8998 152.1 93.4998 151.3 94.3998 151.1C95.3998 150.9 96.4998 150.7 97.4998 150.7C100.4 150.7 101.2 152 101.2 154.3V154.7C99.9998 154.6 98.7998 154.5 97.3998 154.5ZM101.1 160.4C101.1 162.1 99.7998 163.4 98.0998 163.4C95.9998 163.4 94.5998 162.6 94.5998 161.1C94.5998 159.7 95.6998 158.9 98.0998 158.9C99.0998 158.9 100.3 159 101.2 159.2V160.4H101.1Z" fill="#1D1D1B"/>
<path d="M128.4 166.5C128.8 166.2 128.8 165.8 128.5 165.4L127.2 163.4C126.1 161.6 122.3 162.9 120.8 162.9C118.5 162.9 117 161.7 117 159.2V154.2C117 151.9 118.5 150.6 120.9 150.6C122.2 150.6 125.1 152.1 126.9 149.6L128.1 147.8C128.4 147.4 128.3 147 127.9 146.7C125.6 145.3 123.2 144.6 120.6 144.6C114 144.6 110.2 148.3 110.2 154.1V159.1C110.2 165 114 168.7 120.7 168.7C123.7 169 126.2 168.1 128.4 166.5Z" fill="#1D1D1B"/>
<path d="M135.9 140.6C135.9 140.6 130.6 141.3 129.9 146.5V160.5C129.9 166.2 133.3 168.9 138.5 168.9C138.8 168.9 139 168.8 139.2 168.7C139.8 168.3 139.7 167.4 139.1 167C136.6 165.1 136.7 161.6 136.7 159.6V151.6H138.2C142.1 151.4 141.5 146.6 141.5 146.6C141.5 146.2 141.1 145.8 140.7 145.8H136.7L136.8 141.2C136.7 140.8 136.4 140.6 135.9 140.6Z" fill="#1D1D1B"/>
<path d="M153.1 169C159.6 169 163.6 165.5 163.6 159.6V154.3C163.6 148.4 159.6 144.8 153.1 144.8C146.6 144.8 142.6 148.4 142.6 154.3V159.6C142.5 165.4 146.6 169 153.1 169ZM149.4 154.3C149.4 152.1 150.7 150.8 153 150.8C155.3 150.8 156.6 152.1 156.6 154.3V159.6C156.6 161.8 155.3 163 153 163C150.7 163 149.4 161.8 149.4 159.6V154.3Z" fill="#1D1D1B"/>
<path d="M180.3 154.399C174.3 154.399 170.7 156.699 170.7 161.299C170.7 166.499 174.7 168.899 181.1 168.899C184.1 168.899 190.9 167.199 190.9 159.599V154.599C190.9 147.899 187.3 144.699 181.2 144.699C177.4 144.699 174.2 145.799 172.1 147.099C171.8 147.299 171.8 147.599 172 148.099L172.8 149.599C173.8 151.999 176.4 151.199 177.3 150.999C178.3 150.799 179.4 150.599 180.4 150.599C183.3 150.599 184.1 151.899 184.1 154.199V154.599C182.9 154.599 181.7 154.399 180.3 154.399ZM184 160.399C184 162.099 182.7 163.399 181 163.399C178.9 163.399 177.5 162.599 177.5 161.099C177.5 159.699 178.6 158.899 181 158.899C182 158.899 183.2 158.999 184.1 159.199V160.399H184Z" fill="#1D1D1B"/>
<path d="M211.3 166.5C211.7 166.2 211.7 165.8 211.4 165.4L210.1 163.4C209 161.6 205.2 162.9 203.7 162.9C201.4 162.9 199.9 161.7 199.9 159.2V154.2C199.9 151.9 201.4 150.6 203.8 150.6C205.1 150.6 208 152.1 209.8 149.6L211 147.8C211.3 147.4 211.2 147 210.8 146.7C208.5 145.3 206.1 144.6 203.5 144.6C196.9 144.6 193.1 148.3 193.1 154.1V159.1C193.1 165 196.9 168.7 203.6 168.7C206.5 168.9 209.1 168.1 211.3 166.5Z" fill="#1D1D1B"/>
<path d="M218.8 140.6C218.8 140.6 213.5 141.3 212.8 146.5V160.5C212.8 166.2 216.2 168.9 221.4 168.9C221.7 168.9 221.9 168.8 222.1 168.7C222.7 168.3 222.6 167.4 222 167C219.5 165.1 219.6 161.6 219.6 159.6V151.6H221.1C225 151.4 224.4 146.6 224.4 146.6C224.4 146.2 224 145.8 223.6 145.8H219.6L219.7 141.2C219.6 140.8 219.3 140.6 218.8 140.6Z" fill="#1D1D1B"/>
<path d="M236 168.899C242.5 168.899 246.5 165.399 246.5 159.499V154.199C246.5 148.299 242.5 144.699 236 144.699C229.5 144.699 225.5 148.299 225.5 154.199V159.499C225.4 165.399 229.5 168.899 236 168.899ZM232.3 154.299C232.3 152.099 233.6 150.799 235.9 150.799C238.2 150.799 239.5 152.099 239.5 154.299V159.599C239.5 161.799 238.2 162.999 235.9 162.999C233.6 162.999 232.3 161.799 232.3 159.599V154.299Z" fill="#1D1D1B"/>
<path d="M9.4002 199.899C10.0002 199.499 9.9002 198.599 9.3002 198.199C6.8002 196.299 6.9002 192.799 6.9002 190.799V182.799H8.4002C12.3002 182.599 11.7002 177.799 11.7002 177.799C11.7002 177.399 11.3002 176.999 10.9002 176.999H6.9002L7.0002 172.399C7.0002 171.899 6.7002 171.699 6.2002 171.699C6.2002 171.699 0.900195 172.399 0.200195 177.599V191.599C0.200195 197.299 3.6002 199.999 8.8002 199.999C9.0002 200.199 9.2002 200.099 9.4002 199.899Z" fill="#1D1D1B"/>
<path d="M23.2002 200.2C29.7002 200.2 33.7002 196.7 33.7002 190.8V185.5C33.7002 179.6 29.7002 176 23.2002 176C16.7002 176 12.7002 179.6 12.7002 185.5V190.8C12.7002 196.7 16.7002 200.2 23.2002 200.2ZM19.6002 185.5C19.6002 183.3 20.9002 182 23.2002 182C25.5002 182 26.8002 183.3 26.8002 185.5V190.8C26.8002 193 25.5002 194.2 23.2002 194.2C20.9002 194.2 19.6002 193 19.6002 190.8V185.5Z" fill="#1D1D1B"/>
<path d="M50.2998 176C46.4998 176 43.2998 177.1 41.1998 178.4C40.8998 178.6 40.8998 178.9 41.0998 179.4L41.8998 180.9C42.8998 183.3 45.4998 182.5 46.3998 182.3C47.3998 182.1 48.4998 181.9 49.4998 181.9C52.3998 181.9 53.1998 183.2 53.1998 185.5V185.9C52.0998 185.8 50.7998 185.6 49.3998 185.6C43.3998 185.6 39.7998 187.9 39.7998 192.5C39.7998 197.7 43.7998 200.1 50.1998 200.1C53.1998 200.1 59.9998 198.4 59.9998 190.8V185.8C59.8998 179.2 56.3998 176 50.2998 176ZM53.1998 191.7C53.1998 193.4 51.8998 194.7 50.1998 194.7C48.0998 194.7 46.6998 193.9 46.6998 192.4C46.6998 191 47.7998 190.2 50.1998 190.2C51.1998 190.2 52.3998 190.3 53.2998 190.5V191.7H53.1998Z" fill="#1D1D1B"/>
<path d="M72.9002 182C74.2002 182 77.1002 183.5 78.9002 181L80.1002 179.2C80.4002 178.8 80.3002 178.4 79.9002 178.1C77.6002 176.7 75.2002 176 72.6002 176C66.0002 176 62.2002 179.7 62.2002 185.5V190.5C62.2002 196.4 66.0002 200.1 72.7002 200.1C75.8002 200.1 78.3002 199.3 80.5002 197.7C80.9002 197.4 80.9002 197 80.6002 196.6L79.3002 194.6C78.2002 192.8 74.4002 194.1 72.9002 194.1C70.6002 194.1 69.1002 192.9 69.1002 190.4V185.4C69.0002 183.3 70.5002 182 72.9002 182Z" fill="#1D1D1B"/>
<path d="M91.2 199.899C91.8 199.499 91.7 198.599 91.1 198.199C88.6 196.299 88.7 192.799 88.7 190.799V182.799H90.2C94.1 182.599 93.5 177.799 93.5 177.799C93.5 177.399 93.1 176.999 92.7 176.999H88.7L88.8 172.399C88.8 171.899 88.5 171.699 88 171.699C88 171.699 82.7 172.399 82 177.599V191.599C82 197.299 85.4 199.999 90.6 199.999C90.8 200.199 91 200.099 91.2 199.899Z" fill="#1D1D1B"/>
<path d="M105.1 200.2C111.6 200.2 115.6 196.7 115.6 190.8V185.5C115.6 179.6 111.6 176 105.1 176C98.5996 176 94.5996 179.6 94.5996 185.5V190.8C94.5996 196.7 98.5996 200.2 105.1 200.2ZM101.5 185.5C101.5 183.3 102.8 182 105.1 182C107.4 182 108.7 183.3 108.7 185.5V190.8C108.7 193 107.4 194.2 105.1 194.2C102.8 194.2 101.5 193 101.5 190.8V185.5Z" fill="#1D1D1B"/>
<path d="M132.3 185.7C126.3 185.7 122.7 188 122.7 192.6C122.7 197.8 126.7 200.2 133.1 200.2C136.1 200.2 142.9 198.5 142.9 190.9V185.9C142.9 179.2 139.3 176 133.2 176C129.4 176 126.2 177.1 124.1 178.4C123.8 178.6 123.8 178.9 124 179.4L124.8 180.9C125.8 183.3 128.4 182.5 129.3 182.3C130.3 182.1 131.4 181.9 132.4 181.9C135.3 181.9 136.1 183.2 136.1 185.5V185.9C135 185.8 133.7 185.7 132.3 185.7ZM136.1 191.7C136.1 193.4 134.8 194.7 133.1 194.7C131 194.7 129.6 193.9 129.6 192.4C129.6 191 130.7 190.2 133.1 190.2C134.1 190.2 135.3 190.3 136.2 190.5V191.7H136.1Z" fill="#1D1D1B"/>
<path d="M162.1 194.699C161 192.899 157.2 194.199 155.7 194.199C153.4 194.199 151.9 192.999 151.9 190.499V185.499C151.9 183.199 153.4 181.899 155.8 181.899C157.1 181.899 160 183.399 161.8 180.899L163 179.099C163.3 178.699 163.2 178.299 162.8 177.999C160.5 176.599 158.1 175.899 155.5 175.899C148.9 175.899 145.1 179.599 145.1 185.399V190.399C145.1 196.299 148.9 199.999 155.6 199.999C158.7 199.999 161.2 199.199 163.4 197.599C163.8 197.299 163.8 196.899 163.5 196.499L162.1 194.699Z" fill="#1D1D1B"/>
<path d="M174.1 199.899C174.7 199.499 174.6 198.599 174 198.199C171.5 196.299 171.6 192.799 171.6 190.799V182.799H173.1C177 182.599 176.4 177.799 176.4 177.799C176.4 177.399 176 176.999 175.6 176.999H171.6L171.7 172.399C171.7 171.899 171.4 171.699 170.9 171.699C170.9 171.699 165.6 172.399 164.9 177.599V191.599C164.9 197.299 168.3 199.999 173.5 199.999C173.7 200.099 173.9 199.999 174.1 199.899Z" fill="#1D1D1B"/>
<path d="M188 200.2C194.5 200.2 198.5 196.7 198.5 190.8V185.5C198.5 179.6 194.5 176 188 176C181.5 176 177.5 179.6 177.5 185.5V190.8C177.5 196.6 181.5 200.2 188 200.2ZM184.4 185.5C184.4 183.3 185.7 182 188 182C190.3 182 191.6 183.3 191.6 185.5V190.8C191.6 193 190.3 194.2 188 194.2C185.7 194.2 184.4 193 184.4 190.8V185.5Z" fill="#1D1D1B"/>
<path d="M264.9 27.0994C258.9 27.0994 255.3 29.3994 255.3 33.9994C255.3 39.1994 259.3 41.5994 265.7 41.5994C268.7 41.5994 275.5 39.8994 275.5 32.2994V27.2994C275.5 20.5994 271.9 17.3994 265.8 17.3994C262 17.3994 258.8 18.4994 256.7 19.7994C256.4 19.9994 256.4 20.2994 256.6 20.7994L257.4 22.2994C258.4 24.6994 261 23.8994 261.9 23.6994C262.9 23.4994 264 23.2994 265 23.2994C267.9 23.2994 268.7 24.5994 268.7 26.8994V27.2994C267.5 27.1994 266.2 27.0994 264.9 27.0994ZM268.6 32.9994C268.6 34.6994 267.3 35.9994 265.6 35.9994C263.5 35.9994 262.1 35.1994 262.1 33.6994C262.1 32.2994 263.2 31.4994 265.6 31.4994C266.6 31.4994 267.8 31.5994 268.7 31.7994V32.9994H268.6Z" fill="#1D1D1B"/>
<path d="M277.6 26.8992V31.8992C277.6 37.7992 281.4 41.4992 288.1 41.4992C291.2 41.4992 293.7 40.6992 295.9 39.0992C296.3 38.7992 296.3 38.3992 296 37.9992L294.7 35.9992C293.6 34.1992 289.8 35.4992 288.3 35.4992C286 35.4992 284.5 34.2992 284.5 31.7992V26.7992C284.5 24.4992 286 23.1992 288.4 23.1992C289.7 23.1992 292.6 24.6992 294.4 22.1992L295.6 20.3992C295.9 19.9992 295.8 19.5992 295.4 19.2992C293.1 17.8992 290.7 17.1992 288.1 17.1992C281.5 17.3992 277.6 21.0992 277.6 26.8992Z" fill="#1D1D1B"/>
<path d="M303.4 13.1992C303.4 13.1992 298.1 13.8992 297.4 19.0992V33.0992C297.4 38.7992 300.8 41.4992 306 41.4992C306.3 41.4992 306.5 41.3992 306.7 41.2992C307.3 40.8992 307.2 39.9992 306.6 39.5992C304.1 37.6992 304.2 34.1992 304.2 32.1992V24.1992H305.7C309.6 23.9992 309 19.1992 309 19.1992C309 18.7992 308.6 18.3992 308.2 18.3992H304.2L304.3 13.7992C304.2 13.3992 303.9 13.1992 303.4 13.1992Z" fill="#1D1D1B"/>
<path d="M320.6 41.5994C327.1 41.5994 331.1 38.0994 331.1 32.1994V26.8994C331.1 20.9994 327.1 17.3994 320.6 17.3994C314.1 17.3994 310.1 20.9994 310.1 26.8994V32.1994C310 37.9994 314.1 41.5994 320.6 41.5994ZM316.9 26.8994C316.9 24.6994 318.2 23.3994 320.5 23.3994C322.8 23.3994 324.1 24.6994 324.1 26.8994V32.1994C324.1 34.3994 322.8 35.5994 320.5 35.5994C318.2 35.5994 316.9 34.3994 316.9 32.1994V26.8994Z" fill="#1D1D1B"/>
<path d="M347.8 26.9998C341.8 26.9998 338.2 29.2998 338.2 33.8998C338.2 39.0998 342.2 41.4998 348.6 41.4998C351.6 41.4998 358.4 39.7998 358.4 32.1998V27.1998C358.4 20.4998 354.8 17.2998 348.7 17.2998C344.9 17.2998 341.7 18.3998 339.6 19.6998C339.3 19.8998 339.3 20.1998 339.5 20.6998L340.3 22.1998C341.3 24.5998 343.9 23.7998 344.8 23.5998C345.8 23.3998 346.9 23.1998 347.9 23.1998C350.8 23.1998 351.6 24.4998 351.6 26.7998V27.1998C350.4 27.1998 349.1 26.9998 347.8 26.9998ZM351.5 32.9998C351.5 34.6998 350.2 35.9998 348.5 35.9998C346.4 35.9998 345 35.1998 345 33.6998C345 32.2998 346.1 31.4998 348.5 31.4998C349.5 31.4998 350.7 31.5998 351.6 31.7998V32.9998H351.5Z" fill="#1D1D1B"/>
<path d="M227.4 58.4996C227.4 51.7996 223.8 48.5996 217.7 48.5996C213.9 48.5996 210.7 49.6996 208.6 50.9996C208.3 51.1996 208.3 51.4996 208.5 51.9996L209.3 53.4996C210.3 55.8996 212.9 55.0996 213.8 54.8996C214.8 54.6996 215.9 54.4996 216.9 54.4996C219.8 54.4996 220.6 55.7996 220.6 58.0996V58.4996C219.5 58.3996 218.2 58.1996 216.8 58.1996C210.8 58.1996 207.2 60.4996 207.2 65.0996C207.2 70.2996 211.2 72.6996 217.6 72.6996C220.6 72.6996 227.4 70.9996 227.4 63.3996V58.4996ZM220.7 64.2996C220.7 65.9996 219.4 67.2996 217.7 67.2996C215.6 67.2996 214.2 66.4996 214.2 64.9996C214.2 63.5996 215.3 62.7996 217.7 62.7996C218.7 62.7996 219.9 62.8996 220.8 63.0996V64.2996H220.7Z" fill="#1D1D1B"/>
<path d="M246.7 67.3C245.6 65.5 241.8 66.8 240.3 66.8C238 66.8 236.5 65.6 236.5 63.1V58.1C236.5 55.8 238 54.5 240.4 54.5C241.7 54.5 244.6 56 246.4 53.5L247.6 51.7C247.9 51.3 247.8 50.9 247.4 50.6C245.1 49.2 242.7 48.5 240.1 48.5C233.5 48.5 229.7 52.2 229.7 58V63C229.7 68.9 233.5 72.6 240.2 72.6C243.3 72.6 245.8 71.8 248 70.2C248.4 69.9 248.4 69.5 248.1 69.1L246.7 67.3Z" fill="#1D1D1B"/>
<path d="M258 72.6998C258.3 72.6998 258.5 72.5998 258.7 72.4998C259.3 72.0998 259.2 71.1998 258.6 70.7998C256.1 68.8998 256.2 65.3998 256.2 63.3998V55.3998H257.7C261.6 55.1998 261 50.3998 261 50.3998C261 49.9998 260.6 49.5998 260.2 49.5998H256.2L256.3 44.9998C256.3 44.4998 256 44.2998 255.5 44.2998C255.5 44.2998 250.2 44.9998 249.5 50.1998V64.1998C249.5 69.9998 252.9 72.6998 258 72.6998Z" fill="#1D1D1B"/>
<path d="M272.6 72.7996C279.1 72.7996 283.1 69.2996 283.1 63.3996V58.0996C283.1 52.1996 279.1 48.5996 272.6 48.5996C266.1 48.5996 262.1 52.1996 262.1 58.0996V63.3996C262.1 69.2996 266.1 72.7996 272.6 72.7996ZM269 58.0996C269 55.8996 270.3 54.5996 272.6 54.5996C274.9 54.5996 276.2 55.8996 276.2 58.0996V63.3996C276.2 65.5996 274.9 66.7996 272.6 66.7996C270.3 66.7996 269 65.5996 269 63.3996V58.0996Z" fill="#1D1D1B"/>
<path d="M310.3 58.4996C310.3 51.7996 306.7 48.5996 300.6 48.5996C296.8 48.5996 293.6 49.6996 291.5 50.9996C291.2 51.1996 291.2 51.4996 291.4 51.9996L292.2 53.4996C293.2 55.8996 295.8 55.0996 296.7 54.8996C297.7 54.6996 298.8 54.4996 299.8 54.4996C302.7 54.4996 303.5 55.7996 303.5 58.0996V58.4996C302.4 58.3996 301.1 58.1996 299.7 58.1996C293.7 58.1996 290.1 60.4996 290.1 65.0996C290.1 70.2996 294.1 72.6996 300.5 72.6996C303.5 72.6996 310.3 70.9996 310.3 63.3996V58.4996ZM303.6 64.1996C303.6 65.8996 302.3 67.1996 300.6 67.1996C298.5 67.1996 297.1 66.3996 297.1 64.8996C297.1 63.4996 298.2 62.6996 300.6 62.6996C301.6 62.6996 302.8 62.7996 303.7 62.9996V64.1996H303.6Z" fill="#1D1D1B"/>
<path d="M329.6 67.3C328.5 65.5 324.7 66.8 323.2 66.8C320.9 66.8 319.4 65.6 319.4 63.1V58.1C319.4 55.8 320.9 54.5 323.3 54.5C324.6 54.5 327.5 56 329.3 53.5L330.5 51.7C330.8 51.3 330.7 50.9 330.3 50.6C328 49.2 325.6 48.5 323 48.5C316.4 48.5 312.6 52.2 312.6 58V63C312.6 68.9 316.4 72.6 323.1 72.6C326.2 72.6 328.7 71.8 330.9 70.2C331.3 69.9 331.3 69.5 331 69.1L329.6 67.3Z" fill="#1D1D1B"/>
<path d="M340.9 72.6998C341.2 72.6998 341.4 72.5998 341.6 72.4998C342.2 72.0998 342.1 71.1998 341.5 70.7998C339 68.8998 339.1 65.3998 339.1 63.3998V55.3998H340.6C344.5 55.1998 343.9 50.3998 343.9 50.3998C343.9 49.9998 343.5 49.5998 343.1 49.5998H339.1L339.2 44.9998C339.2 44.4998 338.9 44.2998 338.4 44.2998C338.4 44.2998 333.1 44.9998 332.4 50.1998V64.1998C332.4 69.8998 335.8 72.6998 340.9 72.6998Z" fill="#1D1D1B"/>
<path d="M355.5 72.7996C362 72.7996 366 69.2996 366 63.3996V58.0996C366 52.1996 362 48.5996 355.5 48.5996C349 48.5996 345 52.1996 345 58.0996V63.3996C345 69.1996 349 72.7996 355.5 72.7996ZM351.9 58.0996C351.9 55.8996 353.2 54.5996 355.5 54.5996C357.8 54.5996 359.1 55.8996 359.1 58.0996V63.3996C359.1 65.5996 357.8 66.7996 355.5 66.7996C353.2 66.7996 351.9 65.5996 351.9 63.3996V58.0996Z" fill="#1D1D1B"/>
<path d="M264.8 90.7C258.8 90.7 255.2 93 255.2 97.6C255.2 102.8 259.2 105.2 265.6 105.2C268.6 105.2 275.4 103.5 275.4 95.9V90.9C275.4 84.2 271.8 81 265.7 81C261.9 81 258.7 82.1 256.6 83.4C256.3 83.6 256.3 83.9 256.5 84.4L257.3 85.9C258.3 88.3 260.9 87.5 261.8 87.3C262.8 87.1 263.9 86.9 264.9 86.9C267.8 86.9 268.6 88.2 268.6 90.5V91C267.4 90.9 266.1 90.7 264.8 90.7ZM268.5 96.7C268.5 98.4 267.2 99.7 265.5 99.7C263.4 99.7 262 98.9 262 97.4C262 96 263.1 95.2 265.5 95.2C266.5 95.2 267.7 95.3 268.6 95.5V96.7H268.5Z" fill="#1D1D1B"/>
<path d="M288.3 87C289.6 87 292.5 88.5 294.3 86L295.5 84.2C295.8 83.8 295.7 83.4 295.3 83.1C293 81.7 290.6 81 288 81C281.4 81 277.6 84.7 277.6 90.5V95.5C277.6 101.4 281.4 105.1 288.1 105.1C291.2 105.1 293.7 104.3 295.9 102.7C296.3 102.4 296.3 102 296 101.6L294.7 99.6C293.6 97.8 289.8 99.1 288.3 99.1C286 99.1 284.5 97.9 284.5 95.4V90.4C284.4 88.3 285.8 87 288.3 87Z" fill="#1D1D1B"/>
<path d="M303.3 76.8994C303.3 76.8994 298 77.5994 297.3 82.7994V96.7994C297.3 102.499 300.7 105.199 305.9 105.199C306.2 105.199 306.4 105.099 306.6 104.999C307.2 104.599 307.1 103.699 306.5 103.299C304 101.399 304.1 97.8994 304.1 95.8994V87.8994H305.6C309.5 87.6994 308.9 82.8994 308.9 82.8994C308.9 82.4994 308.5 82.0994 308.1 82.0994H304.1L304.2 77.4994C304.1 77.0994 303.8 76.8994 303.3 76.8994Z" fill="#1D1D1B"/>
<path d="M320.5 81C314 81 310 84.6 310 90.5V95.8C310 101.6 314 105.2 320.5 105.2C327 105.2 331 101.7 331 95.8V90.5C330.9 84.6 326.9 81 320.5 81ZM324.1 95.9C324.1 98.1 322.8 99.3 320.5 99.3C318.2 99.3 316.9 98.1 316.9 95.9V90.6C316.9 88.4 318.2 87.1 320.5 87.1C322.8 87.1 324.1 88.4 324.1 90.6V95.9Z" fill="#1D1D1B"/>
<path d="M347.7 90.7C341.7 90.7 338.1 93 338.1 97.6C338.1 102.8 342.1 105.2 348.5 105.2C351.5 105.2 358.3 103.5 358.3 95.9V90.9C358.3 84.2 354.7 81 348.6 81C344.8 81 341.6 82.1 339.5 83.4C339.2 83.6 339.2 83.9 339.4 84.4L340.2 85.9C341.2 88.3 343.8 87.5 344.7 87.3C345.7 87.1 346.8 86.9 347.8 86.9C350.7 86.9 351.5 88.2 351.5 90.5V91C350.3 90.8 349 90.7 347.7 90.7ZM351.4 96.7C351.4 98.4 350.1 99.7 348.4 99.7C346.3 99.7 344.9 98.9 344.9 97.4C344.9 96 346 95.2 348.4 95.2C349.4 95.2 350.6 95.3 351.5 95.5V96.7H351.4Z" fill="#1D1D1B"/>
<path d="M216.7 112.399C212.9 112.399 209.7 113.499 207.6 114.799C207.3 114.999 207.3 115.299 207.5 115.799L208.3 117.299C209.3 119.699 211.9 118.899 212.8 118.699C213.8 118.499 214.9 118.299 215.9 118.299C218.8 118.299 219.6 119.599 219.6 121.899V122.299C218.5 122.199 217.2 121.999 215.8 121.999C209.8 121.999 206.2 124.299 206.2 128.899C206.2 134.099 210.2 136.499 216.6 136.499C219.6 136.499 226.4 134.799 226.4 127.199V122.199C226.4 115.599 222.8 112.399 216.7 112.399ZM219.7 128.099C219.7 129.799 218.4 131.099 216.7 131.099C214.6 131.099 213.2 130.299 213.2 128.799C213.2 127.399 214.3 126.599 216.7 126.599C217.7 126.599 218.9 126.699 219.8 126.899V128.099H219.7Z" fill="#1D1D1B"/>
<path d="M245.7 131.1C244.6 129.3 240.8 130.6 239.3 130.6C237 130.6 235.5 129.4 235.5 126.9V121.9C235.5 119.6 237 118.3 239.4 118.3C240.7 118.3 243.6 119.8 245.4 117.3L246.6 115.5C246.9 115.1 246.8 114.7 246.4 114.4C244.1 113 241.7 112.3 239.1 112.3C232.5 112.3 228.7 116 228.7 121.8V126.8C228.7 132.7 232.5 136.4 239.2 136.4C242.3 136.4 244.8 135.6 247 134C247.4 133.7 247.4 133.3 247.1 132.9L245.7 131.1Z" fill="#1D1D1B"/>
<path d="M257 136.5C257.3 136.5 257.5 136.4 257.7 136.3C258.3 135.9 258.2 135 257.6 134.6C255.1 132.7 255.2 129.2 255.2 127.2V119.2H256.7C260.6 119 260 114.2 260 114.2C260 113.8 259.6 113.4 259.2 113.4H255.2L255.3 108.8C255.3 108.3 255 108.1 254.5 108.1C254.5 108.1 249.2 108.8 248.5 114V128C248.5 133.8 251.9 136.5 257 136.5Z" fill="#1D1D1B"/>
<path d="M271.6 136.599C278.1 136.599 282.1 133.099 282.1 127.199V121.899C282.1 115.999 278.1 112.399 271.6 112.399C265.1 112.399 261.1 115.999 261.1 121.899V127.199C261.1 132.999 265.1 136.599 271.6 136.599ZM268 121.899C268 119.699 269.3 118.399 271.6 118.399C273.9 118.399 275.2 119.699 275.2 121.899V127.199C275.2 129.399 273.9 130.599 271.6 130.599C269.3 130.599 268 129.399 268 127.199V121.899Z" fill="#1D1D1B"/>
<path d="M299.6 112.399C295.8 112.399 292.6 113.499 290.5 114.799C290.2 114.999 290.2 115.299 290.4 115.799L291.2 117.299C292.2 119.699 294.8 118.899 295.7 118.699C296.7 118.499 297.8 118.299 298.8 118.299C301.7 118.299 302.5 119.599 302.5 121.899V122.299C301.4 122.199 300.1 121.999 298.7 121.999C292.7 121.999 289.1 124.299 289.1 128.899C289.1 134.099 293.1 136.499 299.5 136.499C302.5 136.499 309.3 134.799 309.3 127.199V122.199C309.3 115.599 305.7 112.399 299.6 112.399ZM302.5 127.999C302.5 129.699 301.2 130.999 299.5 130.999C297.4 130.999 296 130.199 296 128.699C296 127.299 297.1 126.499 299.5 126.499C300.5 126.499 301.7 126.599 302.6 126.799V127.999H302.5Z" fill="#1D1D1B"/>
<path d="M328.6 131.1C327.5 129.3 323.7 130.6 322.2 130.6C319.9 130.6 318.4 129.4 318.4 126.9V121.9C318.4 119.6 319.9 118.3 322.3 118.3C323.6 118.3 326.5 119.8 328.3 117.3L329.5 115.5C329.8 115.1 329.7 114.7 329.3 114.4C327 113 324.6 112.3 322 112.3C315.4 112.3 311.6 116 311.6 121.8V126.8C311.6 132.7 315.4 136.4 322.1 136.4C325.2 136.4 327.7 135.6 329.9 134C330.3 133.7 330.3 133.3 330 132.9L328.6 131.1Z" fill="#1D1D1B"/>
<path d="M339.9 136.5C340.2 136.5 340.4 136.4 340.6 136.3C341.2 135.9 341.1 135 340.5 134.6C338 132.7 338.1 129.2 338.1 127.2V119.2H339.6C343.5 119 342.9 114.2 342.9 114.2C342.9 113.8 342.5 113.4 342.1 113.4H338.1L338.2 108.8C338.2 108.3 337.9 108.1 337.4 108.1C337.4 108.1 332.1 108.8 331.4 114V128C331.4 133.7 334.8 136.5 339.9 136.5Z" fill="#1D1D1B"/>
<path d="M354.5 136.599C361 136.599 365 133.099 365 127.199V121.899C365 115.999 361 112.399 354.5 112.399C348 112.399 344 115.999 344 121.899V127.199C344 132.999 348 136.599 354.5 136.599ZM350.9 121.899C350.9 119.699 352.2 118.399 354.5 118.399C356.8 118.399 358.1 119.699 358.1 121.899V127.199C358.1 129.399 356.8 130.599 354.5 130.599C352.2 130.599 350.9 129.399 350.9 127.199V121.899Z" fill="#1D1D1B"/>
<path d="M263.8 154.5C257.8 154.5 254.2 156.8 254.2 161.4C254.2 166.6 258.2 169 264.6 169C267.6 169 274.4 167.3 274.4 159.7V154.7C274.4 148 270.8 144.8 264.7 144.8C260.9 144.8 257.7 145.9 255.6 147.2C255.3 147.4 255.3 147.7 255.5 148.2L256.3 149.7C257.3 152.1 259.9 151.3 260.8 151.1C261.8 150.9 262.9 150.7 263.9 150.7C266.8 150.7 267.6 152 267.6 154.3V154.7C266.4 154.7 265.1 154.5 263.8 154.5ZM267.5 160.5C267.5 162.2 266.2 163.5 264.5 163.5C262.4 163.5 261 162.7 261 161.2C261 159.8 262.1 159 264.5 159C265.5 159 266.7 159.1 267.6 159.3V160.5H267.5Z" fill="#1D1D1B"/>
<path d="M294.8 166.599C295.2 166.299 295.2 165.899 294.9 165.499L293.6 163.499C292.5 161.699 288.7 162.999 287.2 162.999C284.9 162.999 283.4 161.799 283.4 159.299V154.299C283.4 151.999 284.9 150.699 287.3 150.699C288.6 150.699 291.5 152.199 293.3 149.699L294.5 147.899C294.8 147.499 294.7 147.099 294.3 146.799C292 145.399 289.6 144.699 287 144.699C280.4 144.699 276.6 148.399 276.6 154.199V159.199C276.6 165.099 280.4 168.799 287.1 168.799C290 168.999 292.6 168.199 294.8 166.599Z" fill="#1D1D1B"/>
<path d="M302.3 140.699C302.3 140.699 297 141.399 296.3 146.599V160.599C296.3 166.299 299.7 168.999 304.9 168.999C305.2 168.999 305.4 168.899 305.6 168.799C306.2 168.399 306.1 167.499 305.5 167.099C303 165.199 303.1 161.699 303.1 159.699V151.699H304.6C308.5 151.499 307.9 146.699 307.9 146.699C307.9 146.299 307.5 145.899 307.1 145.899H303.1L303.2 141.299C303.1 140.899 302.8 140.699 302.3 140.699Z" fill="#1D1D1B"/>
<path d="M319.4 169C325.9 169 329.9 165.5 329.9 159.6V154.3C329.9 148.4 325.9 144.8 319.4 144.8C312.9 144.8 308.9 148.4 308.9 154.3V159.6C308.9 165.5 313 169 319.4 169ZM315.8 154.3C315.8 152.1 317.1 150.8 319.4 150.8C321.7 150.8 323 152.1 323 154.3V159.6C323 161.8 321.7 163 319.4 163C317.1 163 315.8 161.8 315.8 159.6V154.3Z" fill="#1D1D1B"/>
<path d="M346.7 154.5C340.7 154.5 337.1 156.8 337.1 161.4C337.1 166.6 341.1 169 347.5 169C350.5 169 357.3 167.3 357.3 159.7V154.7C357.3 148 353.7 144.8 347.6 144.8C343.8 144.8 340.6 145.9 338.5 147.2C338.2 147.4 338.2 147.7 338.4 148.2L339.2 149.7C340.2 152.1 342.8 151.3 343.7 151.1C344.7 150.9 345.8 150.7 346.8 150.7C349.7 150.7 350.5 152 350.5 154.3V154.7C349.3 154.6 348 154.5 346.7 154.5ZM350.4 160.5C350.4 162.2 349.1 163.5 347.4 163.5C345.3 163.5 343.9 162.7 343.9 161.2C343.9 159.8 345 159 347.4 159C348.4 159 349.6 159.1 350.5 159.3V160.5H350.4Z" fill="#1D1D1B"/>
<path d="M215.8 185.8C209.8 185.8 206.2 188.1 206.2 192.7C206.2 197.9 210.2 200.3 216.6 200.3C219.6 200.3 226.4 198.6 226.4 191V186C226.4 179.3 222.8 176.1 216.7 176.1C212.9 176.1 209.7 177.2 207.6 178.5C207.3 178.7 207.3 179 207.5 179.5L208.3 181C209.3 183.4 211.9 182.6 212.8 182.4C213.8 182.2 214.9 182 215.9 182C218.8 182 219.6 183.3 219.6 185.6V186C218.4 185.9 217.2 185.8 215.8 185.8ZM219.6 191.7C219.6 193.4 218.3 194.7 216.6 194.7C214.5 194.7 213.1 193.9 213.1 192.4C213.1 191 214.2 190.2 216.6 190.2C217.6 190.2 218.8 190.3 219.7 190.5V191.7H219.6Z" fill="#1D1D1B"/>
<path d="M245.6 194.8C244.5 193 240.7 194.3 239.2 194.3C236.9 194.3 235.4 193.1 235.4 190.6V185.6C235.4 183.3 236.9 182 239.3 182C240.6 182 243.5 183.5 245.3 181L246.5 179.2C246.8 178.8 246.7 178.4 246.3 178.1C244 176.7 241.6 176 239 176C232.4 176 228.6 179.7 228.6 185.5V190.5C228.6 196.4 232.4 200.1 239.1 200.1C242.2 200.1 244.7 199.3 246.9 197.7C247.3 197.4 247.3 197 247 196.6L245.6 194.8Z" fill="#1D1D1B"/>
<path d="M257.6 200C258.2 199.6 258.1 198.7 257.5 198.3C255 196.4 255.1 192.9 255.1 190.9V182.9H256.6C260.5 182.7 259.9 177.9 259.9 177.9C259.9 177.5 259.5 177.1 259.1 177.1H255.1L255.2 172.5C255.2 172 254.9 171.8 254.4 171.8C254.4 171.8 249.1 172.5 248.4 177.7V191.7C248.4 197.4 251.8 200.1 257 200.1C257.2 200.2 257.4 200.1 257.6 200Z" fill="#1D1D1B"/>
<path d="M271.5 200.3C278 200.3 282 196.8 282 190.9V185.6C282 179.7 278 176.1 271.5 176.1C265 176.1 261 179.7 261 185.6V190.9C261 196.7 265 200.3 271.5 200.3ZM267.9 185.6C267.9 183.4 269.2 182.1 271.5 182.1C273.8 182.1 275.1 183.4 275.1 185.6V190.9C275.1 193.1 273.8 194.3 271.5 194.3C269.2 194.3 267.9 193.1 267.9 190.9V185.6Z" fill="#1D1D1B"/>
<path d="M298.7 185.7C292.7 185.7 289.1 188 289.1 192.6C289.1 197.8 293.1 200.2 299.5 200.2C302.5 200.2 309.3 198.5 309.3 190.9V185.9C309.3 179.2 305.7 176 299.6 176C295.8 176 292.6 177.1 290.5 178.4C290.2 178.6 290.2 178.9 290.4 179.4L291.2 180.9C292.2 183.3 294.8 182.5 295.7 182.3C296.7 182.1 297.8 181.9 298.8 181.9C301.7 181.9 302.5 183.2 302.5 185.5V185.9C301.3 185.9 300.1 185.7 298.7 185.7ZM302.5 191.7C302.5 193.4 301.2 194.7 299.5 194.7C297.4 194.7 296 193.9 296 192.4C296 191 297.1 190.2 299.5 190.2C300.5 190.2 301.7 190.3 302.6 190.5V191.7H302.5Z" fill="#1D1D1B"/>
<path d="M328.5 194.8C327.4 193 323.6 194.3 322.1 194.3C319.8 194.3 318.3 193.1 318.3 190.6V185.6C318.3 183.3 319.8 182 322.2 182C323.5 182 326.4 183.5 328.2 181L329.4 179.2C329.7 178.8 329.6 178.4 329.2 178.1C326.9 176.7 324.5 176 321.9 176C315.3 176 311.5 179.7 311.5 185.5V190.5C311.5 196.4 315.3 200.1 322 200.1C325.1 200.1 327.6 199.3 329.8 197.7C330.2 197.4 330.2 197 329.9 196.6L328.5 194.8Z" fill="#1D1D1B"/>
<path d="M340.5 200C341.1 199.6 341 198.7 340.4 198.3C337.9 196.4 338 192.9 338 190.9V182.9H339.5C343.4 182.7 342.8 177.9 342.8 177.9C342.8 177.5 342.4 177.1 342 177.1H338L338.1 172.5C338.1 172 337.8 171.8 337.3 171.8C337.3 171.8 332 172.5 331.3 177.7V191.7C331.3 197.4 334.7 200.1 339.9 200.1C340.1 200.2 340.3 200.1 340.5 200Z" fill="#1D1D1B"/>
<path d="M354.4 200.2C360.9 200.2 364.9 196.7 364.9 190.8V185.5C364.9 179.6 360.9 176 354.4 176C347.9 176 343.9 179.6 343.9 185.5V190.8C343.9 196.7 347.9 200.2 354.4 200.2ZM350.8 185.6C350.8 183.4 352.1 182.1 354.4 182.1C356.7 182.1 358 183.4 358 185.6V190.9C358 193.1 356.7 194.3 354.4 194.3C352.1 194.3 350.8 193.1 350.8 190.9V185.6Z" fill="#1D1D1B"/>
</g>
</g>
<path d="M115.4 45H122.3V77.3H115.4V45Z" fill="#553581"/>
<path d="M128.5 57.3006L128 52.8006H133.6L134.1 55.7006C134.9 54.5006 136 53.6006 137.2 53.0006C138.4 52.4006 139.8 52.1006 141.4 52.1006C143.9 52.1006 145.8 52.8006 147.1 54.2006C148.4 55.6006 149.1 57.8006 149.1 60.6006V77.4006H142.3V61.9006C142.3 60.4006 142.1 59.2006 141.7 58.5006C141.3 57.8006 140.5 57.3006 139.3 57.3006C138.5 57.3006 137.8 57.5006 137.1 57.9006C136.5 58.3006 136 58.8006 135.6 59.5006C135.2 60.1006 135.1 60.9006 135.1 61.6006V77.4006H128.4V57.3006H128.5Z" fill="#553581"/>
<path d="M154.801 51.5004C154.801 49.6004 155.001 48.0004 155.501 46.6004C155.901 45.2004 156.801 44.1004 158.101 43.2004C159.401 42.3004 161.401 41.9004 163.901 41.9004C165.501 41.9004 167.101 42.1004 168.701 42.5004C170.301 42.9004 171.701 43.5004 173.101 44.2004L171.501 48.6004C170.501 48.1004 169.401 47.8004 168.201 47.4004C167.001 47.1004 166.001 46.9004 165.201 46.9004C164.001 46.9004 163.101 47.2004 162.501 47.8004C161.901 48.4004 161.601 49.4004 161.601 50.8004V52.6004H175.701V77.2004H168.901V58.0004H161.601V87.5004H154.801V51.5004Z" fill="#553581"/>
<path d="M181.2 57.3006L180.7 52.8006H186.3L186.8 55.7006C187.6 54.5006 188.7 53.6006 189.9 53.0006C191.1 52.4006 192.5 52.1006 194.1 52.1006C196.6 52.1006 198.5 52.8006 199.8 54.2006C201.1 55.6006 201.8 57.8006 201.8 60.6006V77.4006H195V61.9006C195 60.4006 194.8 59.2006 194.4 58.5006C194 57.8006 193.2 57.3006 192 57.3006C191.2 57.3006 190.5 57.5006 189.8 57.9006C189.2 58.3006 188.7 58.8006 188.3 59.5006C187.9 60.2006 187.8 60.9006 187.8 61.6006V77.4006H181.1V57.3006H181.2Z" fill="#553581"/>
<path d="M207.801 48.3006C207.101 47.6006 206.801 46.8006 206.801 45.7006C206.801 44.7006 207.101 43.8006 207.801 43.1006C208.501 42.4006 209.401 42.1006 210.401 42.1006C211.501 42.1006 212.401 42.4006 213.101 43.1006C213.801 43.8006 214.101 44.6006 214.101 45.7006C214.101 46.7006 213.801 47.6006 213.101 48.3006C212.401 49.0006 211.501 49.3006 210.401 49.3006C209.401 49.3006 208.501 48.9006 207.801 48.3006ZM207.201 52.8006H214.001V77.4006H207.201V52.8006Z" fill="#553581"/>
<path d="M222.2 76.9006C221 76.1006 220.3 75.1006 219.9 73.9006C219.5 72.7006 219.4 71.2006 219.4 69.4006V43.6006H226.2V52.8006H232.6V58.0006H226.2V69.3006C226.2 70.7006 226.5 71.6006 227.1 72.2006C227.6 72.8006 228.4 73.0006 229.4 73.1006C230.3 73.1006 231.3 72.7006 232.3 72.1006L234 76.5006C233.2 77.0006 232.2 77.4006 231.1 77.7006C229.9 78.0006 228.7 78.2006 227.5 78.2006C225.1 78.1006 223.4 77.7006 222.2 76.9006Z" fill="#553581"/>
<path d="M240.301 88.5008C238.901 87.4008 238.201 85.7008 238.201 83.7008C238.201 82.0008 238.601 80.5008 239.501 79.2008C240.401 77.8008 241.601 76.6008 243.101 75.5008C241.001 75.1008 239.501 74.3008 238.401 73.1008C237.301 71.9008 236.801 70.0008 236.801 67.7008V52.8008H243.601V67.1008C243.601 68.2008 243.701 69.0008 243.801 69.6008C244.001 70.2008 244.301 70.7008 244.801 71.1008C245.301 71.5008 246.001 71.7008 247.001 71.7008C247.601 71.7008 248.301 71.5008 248.801 71.2008C249.301 70.9008 249.801 70.4008 250.201 69.7008C250.601 69.1008 250.701 68.4008 250.701 67.6008V52.8008H257.501V73.3008C257.501 74.3008 257.501 75.5008 257.401 76.8008C257.301 78.1008 257.201 79.2008 257.101 80.0008C256.701 83.3008 255.601 85.9008 253.801 87.6008C252.001 89.3008 249.401 90.2008 246.201 90.2008C243.601 90.3008 241.601 89.7008 240.301 88.5008ZM250.001 83.8008C250.601 82.8008 250.901 81.3008 250.901 79.3008V74.7008C248.901 75.7008 247.301 76.8008 246.001 78.1008C244.801 79.4008 244.101 80.9008 244.101 82.6008C244.101 83.5008 244.401 84.2008 244.901 84.7008C245.401 85.2008 246.101 85.4008 247.101 85.4008C248.401 85.4008 249.401 84.9008 250.001 83.8008Z" fill="#553581"/>
<path d="M98.8996 84.0996H117.4L127.2 112.9H127.6L137.6 84.0996H155.8L158.8 142.6H141.7L140.4 119H140L133.6 137H121.2L114.5 119.5H114.1L112.8 142.5H95.5996L98.8996 84.0996Z" fill="#553581"/>
<path d="M180.1 84.0996H200.1L220.1 142.6H200.8L197.7 132.1H182.2L179.1 142.6H161.3L180.1 84.0996ZM194.8 118.9L190.1 101.1H189.6L185.1 118.9H194.8Z" fill="#553581"/>
<path d="M239.4 112L221 84.0996H241.9L250.3 98.4996L259.4 84.0996H279.5L260.5 111.9L280.4 142.6H259.6L249.8 126.8L240 142.6H218.6L239.4 112Z" fill="#553581"/>
</svg>
