<svg width="362" height="191" viewBox="0 0 362 191" fill="none" xmlns="http://www.w3.org/2000/svg">
<path d="M92.7998 13.0996H351V95.0996C351 140.4 314.3 177.1 269 177.1H92.7998C47.4998 177.1 10.7998 140.4 10.7998 95.0996C10.7998 49.7996 47.4998 13.0996 92.7998 13.0996Z" fill="#FFFFAA"/>
<g opacity="0.05">
<mask id="mask0_245_885" style="mask-type:luminance" maskUnits="userSpaceOnUse" x="10" y="13" width="341" height="165">
<path d="M92.7998 13.0996H351V95.0996C351 140.4 314.3 177.1 269 177.1H92.7998C47.4998 177.1 10.7998 140.4 10.7998 95.0996C10.7998 49.7996 47.4998 13.0996 92.7998 13.0996Z" fill="white"/>
</mask>
<g mask="url(#mask0_245_885)">
<path d="M16.6 26.9998C10.6 26.9998 7 29.2998 7 33.8998C7 39.0998 11 41.4998 17.4 41.4998C20.4 41.4998 27.2 39.7998 27.2 32.1998V27.1998C27.2 20.4998 23.6 17.2998 17.5 17.2998C13.7 17.2998 10.5 18.3998 8.4 19.6998C8 19.9998 8 20.2998 8.3 20.6998L9 22.1998C10 24.5998 12.6 23.7998 13.5 23.5998C14.5 23.3998 15.6 23.1998 16.6 23.1998C19.5 23.1998 20.3 24.4998 20.3 26.7998V27.1998C19.3 27.0998 18 26.9998 16.6 26.9998ZM20.4 32.9998C20.4 34.6998 19.1 35.9998 17.4 35.9998C15.3 35.9998 13.9 35.1998 13.9 33.6998C13.9 32.2998 15 31.4998 17.4 31.4998C18.4 31.4998 19.6 31.5998 20.5 31.7998V32.9998H20.4Z" fill="#1D1D1B"/>
<path d="M29.4004 26.7996V31.7996C29.4004 37.6996 33.2004 41.3996 39.9004 41.3996C43.0004 41.3996 45.5004 40.5996 47.7004 38.9996C48.1004 38.6996 48.1004 38.2996 47.8004 37.8996L46.5004 35.8996C45.4004 34.0996 41.6004 35.3996 40.1004 35.3996C37.8004 35.3996 36.3004 34.1996 36.3004 31.6996V26.6996C36.3004 24.3996 37.8004 23.0996 40.2004 23.0996C41.5004 23.0996 44.4004 24.5996 46.2004 22.0996L47.4004 20.2996C47.7004 19.8996 47.6004 19.4996 47.2004 19.1996C44.9004 17.7996 42.5004 17.0996 39.9004 17.0996C33.2004 17.2996 29.4004 20.9996 29.4004 26.7996Z" fill="#1D1D1B"/>
<path d="M55.2002 13.0996C55.2002 13.0996 49.9002 13.7996 49.2002 18.9996V32.9996C49.2002 38.6996 52.6002 41.3996 57.8002 41.3996C58.1002 41.3996 58.3002 41.2996 58.5002 41.1996C59.1002 40.7996 59.0002 39.8996 58.4002 39.4996C55.9002 37.5996 56.0002 34.0996 56.0002 32.0996V24.0996H57.5002C61.4002 23.8996 60.8002 19.0996 60.8002 19.0996C60.8002 18.6996 60.4002 18.2996 60.0002 18.2996H56.0002L56.1002 13.6996C55.9002 13.3996 55.7002 13.0996 55.2002 13.0996Z" fill="#1D1D1B"/>
<path d="M72.2998 41.4998C78.7998 41.4998 82.7998 37.9998 82.7998 32.0998V26.7998C82.7998 20.8998 78.7998 17.2998 72.2998 17.2998C65.7998 17.2998 61.7998 20.8998 61.7998 26.7998V32.0998C61.7998 37.8998 65.7998 41.4998 72.2998 41.4998ZM68.6998 26.7998C68.6998 24.5998 69.9998 23.2998 72.2998 23.2998C74.5998 23.2998 75.8998 24.5998 75.8998 26.7998V32.0998C75.8998 34.2998 74.5998 35.4998 72.2998 35.4998C69.9998 35.4998 68.6998 34.2998 68.6998 32.0998V26.7998Z" fill="#1D1D1B"/>
<path d="M98.5004 26.9998C92.5004 26.9998 88.9004 29.2998 88.9004 33.8998C88.9004 39.0998 92.9004 41.4998 99.3004 41.4998C102.3 41.4998 109.1 39.7998 109.1 32.1998V27.1998C109.1 20.4998 105.5 17.2998 99.4004 17.2998C95.6004 17.2998 92.4004 18.3998 90.3004 19.6998C90.0004 19.8998 90.0004 20.1998 90.2004 20.6998L91.0004 22.1998C92.0004 24.5998 94.6004 23.7998 95.5004 23.5998C96.5004 23.3998 97.6004 23.1998 98.6004 23.1998C101.5 23.1998 102.3 24.4998 102.3 26.7998V27.1998C101.1 27.0998 99.9004 26.9998 98.5004 26.9998ZM102.2 32.9998C102.2 34.6998 100.9 35.9998 99.2004 35.9998C97.1004 35.9998 95.7004 35.1998 95.7004 33.6998C95.7004 32.2998 96.8004 31.4998 99.2004 31.4998C100.2 31.4998 101.4 31.5998 102.3 31.7998V32.9998H102.2Z" fill="#1D1D1B"/>
<path d="M111.2 26.7996V31.7996C111.2 37.6996 115 41.3996 121.7 41.3996C124.8 41.3996 127.3 40.5996 129.5 38.9996C129.9 38.6996 129.9 38.2996 129.6 37.8996L128.3 35.8996C127.2 34.0996 123.4 35.3996 121.9 35.3996C119.6 35.3996 118.1 34.1996 118.1 31.6996V26.6996C118.1 24.3996 119.6 23.0996 122 23.0996C123.3 23.0996 126.2 24.5996 128 22.0996L129.2 20.2996C129.5 19.8996 129.4 19.4996 129 19.1996C126.7 17.7996 124.3 17.0996 121.7 17.0996C115.1 17.2996 111.2 20.9996 111.2 26.7996Z" fill="#1D1D1B"/>
<path d="M137 13.0996C137 13.0996 131.7 13.7996 131 18.9996V32.9996C131 38.6996 134.4 41.3996 139.6 41.3996C139.9 41.3996 140.1 41.2996 140.3 41.1996C140.9 40.7996 140.8 39.8996 140.2 39.4996C137.7 37.5996 137.8 34.0996 137.8 32.0996V24.0996H139.3C143.2 23.8996 142.6 19.0996 142.6 19.0996C142.6 18.6996 142.2 18.2996 141.8 18.2996H137.8L137.9 13.6996C137.8 13.2996 137.5 13.0996 137 13.0996Z" fill="#1D1D1B"/>
<path d="M154.2 41.4998C160.7 41.4998 164.7 37.9998 164.7 32.0998V26.7998C164.7 20.8998 160.7 17.2998 154.2 17.2998C147.7 17.2998 143.7 20.8998 143.7 26.7998V32.0998C143.6 37.8998 147.7 41.4998 154.2 41.4998ZM150.5 26.7998C150.5 24.5998 151.8 23.2998 154.1 23.2998C156.4 23.2998 157.7 24.5998 157.7 26.7998V32.0998C157.7 34.2998 156.4 35.4998 154.1 35.4998C151.8 35.4998 150.5 34.2998 150.5 32.0998V26.7998Z" fill="#1D1D1B"/>
<path d="M181.4 26.8992C175.4 26.8992 171.8 29.1992 171.8 33.7992C171.8 38.9992 175.8 41.3992 182.2 41.3992C185.2 41.3992 192 39.6992 192 32.0992V27.0992C192 20.3992 188.4 17.1992 182.3 17.1992C178.5 17.1992 175.3 18.2992 173.2 19.5992C172.9 19.7992 172.9 20.0992 173.1 20.5992L173.9 22.0992C174.9 24.4992 177.5 23.6992 178.4 23.4992C179.4 23.2992 180.5 23.0992 181.5 23.0992C184.4 23.0992 185.2 24.3992 185.2 26.6992V27.0992C184 27.0992 182.8 26.8992 181.4 26.8992ZM185.1 32.8992C185.1 34.5992 183.8 35.8992 182.1 35.8992C180 35.8992 178.6 35.0992 178.6 33.5992C178.6 32.1992 179.7 31.3992 182.1 31.3992C183.1 31.3992 184.3 31.4992 185.2 31.6992V32.8992H185.1Z" fill="#1D1D1B"/>
<path d="M194.1 26.7996V31.7996C194.1 37.6996 197.9 41.3996 204.6 41.3996C207.7 41.3996 210.2 40.5996 212.4 38.9996C212.8 38.6996 212.8 38.2996 212.5 37.8996L211.2 35.8996C210.1 34.0996 206.3 35.3996 204.8 35.3996C202.5 35.3996 201 34.1996 201 31.6996V26.6996C201 24.3996 202.5 23.0996 204.9 23.0996C206.2 23.0996 209.1 24.5996 210.9 22.0996L212.1 20.2996C212.4 19.8996 212.3 19.4996 211.9 19.1996C209.6 17.7996 207.2 17.0996 204.6 17.0996C198 17.2996 194.1 20.9996 194.1 26.7996Z" fill="#1D1D1B"/>
<path d="M219.9 13.0996C219.9 13.0996 214.6 13.7996 213.9 18.9996V32.9996C213.9 38.6996 217.3 41.3996 222.5 41.3996C222.8 41.3996 223 41.2996 223.2 41.1996C223.8 40.7996 223.7 39.8996 223.1 39.4996C220.6 37.5996 220.7 34.0996 220.7 32.0996V24.0996H222.2C226.1 23.8996 225.5 19.0996 225.5 19.0996C225.5 18.6996 225.1 18.2996 224.7 18.2996H220.7L220.8 13.6996C220.7 13.2996 220.4 13.0996 219.9 13.0996Z" fill="#1D1D1B"/>
<path d="M237.1 41.3992C243.6 41.3992 247.6 37.8992 247.6 31.9992V26.6992C247.6 20.7992 243.6 17.1992 237.1 17.1992C230.6 17.1992 226.6 20.7992 226.6 26.6992V31.9992C226.5 37.8992 230.6 41.3992 237.1 41.3992ZM233.4 26.7992C233.4 24.5992 234.7 23.2992 237 23.2992C239.3 23.2992 240.6 24.5992 240.6 26.7992V32.0992C240.6 34.2992 239.3 35.4992 237 35.4992C234.7 35.4992 233.4 34.2992 233.4 32.0992V26.7992Z" fill="#1D1D1B"/>
<path d="M9.8002 72.6994C10.1002 72.6994 10.3002 72.5994 10.5002 72.4994C11.1002 72.0994 11.0002 71.1994 10.4002 70.7994C7.9002 68.8994 8.0002 65.3994 8.0002 63.3994V55.3994H9.5002C13.4002 55.1994 12.8002 50.3994 12.8002 50.3994C12.8002 49.9994 12.4002 49.5994 12.0002 49.5994H8.0002V45.0994C8.0002 44.5994 7.7002 44.3994 7.2002 44.3994C7.2002 44.3994 1.9002 45.0994 1.2002 50.2994V64.2994C1.2002 69.8994 4.7002 72.6994 9.8002 72.6994Z" fill="#1D1D1B"/>
<path d="M24.2998 72.7C30.7998 72.7 34.7998 69.2 34.7998 63.3V58C34.7998 52.1 30.7998 48.5 24.2998 48.5C17.7998 48.5 13.7998 52.1 13.7998 58V63.3C13.7998 69.2 17.7998 72.7 24.2998 72.7ZM20.6998 58C20.6998 55.8 21.9998 54.5 24.2998 54.5C26.5998 54.5 27.8998 55.8 27.8998 58V63.3C27.8998 65.5 26.5998 66.7 24.2998 66.7C21.9998 66.7 20.6998 65.5 20.6998 63.3V58Z" fill="#1D1D1B"/>
<path d="M60.9998 58.4C60.9998 51.7 57.3998 48.5 51.2998 48.5C47.4998 48.5 44.2998 49.6 42.1998 50.9C41.8998 51.1 41.8998 51.4 42.0998 51.9L42.8998 53.4C43.8998 55.8 46.4998 55 47.3998 54.8C48.3998 54.6 49.4998 54.4 50.4998 54.4C53.3998 54.4 54.1998 55.7 54.1998 58V58.4C53.0998 58.3 51.7998 58.1 50.3998 58.1C44.3998 58.1 40.7998 60.4 40.7998 65C40.7998 70.2 44.7998 72.6 51.1998 72.6C54.1998 72.6 60.9998 70.9 60.9998 63.3V58.4ZM54.2998 64.2C54.2998 65.9 52.9998 67.2 51.2998 67.2C49.1998 67.2 47.7998 66.4 47.7998 64.9C47.7998 63.5 48.8998 62.7 51.2998 62.7C52.2998 62.7 53.4998 62.8 54.3998 63V64.2H54.2998Z" fill="#1D1D1B"/>
<path d="M73.9998 54.5C75.2998 54.5 78.1998 56 79.9998 53.5L81.1998 51.7C81.4998 51.3 81.3998 50.9 80.9998 50.6C78.6998 49.2 76.2998 48.5 73.6998 48.5C67.0998 48.5 63.2998 52.2 63.2998 58V63C63.2998 68.9 67.0998 72.6 73.7998 72.6C76.8998 72.6 79.3998 71.8 81.5998 70.2C81.9998 69.9 81.9998 69.5 81.6998 69.1L80.3998 67.1C79.2998 65.3 75.4998 66.6 73.9998 66.6C71.6998 66.6 70.1998 65.4 70.1998 62.9V57.9C70.0998 55.8 71.5998 54.5 73.9998 54.5Z" fill="#1D1D1B"/>
<path d="M91.7004 72.6998C92.0004 72.6998 92.2004 72.5998 92.4004 72.4998C93.0004 72.0998 92.9004 71.1998 92.3004 70.7998C89.8004 68.8998 89.9004 65.3998 89.9004 63.3998V55.3998H91.4004C95.3004 55.1998 94.7004 50.3998 94.7004 50.3998C94.7004 49.9998 94.3004 49.5998 93.9004 49.5998H89.9004L90.0004 44.9998C90.0004 44.4998 89.7004 44.2998 89.2004 44.2998C89.2004 44.2998 83.9004 44.9998 83.2004 50.1998V64.1998C83.1004 69.8998 86.5004 72.6998 91.7004 72.6998Z" fill="#1D1D1B"/>
<path d="M106.2 72.7C112.7 72.7 116.7 69.2 116.7 63.3V58C116.7 52.1 112.7 48.5 106.2 48.5C99.7002 48.5 95.7002 52.1 95.7002 58V63.3C95.7002 69.2 99.7002 72.7 106.2 72.7ZM102.6 58C102.6 55.8 103.9 54.5 106.2 54.5C108.5 54.5 109.8 55.8 109.8 58V63.3C109.8 65.5 108.5 66.7 106.2 66.7C103.9 66.7 102.6 65.5 102.6 63.3V58Z" fill="#1D1D1B"/>
<path d="M143.9 58.4C143.9 51.7 140.3 48.5 134.2 48.5C130.4 48.5 127.2 49.6 125.1 50.9C124.8 51.1 124.8 51.4 125 51.9L125.8 53.4C126.8 55.8 129.4 55 130.3 54.8C131.3 54.6 132.4 54.4 133.4 54.4C136.3 54.4 137.1 55.7 137.1 58V58.4C136 58.3 134.7 58.1 133.3 58.1C127.3 58.1 123.7 60.4 123.7 65C123.7 70.2 127.7 72.6 134.1 72.6C137.1 72.6 143.9 70.9 143.9 63.3V58.4ZM137.2 64.2C137.2 65.9 135.9 67.2 134.2 67.2C132.1 67.2 130.7 66.4 130.7 64.9C130.7 63.5 131.8 62.7 134.2 62.7C135.2 62.7 136.4 62.8 137.3 63V64.2H137.2Z" fill="#1D1D1B"/>
<path d="M163.2 67.1994C162.1 65.3994 158.3 66.6994 156.8 66.6994C154.5 66.6994 153 65.4994 153 62.9994V57.9994C153 55.6994 154.5 54.3994 156.9 54.3994C158.2 54.3994 161.1 55.8994 162.9 53.3994L164.1 51.5994C164.4 51.1994 164.3 50.7994 163.9 50.4994C161.6 49.0994 159.2 48.3994 156.6 48.3994C150 48.3994 146.2 52.0994 146.2 57.8994V62.8994C146.2 68.7994 150 72.4994 156.7 72.4994C159.8 72.4994 162.3 71.6994 164.5 70.0994C164.9 69.7994 164.9 69.3994 164.6 68.9994L163.2 67.1994Z" fill="#1D1D1B"/>
<path d="M174.6 72.5992C174.9 72.5992 175.1 72.4992 175.3 72.3992C175.9 71.9992 175.8 71.0992 175.2 70.6992C172.7 68.7992 172.8 65.2992 172.8 63.2992V55.2992H174.3C178.2 55.0992 177.6 50.2992 177.6 50.2992C177.6 49.8992 177.2 49.4992 176.8 49.4992H172.8L172.9 44.8992C172.9 44.3992 172.6 44.1992 172.1 44.1992C172.1 44.1992 166.8 44.8992 166.1 50.0992V64.0992C166 69.8992 169.4 72.5992 174.6 72.5992Z" fill="#1D1D1B"/>
<path d="M189.1 72.7C195.6 72.7 199.6 69.2 199.6 63.3V58C199.6 52.1 195.6 48.5 189.1 48.5C182.6 48.5 178.6 52.1 178.6 58V63.3C178.6 69.1 182.6 72.7 189.1 72.7ZM185.5 58C185.5 55.8 186.8 54.5 189.1 54.5C191.4 54.5 192.7 55.8 192.7 58V63.3C192.7 65.5 191.4 66.7 189.1 66.7C186.8 66.7 185.5 65.5 185.5 63.3V58Z" fill="#1D1D1B"/>
<path d="M16.5004 90.7C10.5004 90.7 6.90039 93 6.90039 97.6C6.90039 102.8 10.9004 105.2 17.3004 105.2C20.3004 105.2 27.1004 103.5 27.1004 95.9V90.9C27.1004 84.2 23.5004 81 17.4004 81C13.6004 81 10.4004 82.1 8.30039 83.4C8.00039 83.6 8.00039 83.9 8.20039 84.4L9.00039 85.9C10.0004 88.3 12.6004 87.5 13.5004 87.3C14.5004 87.1 15.6004 86.9 16.6004 86.9C19.5004 86.9 20.3004 88.2 20.3004 90.5V90.9C19.2004 90.8 17.9004 90.7 16.5004 90.7ZM20.3004 96.6C20.3004 98.3 19.0004 99.6 17.3004 99.6C15.2004 99.6 13.8004 98.8 13.8004 97.3C13.8004 95.9 14.9004 95.1 17.3004 95.1C18.3004 95.1 19.5004 95.2 20.4004 95.4V96.6H20.3004Z" fill="#1D1D1B"/>
<path d="M47.7004 101.699L46.4004 99.6994C45.3004 97.8994 41.5004 99.1994 40.0004 99.1994C37.7004 99.1994 36.2004 97.9994 36.2004 95.4994V90.4994C36.2004 88.1994 37.7004 86.8994 40.1004 86.8994C41.4004 86.8994 44.3004 88.3994 46.1004 85.8994L47.3004 84.0994C47.6004 83.6994 47.5004 83.2994 47.1004 82.9994C44.8004 81.5994 42.4004 80.8994 39.8004 80.8994C33.2004 80.8994 29.4004 84.5994 29.4004 90.3994V95.3994C29.4004 101.299 33.2004 104.999 39.9004 104.999C43.0004 104.999 45.5004 104.199 47.7004 102.599C47.9004 102.499 48.0004 102.099 47.7004 101.699Z" fill="#1D1D1B"/>
<path d="M55.9002 87.7992H57.4002C61.3002 87.5992 60.7002 82.7992 60.7002 82.7992C60.7002 82.3992 60.3002 81.9992 59.9002 81.9992H55.9002L56.0002 77.3992C56.0002 76.8992 55.7002 76.6992 55.2002 76.6992C55.2002 76.6992 49.9002 77.3992 49.2002 82.5992V96.5992C49.2002 102.299 52.6002 104.999 57.8002 104.999C58.1002 104.999 58.3002 104.899 58.5002 104.799C59.1002 104.399 59.0002 103.499 58.4002 103.099C55.9002 101.199 56.0002 97.6992 56.0002 95.6992V87.7992H55.9002Z" fill="#1D1D1B"/>
<path d="M72.2002 105.2C78.7002 105.2 82.7002 101.7 82.7002 95.8V90.5C82.7002 84.6 78.7002 81 72.2002 81C65.7002 81 61.7002 84.6 61.7002 90.5V95.8C61.7002 101.6 65.7002 105.2 72.2002 105.2ZM68.6002 90.5C68.6002 88.3 69.9002 87 72.2002 87C74.5002 87 75.8002 88.3 75.8002 90.5V95.8C75.8002 98 74.5002 99.2 72.2002 99.2C69.9002 99.2 68.6002 98 68.6002 95.8V90.5Z" fill="#1D1D1B"/>
<path d="M98.3998 90.5994C92.3998 90.5994 88.7998 92.8994 88.7998 97.4994C88.7998 102.699 92.7998 105.099 99.1998 105.099C102.2 105.099 109 103.399 109 95.7994V90.7994C109 84.0994 105.4 80.8994 99.2998 80.8994C95.4998 80.8994 92.2998 81.9994 90.1998 83.2994C89.8998 83.4994 89.8998 83.7994 90.0998 84.2994L90.8998 85.7994C91.8998 88.1994 94.4998 87.3994 95.3998 87.1994C96.3998 86.9994 97.4998 86.7994 98.4998 86.7994C101.4 86.7994 102.2 88.0994 102.2 90.3994V90.7994C101 90.7994 99.7998 90.5994 98.3998 90.5994ZM102.1 96.5994C102.1 98.2994 100.8 99.5994 99.0998 99.5994C96.9998 99.5994 95.5998 98.7994 95.5998 97.2994C95.5998 95.8994 96.6998 95.0994 99.0998 95.0994C100.1 95.0994 101.3 95.1994 102.2 95.3994V96.5994H102.1Z" fill="#1D1D1B"/>
<path d="M121.9 86.8994C123.2 86.8994 126.1 88.3994 127.9 85.8994L129.1 84.0994C129.4 83.6994 129.3 83.2994 128.9 82.9994C126.6 81.5994 124.2 80.8994 121.6 80.8994C115 80.8994 111.2 84.5994 111.2 90.3994V95.3994C111.2 101.299 115 104.999 121.7 104.999C124.8 104.999 127.3 104.199 129.5 102.599C129.9 102.299 129.9 101.899 129.6 101.499L128.3 99.4994C127.2 97.6994 123.4 98.9994 121.9 98.9994C119.6 98.9994 118.1 97.7994 118.1 95.2994V90.2994C118 88.2994 119.4 86.8994 121.9 86.8994Z" fill="#1D1D1B"/>
<path d="M136.9 76.7998C136.9 76.7998 131.6 77.4998 130.9 82.6998V96.6998C130.9 102.4 134.3 105.1 139.5 105.1C139.8 105.1 140 105 140.2 104.9C140.8 104.5 140.7 103.6 140.1 103.2C137.6 101.3 137.7 97.7998 137.7 95.7998V87.7998H139.2C143.1 87.5998 142.5 82.7998 142.5 82.7998C142.5 82.3998 142.1 81.9998 141.7 81.9998H137.7L137.8 77.3998C137.7 76.9998 137.4 76.7998 136.9 76.7998Z" fill="#1D1D1B"/>
<path d="M154.1 81C147.6 81 143.6 84.6 143.6 90.5V95.8C143.6 101.6 147.6 105.2 154.1 105.2C160.6 105.2 164.6 101.7 164.6 95.8V90.5C164.6 84.5 160.5 81 154.1 81ZM157.7 95.8C157.7 98 156.4 99.2 154.1 99.2C151.8 99.2 150.5 98 150.5 95.8V90.5C150.5 88.3 151.8 87 154.1 87C156.4 87 157.7 88.3 157.7 90.5V95.8Z" fill="#1D1D1B"/>
<path d="M181.3 90.5994C175.3 90.5994 171.7 92.8994 171.7 97.4994C171.7 102.699 175.7 105.099 182.1 105.099C185.1 105.099 191.9 103.399 191.9 95.7994V90.7994C191.9 84.0994 188.3 80.8994 182.2 80.8994C178.4 80.8994 175.2 81.9994 173.1 83.2994C172.8 83.4994 172.8 83.7994 173 84.2994L173.8 85.7994C174.8 88.1994 177.4 87.3994 178.3 87.1994C179.3 86.9994 180.4 86.7994 181.4 86.7994C184.3 86.7994 185.1 88.0994 185.1 90.3994V90.7994C183.9 90.7994 182.7 90.5994 181.3 90.5994ZM185 96.5994C185 98.2994 183.7 99.5994 182 99.5994C179.9 99.5994 178.5 98.7994 178.5 97.2994C178.5 95.8994 179.6 95.0994 182 95.0994C183 95.0994 184.2 95.1994 185.1 95.3994V96.5994H185Z" fill="#1D1D1B"/>
<path d="M204.8 86.8994C206.1 86.8994 209 88.3994 210.8 85.8994L212 84.0994C212.3 83.6994 212.2 83.2994 211.8 82.9994C209.5 81.5994 207.1 80.8994 204.5 80.8994C197.9 80.8994 194.1 84.5994 194.1 90.3994V95.3994C194.1 101.299 197.9 104.999 204.6 104.999C207.7 104.999 210.2 104.199 212.4 102.599C212.8 102.299 212.8 101.899 212.5 101.499L211.2 99.4994C210.1 97.6994 206.3 98.9994 204.8 98.9994C202.5 98.9994 201 97.7994 201 95.2994V90.2994C200.9 88.1994 202.3 86.8994 204.8 86.8994Z" fill="#1D1D1B"/>
<path d="M219.8 76.7998C219.8 76.7998 214.5 77.4998 213.8 82.6998V96.6998C213.8 102.4 217.2 105.1 222.4 105.1C222.7 105.1 222.9 105 223.1 104.9C223.7 104.5 223.6 103.6 223 103.2C220.5 101.3 220.6 97.7998 220.6 95.7998V87.7998H222.1C226 87.5998 225.4 82.7998 225.4 82.7998C225.4 82.3998 225 81.9998 224.6 81.9998H220.6L220.7 77.3998C220.6 76.9998 220.3 76.7998 219.8 76.7998Z" fill="#1D1D1B"/>
<path d="M237 80.8994C230.5 80.8994 226.5 84.4994 226.5 90.3994V95.6994C226.5 101.499 230.5 105.099 237 105.099C243.5 105.099 247.5 101.599 247.5 95.6994V90.3994C247.4 84.4994 243.4 80.8994 237 80.8994ZM240.6 95.6994C240.6 97.8994 239.3 99.0994 237 99.0994C234.7 99.0994 233.4 97.8994 233.4 95.6994V90.3994C233.4 88.1994 234.7 86.8994 237 86.8994C239.3 86.8994 240.6 88.1994 240.6 90.3994V95.6994Z" fill="#1D1D1B"/>
<path d="M8.79994 136.5C9.09994 136.5 9.29994 136.4 9.49994 136.3C10.0999 135.9 9.99994 135 9.39994 134.6C6.89994 132.7 6.99994 129.2 6.99994 127.2V119.2H8.49994C12.3999 119 11.7999 114.2 11.7999 114.2C11.7999 113.8 11.3999 113.4 10.9999 113.4H6.99994L7.09994 108.8C7.09994 108.3 6.79994 108.1 6.29994 108.1C6.29994 108.1 0.99994 108.8 0.29994 114V128C0.19994 133.7 3.69994 136.5 8.79994 136.5Z" fill="#1D1D1B"/>
<path d="M23.2998 136.5C29.7998 136.5 33.7998 133 33.7998 127.1V121.8C33.7998 115.9 29.7998 112.3 23.2998 112.3C16.7998 112.3 12.7998 115.9 12.7998 121.8V127.1C12.7998 133 16.7998 136.5 23.2998 136.5ZM19.6998 121.8C19.6998 119.6 20.9998 118.3 23.2998 118.3C25.5998 118.3 26.8998 119.6 26.8998 121.8V127.1C26.8998 129.3 25.5998 130.5 23.2998 130.5C20.9998 130.5 19.6998 129.3 19.6998 127.1V121.8Z" fill="#1D1D1B"/>
<path d="M50.2998 112.3C46.4998 112.3 43.2998 113.4 41.1998 114.7C40.8998 114.9 40.8998 115.2 41.0998 115.7L41.8998 117.2C42.8998 119.6 45.4998 118.8 46.3998 118.6C47.3998 118.4 48.4998 118.2 49.4998 118.2C52.3998 118.2 53.1998 119.5 53.1998 121.8V122.2C52.0998 122.1 50.7998 121.9 49.3998 121.9C43.3998 121.9 39.7998 124.2 39.7998 128.8C39.7998 134 43.7998 136.4 50.1998 136.4C53.1998 136.4 59.9998 134.7 59.9998 127.1V122.1C59.9998 115.5 56.3998 112.3 50.2998 112.3ZM53.2998 128C53.2998 129.7 51.9998 131 50.2998 131C48.1998 131 46.7998 130.2 46.7998 128.7C46.7998 127.3 47.8998 126.5 50.2998 126.5C51.2998 126.5 52.4998 126.6 53.3998 126.8V128H53.2998Z" fill="#1D1D1B"/>
<path d="M72.9998 118.3C74.2998 118.3 77.1998 119.8 78.9998 117.3L80.1998 115.5C80.4998 115.1 80.3998 114.7 79.9998 114.4C77.6998 113 75.2998 112.3 72.6998 112.3C66.0998 112.3 62.2998 116 62.2998 121.8V126.8C62.2998 132.7 66.0998 136.4 72.7998 136.4C75.8998 136.4 78.3998 135.6 80.5998 134C80.9998 133.7 80.9998 133.3 80.6998 132.9L79.3998 130.9C78.2998 129.1 74.4998 130.4 72.9998 130.4C70.6998 130.4 69.1998 129.2 69.1998 126.7V121.7C69.0998 119.6 70.5998 118.3 72.9998 118.3Z" fill="#1D1D1B"/>
<path d="M88.0996 108.199C88.0996 108.199 82.7996 108.899 82.0996 114.099V128.099C82.0996 133.799 85.4996 136.499 90.6996 136.499C90.9996 136.499 91.1996 136.399 91.3996 136.299C91.9996 135.899 91.8996 134.999 91.2996 134.599C88.7996 132.699 88.8996 129.199 88.8996 127.199V119.199H90.3996C94.2996 118.999 93.6996 114.199 93.6996 114.199C93.6996 113.799 93.2996 113.399 92.8996 113.399H88.8996L88.9996 108.799C88.7996 108.399 88.4996 108.199 88.0996 108.199Z" fill="#1D1D1B"/>
<path d="M105.2 112.3C98.7002 112.3 94.7002 115.9 94.7002 121.8V127.1C94.7002 132.9 98.7002 136.5 105.2 136.5C111.7 136.5 115.7 133 115.7 127.1V121.8C115.7 115.9 111.6 112.3 105.2 112.3ZM108.8 127.1C108.8 129.3 107.5 130.5 105.2 130.5C102.9 130.5 101.6 129.3 101.6 127.1V121.8C101.6 119.6 102.9 118.3 105.2 118.3C107.5 118.3 108.8 119.6 108.8 121.8V127.1Z" fill="#1D1D1B"/>
<path d="M133.2 112.3C129.4 112.3 126.2 113.4 124.1 114.7C123.8 114.9 123.8 115.2 124 115.7L124.8 117.2C125.8 119.6 128.4 118.8 129.3 118.6C130.3 118.4 131.4 118.2 132.4 118.2C135.3 118.2 136.1 119.5 136.1 121.8V122.2C135 122.1 133.7 121.9 132.3 121.9C126.3 121.9 122.7 124.2 122.7 128.8C122.7 134 126.7 136.4 133.1 136.4C136.1 136.4 142.9 134.7 142.9 127.1V122.1C142.9 115.5 139.3 112.3 133.2 112.3ZM136.2 128C136.2 129.7 134.9 131 133.2 131C131.1 131 129.7 130.2 129.7 128.7C129.7 127.3 130.8 126.5 133.2 126.5C134.2 126.5 135.4 126.6 136.3 126.8V128H136.2Z" fill="#1D1D1B"/>
<path d="M162.2 130.999C161.1 129.199 157.3 130.499 155.8 130.499C153.5 130.499 152 129.299 152 126.799V121.799C152 119.499 153.5 118.199 155.9 118.199C157.2 118.199 160.1 119.699 161.9 117.199L163.1 115.399C163.4 114.999 163.3 114.599 162.9 114.299C160.6 112.899 158.2 112.199 155.6 112.199C149 112.199 145.2 115.899 145.2 121.699V126.699C145.2 132.599 149 136.299 155.7 136.299C158.8 136.299 161.3 135.499 163.5 133.899C163.9 133.599 163.9 133.199 163.6 132.799L162.2 130.999Z" fill="#1D1D1B"/>
<path d="M173.5 136.4C173.8 136.4 174 136.3 174.2 136.2C174.8 135.8 174.7 134.9 174.1 134.5C171.6 132.6 171.7 129.1 171.7 127.1V119.1H173.2C177.1 118.9 176.5 114.1 176.5 114.1C176.5 113.7 176.1 113.3 175.7 113.3H171.7L171.8 108.7C171.8 108.2 171.5 108 171 108C171 108 165.7 108.7 165 113.9V127.9C165 133.6 168.4 136.4 173.5 136.4Z" fill="#1D1D1B"/>
<path d="M188.1 136.5C194.6 136.5 198.6 133 198.6 127.1V121.8C198.6 115.9 194.6 112.3 188.1 112.3C181.6 112.3 177.6 115.9 177.6 121.8V127.1C177.6 132.9 181.6 136.5 188.1 136.5ZM184.5 121.8C184.5 119.6 185.8 118.3 188.1 118.3C190.4 118.3 191.7 119.6 191.7 121.8V127.1C191.7 129.3 190.4 130.5 188.1 130.5C185.8 130.5 184.5 129.3 184.5 127.1V121.8Z" fill="#1D1D1B"/>
<path d="M15.5004 154.399C9.50039 154.399 5.90039 156.699 5.90039 161.299C5.90039 166.499 9.90039 168.899 16.3004 168.899C19.3004 168.899 26.1004 167.199 26.1004 159.599V154.599C26.1004 147.899 22.5004 144.699 16.4004 144.699C12.6004 144.699 9.40039 145.799 7.30039 147.099C7.00039 147.299 7.00039 147.599 7.20039 148.099L8.00039 149.599C9.00039 151.999 11.6004 151.199 12.5004 150.999C13.5004 150.799 14.6004 150.599 15.6004 150.599C18.5004 150.599 19.3004 151.899 19.3004 154.199V154.599C18.2004 154.599 16.9004 154.399 15.5004 154.399ZM19.3004 160.399C19.3004 162.099 18.0004 163.399 16.3004 163.399C14.2004 163.399 12.8004 162.599 12.8004 161.099C12.8004 159.699 13.9004 158.899 16.3004 158.899C17.3004 158.899 18.5004 158.999 19.4004 159.199V160.399H19.3004Z" fill="#1D1D1B"/>
<path d="M38.9998 150.699C40.2998 150.699 43.1998 152.199 44.9998 149.699L46.1998 147.899C46.4998 147.499 46.3998 147.099 45.9998 146.799C43.6998 145.399 41.2998 144.699 38.6998 144.699C32.0998 144.699 28.2998 148.399 28.2998 154.199V159.199C28.2998 165.099 32.0998 168.799 38.7998 168.799C41.8998 168.799 44.3998 167.999 46.5998 166.399C46.9998 166.099 46.9998 165.699 46.6998 165.299L45.3998 163.299C44.2998 161.499 40.4998 162.799 38.9998 162.799C36.6998 162.799 35.1998 161.599 35.1998 159.099V154.099C35.0998 152.099 36.5998 150.699 38.9998 150.699Z" fill="#1D1D1B"/>
<path d="M54.0996 140.6C54.0996 140.6 48.7996 141.3 48.0996 146.5V160.5C48.0996 166.2 51.4996 168.9 56.6996 168.9C56.9996 168.9 57.1996 168.8 57.3996 168.7C57.9996 168.3 57.8996 167.4 57.2996 167C54.7996 165.1 54.8996 161.6 54.8996 159.6V151.6H56.3996C60.2996 151.4 59.6996 146.6 59.6996 146.6C59.6996 146.2 59.2996 145.8 58.8996 145.8H54.8996L54.9996 141.2C54.7996 140.8 54.5996 140.6 54.0996 140.6Z" fill="#1D1D1B"/>
<path d="M71.2002 144.8C64.7002 144.8 60.7002 148.4 60.7002 154.3V159.6C60.7002 165.4 64.7002 169 71.2002 169C77.7002 169 81.7002 165.5 81.7002 159.6V154.3C81.7002 148.3 77.7002 144.8 71.2002 144.8ZM74.8002 159.6C74.8002 161.8 73.5002 163 71.2002 163C68.9002 163 67.6002 161.8 67.6002 159.6V154.3C67.6002 152.1 68.9002 150.8 71.2002 150.8C73.5002 150.8 74.8002 152.1 74.8002 154.3V159.6Z" fill="#1D1D1B"/>
<path d="M97.3998 154.399C91.3998 154.399 87.7998 156.699 87.7998 161.299C87.7998 166.499 91.7998 168.899 98.1998 168.899C101.2 168.899 108 167.199 108 159.599V154.599C108 147.899 104.4 144.699 98.2998 144.699C94.4998 144.699 91.2998 145.799 89.1998 147.099C88.8998 147.299 88.8998 147.599 89.0998 148.099L89.8998 149.599C90.8998 151.999 93.4998 151.199 94.3998 150.999C95.3998 150.799 96.4998 150.599 97.4998 150.599C100.4 150.599 101.2 151.899 101.2 154.199V154.599C99.9998 154.599 98.6998 154.399 97.3998 154.399ZM101.1 160.399C101.1 162.099 99.7998 163.399 98.0998 163.399C95.9998 163.399 94.5998 162.599 94.5998 161.099C94.5998 159.699 95.6998 158.899 98.0998 158.899C99.0998 158.899 100.3 158.999 101.2 159.199V160.399H101.1Z" fill="#1D1D1B"/>
<path d="M128.4 166.5C128.8 166.2 128.8 165.8 128.5 165.4L127.2 163.4C126.1 161.6 122.3 162.9 120.8 162.9C118.5 162.9 117 161.7 117 159.2V154.2C117 151.9 118.5 150.6 120.9 150.6C122.2 150.6 125.1 152.1 126.9 149.6L128.1 147.8C128.4 147.4 128.3 147 127.9 146.7C125.6 145.3 123.2 144.6 120.6 144.6C114 144.6 110.2 148.3 110.2 154.1V159.1C110.2 165 114 168.7 120.7 168.7C123.6 168.9 126.2 168.1 128.4 166.5Z" fill="#1D1D1B"/>
<path d="M135.9 140.6C135.9 140.6 130.6 141.3 129.9 146.5V160.5C129.9 166.2 133.3 168.9 138.5 168.9C138.8 168.9 139 168.8 139.2 168.7C139.8 168.3 139.7 167.4 139.1 167C136.6 165.1 136.7 161.6 136.7 159.6V151.6H138.2C142.1 151.4 141.5 146.6 141.5 146.6C141.5 146.2 141.1 145.8 140.7 145.8H136.7L136.8 141.2C136.7 140.8 136.4 140.6 135.9 140.6Z" fill="#1D1D1B"/>
<path d="M153.1 168.899C159.6 168.899 163.6 165.399 163.6 159.499V154.199C163.6 148.299 159.6 144.699 153.1 144.699C146.6 144.699 142.6 148.299 142.6 154.199V159.499C142.5 165.399 146.6 168.899 153.1 168.899ZM149.4 154.299C149.4 152.099 150.7 150.799 153 150.799C155.3 150.799 156.6 152.099 156.6 154.299V159.599C156.6 161.799 155.3 162.999 153 162.999C150.7 162.999 149.4 161.799 149.4 159.599V154.299Z" fill="#1D1D1B"/>
<path d="M180.3 154.399C174.3 154.399 170.7 156.699 170.7 161.299C170.7 166.499 174.7 168.899 181.1 168.899C184.1 168.899 190.9 167.199 190.9 159.599V154.599C190.9 147.899 187.3 144.699 181.2 144.699C177.4 144.699 174.2 145.799 172.1 147.099C171.8 147.299 171.8 147.599 172 148.099L172.8 149.599C173.8 151.999 176.4 151.199 177.3 150.999C178.3 150.799 179.4 150.599 180.4 150.599C183.3 150.599 184.1 151.899 184.1 154.199V154.599C182.9 154.499 181.6 154.399 180.3 154.399ZM184 160.399C184 162.099 182.7 163.399 181 163.399C178.9 163.399 177.5 162.599 177.5 161.099C177.5 159.699 178.6 158.899 181 158.899C182 158.899 183.2 158.999 184.1 159.199V160.399H184Z" fill="#1D1D1B"/>
<path d="M211.3 166.5C211.7 166.2 211.7 165.8 211.4 165.4L210.1 163.4C209 161.6 205.2 162.9 203.7 162.9C201.4 162.9 199.9 161.7 199.9 159.2V154.2C199.9 151.9 201.4 150.6 203.8 150.6C205.1 150.6 208 152.1 209.8 149.6L211 147.8C211.3 147.4 211.2 147 210.8 146.7C208.5 145.3 206.1 144.6 203.5 144.6C196.9 144.6 193.1 148.3 193.1 154.1V159.1C193.1 165 196.9 168.7 203.6 168.7C206.5 168.9 209.1 168.1 211.3 166.5Z" fill="#1D1D1B"/>
<path d="M218.8 140.6C218.8 140.6 213.5 141.3 212.8 146.5V160.5C212.8 166.2 216.2 168.9 221.4 168.9C221.7 168.9 221.9 168.8 222.1 168.7C222.7 168.3 222.6 167.4 222 167C219.5 165.1 219.6 161.6 219.6 159.6V151.6H221.1C225 151.4 224.4 146.6 224.4 146.6C224.4 146.2 224 145.8 223.6 145.8H219.6L219.7 141.2C219.6 140.8 219.3 140.6 218.8 140.6Z" fill="#1D1D1B"/>
<path d="M236 168.899C242.5 168.899 246.5 165.399 246.5 159.499V154.199C246.5 148.299 242.5 144.699 236 144.699C229.5 144.699 225.5 148.299 225.5 154.199V159.499C225.4 165.399 229.5 168.899 236 168.899ZM232.3 154.199C232.3 151.999 233.6 150.699 235.9 150.699C238.2 150.699 239.5 151.999 239.5 154.199V159.499C239.5 161.699 238.2 162.899 235.9 162.899C233.6 162.899 232.3 161.699 232.3 159.499V154.199Z" fill="#1D1D1B"/>
<path d="M9.29961 199.899C9.89961 199.499 9.79961 198.599 9.19961 198.199C6.69961 196.299 6.79961 192.799 6.79961 190.799V182.799H8.29961C12.1996 182.599 11.5996 177.799 11.5996 177.799C11.5996 177.399 11.1996 176.999 10.7996 176.999H6.79961L6.89961 172.399C6.89961 171.899 6.59961 171.699 6.09961 171.699C6.09961 171.699 0.799609 172.399 0.0996094 177.599V191.599C0.0996094 197.299 3.49961 199.999 8.69961 199.999C8.99961 200.099 9.19961 200.099 9.29961 199.899Z" fill="#1D1D1B"/>
<path d="M23.2002 200.2C29.7002 200.2 33.7002 196.7 33.7002 190.8V185.5C33.7002 179.6 29.7002 176 23.2002 176C16.7002 176 12.7002 179.6 12.7002 185.5V190.8C12.7002 196.6 16.7002 200.2 23.2002 200.2ZM19.6002 185.5C19.6002 183.3 20.9002 182 23.2002 182C25.5002 182 26.8002 183.3 26.8002 185.5V190.8C26.8002 193 25.5002 194.2 23.2002 194.2C20.9002 194.2 19.6002 193 19.6002 190.8V185.5Z" fill="#1D1D1B"/>
<path d="M50.2002 176C46.4002 176 43.2002 177.1 41.1002 178.4C40.8002 178.6 40.8002 178.9 41.0002 179.4L41.8002 180.9C42.8002 183.3 45.4002 182.5 46.3002 182.3C47.3002 182.1 48.4002 181.9 49.4002 181.9C52.3002 181.9 53.1002 183.2 53.1002 185.5V185.9C52.0002 185.8 50.7002 185.6 49.3002 185.6C43.3002 185.6 39.7002 187.9 39.7002 192.5C39.7002 197.7 43.7002 200.1 50.1002 200.1C53.1002 200.1 59.9002 198.4 59.9002 190.8V185.8C59.9002 179.2 56.4002 176 50.2002 176ZM53.2002 191.7C53.2002 193.4 51.9002 194.7 50.2002 194.7C48.1002 194.7 46.7002 193.9 46.7002 192.4C46.7002 191 47.8002 190.2 50.2002 190.2C51.2002 190.2 52.4002 190.3 53.3002 190.5V191.7H53.2002Z" fill="#1D1D1B"/>
<path d="M72.9002 182C74.2002 182 77.1002 183.5 78.9002 181L80.1002 179.2C80.4002 178.8 80.3002 178.4 79.9002 178.1C77.6002 176.7 75.2002 176 72.6002 176C66.0002 176 62.2002 179.7 62.2002 185.5V190.5C62.2002 196.4 66.0002 200.1 72.7002 200.1C75.8002 200.1 78.3002 199.3 80.5002 197.7C80.9002 197.4 80.9002 197 80.6002 196.6L79.3002 194.6C78.2002 192.8 74.4002 194.1 72.9002 194.1C70.6002 194.1 69.1002 192.9 69.1002 190.4V185.4C69.0002 183.3 70.5002 182 72.9002 182Z" fill="#1D1D1B"/>
<path d="M91.2 199.899C91.8 199.499 91.7 198.599 91.1 198.199C88.6 196.299 88.7 192.799 88.7 190.799V182.799H90.2C94.1 182.599 93.5 177.799 93.5 177.799C93.5 177.399 93.1 176.999 92.7 176.999H88.7L88.8 172.399C88.8 171.899 88.5 171.699 88 171.699C88 171.699 82.7 172.399 82 177.599V191.599C82 197.299 85.4 199.999 90.6 199.999C90.8 200.099 91 199.999 91.2 199.899Z" fill="#1D1D1B"/>
<path d="M105.1 200.2C111.6 200.2 115.6 196.7 115.6 190.8V185.5C115.6 179.6 111.6 176 105.1 176C98.5996 176 94.5996 179.6 94.5996 185.5V190.8C94.5996 196.6 98.5996 200.2 105.1 200.2ZM101.5 185.5C101.5 183.3 102.8 182 105.1 182C107.4 182 108.7 183.3 108.7 185.5V190.8C108.7 193 107.4 194.2 105.1 194.2C102.8 194.2 101.5 193 101.5 190.8V185.5Z" fill="#1D1D1B"/>
<path d="M132.3 185.7C126.3 185.7 122.7 188 122.7 192.6C122.7 197.8 126.7 200.2 133.1 200.2C136.1 200.2 142.9 198.5 142.9 190.9V185.9C142.9 179.2 139.3 176 133.2 176C129.4 176 126.2 177.1 124.1 178.4C123.8 178.6 123.8 178.9 124 179.4L124.8 180.9C125.8 183.3 128.4 182.5 129.3 182.3C130.3 182.1 131.4 181.9 132.4 181.9C135.3 181.9 136.1 183.2 136.1 185.5V185.9C135 185.8 133.7 185.7 132.3 185.7ZM136.1 191.6C136.1 193.3 134.8 194.6 133.1 194.6C131 194.6 129.6 193.8 129.6 192.3C129.6 190.9 130.7 190.1 133.1 190.1C134.1 190.1 135.3 190.2 136.2 190.4V191.6H136.1Z" fill="#1D1D1B"/>
<path d="M162.1 194.699C161 192.899 157.2 194.199 155.7 194.199C153.4 194.199 151.9 192.999 151.9 190.499V185.499C151.9 183.199 153.4 181.899 155.8 181.899C157.1 181.899 160 183.399 161.8 180.899L163 179.099C163.3 178.699 163.2 178.299 162.8 177.999C160.5 176.599 158.1 175.899 155.5 175.899C148.9 175.899 145.1 179.599 145.1 185.399V190.399C145.1 196.299 148.9 199.999 155.6 199.999C158.7 199.999 161.2 199.199 163.4 197.599C163.8 197.299 163.8 196.899 163.5 196.499L162.1 194.699Z" fill="#1D1D1B"/>
<path d="M174.1 199.899C174.7 199.499 174.6 198.599 174 198.199C171.5 196.299 171.6 192.799 171.6 190.799V182.799H173.1C177 182.599 176.4 177.799 176.4 177.799C176.4 177.399 176 176.999 175.6 176.999H171.6L171.7 172.399C171.7 171.899 171.4 171.699 170.9 171.699C170.9 171.699 165.6 172.399 164.9 177.599V191.599C164.9 197.299 168.3 199.999 173.5 199.999C173.7 200.099 173.9 199.999 174.1 199.899Z" fill="#1D1D1B"/>
<path d="M188 200.2C194.5 200.2 198.5 196.7 198.5 190.8V185.5C198.5 179.6 194.5 176 188 176C181.5 176 177.5 179.6 177.5 185.5V190.8C177.5 196.6 181.5 200.2 188 200.2ZM184.4 185.5C184.4 183.3 185.7 182 188 182C190.3 182 191.6 183.3 191.6 185.5V190.8C191.6 193 190.3 194.2 188 194.2C185.7 194.2 184.4 193 184.4 190.8V185.5Z" fill="#1D1D1B"/>
<path d="M264.9 26.9998C258.9 26.9998 255.3 29.2998 255.3 33.8998C255.3 39.0998 259.3 41.4998 265.7 41.4998C268.7 41.4998 275.5 39.7998 275.5 32.1998V27.1998C275.5 20.4998 271.9 17.2998 265.8 17.2998C262 17.2998 258.8 18.3998 256.7 19.6998C256.4 19.8998 256.4 20.1998 256.6 20.6998L257.4 22.1998C258.4 24.5998 261 23.7998 261.9 23.5998C262.9 23.3998 264 23.1998 265 23.1998C267.9 23.1998 268.7 24.4998 268.7 26.7998V27.1998C267.5 27.1998 266.2 26.9998 264.9 26.9998ZM268.6 32.9998C268.6 34.6998 267.3 35.9998 265.6 35.9998C263.5 35.9998 262.1 35.1998 262.1 33.6998C262.1 32.2998 263.2 31.4998 265.6 31.4998C266.6 31.4998 267.8 31.5998 268.7 31.7998V32.9998H268.6Z" fill="#1D1D1B"/>
<path d="M277.6 26.8992V31.8992C277.6 37.7992 281.4 41.4992 288.1 41.4992C291.2 41.4992 293.7 40.6992 295.9 39.0992C296.3 38.7992 296.3 38.3992 296 37.9992L294.7 35.9992C293.6 34.1992 289.8 35.4992 288.3 35.4992C286 35.4992 284.5 34.2992 284.5 31.7992V26.7992C284.5 24.4992 286 23.1992 288.4 23.1992C289.7 23.1992 292.6 24.6992 294.4 22.1992L295.6 20.3992C295.9 19.9992 295.8 19.5992 295.4 19.2992C293.1 17.8992 290.7 17.1992 288.1 17.1992C281.5 17.2992 277.6 21.0992 277.6 26.8992Z" fill="#1D1D1B"/>
<path d="M303.4 13.1992C303.4 13.1992 298.1 13.8992 297.4 19.0992V33.0992C297.4 38.7992 300.8 41.4992 306 41.4992C306.3 41.4992 306.5 41.3992 306.7 41.2992C307.3 40.8992 307.2 39.9992 306.6 39.5992C304.1 37.6992 304.2 34.1992 304.2 32.1992V24.1992H305.7C309.6 23.9992 309 19.1992 309 19.1992C309 18.7992 308.6 18.3992 308.2 18.3992H304.2L304.3 13.7992C304.2 13.3992 303.9 13.1992 303.4 13.1992Z" fill="#1D1D1B"/>
<path d="M320.6 41.4998C327.1 41.4998 331.1 37.9998 331.1 32.0998V26.7998C331.1 20.8998 327.1 17.2998 320.6 17.2998C314.1 17.2998 310.1 20.8998 310.1 26.7998V32.0998C310 37.9998 314.1 41.4998 320.6 41.4998ZM316.9 26.7998C316.9 24.5998 318.2 23.2998 320.5 23.2998C322.8 23.2998 324.1 24.5998 324.1 26.7998V32.0998C324.1 34.2998 322.8 35.4998 320.5 35.4998C318.2 35.4998 316.9 34.2998 316.9 32.0998V26.7998Z" fill="#1D1D1B"/>
<path d="M347.8 26.9998C341.8 26.9998 338.2 29.2998 338.2 33.8998C338.2 39.0998 342.2 41.4998 348.6 41.4998C351.6 41.4998 358.4 39.7998 358.4 32.1998V27.1998C358.4 20.4998 354.8 17.2998 348.7 17.2998C344.9 17.2998 341.7 18.3998 339.6 19.6998C339.3 19.8998 339.3 20.1998 339.5 20.6998L340.3 22.1998C341.3 24.5998 343.9 23.7998 344.8 23.5998C345.8 23.3998 346.9 23.1998 347.9 23.1998C350.8 23.1998 351.6 24.4998 351.6 26.7998V27.1998C350.4 27.0998 349.1 26.9998 347.8 26.9998ZM351.5 32.9998C351.5 34.6998 350.2 35.9998 348.5 35.9998C346.4 35.9998 345 35.1998 345 33.6998C345 32.2998 346.1 31.4998 348.5 31.4998C349.5 31.4998 350.7 31.5998 351.6 31.7998V32.9998H351.5Z" fill="#1D1D1B"/>
<path d="M227.4 58.4996C227.4 51.7996 223.8 48.5996 217.7 48.5996C213.9 48.5996 210.7 49.6996 208.6 50.9996C208.3 51.1996 208.3 51.4996 208.5 51.9996L209.3 53.4996C210.3 55.8996 212.9 55.0996 213.8 54.8996C214.8 54.6996 215.9 54.4996 216.9 54.4996C219.8 54.4996 220.6 55.7996 220.6 58.0996V58.4996C219.5 58.3996 218.2 58.1996 216.8 58.1996C210.8 58.1996 207.2 60.4996 207.2 65.0996C207.2 70.2996 211.2 72.6996 217.6 72.6996C220.6 72.6996 227.4 70.9996 227.4 63.3996V58.4996ZM220.7 64.1996C220.7 65.8996 219.4 67.1996 217.7 67.1996C215.6 67.1996 214.2 66.3996 214.2 64.8996C214.2 63.4996 215.3 62.6996 217.7 62.6996C218.7 62.6996 219.9 62.7996 220.8 62.9996V64.1996H220.7Z" fill="#1D1D1B"/>
<path d="M246.7 67.3C245.6 65.5 241.8 66.8 240.3 66.8C238 66.8 236.5 65.6 236.5 63.1V58.1C236.5 55.8 238 54.5 240.4 54.5C241.7 54.5 244.6 56 246.4 53.5L247.6 51.7C247.9 51.3 247.8 50.9 247.4 50.6C245.1 49.2 242.7 48.5 240.1 48.5C233.5 48.5 229.7 52.2 229.7 58V63C229.7 68.9 233.5 72.6 240.2 72.6C243.3 72.6 245.8 71.8 248 70.2C248.4 69.9 248.4 69.5 248.1 69.1L246.7 67.3Z" fill="#1D1D1B"/>
<path d="M258 72.6998C258.3 72.6998 258.5 72.5998 258.7 72.4998C259.3 72.0998 259.2 71.1998 258.6 70.7998C256.1 68.8998 256.2 65.3998 256.2 63.3998V55.3998H257.7C261.6 55.1998 261 50.3998 261 50.3998C261 49.9998 260.6 49.5998 260.2 49.5998H256.2L256.3 44.9998C256.3 44.4998 256 44.2998 255.5 44.2998C255.5 44.2998 250.2 44.9998 249.5 50.1998V64.1998C249.5 69.8998 252.9 72.6998 258 72.6998Z" fill="#1D1D1B"/>
<path d="M272.6 72.7996C279.1 72.7996 283.1 69.2996 283.1 63.3996V58.0996C283.1 52.1996 279.1 48.5996 272.6 48.5996C266.1 48.5996 262.1 52.1996 262.1 58.0996V63.3996C262.1 69.1996 266.1 72.7996 272.6 72.7996ZM269 58.0996C269 55.8996 270.3 54.5996 272.6 54.5996C274.9 54.5996 276.2 55.8996 276.2 58.0996V63.3996C276.2 65.5996 274.9 66.7996 272.6 66.7996C270.3 66.7996 269 65.5996 269 63.3996V58.0996Z" fill="#1D1D1B"/>
<path d="M310.3 58.4996C310.3 51.7996 306.7 48.5996 300.6 48.5996C296.8 48.5996 293.6 49.6996 291.5 50.9996C291.2 51.1996 291.2 51.4996 291.4 51.9996L292.2 53.4996C293.2 55.8996 295.8 55.0996 296.7 54.8996C297.7 54.6996 298.8 54.4996 299.8 54.4996C302.7 54.4996 303.5 55.7996 303.5 58.0996V58.4996C302.4 58.3996 301.1 58.1996 299.7 58.1996C293.7 58.1996 290.1 60.4996 290.1 65.0996C290.1 70.2996 294.1 72.6996 300.5 72.6996C303.5 72.6996 310.3 70.9996 310.3 63.3996V58.4996ZM303.6 64.1996C303.6 65.8996 302.3 67.1996 300.6 67.1996C298.5 67.1996 297.1 66.3996 297.1 64.8996C297.1 63.4996 298.2 62.6996 300.6 62.6996C301.6 62.6996 302.8 62.7996 303.7 62.9996V64.1996H303.6Z" fill="#1D1D1B"/>
<path d="M329.6 67.3C328.5 65.5 324.7 66.8 323.2 66.8C320.9 66.8 319.4 65.6 319.4 63.1V58.1C319.4 55.8 320.9 54.5 323.3 54.5C324.6 54.5 327.5 56 329.3 53.5L330.5 51.7C330.8 51.3 330.7 50.9 330.3 50.6C328 49.2 325.6 48.5 323 48.5C316.4 48.5 312.6 52.2 312.6 58V63C312.6 68.9 316.4 72.6 323.1 72.6C326.2 72.6 328.7 71.8 330.9 70.2C331.3 69.9 331.3 69.5 331 69.1L329.6 67.3Z" fill="#1D1D1B"/>
<path d="M340.9 72.6998C341.2 72.6998 341.4 72.5998 341.6 72.4998C342.2 72.0998 342.1 71.1998 341.5 70.7998C339 68.8998 339.1 65.3998 339.1 63.3998V55.3998H340.6C344.5 55.1998 343.9 50.3998 343.9 50.3998C343.9 49.9998 343.5 49.5998 343.1 49.5998H339.1L339.2 44.9998C339.2 44.4998 338.9 44.2998 338.4 44.2998C338.4 44.2998 333.1 44.9998 332.4 50.1998V64.1998C332.4 69.8998 335.8 72.6998 340.9 72.6998Z" fill="#1D1D1B"/>
<path d="M355.5 72.7C362 72.7 366 69.2 366 63.3V58C366 52.1 362 48.5 355.5 48.5C349 48.5 345 52.1 345 58V63.3C345 69.2 349 72.7 355.5 72.7ZM351.9 58.1C351.9 55.9 353.2 54.6 355.5 54.6C357.8 54.6 359.1 55.9 359.1 58.1V63.4C359.1 65.6 357.8 66.8 355.5 66.8C353.2 66.8 351.9 65.6 351.9 63.4V58.1Z" fill="#1D1D1B"/>
<path d="M264.8 90.7C258.8 90.7 255.2 93 255.2 97.6C255.2 102.8 259.2 105.2 265.6 105.2C268.6 105.2 275.4 103.5 275.4 95.9V90.9C275.4 84.2 271.8 81 265.7 81C261.9 81 258.7 82.1 256.6 83.4C256.3 83.6 256.3 83.9 256.5 84.4L257.3 85.9C258.3 88.3 260.9 87.5 261.8 87.3C262.8 87.1 263.9 86.9 264.9 86.9C267.8 86.9 268.6 88.2 268.6 90.5V91C267.4 90.8 266.1 90.7 264.8 90.7ZM268.5 96.7C268.5 98.4 267.2 99.7 265.5 99.7C263.4 99.7 262 98.9 262 97.4C262 96 263.1 95.2 265.5 95.2C266.5 95.2 267.7 95.3 268.6 95.5V96.7H268.5Z" fill="#1D1D1B"/>
<path d="M288.2 87C289.5 87 292.4 88.5 294.2 86L295.4 84.2C295.7 83.8 295.6 83.4 295.2 83.1C292.9 81.7 290.5 81 287.9 81C281.3 81 277.5 84.7 277.5 90.5V95.5C277.5 101.4 281.3 105.1 288 105.1C291.1 105.1 293.6 104.3 295.8 102.7C296.2 102.4 296.2 102 295.9 101.6L294.6 99.6C293.5 97.8 289.7 99.1 288.2 99.1C285.9 99.1 284.4 97.9 284.4 95.4V90.4C284.4 88.3 285.8 87 288.2 87Z" fill="#1D1D1B"/>
<path d="M303.3 76.8994C303.3 76.8994 298 77.5994 297.3 82.7994V96.7994C297.3 102.499 300.7 105.199 305.9 105.199C306.2 105.199 306.4 105.099 306.6 104.999C307.2 104.599 307.1 103.699 306.5 103.299C304 101.399 304.1 97.8994 304.1 95.8994V87.8994H305.6C309.5 87.6994 308.9 82.8994 308.9 82.8994C308.9 82.4994 308.5 82.0994 308.1 82.0994H304.1L304.2 77.4994C304.1 77.0994 303.8 76.8994 303.3 76.8994Z" fill="#1D1D1B"/>
<path d="M320.5 81C314 81 310 84.6 310 90.5V95.8C310 101.6 314 105.2 320.5 105.2C327 105.2 331 101.7 331 95.8V90.5C330.9 84.6 326.9 81 320.5 81ZM324.1 95.8C324.1 98 322.8 99.2 320.5 99.2C318.2 99.2 316.9 98 316.9 95.8V90.5C316.9 88.3 318.2 87 320.5 87C322.8 87 324.1 88.3 324.1 90.5V95.8Z" fill="#1D1D1B"/>
<path d="M347.7 90.7C341.7 90.7 338.1 93 338.1 97.6C338.1 102.8 342.1 105.2 348.5 105.2C351.5 105.2 358.3 103.5 358.3 95.9V90.9C358.3 84.2 354.7 81 348.6 81C344.8 81 341.6 82.1 339.5 83.4C339.2 83.6 339.2 83.9 339.4 84.4L340.2 85.9C341.2 88.3 343.8 87.5 344.7 87.3C345.7 87.1 346.8 86.9 347.8 86.9C350.7 86.9 351.5 88.2 351.5 90.5V90.9C350.3 90.8 349 90.7 347.7 90.7ZM351.4 96.7C351.4 98.4 350.1 99.7 348.4 99.7C346.3 99.7 344.9 98.9 344.9 97.4C344.9 96 346 95.2 348.4 95.2C349.4 95.2 350.6 95.3 351.5 95.5V96.7H351.4Z" fill="#1D1D1B"/>
<path d="M216.7 112.399C212.9 112.399 209.7 113.499 207.6 114.799C207.3 114.999 207.3 115.299 207.5 115.799L208.3 117.299C209.3 119.699 211.9 118.899 212.8 118.699C213.8 118.499 214.9 118.299 215.9 118.299C218.8 118.299 219.6 119.599 219.6 121.899V122.299C218.5 122.199 217.2 121.999 215.8 121.999C209.8 121.999 206.2 124.299 206.2 128.899C206.2 134.099 210.2 136.499 216.6 136.499C219.6 136.499 226.4 134.799 226.4 127.199V122.199C226.4 115.599 222.8 112.399 216.7 112.399ZM219.6 127.999C219.6 129.699 218.3 130.999 216.6 130.999C214.5 130.999 213.1 130.199 213.1 128.699C213.1 127.299 214.2 126.499 216.6 126.499C217.6 126.499 218.8 126.599 219.7 126.799V127.999H219.6Z" fill="#1D1D1B"/>
<path d="M245.7 131.1C244.6 129.3 240.8 130.6 239.3 130.6C237 130.6 235.5 129.4 235.5 126.9V121.9C235.5 119.6 237 118.3 239.4 118.3C240.7 118.3 243.6 119.8 245.4 117.3L246.6 115.5C246.9 115.1 246.8 114.7 246.4 114.4C244.1 113 241.7 112.3 239.1 112.3C232.5 112.3 228.7 116 228.7 121.8V126.8C228.7 132.7 232.5 136.4 239.2 136.4C242.3 136.4 244.8 135.6 247 134C247.4 133.7 247.4 133.3 247.1 132.9L245.7 131.1Z" fill="#1D1D1B"/>
<path d="M257 136.5C257.3 136.5 257.5 136.4 257.7 136.3C258.3 135.9 258.2 135 257.6 134.6C255.1 132.7 255.2 129.2 255.2 127.2V119.2H256.7C260.6 119 260 114.2 260 114.2C260 113.8 259.6 113.4 259.2 113.4H255.2L255.3 108.8C255.3 108.3 255 108.1 254.5 108.1C254.5 108.1 249.2 108.8 248.5 114V128C248.5 133.7 251.9 136.5 257 136.5Z" fill="#1D1D1B"/>
<path d="M271.6 136.599C278.1 136.599 282.1 133.099 282.1 127.199V121.899C282.1 115.999 278.1 112.399 271.6 112.399C265.1 112.399 261.1 115.999 261.1 121.899V127.199C261 132.999 265.1 136.599 271.6 136.599ZM267.9 121.899C267.9 119.699 269.2 118.399 271.5 118.399C273.8 118.399 275.1 119.699 275.1 121.899V127.199C275.1 129.399 273.8 130.599 271.5 130.599C269.2 130.599 267.9 129.399 267.9 127.199V121.899Z" fill="#1D1D1B"/>
<path d="M299.6 112.399C295.8 112.399 292.6 113.499 290.5 114.799C290.2 114.999 290.2 115.299 290.4 115.799L291.2 117.299C292.2 119.699 294.8 118.899 295.7 118.699C296.7 118.499 297.8 118.299 298.8 118.299C301.7 118.299 302.5 119.599 302.5 121.899V122.299C301.4 122.199 300.1 121.999 298.7 121.999C292.7 121.999 289.1 124.299 289.1 128.899C289.1 134.099 293.1 136.499 299.5 136.499C302.5 136.499 309.3 134.799 309.3 127.199V122.199C309.3 115.499 305.7 112.399 299.6 112.399ZM302.5 127.999C302.5 129.699 301.2 130.999 299.5 130.999C297.4 130.999 296 130.199 296 128.699C296 127.299 297.1 126.499 299.5 126.499C300.5 126.499 301.7 126.599 302.6 126.799V127.999H302.5Z" fill="#1D1D1B"/>
<path d="M328.6 131.1C327.5 129.3 323.7 130.6 322.2 130.6C319.9 130.6 318.4 129.4 318.4 126.9V121.9C318.4 119.6 319.9 118.3 322.3 118.3C323.6 118.3 326.5 119.8 328.3 117.3L329.5 115.5C329.8 115.1 329.7 114.7 329.3 114.4C327 113 324.6 112.3 322 112.3C315.4 112.3 311.6 116 311.6 121.8V126.8C311.6 132.7 315.4 136.4 322.1 136.4C325.2 136.4 327.7 135.6 329.9 134C330.3 133.7 330.3 133.3 330 132.9L328.6 131.1Z" fill="#1D1D1B"/>
<path d="M339.9 136.5C340.2 136.5 340.4 136.4 340.6 136.3C341.2 135.9 341.1 135 340.5 134.6C338 132.7 338.1 129.2 338.1 127.2V119.2H339.6C343.5 119 342.9 114.2 342.9 114.2C342.9 113.8 342.5 113.4 342.1 113.4H338.1L338.2 108.8C338.2 108.3 337.9 108.1 337.4 108.1C337.4 108.1 332.1 108.8 331.4 114V128C331.3 133.7 334.8 136.5 339.9 136.5Z" fill="#1D1D1B"/>
<path d="M354.5 136.5C361 136.5 365 133 365 127.1V121.8C365 115.9 361 112.3 354.5 112.3C348 112.3 344 115.9 344 121.8V127.1C343.9 133 348 136.5 354.5 136.5ZM350.8 121.9C350.8 119.7 352.1 118.4 354.4 118.4C356.7 118.4 358 119.7 358 121.9V127.2C358 129.4 356.7 130.6 354.4 130.6C352.1 130.6 350.8 129.4 350.8 127.2V121.9Z" fill="#1D1D1B"/>
<path d="M263.8 154.5C257.8 154.5 254.2 156.8 254.2 161.4C254.2 166.6 258.2 169 264.6 169C267.6 169 274.4 167.3 274.4 159.7V154.7C274.4 148 270.8 144.8 264.7 144.8C260.9 144.8 257.7 145.9 255.6 147.2C255.3 147.4 255.3 147.7 255.5 148.2L256.3 149.7C257.3 152.1 259.9 151.3 260.8 151.1C261.8 150.9 262.9 150.7 263.9 150.7C266.8 150.7 267.6 152 267.6 154.3V154.7C266.4 154.6 265.1 154.5 263.8 154.5ZM267.5 160.5C267.5 162.2 266.2 163.5 264.5 163.5C262.4 163.5 261 162.7 261 161.2C261 159.8 262.1 159 264.5 159C265.5 159 266.7 159.1 267.6 159.3V160.5H267.5Z" fill="#1D1D1B"/>
<path d="M294.8 166.599C295.2 166.299 295.2 165.899 294.9 165.499L293.6 163.499C292.5 161.699 288.7 162.999 287.2 162.999C284.9 162.999 283.4 161.799 283.4 159.299V154.299C283.4 151.999 284.9 150.699 287.3 150.699C288.6 150.699 291.5 152.199 293.3 149.699L294.5 147.899C294.8 147.499 294.7 147.099 294.3 146.799C292 145.399 289.6 144.699 287 144.699C280.4 144.699 276.6 148.399 276.6 154.199V159.199C276.6 165.099 280.4 168.799 287.1 168.799C290 168.999 292.5 168.199 294.8 166.599Z" fill="#1D1D1B"/>
<path d="M302.3 140.6C302.3 140.6 297 141.3 296.3 146.5V160.5C296.3 166.2 299.7 168.9 304.9 168.9C305.2 168.9 305.4 168.8 305.6 168.7C306.2 168.3 306.1 167.4 305.5 167C303 165.1 303.1 161.6 303.1 159.6V151.6H304.6C308.5 151.4 307.9 146.6 307.9 146.6C307.9 146.2 307.5 145.8 307.1 145.8H303.1L303.2 141.2C303.1 140.9 302.8 140.6 302.3 140.6Z" fill="#1D1D1B"/>
<path d="M319.4 169C325.9 169 329.9 165.5 329.9 159.6V154.3C329.9 148.4 325.9 144.8 319.4 144.8C312.9 144.8 308.9 148.4 308.9 154.3V159.6C308.9 165.5 312.9 169 319.4 169ZM315.8 154.3C315.8 152.1 317.1 150.8 319.4 150.8C321.7 150.8 323 152.1 323 154.3V159.6C323 161.8 321.7 163 319.4 163C317.1 163 315.8 161.8 315.8 159.6V154.3Z" fill="#1D1D1B"/>
<path d="M346.7 154.5C340.7 154.5 337.1 156.8 337.1 161.4C337.1 166.6 341.1 169 347.5 169C350.5 169 357.3 167.3 357.3 159.7V154.7C357.3 148 353.7 144.8 347.6 144.8C343.8 144.8 340.6 145.9 338.5 147.2C338.2 147.4 338.2 147.7 338.4 148.2L339.2 149.7C340.2 152.1 342.8 151.3 343.7 151.1C344.7 150.9 345.8 150.7 346.8 150.7C349.7 150.7 350.5 152 350.5 154.3V154.7C349.3 154.6 348 154.5 346.7 154.5ZM350.4 160.4C350.4 162.1 349.1 163.4 347.4 163.4C345.3 163.4 343.9 162.6 343.9 161.1C343.9 159.7 345 158.9 347.4 158.9C348.4 158.9 349.6 159 350.5 159.2V160.4H350.4Z" fill="#1D1D1B"/>
<path d="M215.8 185.7C209.8 185.7 206.2 188 206.2 192.6C206.2 197.8 210.2 200.2 216.6 200.2C219.6 200.2 226.4 198.5 226.4 190.9V185.9C226.4 179.2 222.8 176 216.7 176C212.9 176 209.7 177.1 207.6 178.4C207.3 178.6 207.3 178.9 207.5 179.4L208.3 180.9C209.3 183.3 211.9 182.5 212.8 182.3C213.8 182.1 214.9 181.9 215.9 181.9C218.8 181.9 219.6 183.2 219.6 185.5V185.9C218.4 185.9 217.2 185.7 215.8 185.7ZM219.5 191.7C219.5 193.4 218.2 194.7 216.5 194.7C214.4 194.7 213 193.9 213 192.4C213 191 214.1 190.2 216.5 190.2C217.5 190.2 218.7 190.3 219.6 190.5V191.7H219.5Z" fill="#1D1D1B"/>
<path d="M245.6 194.699C244.5 192.899 240.7 194.199 239.2 194.199C236.9 194.199 235.4 192.999 235.4 190.499V185.499C235.4 183.199 236.9 181.899 239.3 181.899C240.6 181.899 243.5 183.399 245.3 180.899L246.5 179.099C246.8 178.699 246.7 178.299 246.3 177.999C244 176.599 241.6 175.899 239 175.899C232.4 175.899 228.6 179.599 228.6 185.399V190.399C228.6 196.299 232.4 199.999 239.1 199.999C242.2 199.999 244.7 199.199 246.9 197.599C247.3 197.299 247.3 196.899 247 196.499L245.6 194.699Z" fill="#1D1D1B"/>
<path d="M257.6 200C258.2 199.6 258.1 198.7 257.5 198.3C255 196.4 255.1 192.9 255.1 190.9V182.9H256.6C260.5 182.7 259.9 177.9 259.9 177.9C259.9 177.5 259.5 177.1 259.1 177.1H255.1L255.2 172.5C255.2 172 254.9 171.8 254.4 171.8C254.4 171.8 249.1 172.5 248.4 177.7V191.7C248.4 197.4 251.8 200.1 257 200.1C257.2 200.2 257.4 200.1 257.6 200Z" fill="#1D1D1B"/>
<path d="M271.5 200.2C278 200.2 282 196.7 282 190.8V185.5C282 179.6 278 176 271.5 176C265 176 261 179.6 261 185.5V190.8C261 196.7 265 200.2 271.5 200.2ZM267.8 185.6C267.8 183.4 269.1 182.1 271.4 182.1C273.7 182.1 275 183.4 275 185.6V190.9C275 193.1 273.7 194.3 271.4 194.3C269.1 194.3 267.8 193.1 267.8 190.9V185.6Z" fill="#1D1D1B"/>
<path d="M298.7 185.7C292.7 185.7 289.1 188 289.1 192.6C289.1 197.8 293.1 200.2 299.5 200.2C302.5 200.2 309.3 198.5 309.3 190.9V185.9C309.3 179.2 305.7 176 299.6 176C295.8 176 292.6 177.1 290.5 178.4C290.2 178.6 290.2 178.9 290.4 179.4L291.2 180.9C292.2 183.3 294.8 182.5 295.7 182.3C296.7 182.1 297.8 181.9 298.8 181.9C301.7 181.9 302.5 183.2 302.5 185.5V185.9C301.3 185.8 300.1 185.7 298.7 185.7ZM302.4 191.7C302.4 193.4 301.1 194.7 299.4 194.7C297.3 194.7 295.9 193.9 295.9 192.4C295.9 191 297 190.2 299.4 190.2C300.4 190.2 301.6 190.3 302.5 190.5V191.7H302.4Z" fill="#1D1D1B"/>
<path d="M328.5 194.699C327.4 192.899 323.6 194.199 322.1 194.199C319.8 194.199 318.3 192.999 318.3 190.499V185.499C318.3 183.199 319.8 181.899 322.2 181.899C323.5 181.899 326.4 183.399 328.2 180.899L329.4 179.099C329.7 178.699 329.6 178.299 329.2 177.999C326.9 176.599 324.5 175.899 321.9 175.899C315.3 175.899 311.5 179.599 311.5 185.399V190.399C311.5 196.299 315.3 199.999 322 199.999C325.1 199.999 327.6 199.199 329.8 197.599C330.2 197.299 330.2 196.899 329.9 196.499L328.5 194.699Z" fill="#1D1D1B"/>
<path d="M340.5 199.899C341.1 199.499 341 198.599 340.4 198.199C337.9 196.299 338 192.799 338 190.799V182.799H339.5C343.4 182.599 342.8 177.799 342.8 177.799C342.8 177.399 342.4 176.999 342 176.999H338L338.1 172.399C338.1 171.899 337.8 171.699 337.3 171.699C337.3 171.699 332 172.399 331.3 177.599V191.599C331.3 197.299 334.7 199.999 339.9 199.999C340.1 200.199 340.3 200.099 340.5 199.899Z" fill="#1D1D1B"/>
<path d="M354.4 200.2C360.9 200.2 364.9 196.7 364.9 190.8V185.5C364.9 179.6 360.9 176 354.4 176C347.9 176 343.9 179.6 343.9 185.5V190.8C343.9 196.7 347.9 200.2 354.4 200.2ZM350.7 185.5C350.7 183.3 352 182 354.3 182C356.6 182 357.9 183.3 357.9 185.5V190.8C357.9 193 356.6 194.2 354.3 194.2C352 194.2 350.7 193 350.7 190.8V185.5Z" fill="#1D1D1B"/>
</g>
</g>
<path d="M78.2998 45.7002H82.8998V67.0002H78.2998V45.7002Z" fill="#553581"/>
<path d="M86.8996 53.7998L86.5996 50.7998H90.2996L90.5996 52.6998C91.1996 51.8998 91.7996 51.2998 92.5996 50.8998C93.3996 50.4998 94.2996 50.2998 95.3996 50.2998C96.9996 50.2998 98.2996 50.6998 99.1996 51.6998C100.1 52.5998 100.5 53.9998 100.5 55.8998V66.8998H96.0996V56.7998C96.0996 55.7998 95.9996 54.9998 95.6996 54.4998C95.3996 53.9998 94.8996 53.6998 94.0996 53.6998C93.5996 53.6998 93.0996 53.8998 92.6996 54.0998C92.2996 54.3998 91.9996 54.6998 91.6996 55.0998C91.4996 55.4998 91.2996 55.9998 91.2996 56.4998V66.9998H86.8996V53.7998Z" fill="#553581"/>
<path d="M104.2 49.9998C104.2 48.7998 104.3 47.6998 104.6 46.7998C104.9 45.8998 105.5 45.1998 106.3 44.5998C107.1 43.9998 108.4 43.7998 110.1 43.7998C111.1 43.7998 112.2 43.8998 113.2 44.1998C114.2 44.4998 115.2 44.7998 116.1 45.2998L115 48.1998C114.3 47.8998 113.6 47.5998 112.9 47.3998C112.1 47.1998 111.5 47.0998 110.9 47.0998C110.1 47.0998 109.5 47.2998 109.1 47.6998C108.7 48.0998 108.5 48.7998 108.5 49.6998V50.8998H117.8V66.9998H113.3V54.1998H108.5V73.5998H104.1V49.9998H104.2Z" fill="#553581"/>
<path d="M121.5 53.7998L121.2 50.7998H124.9L125.2 52.6998C125.8 51.8998 126.4 51.2998 127.2 50.8998C128 50.4998 128.9 50.2998 130 50.2998C131.6 50.2998 132.9 50.6998 133.8 51.6998C134.7 52.5998 135.1 53.9998 135.1 55.8998V66.8998H130.7V56.7998C130.7 55.7998 130.6 54.9998 130.3 54.4998C130 53.9998 129.5 53.6998 128.7 53.6998C128.2 53.6998 127.7 53.8998 127.3 54.0998C126.9 54.3998 126.6 54.6998 126.3 55.0998C126.1 55.4998 125.9 55.9998 125.9 56.4998V66.9998H121.5V53.7998Z" fill="#553581"/>
<path d="M139 47.8002C138.6 47.4002 138.3 46.8002 138.4 46.1002C138.4 45.4002 138.6 44.9002 139.1 44.4002C139.6 43.9002 140.1 43.7002 140.8 43.7002C141.5 43.7002 142.1 43.9002 142.6 44.4002C143.1 44.9002 143.3 45.4002 143.3 46.1002C143.3 46.8002 143.1 47.3002 142.6 47.8002C142.1 48.2002 141.6 48.5002 140.8 48.4002C140.1 48.5002 139.5 48.3002 139 47.8002ZM138.6 50.8002H143V67.0002H138.6V50.8002Z" fill="#553581"/>
<path d="M148.5 66.7002C147.7 66.2002 147.2 65.5002 147 64.7002C146.8 63.9002 146.7 62.9002 146.7 61.7002V44.7002H151.1V50.7002H155.3V54.1002H151.1V61.5002C151.1 62.4002 151.3 63.0002 151.7 63.4002C152.1 63.8002 152.6 64.0002 153.2 64.0002C153.8 64.0002 154.5 63.8002 155.1 63.4002L156.2 66.3002C155.7 66.6002 155 66.9002 154.3 67.1002C153.6 67.3002 152.7 67.4002 152 67.4002C150.4 67.4002 149.3 67.2002 148.5 66.7002Z" fill="#553581"/>
<path d="M160.4 74.3002C159.5 73.5002 159 72.5002 159 71.1002C159 70.0002 159.3 69.0002 159.9 68.1002C160.5 67.2002 161.3 66.4002 162.3 65.7002C160.9 65.5002 159.9 64.9002 159.2 64.1002C158.5 63.3002 158.2 62.1002 158.2 60.5002V50.7002H162.6V60.1002C162.6 60.8002 162.7 61.4002 162.8 61.7002C162.9 62.1002 163.1 62.4002 163.4 62.7002C163.7 62.9002 164.2 63.1002 164.9 63.1002C165.3 63.1002 165.7 63.0002 166.1 62.8002C166.5 62.6002 166.8 62.3002 167 61.8002C167.2 61.4002 167.4 60.9002 167.4 60.4002V50.7002H171.9V64.2002C171.9 64.9002 171.9 65.6002 171.8 66.5002C171.7 67.4002 171.7 68.1002 171.6 68.6002C171.3 70.8002 170.6 72.5002 169.4 73.6002C168.2 74.7002 166.5 75.3002 164.4 75.3002C162.6 75.5002 161.3 75.1002 160.4 74.3002ZM166.8 71.2002C167.2 70.5002 167.4 69.5002 167.4 68.2002V65.2002C166.1 65.8002 165 66.6002 164.2 67.4002C163.4 68.2002 163 69.2002 162.9 70.3002C162.9 70.9002 163.1 71.4002 163.4 71.7002C163.7 72.0002 164.2 72.2002 164.8 72.2002C165.7 72.2002 166.4 71.9002 166.8 71.2002Z" fill="#553581"/>
<path d="M179.8 71.5C177.8 70.9 176.2 70.2 175.2 69.5L178 62.6C179 63.2 180.3 63.8 181.9 64.4C183.5 64.9 184.8 65.2 185.7 65.2C186.8 65.2 187.4 64.8 187.4 63.9C187.4 63.5 187.2 63.2 187 63C186.7 62.8 186.4 62.6 186 62.4C185.6 62.2 185 62 184.2 61.7C182.7 61.3 181.5 60.8 180.4 60.2C179.3 59.6 178.4 58.8 177.6 57.6C176.8 56.5 176.5 55.1 176.5 53.3C176.5 51.4 176.9 49.8 177.8 48.5C178.7 47.2 179.9 46.2 181.4 45.5C182.9 44.8 184.7 44.5 186.6 44.5C188.6 44.5 190.5 44.9 192.3 45.6C194.1 46.3 195.7 47.3 197 48.7L192.7 54.2C190.2 52.5 188.2 51.6 186.7 51.6C186.2 51.6 185.8 51.7 185.6 51.9C185.3 52.1 185.2 52.4 185.2 52.7C185.2 53.1 185.3 53.4 185.6 53.7C185.9 54 186.3 54.2 186.8 54.4C187.3 54.6 187.9 54.9 188.8 55.1C190.4 55.6 191.7 56.1 192.7 56.7C193.8 57.3 194.7 58.1 195.4 59.2C196.1 60.3 196.5 61.7 196.4 63.4C196.4 66.2 195.4 68.4 193.5 69.9C191.5 71.5 188.9 72.2 185.7 72.2C183.7 72.4 181.8 72.1 179.8 71.5Z" fill="#553581"/>
<path d="M204.7 52.3996H197.8V45.0996H220.1V52.3996H213V71.8996H204.7V52.3996Z" fill="#553581"/>
<path d="M229.1 45.0996H238.3L247.5 71.8996H238.7L237.3 67.0996H230.2L228.8 71.8996H220.7L229.1 45.0996ZM235.9 61.0996L233.8 52.9996H233.6L231.5 61.0996H235.9Z" fill="#553581"/>
<path d="M249.2 45.0996H259.1C262.6 45.0996 265.3 45.6996 267.2 46.8996C269.1 48.0996 270 50.0996 270 52.7996C270 54.2996 269.6 55.5996 268.9 56.7996C268.1 57.9996 267.2 58.8996 266 59.4996C266.4 59.6996 266.7 59.9996 267 60.3996C267.3 60.7996 267.6 61.2996 267.8 61.9996L272.2 71.9996H263.2L259.7 63.1996C259.5 62.7996 259.3 62.4996 259 62.3996C258.7 62.1996 258.3 62.0996 257.9 62.0996H257.5V71.9996H249.2V45.0996ZM259.2 56.2996C259.9 56.2996 260.5 56.0996 260.9 55.6996C261.3 55.2996 261.5 54.6996 261.5 53.7996C261.5 53.2996 261.4 52.8996 261.2 52.5996C261 52.2996 260.8 51.9996 260.4 51.8996C260 51.7996 259.6 51.6996 259.1 51.6996H257.6V56.2996H259.2Z" fill="#553581"/>
<path d="M279.6 52.3996H272.7V45.0996H295V52.3996H287.9V71.8996H279.6V52.3996Z" fill="#553581"/>
<path d="M104.8 91.6996C104.3 91.3996 104.1 90.9996 104.1 90.2996C104.1 89.6996 104.3 88.9996 104.7 88.0996C105.2 86.9996 105.9 85.7996 106.8 84.5996L109.3 85.4996L108 91.9996C107.5 92.0996 107 92.0996 106.6 92.0996C105.9 92.0996 105.3 91.9996 104.8 91.6996ZM110.1 91.6996C109.6 91.3996 109.4 90.9996 109.4 90.2996C109.4 89.6996 109.6 88.9996 110 88.0996C110.5 86.9996 111.2 85.7996 112.1 84.5996L114.6 85.4996L113.3 91.8996C112.8 91.9996 112.3 91.9996 111.9 91.9996C111.2 92.0996 110.6 91.9996 110.1 91.6996Z" fill="#553581"/>
<path d="M116.199 86.5996H127.999V91.0996H121.299V92.6996H126.899V97.1996H121.299V103H116.199V86.5996Z" fill="#553581"/>
<path d="M129.899 86.5996H134.999V103H129.899V86.5996Z" fill="#553581"/>
<path d="M137.499 86.5996H143.499C146.099 86.5996 148.099 87.1996 149.499 88.4996C150.899 89.7996 151.599 91.6996 151.599 94.2996C151.599 96.2996 151.299 97.9996 150.499 99.2996C149.799 100.6 148.799 101.6 147.599 102.1C146.399 102.7 144.999 103 143.499 103H137.399V86.5996H137.499ZM143.599 99.0996C144.499 99.0996 145.199 98.6996 145.699 97.9996C146.199 97.2996 146.499 96.1996 146.499 94.6996C146.499 93.1996 146.199 92.0996 145.599 91.4996C144.999 90.8996 144.299 90.5996 143.299 90.5996H142.499V99.0996H143.599Z" fill="#553581"/>
<path d="M153.399 86.5996H164.699V91.0996H158.499V92.4996H163.799V96.8996H158.499V98.5996H164.799V103.1H153.399V86.5996Z" fill="#553581"/>
<path d="M166.7 86.5996H171.8V98.4996H178V103H166.6V86.5996H166.7Z" fill="#553581"/>
<path d="M179.8 86.5996H184.9V103H179.8V86.5996Z" fill="#553581"/>
<path d="M187.4 86.5996H193.4C196 86.5996 198 87.1996 199.4 88.4996C200.8 89.7996 201.5 91.6996 201.5 94.2996C201.5 96.2996 201.2 97.9996 200.4 99.2996C199.7 100.6 198.7 101.6 197.5 102.1C196.3 102.7 194.9 103 193.4 103H187.3V86.5996H187.4ZM193.5 99.0996C194.4 99.0996 195.1 98.6996 195.6 97.9996C196.1 97.2996 196.4 96.1996 196.4 94.6996C196.4 93.1996 196.1 92.0996 195.5 91.4996C194.9 90.8996 194.2 90.5996 193.2 90.5996H192.4V99.0996H193.5Z" fill="#553581"/>
<path d="M207.3 86.5996H212.9L218.5 103H213.1L212.2 100.1H207.9L207 103H202L207.3 86.5996ZM211.5 96.3996L210.2 91.3996H210L208.7 96.3996H211.5Z" fill="#553581"/>
<path d="M219.6 86.5996H225.6C228.2 86.5996 230.2 87.1996 231.6 88.4996C233 89.7996 233.7 91.6996 233.7 94.2996C233.7 96.2996 233.4 97.9996 232.6 99.2996C231.9 100.6 230.9 101.6 229.7 102.1C228.5 102.7 227.1 103 225.6 103H219.5V86.5996H219.6ZM225.8 99.0996C226.7 99.0996 227.4 98.6996 227.9 97.9996C228.4 97.2996 228.7 96.1996 228.7 94.6996C228.7 93.1996 228.4 92.0996 227.8 91.4996C227.2 90.8996 226.5 90.5996 225.5 90.5996H224.7V99.0996H225.8Z" fill="#553581"/>
<path d="M235.6 86.5996H246.9V91.0996H240.7V92.4996H246V96.8996H240.7V98.5996H247V103.1H235.6V86.5996Z" fill="#553581"/>
<path d="M248.6 91.6L249.6 85.1C249.7 85.1 250 85 250.3 85C250.6 85 251 85 251.3 85C252 85 252.6 85.1 253.1 85.3C253.6 85.6 253.8 86 253.8 86.7C253.8 87.4 253.5 88.4 252.9 89.5C252.3 90.7 251.7 91.7 251.2 92.4L248.6 91.6ZM253.9 91.6L254.9 85.1C255 85.1 255.3 85 255.6 85C255.9 85 256.3 85 256.6 85C257.3 85 257.9 85.1 258.4 85.3C258.9 85.6 259.1 86 259.1 86.7C259.1 87.4 258.8 88.4 258.2 89.5C257.6 90.7 257 91.7 256.5 92.4L253.9 91.6Z" fill="#553581"/>
<path d="M66.7 122.5C66.2 122.2 66 121.8 66 121.1C66 120.5 66.2 119.8 66.6 118.9C67.1 117.8 67.8 116.6 68.7 115.4L71.2 116.3L69.9 122.7C69.4 122.8 68.9 122.8 68.5 122.8C67.8 122.9 67.2 122.7 66.7 122.5ZM72 122.5C71.5 122.2 71.3 121.8 71.3 121.1C71.3 120.5 71.5 119.8 71.9 118.9C72.4 117.8 73.1 116.6 74 115.4L76.5 116.3L75.2 122.7C74.7 122.8 74.2 122.8 73.8 122.8C73.1 122.9 72.5 122.7 72 122.5Z" fill="#553581"/>
<path d="M78.0996 117.301H83.1996V123.401H87.0996V117.301H92.2996V133.701H87.0996V127.901H83.1996V133.701H78.0996V117.301Z" fill="#553581"/>
<path d="M95.9996 131.9C94.6996 130.5 94.0996 128.4 94.0996 125.6C94.0996 123.6 94.4996 122 95.1996 120.7C95.9996 119.4 96.8996 118.5 98.0996 117.9C99.2996 117.3 100.5 117 101.8 117C104 117 105.7 117.7 107.1 119.1C108.5 120.5 109.1 122.6 109.1 125.6C109.1 127.4 108.8 129 108.2 130.2C107.6 131.5 106.7 132.4 105.5 133.1C104.3 133.7 103 134.1 101.5 134.1C99.0996 134 97.2996 133.3 95.9996 131.9ZM103.4 128.7C103.7 127.9 103.9 126.9 103.9 125.7C103.9 125 103.8 124.3 103.7 123.7C103.6 123.1 103.3 122.5 103 122C102.6 121.5 102.2 121.3 101.5 121.3C101 121.3 100.5 121.5 100.2 121.9C99.8996 122.3 99.5996 122.8 99.4996 123.4C99.3996 124 99.2996 124.7 99.2996 125.5C99.2996 126.7 99.4996 127.8 99.7996 128.6C100.1 129.5 100.8 129.9 101.7 129.9C102.5 129.9 103.1 129.5 103.4 128.7Z" fill="#553581"/>
<path d="M111 117.301H117.1C119.2 117.301 120.9 117.701 122 118.401C123.2 119.101 123.7 120.301 123.7 122.001C123.7 122.901 123.5 123.701 123 124.501C122.5 125.301 121.9 125.801 121.2 126.101C121.4 126.201 121.6 126.401 121.8 126.601C122 126.801 122.2 127.201 122.3 127.601L125 133.701H119.5L117.4 128.301C117.3 128.101 117.2 127.901 117 127.801C116.8 127.701 116.6 127.601 116.3 127.601H116.1V133.701H111V117.301ZM117.1 124.201C117.5 124.201 117.9 124.101 118.1 123.801C118.3 123.501 118.5 123.201 118.5 122.701C118.5 122.401 118.4 122.201 118.3 122.001C118.2 121.801 118 121.701 117.8 121.601C117.6 121.501 117.3 121.501 117 121.501H116.1V124.301H117.1V124.201Z" fill="#553581"/>
<path d="M130.2 117.3H135.8L141.4 133.7H136L135.1 130.8H130.8L129.9 133.7H124.9L130.2 117.3ZM130.3 115.2L134.8 110.9C135.3 111.2 135.8 111.6 136.2 112C136.6 112.4 136.7 112.8 136.7 113.2C136.7 113.5 136.7 113.8 136.5 114C136.4 114.2 136.1 114.5 135.7 114.7L135.4 114.9C134.5 115.4 133.5 115.9 132.3 116.3L131.3 116.6L130.3 115.2ZM134.3 127.1L133 122.1H132.9L131.6 127.1H134.3Z" fill="#553581"/>
<path d="M142.5 117.301H148.6C150.7 117.301 152.4 117.701 153.5 118.401C154.7 119.101 155.2 120.301 155.2 122.001C155.2 122.901 155 123.701 154.5 124.501C154 125.301 153.4 125.801 152.7 126.101C152.9 126.201 153.1 126.401 153.3 126.601C153.5 126.801 153.7 127.201 153.8 127.601L156.5 133.701H151L148.9 128.301C148.8 128.101 148.7 127.901 148.5 127.801C148.3 127.701 148.1 127.601 147.8 127.601H147.6V133.701H142.5V117.301ZM148.6 124.201C149 124.201 149.4 124.101 149.6 123.801C149.8 123.501 150 123.201 150 122.701C150 122.401 149.9 122.201 149.8 122.001C149.7 121.801 149.5 121.701 149.3 121.601C149.1 121.501 148.8 121.501 148.5 121.501H147.6V124.301H148.6V124.201Z" fill="#553581"/>
<path d="M157.8 117.301H162.9V133.701H157.8V117.301Z" fill="#553581"/>
<path d="M166.7 131.9C165.4 130.5 164.8 128.4 164.8 125.6C164.8 123.6 165.2 122 165.9 120.7C166.7 119.4 167.6 118.5 168.8 117.9C170 117.3 171.2 117 172.5 117C174.7 117 176.4 117.7 177.8 119.1C179.2 120.5 179.8 122.6 179.8 125.6C179.8 127.4 179.5 129 178.9 130.2C178.3 131.5 177.4 132.4 176.2 133.1C175 133.7 173.7 134.1 172.2 134.1C169.9 134 168 133.3 166.7 131.9ZM174.2 128.7C174.5 127.9 174.7 126.9 174.7 125.7C174.7 125 174.6 124.3 174.5 123.7C174.4 123.1 174.1 122.5 173.8 122C173.4 121.5 173 121.3 172.3 121.3C171.8 121.3 171.3 121.5 171 121.9C170.7 122.3 170.4 122.8 170.3 123.4C170.2 124 170.1 124.7 170.1 125.5C170.1 126.7 170.3 127.8 170.6 128.6C170.9 129.5 171.6 129.9 172.5 129.9C173.3 129.9 173.8 129.5 174.2 128.7Z" fill="#553581"/>
<path d="M186.5 117.301H192.6C194.7 117.301 196.4 117.701 197.5 118.401C198.7 119.101 199.2 120.301 199.2 122.001C199.2 122.901 199 123.701 198.5 124.501C198 125.301 197.4 125.801 196.7 126.101C196.9 126.201 197.1 126.401 197.3 126.601C197.5 126.801 197.7 127.201 197.8 127.601L200.5 133.701H195L192.9 128.301C192.8 128.101 192.7 127.901 192.5 127.801C192.3 127.701 192.1 127.601 191.8 127.601H191.6V133.701H186.5V117.301ZM192.5 124.201C192.9 124.201 193.3 124.101 193.5 123.801C193.7 123.501 193.9 123.201 193.9 122.701C193.9 122.401 193.8 122.201 193.7 122.001C193.6 121.801 193.4 121.701 193.2 121.601C193 121.501 192.7 121.501 192.4 121.501H191.5V124.301H192.5V124.201Z" fill="#553581"/>
<path d="M201.6 117.301H212.9V121.801H206.7V123.201H212V127.601H206.7V129.301H213V133.801H201.6V117.301Z" fill="#553581"/>
<path d="M215 117.301H221C223.6 117.301 225.6 117.901 227 119.201C228.4 120.501 229.1 122.401 229.1 125.001C229.1 127.001 228.8 128.701 228 130.001C227.3 131.301 226.3 132.301 225.1 132.801C223.9 133.401 222.5 133.701 221 133.701H215V117.301ZM221.1 129.801C222 129.801 222.7 129.401 223.2 128.701C223.7 128.001 224 126.901 224 125.401C224 123.901 223.7 122.801 223.1 122.201C222.5 121.601 221.8 121.301 220.8 121.301H220V129.801H221.1Z" fill="#553581"/>
<path d="M232.4 132.601C231.3 131.701 230.7 130.201 230.8 128.201V117.301H235.9V127.901C235.9 128.601 236.1 129.101 236.4 129.301C236.7 129.601 237.1 129.701 237.7 129.801C238.2 129.801 238.5 129.601 238.8 129.301C239.1 129.001 239.2 128.601 239.3 128.001V117.301H244.4V128.501C244.4 129.601 244.1 130.601 243.6 131.401C243.1 132.201 242.2 132.901 241.2 133.301C240.2 133.801 239 134.001 237.7 134.001C235.2 134.001 233.6 133.601 232.4 132.601Z" fill="#553581"/>
<path d="M245.7 130.8L251.8 121.3H245.9V117.4H258V120.2L251.8 129.9H258.3V133.8H245.8V130.8H245.7Z" fill="#553581"/>
<path d="M259.8 117.301H264.9V133.701H259.8V117.301Z" fill="#553581"/>
<path d="M267.3 117.301H273.3C275.9 117.301 277.9 117.901 279.3 119.201C280.7 120.501 281.4 122.401 281.4 125.001C281.4 127.001 281.1 128.701 280.3 130.001C279.6 131.301 278.6 132.301 277.4 132.801C276.2 133.401 274.8 133.701 273.3 133.701H267.2V117.301H267.3ZM273.5 129.801C274.4 129.801 275.1 129.401 275.6 128.701C276.1 128.001 276.4 126.901 276.4 125.401C276.4 123.901 276.1 122.801 275.5 122.201C274.9 121.601 274.2 121.301 273.2 121.301H272.4V129.801H273.5Z" fill="#553581"/>
<path d="M284.8 131.9C283.5 130.5 282.9 128.4 282.9 125.6C282.9 123.6 283.3 122 284 120.7C284.8 119.4 285.7 118.5 286.9 117.9C288.1 117.3 289.3 117 290.6 117C292.8 117 294.5 117.7 295.9 119.1C297.3 120.5 297.9 122.6 297.9 125.6C297.9 127.4 297.6 129 297 130.2C296.4 131.5 295.5 132.4 294.3 133.1C293.1 133.7 291.8 134.1 290.3 134.1C287.9 134 286.1 133.3 284.8 131.9ZM292.2 128.7C292.5 127.9 292.7 126.9 292.7 125.7C292.7 125 292.6 124.3 292.5 123.7C292.4 123.1 292.1 122.5 291.8 122C291.4 121.5 291 121.3 290.3 121.3C289.8 121.3 289.3 121.5 289 121.9C288.7 122.3 288.4 122.8 288.3 123.4C288.2 124 288.1 124.7 288.1 125.5C288.1 126.7 288.3 127.8 288.6 128.6C288.9 129.5 289.6 129.9 290.5 129.9C291.3 129.9 291.9 129.5 292.2 128.7Z" fill="#553581"/>
<path d="M121.7 147.601H124.2V140.801L122.1 141.801L120.3 138.501L125.5 135.301H129.5L129.2 138.801V147.501H131.6V151.201H121.7V147.601Z" fill="#553581"/>
<path d="M134.4 149.501C133.4 148.201 132.9 146.101 132.9 143.301C132.9 140.501 133.4 138.501 134.6 137.101C135.7 135.801 137.3 135.101 139.2 135.101C141.2 135.101 142.7 135.801 143.7 137.101C144.8 138.401 145.3 140.501 145.3 143.201C145.3 146.101 144.8 148.201 143.7 149.501C142.6 150.801 141.1 151.501 139 151.501C136.9 151.501 135.4 150.801 134.4 149.501ZM140 146.601C140.2 146.001 140.3 144.801 140.3 143.201C140.3 141.701 140.2 140.601 140 140.001C139.8 139.401 139.5 139.101 139.1 139.101C138.7 139.101 138.4 139.401 138.1 140.101C137.9 140.801 137.8 141.901 137.8 143.601C137.8 145.001 137.9 146.101 138.1 146.701C138.3 147.301 138.6 147.701 139 147.701C139.5 147.601 139.8 147.301 140 146.601Z" fill="#553581"/>
<path d="M146.7 134.101H151.7V138.701C152 138.501 152.4 138.401 152.8 138.201C153.2 138.101 153.6 138.001 154.1 138.101C155.4 138.101 156.4 138.401 157.1 139.201C157.8 140.001 158.1 141.101 158.1 142.601V151.201H153.1V143.101C153.1 142.601 153.1 142.301 153 142.101C152.9 141.901 152.8 141.801 152.6 141.801C152.4 141.801 152.2 141.901 152.1 142.001C152 142.101 151.9 142.201 151.8 142.401C151.7 142.601 151.7 142.801 151.7 143.101V151.201H146.7V134.101Z" fill="#553581"/>
<path d="M165.3 150C164.6 148.8 164.2 147.3 164.2 145.5C164.2 143.3 164.8 141.5 166 140.1C167.2 138.8 168.9 138.1 171.1 138.1C171.7 138.1 172.5 138.2 173.4 138.3C174.3 138.4 175.2 138.7 176.2 139.1V148.3L176.5 151.1H172.4L172.2 150.1H172.1C171.4 151.1 170.5 151.6 169.2 151.6C167.2 151.7 166 151.1 165.3 150ZM171.3 136.9C170.3 136.2 169.3 135.5 168.5 134.6C168.2 134.3 167.9 134 167.8 133.8C167.7 133.6 167.6 133.3 167.6 133.1C167.6 132.5 167.9 132.1 168.4 131.7C168.9 131.3 169.5 131.1 170.1 130.9L173.4 136.2L172 137.3C171.7 137.2 171.4 137.1 171.3 136.9ZM170.8 148C170.9 147.9 171 147.8 171.1 147.7C171.2 147.6 171.2 147.4 171.2 147.3V141.7C171.1 141.7 171 141.6 170.9 141.6C170.8 141.6 170.7 141.6 170.6 141.5C170.1 141.5 169.7 141.9 169.5 142.5C169.3 143.1 169.1 144 169.1 145C169.1 146 169.2 146.8 169.4 147.3C169.6 147.8 169.9 148.1 170.3 148.1C170.5 148.1 170.6 148.1 170.8 148Z" fill="#553581"/>
<path d="M179.4 151.2C178.4 150.9 177.7 150.6 177.2 150.2L178.4 146.7C178.9 147 179.6 147.3 180.4 147.6C181.2 147.9 181.8 148 182.3 148C182.5 148 182.7 147.9 182.8 147.9C182.9 147.9 182.9 147.7 182.9 147.6C182.9 147.4 182.8 147.2 182.6 147.1C182.4 147 182.1 146.9 181.7 146.7H181.6C181.6 146.7 181.6 146.7 181.5 146.7C180.7 146.4 180 146.2 179.5 145.9C179 145.6 178.5 145.3 178.2 144.7C177.8 144.2 177.7 143.5 177.7 142.7C177.7 141.8 177.9 141 178.4 140.3C178.9 139.6 179.5 139.1 180.3 138.7C181.1 138.3 182 138.2 182.9 138.2C183.9 138.2 184.9 138.3 185.8 138.7C186.7 139 187.5 139.5 188.1 140.1L185.9 142.9C185.3 142.5 184.8 142.2 184.3 142C183.8 141.8 183.4 141.7 183.1 141.7C182.9 141.7 182.7 141.8 182.6 141.9C182.5 142 182.4 142.1 182.4 142.3C182.4 142.4 182.5 142.6 182.6 142.7C182.7 142.8 182.9 142.9 183 143C183.2 143.1 183.4 143.2 183.7 143.3H183.8C184.6 143.6 185.2 143.9 185.8 144.1C186.3 144.4 186.8 144.8 187.1 145.3C187.5 145.8 187.6 146.5 187.6 147.3C187.6 148.7 187.1 149.8 186.2 150.6C185.2 151.4 183.9 151.7 182.3 151.7C181.4 151.7 180.4 151.5 179.4 151.2Z" fill="#553581"/>
<path d="M194.9 147.601H197.4V140.801L195.3 141.801L193.5 138.501L198.7 135.301H202.7L202.4 138.801V147.501H204.8V151.201H194.9V147.601Z" fill="#553581"/>
<path d="M208.6 151.101C207.6 150.901 206.7 150.501 206 150.201L207.4 146.301C208 146.601 208.7 146.901 209.4 147.101C210.1 147.301 210.7 147.401 211.2 147.401C211.6 147.401 211.9 147.301 212.2 147.101C212.4 146.901 212.5 146.601 212.5 146.201C212.5 145.501 212 145.001 211 144.701C210 144.501 208.9 144.301 207.5 144.301L208.6 135.301H217.6V139.401H212.6L212.4 141.401C214 141.601 215.3 142.101 216.2 142.901C217.1 143.701 217.7 144.801 217.7 146.301C217.7 147.201 217.5 148.001 217 148.801C216.5 149.601 215.9 150.201 214.9 150.701C213.9 151.201 212.8 151.501 211.5 151.501C210.5 151.501 209.6 151.401 208.6 151.101Z" fill="#553581"/>
<path d="M219.8 134.101H224.8V138.701C225.1 138.501 225.5 138.401 225.9 138.201C226.3 138.101 226.7 138.001 227.2 138.101C228.5 138.101 229.5 138.401 230.2 139.201C230.9 140.001 231.2 141.101 231.2 142.601V151.201H226.2V143.101C226.2 142.601 226.2 142.301 226.1 142.101C226 141.901 225.9 141.801 225.7 141.801C225.5 141.801 225.3 141.901 225.2 142.001C225.1 142.101 225 142.201 224.9 142.401C224.8 142.601 224.8 142.801 224.8 143.101V151.201H219.8V134.101Z" fill="#553581"/>
<path d="M233 139.901L234 133.401C234.1 133.401 234.4 133.301 234.7 133.301C235 133.301 235.4 133.301 235.7 133.301C236.4 133.301 237 133.401 237.5 133.601C238 133.901 238.2 134.301 238.2 135.001C238.2 135.701 237.9 136.701 237.3 137.801C236.7 139.001 236.1 140.001 235.6 140.701L233 139.901ZM238.3 139.901L239.3 133.401C239.4 133.401 239.7 133.301 240 133.301C240.3 133.301 240.7 133.301 241 133.301C241.7 133.301 242.3 133.401 242.8 133.601C243.3 133.901 243.5 134.301 243.5 135.001C243.5 135.701 243.2 136.701 242.6 137.801C242 139.001 241.4 140.001 240.9 140.701L238.3 139.901Z" fill="#553581"/>
</svg>
