<svg width="362" height="191" viewBox="0 0 362 191" fill="none" xmlns="http://www.w3.org/2000/svg">
<path d="M90.2004 13H348.4V95C348.4 140.3 311.7 177 266.4 177H90.2004C44.9004 177 8.2004 140.3 8.2004 95C8.1004 49.7 44.8004 13 90.2004 13Z" fill="#FFBCDC"/>
<g opacity="0.05">
<mask id="mask0_245_292" style="mask-type:luminance" maskUnits="userSpaceOnUse" x="7" y="13" width="342" height="164">
<path d="M89.9004 13H348.1V95C348.1 140.3 311.4 177 266.1 177H89.9004C44.6004 177 7.90039 140.3 7.90039 95C7.90039 49.8 44.6004 13 89.9004 13Z" fill="white"/>
</mask>
<g mask="url(#mask0_245_292)">
<path d="M13.7006 26.9998C7.70059 26.9998 4.10059 29.2998 4.10059 33.8998C4.10059 39.0998 8.10059 41.4998 14.5006 41.4998C17.5006 41.4998 24.3006 39.7998 24.3006 32.1998V27.1998C24.3006 20.4998 20.7006 17.2998 14.6006 17.2998C10.8006 17.2998 7.60059 18.3998 5.50059 19.6998C5.20059 19.8998 5.20059 20.1998 5.40059 20.6998L6.20059 22.1998C7.20059 24.5998 9.80059 23.7998 10.7006 23.5998C11.7006 23.3998 12.8006 23.1998 13.8006 23.1998C16.7006 23.1998 17.5006 24.4998 17.5006 26.7998V27.1998C16.4006 27.0998 15.1006 26.9998 13.7006 26.9998ZM17.5006 32.8998C17.5006 34.5998 16.2006 35.8998 14.5006 35.8998C12.4006 35.8998 11.0006 35.0998 11.0006 33.5998C11.0006 32.1998 12.1006 31.3998 14.5006 31.3998C15.5006 31.3998 16.7006 31.4998 17.6006 31.6998V32.8998H17.5006Z" fill="#1D1D1B"/>
<path d="M26.501 26.7996V31.7996C26.501 37.6996 30.301 41.3996 37.001 41.3996C40.101 41.3996 42.601 40.5996 44.801 38.9996C45.201 38.6996 45.201 38.2996 44.901 37.8996L43.601 35.8996C42.501 34.0996 38.701 35.3996 37.201 35.3996C34.901 35.3996 33.401 34.1996 33.401 31.6996V26.6996C33.401 24.3996 34.901 23.0996 37.301 23.0996C38.601 23.0996 41.501 24.5996 43.301 22.0996L44.501 20.2996C44.801 19.8996 44.701 19.4996 44.301 19.1996C42.001 17.7996 39.601 17.0996 37.001 17.0996C30.301 17.2996 26.501 20.9996 26.501 26.7996Z" fill="#1D1D1B"/>
<path d="M52.3008 13.0996C52.3008 13.0996 47.0008 13.7996 46.3008 18.9996V32.9996C46.3008 38.6996 49.7008 41.3996 54.9008 41.3996C55.2008 41.3996 55.4008 41.2996 55.6008 41.1996C56.2008 40.7996 56.1008 39.8996 55.5008 39.4996C53.0008 37.5996 53.1008 34.0996 53.1008 32.0996V24.0996H54.6008C58.5008 23.8996 57.9008 19.0996 57.9008 19.0996C57.9008 18.6996 57.5008 18.2996 57.1008 18.2996H53.1008L53.2008 13.6996C53.0008 13.2996 52.8008 13.0996 52.3008 13.0996Z" fill="#1D1D1B"/>
<path d="M69.4004 41.4998C75.9004 41.4998 79.9004 37.9998 79.9004 32.0998V26.7998C79.9004 20.8998 75.9004 17.2998 69.4004 17.2998C62.9004 17.2998 58.9004 20.8998 58.9004 26.7998V32.0998C58.9004 37.8998 62.9004 41.4998 69.4004 41.4998ZM65.8004 26.7998C65.8004 24.5998 67.1004 23.2998 69.4004 23.2998C71.7004 23.2998 73.0004 24.5998 73.0004 26.7998V32.0998C73.0004 34.2998 71.7004 35.4998 69.4004 35.4998C67.1004 35.4998 65.8004 34.2998 65.8004 32.0998V26.7998Z" fill="#1D1D1B"/>
<path d="M95.601 26.9002C89.601 26.9002 86.001 29.2002 86.001 33.8002C86.001 39.0002 90.001 41.4002 96.401 41.4002C99.401 41.4002 106.201 39.7002 106.201 32.1002V27.1002C106.201 20.4002 102.601 17.2002 96.501 17.2002C92.701 17.2002 89.501 18.3002 87.401 19.6002C87.101 19.8002 87.101 20.1002 87.301 20.6002L88.101 22.1002C89.101 24.5002 91.701 23.7002 92.601 23.5002C93.601 23.3002 94.701 23.1002 95.701 23.1002C98.601 23.1002 99.401 24.4002 99.401 26.7002V27.1002C98.201 27.1002 97.001 26.9002 95.601 26.9002ZM99.401 32.9002C99.401 34.6002 98.101 35.9002 96.401 35.9002C94.301 35.9002 92.901 35.1002 92.901 33.6002C92.901 32.2002 94.001 31.4002 96.401 31.4002C97.401 31.4002 98.601 31.5002 99.501 31.7002V32.9002H99.401Z" fill="#1D1D1B"/>
<path d="M108.301 26.7996V31.7996C108.301 37.6996 112.101 41.3996 118.801 41.3996C121.901 41.3996 124.401 40.5996 126.601 38.9996C127.001 38.6996 127.001 38.2996 126.701 37.8996L125.401 35.8996C124.301 34.0996 120.501 35.3996 119.001 35.3996C116.701 35.3996 115.201 34.1996 115.201 31.6996V26.6996C115.201 24.3996 116.701 23.0996 119.101 23.0996C120.401 23.0996 123.301 24.5996 125.101 22.0996L126.301 20.2996C126.601 19.8996 126.501 19.4996 126.101 19.1996C123.801 17.7996 121.401 17.0996 118.801 17.0996C112.201 17.2996 108.301 20.9996 108.301 26.7996Z" fill="#1D1D1B"/>
<path d="M134.2 13.0996C134.2 13.0996 128.9 13.7996 128.2 18.9996V32.9996C128.2 38.6996 131.6 41.3996 136.8 41.3996C137.1 41.3996 137.3 41.2996 137.5 41.1996C138.1 40.7996 138 39.8996 137.4 39.4996C134.9 37.5996 135 34.0996 135 32.0996V24.0996H136.5C140.4 23.8996 139.8 19.0996 139.8 19.0996C139.8 18.6996 139.4 18.2996 139 18.2996H135L135.1 13.6996C134.9 13.2996 134.6 13.0996 134.2 13.0996Z" fill="#1D1D1B"/>
<path d="M151.301 41.4002C157.801 41.4002 161.801 37.9002 161.801 32.0002V26.7002C161.801 20.8002 157.801 17.2002 151.301 17.2002C144.801 17.2002 140.801 20.8002 140.801 26.7002V32.0002C140.801 37.9002 144.801 41.4002 151.301 41.4002ZM147.701 26.8002C147.701 24.6002 149.001 23.3002 151.301 23.3002C153.601 23.3002 154.901 24.6002 154.901 26.8002V32.1002C154.901 34.3002 153.601 35.5002 151.301 35.5002C149.001 35.5002 147.701 34.3002 147.701 32.1002V26.8002Z" fill="#1D1D1B"/>
<path d="M178.5 26.9002C172.5 26.9002 168.9 29.2002 168.9 33.8002C168.9 39.0002 172.9 41.4002 179.3 41.4002C182.3 41.4002 189.1 39.7002 189.1 32.1002V27.1002C189.1 20.4002 185.5 17.2002 179.4 17.2002C175.6 17.2002 172.4 18.3002 170.3 19.6002C170 19.8002 170 20.1002 170.2 20.6002L171 22.1002C172 24.5002 174.6 23.7002 175.5 23.5002C176.5 23.3002 177.6 23.1002 178.6 23.1002C181.5 23.1002 182.3 24.4002 182.3 26.7002V27.1002C181.1 27.1002 179.9 26.9002 178.5 26.9002ZM182.3 32.9002C182.3 34.6002 181 35.9002 179.3 35.9002C177.2 35.9002 175.8 35.1002 175.8 33.6002C175.8 32.2002 176.9 31.4002 179.3 31.4002C180.3 31.4002 181.5 31.5002 182.4 31.7002V32.9002H182.3Z" fill="#1D1D1B"/>
<path d="M191.2 26.7996V31.7996C191.2 37.6996 195 41.3996 201.7 41.3996C204.8 41.3996 207.3 40.5996 209.5 38.9996C209.9 38.6996 209.9 38.2996 209.6 37.8996L208.3 35.8996C207.2 34.0996 203.4 35.3996 201.9 35.3996C199.6 35.3996 198.1 34.1996 198.1 31.6996V26.6996C198.1 24.3996 199.6 23.0996 202 23.0996C203.3 23.0996 206.2 24.5996 208 22.0996L209.2 20.2996C209.5 19.8996 209.4 19.4996 209 19.1996C206.7 17.7996 204.3 17.0996 201.7 17.0996C195.1 17.1996 191.2 20.9996 191.2 26.7996Z" fill="#1D1D1B"/>
<path d="M217.001 13.0996C217.001 13.0996 211.701 13.7996 211.001 18.9996V32.9996C211.001 38.6996 214.401 41.3996 219.601 41.3996C219.901 41.3996 220.101 41.2996 220.301 41.1996C220.901 40.7996 220.801 39.8996 220.201 39.4996C217.701 37.5996 217.801 34.0996 217.801 32.0996V24.0996H219.301C223.201 23.8996 222.601 19.0996 222.601 19.0996C222.601 18.6996 222.201 18.2996 221.801 18.2996H217.801L217.901 13.6996C217.801 13.2996 217.501 13.0996 217.001 13.0996Z" fill="#1D1D1B"/>
<path d="M234.2 41.4002C240.7 41.4002 244.7 37.9002 244.7 32.0002V26.7002C244.7 20.8002 240.7 17.2002 234.2 17.2002C227.7 17.2002 223.7 20.8002 223.7 26.7002V32.0002C223.7 37.9002 227.7 41.4002 234.2 41.4002ZM230.6 26.7002C230.6 24.5002 231.9 23.2002 234.2 23.2002C236.5 23.2002 237.8 24.5002 237.8 26.7002V32.0002C237.8 34.2002 236.5 35.4002 234.2 35.4002C231.9 35.4002 230.6 34.2002 230.6 32.0002V26.7002Z" fill="#1D1D1B"/>
<path d="M6.90078 72.6002C7.20078 72.6002 7.40078 72.5002 7.60078 72.4002C8.20078 72.0002 8.10078 71.1002 7.50078 70.7002C5.00078 68.8002 5.10078 65.3002 5.10078 63.3002V55.3002H6.60078C10.5008 55.1002 9.90078 50.3002 9.90078 50.3002C9.90078 49.9002 9.50078 49.5002 9.10078 49.5002H5.00078L5.10078 44.9002C5.10078 44.4002 4.80078 44.2002 4.30078 44.2002C4.30078 44.2002 -0.999219 44.9002 -1.69922 50.1002V64.1002C-1.69922 69.9002 1.80078 72.6002 6.90078 72.6002Z" fill="#1D1D1B"/>
<path d="M21.4004 72.7C27.9004 72.7 31.9004 69.2 31.9004 63.3V58C31.9004 52.1 27.9004 48.5 21.4004 48.5C14.9004 48.5 10.9004 52.1 10.9004 58V63.3C10.9004 69.2 14.9004 72.7 21.4004 72.7ZM17.8004 58C17.8004 55.8 19.1004 54.5 21.4004 54.5C23.7004 54.5 25.0004 55.8 25.0004 58V63.3C25.0004 65.5 23.7004 66.7 21.4004 66.7C19.1004 66.7 17.8004 65.5 17.8004 63.3V58Z" fill="#1D1D1B"/>
<path d="M58.201 58.4C58.201 51.7 54.601 48.5 48.501 48.5C44.701 48.5 41.501 49.6 39.401 50.9C39.101 51.1 39.101 51.4 39.301 51.9L40.101 53.4C41.101 55.8 43.701 55 44.601 54.8C45.601 54.6 46.701 54.4 47.701 54.4C50.601 54.4 51.401 55.7 51.401 58V58.4C50.301 58.3 49.001 58.1 47.601 58.1C41.601 58.1 38.001 60.4 38.001 65C38.001 70.2 42.001 72.6 48.401 72.6C51.401 72.6 58.201 70.9 58.201 63.3V58.4ZM51.401 64.2C51.401 65.9 50.101 67.2 48.401 67.2C46.301 67.2 44.901 66.4 44.901 64.9C44.901 63.5 46.001 62.7 48.401 62.7C49.401 62.7 50.601 62.8 51.501 63V64.2H51.401Z" fill="#1D1D1B"/>
<path d="M71.1004 54.5C72.4004 54.5 75.3004 56 77.1004 53.5L78.3004 51.7C78.6004 51.3 78.5004 50.9 78.1004 50.6C75.8004 49.2 73.4004 48.5 70.8004 48.5C64.2004 48.5 60.4004 52.2 60.4004 58V63C60.4004 68.9 64.2004 72.6 70.9004 72.6C74.0004 72.6 76.5004 71.8 78.7004 70.2C79.1004 69.9 79.1004 69.5 78.8004 69.1L77.5004 67.1C76.4004 65.3 72.6004 66.6 71.1004 66.6C68.8004 66.6 67.3004 65.4 67.3004 62.9V57.9C67.2004 55.8 68.7004 54.5 71.1004 54.5Z" fill="#1D1D1B"/>
<path d="M88.8002 72.5998C89.1002 72.5998 89.3002 72.4998 89.5002 72.3998C90.1002 71.9998 90.0002 71.0998 89.4002 70.6998C86.9002 68.7998 87.0002 65.2998 87.0002 63.2998V55.2998H88.5002C92.4002 55.0998 91.8002 50.2998 91.8002 50.2998C91.8002 49.8998 91.4002 49.4998 91.0002 49.4998H87.0002V44.9998C87.0002 44.4998 86.7002 44.2998 86.2002 44.2998C86.2002 44.2998 80.9002 44.9998 80.2002 50.1998V64.1998C80.2002 69.8998 83.6002 72.5998 88.8002 72.5998Z" fill="#1D1D1B"/>
<path d="M103.301 72.7C109.801 72.7 113.801 69.2 113.801 63.3V58C113.801 52.1 109.801 48.5 103.301 48.5C96.8008 48.5 92.8008 52.1 92.8008 58V63.3C92.8008 69.1 96.8008 72.7 103.301 72.7ZM99.7008 58C99.7008 55.8 101.001 54.5 103.301 54.5C105.601 54.5 106.901 55.8 106.901 58V63.3C106.901 65.5 105.601 66.7 103.301 66.7C101.001 66.7 99.7008 65.5 99.7008 63.3V58Z" fill="#1D1D1B"/>
<path d="M141.001 58.4C141.001 51.7 137.401 48.5 131.301 48.5C127.501 48.5 124.301 49.6 122.201 50.9C121.901 51.1 121.901 51.4 122.101 51.9L122.901 53.4C123.901 55.8 126.501 55 127.401 54.8C128.401 54.6 129.501 54.4 130.501 54.4C133.401 54.4 134.201 55.7 134.201 58V58.4C133.101 58.3 131.801 58.1 130.401 58.1C124.401 58.1 120.801 60.4 120.801 65C120.801 70.2 124.801 72.6 131.201 72.6C134.201 72.6 141.001 70.9 141.001 63.3V58.4ZM134.301 64.1C134.301 65.8 133.001 67.1 131.301 67.1C129.201 67.1 127.801 66.3 127.801 64.8C127.801 63.4 128.901 62.6 131.301 62.6C132.301 62.6 133.501 62.7 134.401 62.9V64.1H134.301Z" fill="#1D1D1B"/>
<path d="M160.4 67.2004C159.3 65.4004 155.5 66.7004 154 66.7004C151.7 66.7004 150.2 65.5004 150.2 63.0004V58.0004C150.2 55.7004 151.7 54.4004 154.1 54.4004C155.4 54.4004 158.3 55.9004 160.1 53.4004L161.3 51.6004C161.6 51.2004 161.5 50.8004 161.1 50.5004C158.8 49.1004 156.4 48.4004 153.8 48.4004C147.2 48.4004 143.4 52.1004 143.4 57.9004V62.9004C143.4 68.8004 147.2 72.5004 153.9 72.5004C157 72.5004 159.5 71.7004 161.7 70.1004C162.1 69.8004 162.1 69.4004 161.8 69.0004L160.4 67.2004Z" fill="#1D1D1B"/>
<path d="M171.7 72.6002C172 72.6002 172.2 72.5002 172.4 72.4002C173 72.0002 172.9 71.1002 172.3 70.7002C169.8 68.8002 169.9 65.3002 169.9 63.3002V55.3002H171.4C175.3 55.1002 174.7 50.3002 174.7 50.3002C174.7 49.9002 174.3 49.5002 173.9 49.5002H169.9L170 44.9002C170 44.4002 169.7 44.2002 169.2 44.2002C169.2 44.2002 163.9 44.9002 163.2 50.1002V64.1002C163.1 69.8002 166.5 72.6002 171.7 72.6002Z" fill="#1D1D1B"/>
<path d="M186.2 72.7C192.7 72.7 196.7 69.2 196.7 63.3V58C196.7 52.1 192.7 48.5 186.2 48.5C179.7 48.5 175.7 52.1 175.7 58V63.3C175.7 69.1 179.7 72.7 186.2 72.7ZM182.6 58C182.6 55.8 183.9 54.5 186.2 54.5C188.5 54.5 189.8 55.8 189.8 58V63.3C189.8 65.5 188.5 66.7 186.2 66.7C183.9 66.7 182.6 65.5 182.6 63.3V58Z" fill="#1D1D1B"/>
<path d="M13.601 90.6004C7.60098 90.6004 4.00098 92.9004 4.00098 97.5004C4.00098 102.7 8.00098 105.1 14.401 105.1C17.401 105.1 24.201 103.4 24.201 95.8004V90.8004C24.201 84.1004 20.601 80.9004 14.501 80.9004C10.701 80.9004 7.50098 82.0004 5.40098 83.3004C5.10098 83.5004 5.10098 83.8004 5.30098 84.3004L6.00098 85.8004C7.00098 88.2004 9.60098 87.4004 10.501 87.2004C11.501 87.0004 12.601 86.8004 13.601 86.8004C16.501 86.8004 17.301 88.1004 17.301 90.4004V90.8004C16.301 90.8004 15.001 90.6004 13.601 90.6004ZM17.401 96.6004C17.401 98.3004 16.101 99.6004 14.401 99.6004C12.301 99.6004 10.901 98.8004 10.901 97.3004C10.901 95.9004 12.001 95.1004 14.401 95.1004C15.401 95.1004 16.601 95.2004 17.501 95.4004V96.6004H17.401Z" fill="#1D1D1B"/>
<path d="M44.801 101.6L43.501 99.5998C42.401 97.7998 38.601 99.0998 37.101 99.0998C34.801 99.0998 33.301 97.8998 33.301 95.3998V90.3998C33.301 88.0998 34.801 86.7998 37.201 86.7998C38.501 86.7998 41.401 88.2998 43.201 85.7998L44.401 83.9998C44.701 83.5998 44.601 83.1998 44.201 82.8998C41.901 81.4998 39.501 80.7998 36.901 80.7998C30.301 80.7998 26.501 84.4998 26.501 90.2998V95.2998C26.501 101.2 30.301 104.9 37.001 104.9C40.101 104.9 42.601 104.1 44.801 102.5C45.001 102.4 45.101 102 44.801 101.6Z" fill="#1D1D1B"/>
<path d="M53.0008 87.8002H54.5008C58.4008 87.6002 57.8008 82.8002 57.8008 82.8002C57.8008 82.4002 57.4008 82.0002 57.0008 82.0002H53.0008L53.1008 77.4002C53.1008 76.9002 52.8008 76.7002 52.3008 76.7002C52.3008 76.7002 47.0008 77.4002 46.3008 82.6002V96.6002C46.3008 102.3 49.7008 105 54.9008 105C55.2008 105 55.4008 104.9 55.6008 104.8C56.2008 104.4 56.1008 103.5 55.5008 103.1C53.0008 101.2 53.1008 97.7002 53.1008 95.7002V87.8002H53.0008Z" fill="#1D1D1B"/>
<path d="M69.3008 105.1C75.8008 105.1 79.8008 101.6 79.8008 95.7004V90.4004C79.8008 84.5004 75.8008 80.9004 69.3008 80.9004C62.8008 80.9004 58.8008 84.5004 58.8008 90.4004V95.7004C58.8008 101.6 62.8008 105.1 69.3008 105.1ZM65.7008 90.4004C65.7008 88.2004 67.0008 86.9004 69.3008 86.9004C71.6008 86.9004 72.9008 88.2004 72.9008 90.4004V95.7004C72.9008 97.9004 71.6008 99.1004 69.3008 99.1004C67.0008 99.1004 65.7008 97.9004 65.7008 95.7004V90.4004Z" fill="#1D1D1B"/>
<path d="M95.5004 90.6004C89.5004 90.6004 85.9004 92.9004 85.9004 97.5004C85.9004 102.7 89.9004 105.1 96.3004 105.1C99.3004 105.1 106.1 103.4 106.1 95.8004V90.8004C106.1 84.1004 102.5 80.9004 96.4004 80.9004C92.6004 80.9004 89.4004 82.0004 87.3004 83.3004C87.0004 83.5004 87.0004 83.8004 87.2004 84.3004L88.0004 85.8004C89.0004 88.2004 91.6004 87.4004 92.5004 87.2004C93.5004 87.0004 94.6004 86.8004 95.6004 86.8004C98.5004 86.8004 99.3004 88.1004 99.3004 90.4004V90.8004C98.2004 90.7004 96.9004 90.6004 95.5004 90.6004ZM99.3004 96.6004C99.3004 98.3004 98.0004 99.6004 96.3004 99.6004C94.2004 99.6004 92.8004 98.8004 92.8004 97.3004C92.8004 95.9004 93.9004 95.1004 96.3004 95.1004C97.3004 95.1004 98.5004 95.2004 99.4004 95.4004V96.6004H99.3004Z" fill="#1D1D1B"/>
<path d="M119.001 86.9004C120.301 86.9004 123.201 88.4004 125.001 85.9004L126.201 84.1004C126.501 83.7004 126.401 83.3004 126.001 83.0004C123.701 81.6004 121.301 80.9004 118.701 80.9004C112.101 80.9004 108.301 84.6004 108.301 90.4004V95.4004C108.301 101.3 112.101 105 118.801 105C121.901 105 124.401 104.2 126.601 102.6C127.001 102.3 127.001 101.9 126.701 101.5L125.401 99.5004C124.301 97.7004 120.501 99.0004 119.001 99.0004C116.701 99.0004 115.201 97.8004 115.201 95.3004V90.3004C115.101 88.2004 116.601 86.9004 119.001 86.9004Z" fill="#1D1D1B"/>
<path d="M134.101 76.7998C134.101 76.7998 128.801 77.4998 128.101 82.6998V96.6998C128.101 102.4 131.501 105.1 136.701 105.1C137.001 105.1 137.201 105 137.401 104.9C138.001 104.5 137.901 103.6 137.301 103.2C134.801 101.3 134.901 97.7998 134.901 95.7998V87.7998H136.401C140.301 87.5998 139.701 82.7998 139.701 82.7998C139.701 82.3998 139.301 81.9998 138.901 81.9998H134.901L135.001 77.3998C134.801 76.9998 134.501 76.7998 134.101 76.7998Z" fill="#1D1D1B"/>
<path d="M151.2 80.9004C144.7 80.9004 140.7 84.5004 140.7 90.4004V95.7004C140.7 101.5 144.7 105.1 151.2 105.1C157.7 105.1 161.7 101.6 161.7 95.7004V90.4004C161.7 84.5004 157.6 80.9004 151.2 80.9004ZM154.8 95.7004C154.8 97.9004 153.5 99.1004 151.2 99.1004C148.9 99.1004 147.6 97.9004 147.6 95.7004V90.4004C147.6 88.2004 148.9 86.9004 151.2 86.9004C153.5 86.9004 154.8 88.2004 154.8 90.4004V95.7004Z" fill="#1D1D1B"/>
<path d="M178.401 90.6004C172.401 90.6004 168.801 92.9004 168.801 97.5004C168.801 102.7 172.801 105.1 179.201 105.1C182.201 105.1 189.001 103.4 189.001 95.8004V90.8004C189.001 84.1004 185.401 80.9004 179.301 80.9004C175.501 80.9004 172.301 82.0004 170.201 83.3004C169.901 83.5004 169.901 83.8004 170.101 84.3004L170.901 85.8004C171.901 88.2004 174.501 87.4004 175.401 87.2004C176.401 87.0004 177.501 86.8004 178.501 86.8004C181.401 86.8004 182.201 88.1004 182.201 90.4004V90.8004C181.001 90.7004 179.801 90.6004 178.401 90.6004ZM182.201 96.6004C182.201 98.3004 180.901 99.6004 179.201 99.6004C177.101 99.6004 175.701 98.8004 175.701 97.3004C175.701 95.9004 176.801 95.1004 179.201 95.1004C180.201 95.1004 181.401 95.2004 182.301 95.4004V96.6004H182.201Z" fill="#1D1D1B"/>
<path d="M201.9 86.9004C203.2 86.9004 206.1 88.4004 207.9 85.9004L209.1 84.1004C209.4 83.7004 209.3 83.3004 208.9 83.0004C206.6 81.6004 204.2 80.9004 201.6 80.9004C195 80.9004 191.2 84.6004 191.2 90.4004V95.4004C191.2 101.3 195 105 201.7 105C204.8 105 207.3 104.2 209.5 102.6C209.9 102.3 209.9 101.9 209.6 101.5L208.3 99.5004C207.2 97.7004 203.4 99.0004 201.9 99.0004C199.6 99.0004 198.1 97.8004 198.1 95.3004V90.3004C198 88.2004 199.4 86.9004 201.9 86.9004Z" fill="#1D1D1B"/>
<path d="M217.001 76.7002C217.001 76.7002 211.701 77.4002 211.001 82.6002V96.6002C211.001 102.3 214.401 105 219.601 105C219.901 105 220.101 104.9 220.301 104.8C220.901 104.4 220.801 103.5 220.201 103.1C217.701 101.2 217.801 97.7002 217.801 95.7002V87.7002H219.301C223.201 87.5002 222.601 82.7002 222.601 82.7002C222.601 82.3002 222.201 81.9002 221.801 81.9002H217.801L217.901 77.3002C217.701 77.0002 217.401 76.7002 217.001 76.7002Z" fill="#1D1D1B"/>
<path d="M234.101 80.9004C227.601 80.9004 223.601 84.5004 223.601 90.4004V95.7004C223.601 101.5 227.601 105.1 234.101 105.1C240.601 105.1 244.601 101.6 244.601 95.7004V90.4004C244.601 84.5004 240.501 80.9004 234.101 80.9004ZM237.701 95.7004C237.701 97.9004 236.401 99.1004 234.101 99.1004C231.801 99.1004 230.501 97.9004 230.501 95.7004V90.4004C230.501 88.2004 231.801 86.9004 234.101 86.9004C236.401 86.9004 237.701 88.2004 237.701 90.4004V95.7004Z" fill="#1D1D1B"/>
<path d="M5.90078 136.4C6.20078 136.4 6.40078 136.3 6.60078 136.2C7.20078 135.8 7.10078 134.9 6.50078 134.5C4.00078 132.6 4.10078 129.1 4.10078 127.1V119.1H5.60078C9.50078 118.9 8.90078 114.1 8.90078 114.1C8.90078 113.7 8.50078 113.3 8.10078 113.3H4.00078L4.10078 108.7C4.10078 108.2 3.80078 108 3.30078 108C3.30078 108 -1.99922 108.7 -2.69922 113.9V127.9C-2.69922 133.7 0.800782 136.4 5.90078 136.4Z" fill="#1D1D1B"/>
<path d="M20.4004 136.5C26.9004 136.5 30.9004 133 30.9004 127.1V121.8C30.9004 115.9 26.9004 112.3 20.4004 112.3C13.9004 112.3 9.90039 115.9 9.90039 121.8V127.1C9.90039 132.9 13.9004 136.5 20.4004 136.5ZM16.8004 121.8C16.8004 119.6 18.1004 118.3 20.4004 118.3C22.7004 118.3 24.0004 119.6 24.0004 121.8V127.1C24.0004 129.3 22.7004 130.5 20.4004 130.5C18.1004 130.5 16.8004 129.3 16.8004 127.1V121.8Z" fill="#1D1D1B"/>
<path d="M47.501 112.3C43.701 112.3 40.501 113.4 38.401 114.7C38.101 114.9 38.101 115.2 38.301 115.7L39.101 117.2C40.101 119.6 42.701 118.8 43.601 118.6C44.601 118.4 45.701 118.2 46.701 118.2C49.601 118.2 50.401 119.5 50.401 121.8V122.2C49.301 122.1 48.001 121.9 46.601 121.9C40.601 121.9 37.001 124.2 37.001 128.8C37.001 134 41.001 136.4 47.401 136.4C50.401 136.4 57.201 134.7 57.201 127.1V122.1C57.101 115.5 53.601 112.3 47.501 112.3ZM50.401 128C50.401 129.7 49.101 131 47.401 131C45.301 131 43.901 130.2 43.901 128.7C43.901 127.3 45.001 126.5 47.401 126.5C48.401 126.5 49.601 126.6 50.501 126.8V128H50.401Z" fill="#1D1D1B"/>
<path d="M70.1004 118.3C71.4004 118.3 74.3004 119.8 76.1004 117.3L77.3004 115.5C77.6004 115.1 77.5004 114.7 77.1004 114.4C74.8004 113 72.4004 112.3 69.8004 112.3C63.2004 112.3 59.4004 116 59.4004 121.8V126.8C59.4004 132.7 63.2004 136.4 69.9004 136.4C73.0004 136.4 75.5004 135.6 77.7004 134C78.1004 133.7 78.1004 133.3 77.8004 132.9L76.5004 130.9C75.4004 129.1 71.6004 130.4 70.1004 130.4C67.8004 130.4 66.3004 129.2 66.3004 126.7V121.7C66.2004 119.6 67.7004 118.3 70.1004 118.3Z" fill="#1D1D1B"/>
<path d="M85.2002 108.1C85.2002 108.1 79.9002 108.8 79.2002 114V128C79.2002 133.7 82.6002 136.4 87.8002 136.4C88.1002 136.4 88.3002 136.3 88.5002 136.2C89.1002 135.8 89.0002 134.9 88.4002 134.5C85.9002 132.6 86.0002 129.1 86.0002 127.1V119.1H87.5002C91.4002 118.9 90.8002 114.1 90.8002 114.1C90.8002 113.7 90.4002 113.3 90.0002 113.3H86.0002L86.1002 108.7C85.9002 108.4 85.7002 108.1 85.2002 108.1Z" fill="#1D1D1B"/>
<path d="M102.301 112.3C95.8008 112.3 91.8008 115.9 91.8008 121.8V127.1C91.8008 132.9 95.8008 136.5 102.301 136.5C108.801 136.5 112.801 133 112.801 127.1V121.8C112.801 115.9 108.801 112.3 102.301 112.3ZM105.901 127.1C105.901 129.3 104.601 130.5 102.301 130.5C100.001 130.5 98.7008 129.3 98.7008 127.1V121.8C98.7008 119.6 100.001 118.3 102.301 118.3C104.601 118.3 105.901 119.6 105.901 121.8V127.1Z" fill="#1D1D1B"/>
<path d="M130.4 112.3C126.6 112.3 123.4 113.4 121.3 114.7C121 114.9 121 115.2 121.2 115.7L122 117.2C123 119.6 125.6 118.8 126.5 118.6C127.5 118.4 128.6 118.2 129.6 118.2C132.5 118.2 133.3 119.5 133.3 121.8V122.2C132.2 122.1 130.9 121.9 129.5 121.9C123.5 121.9 119.9 124.2 119.9 128.8C119.9 134 123.9 136.4 130.3 136.4C133.3 136.4 140.1 134.7 140.1 127.1V122.1C140 115.5 136.5 112.3 130.4 112.3ZM133.3 127.9C133.3 129.6 132 130.9 130.3 130.9C128.2 130.9 126.8 130.1 126.8 128.6C126.8 127.2 127.9 126.4 130.3 126.4C131.3 126.4 132.5 126.5 133.4 126.7V127.9H133.3Z" fill="#1D1D1B"/>
<path d="M159.301 131C158.201 129.2 154.401 130.5 152.901 130.5C150.601 130.5 149.101 129.3 149.101 126.8V121.8C149.101 119.5 150.601 118.2 153.001 118.2C154.301 118.2 157.201 119.7 159.001 117.2L160.201 115.4C160.501 115 160.401 114.6 160.001 114.3C157.701 112.9 155.301 112.2 152.701 112.2C146.101 112.2 142.301 115.9 142.301 121.7V126.7C142.301 132.6 146.101 136.3 152.801 136.3C155.901 136.3 158.401 135.5 160.601 133.9C161.001 133.6 161.001 133.2 160.701 132.8L159.301 131Z" fill="#1D1D1B"/>
<path d="M170.7 136.4C171 136.4 171.2 136.3 171.4 136.2C172 135.8 171.9 134.9 171.3 134.5C168.8 132.6 168.9 129.1 168.9 127.1V119.1H170.4C174.3 118.9 173.7 114.1 173.7 114.1C173.7 113.7 173.3 113.3 172.9 113.3H168.9L169 108.7C169 108.2 168.7 108 168.2 108C168.2 108 162.9 108.7 162.2 113.9V127.9C162.1 133.6 165.5 136.4 170.7 136.4Z" fill="#1D1D1B"/>
<path d="M185.2 136.5C191.7 136.5 195.7 133 195.7 127.1V121.8C195.7 115.9 191.7 112.3 185.2 112.3C178.7 112.3 174.7 115.9 174.7 121.8V127.1C174.7 132.9 178.7 136.5 185.2 136.5ZM181.6 121.8C181.6 119.6 182.9 118.3 185.2 118.3C187.5 118.3 188.8 119.6 188.8 121.8V127.1C188.8 129.3 187.5 130.5 185.2 130.5C182.9 130.5 181.6 129.3 181.6 127.1V121.8Z" fill="#1D1D1B"/>
<path d="M12.601 154.4C6.60098 154.4 3.00098 156.7 3.00098 161.3C3.00098 166.5 7.00098 168.9 13.401 168.9C16.401 168.9 23.201 167.2 23.201 159.6V154.6C23.201 147.9 19.601 144.7 13.501 144.7C9.70098 144.7 6.50098 145.8 4.40098 147.1C4.10098 147.3 4.10098 147.6 4.30098 148.1L5.10098 149.6C6.10098 152 8.70098 151.2 9.60098 151C10.601 150.8 11.701 150.6 12.701 150.6C15.601 150.6 16.401 151.9 16.401 154.2V154.6C15.301 154.6 14.001 154.4 12.601 154.4ZM16.401 160.4C16.401 162.1 15.101 163.4 13.401 163.4C11.301 163.4 9.90098 162.6 9.90098 161.1C9.90098 159.7 11.001 158.9 13.401 158.9C14.401 158.9 15.601 159 16.501 159.2V160.4H16.401Z" fill="#1D1D1B"/>
<path d="M36.1004 150.7C37.4004 150.7 40.3004 152.2 42.1004 149.7L43.3004 147.9C43.6004 147.5 43.5004 147.1 43.1004 146.8C40.8004 145.4 38.4004 144.7 35.8004 144.7C29.2004 144.7 25.4004 148.4 25.4004 154.2V159.2C25.4004 165.1 29.2004 168.8 35.9004 168.8C39.0004 168.8 41.5004 168 43.7004 166.4C44.1004 166.1 44.1004 165.7 43.8004 165.3L42.5004 163.3C41.4004 161.5 37.6004 162.8 36.1004 162.8C33.8004 162.8 32.3004 161.6 32.3004 159.1V154.1C32.2004 152 33.7004 150.7 36.1004 150.7Z" fill="#1D1D1B"/>
<path d="M51.2002 140.6C51.2002 140.6 45.9002 141.3 45.2002 146.5V160.5C45.2002 166.2 48.6002 168.9 53.8002 168.9C54.1002 168.9 54.3002 168.8 54.5002 168.7C55.1002 168.3 55.0002 167.4 54.4002 167C51.9002 165.1 52.0002 161.6 52.0002 159.6V151.6H53.5002C57.4002 151.4 56.8002 146.6 56.8002 146.6C56.8002 146.2 56.4002 145.8 56.0002 145.8H52.0002L52.1002 141.2C51.9002 140.8 51.7002 140.6 51.2002 140.6Z" fill="#1D1D1B"/>
<path d="M68.3008 144.7C61.8008 144.7 57.8008 148.3 57.8008 154.2V159.5C57.8008 165.3 61.8008 168.9 68.3008 168.9C74.8008 168.9 78.8008 165.4 78.8008 159.5V154.2C78.8008 148.3 74.8008 144.7 68.3008 144.7ZM71.9008 159.5C71.9008 161.7 70.6008 162.9 68.3008 162.9C66.0008 162.9 64.7008 161.7 64.7008 159.5V154.2C64.7008 152 66.0008 150.7 68.3008 150.7C70.6008 150.7 71.9008 152 71.9008 154.2V159.5Z" fill="#1D1D1B"/>
<path d="M94.5004 154.4C88.5004 154.4 84.9004 156.7 84.9004 161.3C84.9004 166.5 88.9004 168.9 95.3004 168.9C98.3004 168.9 105.1 167.2 105.1 159.6V154.6C105.1 147.9 101.5 144.7 95.4004 144.7C91.6004 144.7 88.4004 145.8 86.3004 147.1C86.0004 147.3 86.0004 147.6 86.2004 148.1L87.0004 149.6C88.0004 152 90.6004 151.2 91.5004 151C92.5004 150.8 93.6004 150.6 94.6004 150.6C97.5004 150.6 98.3004 151.9 98.3004 154.2V154.6C97.1004 154.5 95.9004 154.4 94.5004 154.4ZM98.2004 160.4C98.2004 162.1 96.9004 163.4 95.2004 163.4C93.1004 163.4 91.7004 162.6 91.7004 161.1C91.7004 159.7 92.8004 158.9 95.2004 158.9C96.2004 158.9 97.4004 159 98.3004 159.2V160.4H98.2004Z" fill="#1D1D1B"/>
<path d="M125.501 166.5C125.901 166.2 125.901 165.8 125.601 165.4L124.301 163.4C123.201 161.6 119.401 162.9 117.901 162.9C115.601 162.9 114.101 161.7 114.101 159.2V154.2C114.101 151.9 115.601 150.6 118.001 150.6C119.301 150.6 122.201 152.1 124.001 149.6L125.201 147.8C125.501 147.4 125.401 147 125.001 146.7C122.701 145.3 120.301 144.6 117.701 144.6C111.101 144.6 107.301 148.3 107.301 154.1V159.1C107.301 165 111.101 168.7 117.801 168.7C120.801 168.9 123.301 168.1 125.501 166.5Z" fill="#1D1D1B"/>
<path d="M133.001 140.6C133.001 140.6 127.701 141.3 127.001 146.5V160.5C127.001 166.2 130.401 168.9 135.601 168.9C135.901 168.9 136.101 168.8 136.301 168.7C136.901 168.3 136.801 167.4 136.201 167C133.701 165.1 133.801 161.6 133.801 159.6V151.6H135.301C139.201 151.4 138.601 146.6 138.601 146.6C138.601 146.2 138.201 145.8 137.801 145.8H133.801L133.901 141.2C133.801 140.8 133.501 140.6 133.001 140.6Z" fill="#1D1D1B"/>
<path d="M150.2 168.9C156.7 168.9 160.7 165.4 160.7 159.5V154.2C160.7 148.3 156.7 144.7 150.2 144.7C143.7 144.7 139.7 148.3 139.7 154.2V159.5C139.7 165.4 143.7 168.9 150.2 168.9ZM146.5 154.2C146.5 152 147.8 150.7 150.1 150.7C152.4 150.7 153.7 152 153.7 154.2V159.5C153.7 161.7 152.4 162.9 150.1 162.9C147.8 162.9 146.5 161.7 146.5 159.5V154.2Z" fill="#1D1D1B"/>
<path d="M177.401 154.4C171.401 154.4 167.801 156.7 167.801 161.3C167.801 166.5 171.801 168.9 178.201 168.9C181.201 168.9 188.001 167.2 188.001 159.6V154.6C188.001 147.9 184.401 144.7 178.301 144.7C174.501 144.7 171.301 145.8 169.201 147.1C168.901 147.3 168.901 147.6 169.101 148.1L169.901 149.6C170.901 152 173.501 151.2 174.401 151C175.401 150.8 176.501 150.6 177.501 150.6C180.401 150.6 181.201 151.9 181.201 154.2V154.6C180.001 154.5 178.801 154.4 177.401 154.4ZM181.101 160.4C181.101 162.1 179.801 163.4 178.101 163.4C176.001 163.4 174.601 162.6 174.601 161.1C174.601 159.7 175.701 158.9 178.101 158.9C179.101 158.9 180.301 159 181.201 159.2V160.4H181.101Z" fill="#1D1D1B"/>
<path d="M208.4 166.5C208.8 166.2 208.8 165.8 208.5 165.4L207.2 163.4C206.1 161.6 202.3 162.9 200.8 162.9C198.5 162.9 197 161.7 197 159.2V154.2C197 151.9 198.5 150.6 200.9 150.6C202.2 150.6 205.1 152.1 206.9 149.6L208.1 147.8C208.4 147.4 208.3 147 207.9 146.7C205.6 145.3 203.2 144.6 200.6 144.6C194 144.6 190.2 148.3 190.2 154.1V159.1C190.2 165 194 168.7 200.7 168.7C203.7 168.9 206.2 168 208.4 166.5Z" fill="#1D1D1B"/>
<path d="M215.9 140.5C215.9 140.5 210.6 141.2 209.9 146.4V160.4C209.9 166.1 213.3 168.8 218.5 168.8C218.8 168.8 219 168.7 219.2 168.6C219.8 168.2 219.7 167.3 219.1 166.9C216.6 165 216.7 161.5 216.7 159.5V151.5H218.2C222.1 151.3 221.5 146.5 221.5 146.5C221.5 146.1 221.1 145.7 220.7 145.7H216.7L216.8 141.1C216.7 140.8 216.4 140.5 215.9 140.5Z" fill="#1D1D1B"/>
<path d="M233.1 168.9C239.6 168.9 243.6 165.4 243.6 159.5V154.2C243.6 148.3 239.6 144.7 233.1 144.7C226.6 144.7 222.6 148.3 222.6 154.2V159.5C222.5 165.3 226.6 168.9 233.1 168.9ZM229.4 154.2C229.4 152 230.7 150.7 233 150.7C235.3 150.7 236.6 152 236.6 154.2V159.5C236.6 161.7 235.3 162.9 233 162.9C230.7 162.9 229.4 161.7 229.4 159.5V154.2Z" fill="#1D1D1B"/>
<path d="M6.50078 199.9C7.10078 199.5 7.00078 198.6 6.40078 198.2C3.90078 196.3 4.00078 192.8 4.00078 190.8V182.8H5.50078C9.40078 182.6 8.80078 177.8 8.80078 177.8C8.80078 177.4 8.40078 177 8.00078 177H4.00078L4.10078 172.4C4.10078 171.9 3.80078 171.7 3.30078 171.7C3.30078 171.7 -1.99922 172.4 -2.69922 177.6V191.6C-2.69922 197.3 0.700782 200 5.90078 200C6.10078 200.1 6.30078 200 6.50078 199.9Z" fill="#1D1D1B"/>
<path d="M20.3008 200.2C26.8008 200.2 30.8008 196.7 30.8008 190.8V185.5C30.8008 179.6 26.8008 176 20.3008 176C13.8008 176 9.80078 179.6 9.80078 185.5V190.8C9.80078 196.6 13.8008 200.2 20.3008 200.2ZM16.7008 185.5C16.7008 183.3 18.0008 182 20.3008 182C22.6008 182 23.9008 183.3 23.9008 185.5V190.8C23.9008 193 22.6008 194.2 20.3008 194.2C18.0008 194.2 16.7008 193 16.7008 190.8V185.5Z" fill="#1D1D1B"/>
<path d="M47.4004 176C43.6004 176 40.4004 177.1 38.3004 178.4C38.0004 178.6 38.0004 178.9 38.2004 179.4L39.0004 180.9C40.0004 183.3 42.6004 182.5 43.5004 182.3C44.5004 182.1 45.6004 181.9 46.6004 181.9C49.5004 181.9 50.3004 183.2 50.3004 185.5V185.9C49.2004 185.8 47.9004 185.6 46.5004 185.6C40.5004 185.6 36.9004 187.9 36.9004 192.5C36.9004 197.7 40.9004 200.1 47.3004 200.1C50.3004 200.1 57.1004 198.4 57.1004 190.8V185.8C57.0004 179.1 53.5004 176 47.4004 176ZM50.3004 191.6C50.3004 193.3 49.0004 194.6 47.3004 194.6C45.2004 194.6 43.8004 193.8 43.8004 192.3C43.8004 190.9 44.9004 190.1 47.3004 190.1C48.3004 190.1 49.5004 190.2 50.4004 190.4V191.6H50.3004Z" fill="#1D1D1B"/>
<path d="M70.0008 181.9C71.3008 181.9 74.2008 183.4 76.0008 180.9L77.2008 179.1C77.5008 178.7 77.4008 178.3 77.0008 178C74.7008 176.6 72.3008 175.9 69.7008 175.9C63.1008 175.9 59.3008 179.6 59.3008 185.4V190.4C59.3008 196.3 63.1008 200 69.8008 200C72.9008 200 75.4008 199.2 77.6008 197.6C78.0008 197.3 78.0008 196.9 77.7008 196.5L76.4008 194.5C75.3008 192.7 71.5008 194 70.0008 194C67.7008 194 66.2008 192.8 66.2008 190.3V185.3C66.1008 183.3 67.6008 181.9 70.0008 181.9Z" fill="#1D1D1B"/>
<path d="M88.3006 199.9C88.9006 199.5 88.8006 198.6 88.2006 198.2C85.7006 196.3 85.8006 192.8 85.8006 190.8V182.8H87.3006C91.2006 182.6 90.6006 177.8 90.6006 177.8C90.6006 177.4 90.2006 177 89.8006 177H85.8006L85.9006 172.4C85.9006 171.9 85.6006 171.7 85.1006 171.7C85.1006 171.7 79.8006 172.4 79.1006 177.6V191.6C79.1006 197.3 82.5006 200 87.7006 200C87.9006 200.1 88.1006 200 88.3006 199.9Z" fill="#1D1D1B"/>
<path d="M102.2 200.1C108.7 200.1 112.7 196.6 112.7 190.7V185.4C112.7 179.5 108.7 175.9 102.2 175.9C95.7002 175.9 91.7002 179.5 91.7002 185.4V190.7C91.7002 196.6 95.7002 200.1 102.2 200.1ZM98.6002 185.5C98.6002 183.3 99.9002 182 102.2 182C104.5 182 105.8 183.3 105.8 185.5V190.8C105.8 193 104.5 194.2 102.2 194.2C99.9002 194.2 98.6002 193 98.6002 190.8V185.5Z" fill="#1D1D1B"/>
<path d="M129.401 185.6C123.401 185.6 119.801 187.9 119.801 192.5C119.801 197.7 123.801 200.1 130.201 200.1C133.201 200.1 140.001 198.4 140.001 190.8V185.8C140.001 179.1 136.401 175.9 130.301 175.9C126.501 175.9 123.301 177 121.201 178.3C120.901 178.5 120.901 178.8 121.101 179.3L121.901 180.8C122.901 183.2 125.501 182.4 126.401 182.2C127.401 182 128.501 181.8 129.501 181.8C132.401 181.8 133.201 183.1 133.201 185.4V185.8C132.101 185.8 130.801 185.6 129.401 185.6ZM133.201 191.6C133.201 193.3 131.901 194.6 130.201 194.6C128.101 194.6 126.701 193.8 126.701 192.3C126.701 190.9 127.801 190.1 130.201 190.1C131.201 190.1 132.401 190.2 133.301 190.4V191.6H133.201Z" fill="#1D1D1B"/>
<path d="M159.2 194.6C158.1 192.8 154.3 194.1 152.8 194.1C150.5 194.1 149 192.9 149 190.4V185.4C149 183.1 150.5 181.8 152.9 181.8C154.2 181.8 157.1 183.3 158.9 180.8L160.1 179C160.4 178.6 160.3 178.2 159.9 177.9C157.6 176.5 155.2 175.8 152.6 175.8C146 175.8 142.2 179.5 142.2 185.3V190.3C142.2 196.2 146 199.9 152.7 199.9C155.8 199.9 158.3 199.1 160.5 197.5C160.9 197.2 160.9 196.8 160.6 196.4L159.2 194.6Z" fill="#1D1D1B"/>
<path d="M171.201 199.9C171.801 199.5 171.701 198.6 171.101 198.2C168.601 196.3 168.701 192.8 168.701 190.8V182.8H170.201C174.101 182.6 173.501 177.8 173.501 177.8C173.501 177.4 173.101 177 172.701 177H168.701L168.801 172.4C168.801 171.9 168.501 171.7 168.001 171.7C168.001 171.7 162.701 172.4 162.001 177.6V191.6C162.001 197.3 165.401 200 170.601 200C170.801 200.1 171.001 200 171.201 199.9Z" fill="#1D1D1B"/>
<path d="M185.101 200.1C191.601 200.1 195.601 196.6 195.601 190.7V185.4C195.601 179.5 191.601 175.9 185.101 175.9C178.601 175.9 174.601 179.5 174.601 185.4V190.7C174.601 196.6 178.601 200.1 185.101 200.1ZM181.501 185.4C181.501 183.2 182.801 181.9 185.101 181.9C187.401 181.9 188.701 183.2 188.701 185.4V190.7C188.701 192.9 187.401 194.1 185.101 194.1C182.801 194.1 181.501 192.9 181.501 190.7V185.4Z" fill="#1D1D1B"/>
<path d="M262 26.9998C256 26.9998 252.4 29.2998 252.4 33.8998C252.4 39.0998 256.4 41.4998 262.8 41.4998C265.8 41.4998 272.6 39.7998 272.6 32.1998V27.1998C272.6 20.4998 269 17.2998 262.9 17.2998C259.1 17.2998 255.9 18.3998 253.8 19.6998C253.5 19.8998 253.5 20.1998 253.7 20.6998L254.5 22.1998C255.5 24.5998 258.1 23.7998 259 23.5998C260 23.3998 261.1 23.1998 262.1 23.1998C265 23.1998 265.8 24.4998 265.8 26.7998V27.1998C264.6 27.0998 263.3 26.9998 262 26.9998ZM265.7 32.9998C265.7 34.6998 264.4 35.9998 262.7 35.9998C260.6 35.9998 259.2 35.1998 259.2 33.6998C259.2 32.2998 260.3 31.4998 262.7 31.4998C263.7 31.4998 264.9 31.5998 265.8 31.7998V32.9998H265.7Z" fill="#1D1D1B"/>
<path d="M274.7 26.9002V31.9002C274.7 37.8002 278.5 41.5002 285.2 41.5002C288.3 41.5002 290.8 40.7002 293 39.1002C293.4 38.8002 293.4 38.4002 293.1 38.0002L291.8 36.0002C290.7 34.2002 286.9 35.5002 285.4 35.5002C283.1 35.5002 281.6 34.3002 281.6 31.8002V26.8002C281.6 24.5002 283.1 23.2002 285.5 23.2002C286.8 23.2002 289.7 24.7002 291.5 22.2002L292.7 20.4002C293 20.0002 292.9 19.6002 292.5 19.3002C290.2 17.9002 287.8 17.2002 285.2 17.2002C278.6 17.3002 274.7 21.0002 274.7 26.9002Z" fill="#1D1D1B"/>
<path d="M300.501 13.2002C300.501 13.2002 295.201 13.9002 294.501 19.1002V33.1002C294.501 38.8002 297.901 41.5002 303.101 41.5002C303.401 41.5002 303.601 41.4002 303.801 41.3002C304.401 40.9002 304.301 40.0002 303.701 39.6002C301.201 37.7002 301.301 34.2002 301.301 32.2002V24.2002H302.801C306.701 24.0002 306.101 19.2002 306.101 19.2002C306.101 18.8002 305.701 18.4002 305.301 18.4002H301.301L301.401 13.8002C301.301 13.4002 301.001 13.2002 300.501 13.2002Z" fill="#1D1D1B"/>
<path d="M317.701 41.4998C324.201 41.4998 328.201 37.9998 328.201 32.0998V26.7998C328.201 20.8998 324.201 17.2998 317.701 17.2998C311.201 17.2998 307.201 20.8998 307.201 26.7998V32.0998C307.101 37.9998 311.201 41.4998 317.701 41.4998ZM314.001 26.7998C314.001 24.5998 315.301 23.2998 317.601 23.2998C319.901 23.2998 321.201 24.5998 321.201 26.7998V32.0998C321.201 34.2998 319.901 35.4998 317.601 35.4998C315.301 35.4998 314.001 34.2998 314.001 32.0998V26.7998Z" fill="#1D1D1B"/>
<path d="M344.901 26.9998C338.901 26.9998 335.301 29.2998 335.301 33.8998C335.301 39.0998 339.301 41.4998 345.701 41.4998C348.701 41.4998 355.501 39.7998 355.501 32.1998V27.1998C355.501 20.4998 351.901 17.2998 345.801 17.2998C342.001 17.2998 338.801 18.3998 336.701 19.6998C336.401 19.8998 336.401 20.1998 336.601 20.6998L337.401 22.1998C338.401 24.5998 341.001 23.7998 341.901 23.5998C342.901 23.3998 344.001 23.1998 345.001 23.1998C347.901 23.1998 348.701 24.4998 348.701 26.7998V27.1998C347.501 27.0998 346.201 26.9998 344.901 26.9998ZM348.601 32.9998C348.601 34.6998 347.301 35.9998 345.601 35.9998C343.501 35.9998 342.101 35.1998 342.101 33.6998C342.101 32.2998 343.201 31.4998 345.601 31.4998C346.601 31.4998 347.801 31.5998 348.701 31.7998V32.9998H348.601Z" fill="#1D1D1B"/>
<path d="M224.501 58.4996C224.501 51.7996 220.901 48.5996 214.801 48.5996C211.001 48.5996 207.801 49.6996 205.701 50.9996C205.401 51.1996 205.401 51.4996 205.601 51.9996L206.401 53.4996C207.401 55.8996 210.001 55.0996 210.901 54.8996C211.901 54.6996 213.001 54.4996 214.001 54.4996C216.901 54.4996 217.701 55.7996 217.701 58.0996V58.4996C216.601 58.3996 215.301 58.1996 213.901 58.1996C207.901 58.1996 204.301 60.4996 204.301 65.0996C204.301 70.2996 208.301 72.6996 214.701 72.6996C217.701 72.6996 224.501 70.9996 224.501 63.3996V58.4996ZM217.801 64.1996C217.801 65.8996 216.501 67.1996 214.801 67.1996C212.701 67.1996 211.301 66.3996 211.301 64.8996C211.301 63.4996 212.401 62.6996 214.801 62.6996C215.801 62.6996 217.001 62.7996 217.901 62.9996V64.1996H217.801Z" fill="#1D1D1B"/>
<path d="M243.801 67.3C242.701 65.5 238.901 66.8 237.401 66.8C235.101 66.8 233.601 65.6 233.601 63.1V58.1C233.601 55.8 235.101 54.5 237.501 54.5C238.801 54.5 241.701 56 243.501 53.5L244.701 51.7C245.001 51.3 244.901 50.9 244.501 50.6C242.201 49.2 239.801 48.5 237.201 48.5C230.601 48.5 226.801 52.2 226.801 58V63C226.801 68.9 230.601 72.6 237.301 72.6C240.401 72.6 242.901 71.8 245.101 70.2C245.501 69.9 245.501 69.5 245.201 69.1L243.801 67.3Z" fill="#1D1D1B"/>
<path d="M255.101 72.6998C255.401 72.6998 255.601 72.5998 255.801 72.4998C256.401 72.0998 256.301 71.1998 255.701 70.7998C253.201 68.8998 253.301 65.3998 253.301 63.3998V55.3998H254.801C258.701 55.1998 258.101 50.3998 258.101 50.3998C258.101 49.9998 257.701 49.5998 257.301 49.5998H253.301L253.401 44.9998C253.401 44.4998 253.101 44.2998 252.601 44.2998C252.601 44.2998 247.301 44.9998 246.601 50.1998V64.1998C246.601 69.8998 250.001 72.6998 255.101 72.6998Z" fill="#1D1D1B"/>
<path d="M269.7 72.7C276.2 72.7 280.2 69.2 280.2 63.3V58C280.2 52.1 276.2 48.5 269.7 48.5C263.2 48.5 259.2 52.1 259.2 58V63.3C259.2 69.2 263.2 72.7 269.7 72.7ZM266.1 58.1C266.1 55.9 267.4 54.6 269.7 54.6C272 54.6 273.3 55.9 273.3 58.1V63.4C273.3 65.6 272 66.8 269.7 66.8C267.4 66.8 266.1 65.6 266.1 63.4V58.1Z" fill="#1D1D1B"/>
<path d="M307.4 58.4C307.4 51.7 303.8 48.5 297.7 48.5C293.9 48.5 290.7 49.6 288.6 50.9C288.3 51.1 288.3 51.4 288.5 51.9L289.3 53.4C290.3 55.8 292.9 55 293.8 54.8C294.8 54.6 295.9 54.4 296.9 54.4C299.8 54.4 300.6 55.7 300.6 58V58.4C299.5 58.3 298.2 58.1 296.8 58.1C290.8 58.1 287.2 60.4 287.2 65C287.2 70.2 291.2 72.6 297.6 72.6C300.6 72.6 307.4 70.9 307.4 63.3V58.4ZM300.7 64.2C300.7 65.9 299.4 67.2 297.7 67.2C295.6 67.2 294.2 66.4 294.2 64.9C294.2 63.5 295.3 62.7 297.7 62.7C298.7 62.7 299.9 62.8 300.8 63V64.2H300.7Z" fill="#1D1D1B"/>
<path d="M326.7 67.2004C325.6 65.4004 321.8 66.7004 320.3 66.7004C318 66.7004 316.5 65.5004 316.5 63.0004V58.0004C316.5 55.7004 318 54.4004 320.4 54.4004C321.7 54.4004 324.6 55.9004 326.4 53.4004L327.6 51.6004C327.9 51.2004 327.8 50.8004 327.4 50.5004C325.1 49.1004 322.7 48.4004 320.1 48.4004C313.5 48.4004 309.7 52.1004 309.7 57.9004V62.9004C309.7 68.8004 313.5 72.5004 320.2 72.5004C323.3 72.5004 325.8 71.7004 328 70.1004C328.4 69.8004 328.4 69.4004 328.1 69.0004L326.7 67.2004Z" fill="#1D1D1B"/>
<path d="M338.001 72.6998C338.301 72.6998 338.501 72.5998 338.701 72.4998C339.301 72.0998 339.201 71.1998 338.601 70.7998C336.101 68.8998 336.201 65.3998 336.201 63.3998V55.3998H337.701C341.601 55.1998 341.001 50.3998 341.001 50.3998C341.001 49.9998 340.601 49.5998 340.201 49.5998H336.201L336.301 44.9998C336.301 44.4998 336.001 44.2998 335.501 44.2998C335.501 44.2998 330.201 44.9998 329.501 50.1998V64.1998C329.501 69.8998 332.901 72.6998 338.001 72.6998Z" fill="#1D1D1B"/>
<path d="M352.601 72.7C359.101 72.7 363.101 69.2 363.101 63.3V58C363.101 52.1 359.101 48.5 352.601 48.5C346.101 48.5 342.101 52.1 342.101 58V63.3C342.101 69.2 346.101 72.7 352.601 72.7ZM349.001 58C349.001 55.8 350.301 54.5 352.601 54.5C354.901 54.5 356.201 55.8 356.201 58V63.3C356.201 65.5 354.901 66.7 352.601 66.7C350.301 66.7 349.001 65.5 349.001 63.3V58Z" fill="#1D1D1B"/>
<path d="M261.901 90.7C255.901 90.7 252.301 93 252.301 97.6C252.301 102.8 256.301 105.2 262.701 105.2C265.701 105.2 272.501 103.5 272.501 95.9V90.9C272.501 84.2 268.901 81 262.801 81C259.001 81 255.801 82.1 253.701 83.4C253.401 83.6 253.401 83.9 253.601 84.4L254.401 85.9C255.401 88.3 258.001 87.5 258.901 87.3C259.901 87.1 261.001 86.9 262.001 86.9C264.901 86.9 265.701 88.2 265.701 90.5V90.9C264.501 90.8 263.201 90.7 261.901 90.7ZM265.601 96.7C265.601 98.4 264.301 99.7 262.601 99.7C260.501 99.7 259.101 98.9 259.101 97.4C259.101 96 260.201 95.2 262.601 95.2C263.601 95.2 264.801 95.3 265.701 95.5V96.7H265.601Z" fill="#1D1D1B"/>
<path d="M285.4 87C286.7 87 289.6 88.5 291.4 86L292.6 84.2C292.9 83.8 292.8 83.4 292.4 83.1C290.1 81.7 287.7 81 285.1 81C278.5 81 274.7 84.7 274.7 90.5V95.5C274.7 101.4 278.5 105.1 285.2 105.1C288.3 105.1 290.8 104.3 293 102.7C293.4 102.4 293.4 102 293.1 101.6L291.8 99.6C290.7 97.8 286.9 99.1 285.4 99.1C283.1 99.1 281.6 97.9 281.6 95.4V90.4C281.5 88.3 282.9 87 285.4 87Z" fill="#1D1D1B"/>
<path d="M300.4 76.7998C300.4 76.7998 295.1 77.4998 294.4 82.6998V96.6998C294.4 102.4 297.8 105.1 303 105.1C303.3 105.1 303.5 105 303.7 104.9C304.3 104.5 304.2 103.6 303.6 103.2C301.1 101.3 301.2 97.7998 301.2 95.7998V87.7998H302.7C306.6 87.5998 306 82.7998 306 82.7998C306 82.3998 305.6 81.9998 305.2 81.9998H301.2L301.3 77.3998C301.2 76.9998 300.9 76.7998 300.4 76.7998Z" fill="#1D1D1B"/>
<path d="M317.601 81C311.101 81 307.101 84.6 307.101 90.5V95.8C307.101 101.6 311.101 105.2 317.601 105.2C324.101 105.2 328.101 101.7 328.101 95.8V90.5C328.001 84.6 324.001 81 317.601 81ZM321.201 95.8C321.201 98 319.901 99.2 317.601 99.2C315.301 99.2 314.001 98 314.001 95.8V90.5C314.001 88.3 315.301 87 317.601 87C319.901 87 321.201 88.3 321.201 90.5V95.8Z" fill="#1D1D1B"/>
<path d="M344.8 90.6004C338.8 90.6004 335.2 92.9004 335.2 97.5004C335.2 102.7 339.2 105.1 345.6 105.1C348.6 105.1 355.4 103.4 355.4 95.8004V90.8004C355.4 84.1004 351.8 80.9004 345.7 80.9004C341.9 80.9004 338.7 82.0004 336.6 83.3004C336.3 83.5004 336.3 83.8004 336.5 84.3004L337.3 85.8004C338.3 88.2004 340.9 87.4004 341.8 87.2004C342.8 87.0004 343.9 86.8004 344.9 86.8004C347.8 86.8004 348.6 88.1004 348.6 90.4004V90.8004C347.4 90.8004 346.1 90.6004 344.8 90.6004ZM348.5 96.6004C348.5 98.3004 347.2 99.6004 345.5 99.6004C343.4 99.6004 342 98.8004 342 97.3004C342 95.9004 343.1 95.1004 345.5 95.1004C346.5 95.1004 347.7 95.2004 348.6 95.4004V96.6004H348.5Z" fill="#1D1D1B"/>
<path d="M213.801 112.3C210.001 112.3 206.801 113.4 204.701 114.7C204.401 114.9 204.401 115.2 204.601 115.7L205.401 117.2C206.401 119.6 209.001 118.8 209.901 118.6C210.901 118.4 212.001 118.2 213.001 118.2C215.901 118.2 216.701 119.5 216.701 121.8V122.2C215.601 122.1 214.301 121.9 212.901 121.9C206.901 121.9 203.301 124.2 203.301 128.8C203.301 134 207.301 136.4 213.701 136.4C216.701 136.4 223.501 134.7 223.501 127.1V122.1C223.501 115.5 219.901 112.3 213.801 112.3ZM216.801 128C216.801 129.7 215.501 131 213.801 131C211.701 131 210.301 130.2 210.301 128.7C210.301 127.3 211.401 126.5 213.801 126.5C214.801 126.5 216.001 126.6 216.901 126.8V128H216.801Z" fill="#1D1D1B"/>
<path d="M242.801 131C241.701 129.2 237.901 130.5 236.401 130.5C234.101 130.5 232.601 129.3 232.601 126.8V121.8C232.601 119.5 234.101 118.2 236.501 118.2C237.801 118.2 240.701 119.7 242.501 117.2L243.701 115.4C244.001 115 243.901 114.6 243.501 114.3C241.201 112.9 238.801 112.2 236.201 112.2C229.601 112.2 225.801 115.9 225.801 121.7V126.7C225.801 132.6 229.601 136.3 236.301 136.3C239.401 136.3 241.901 135.5 244.101 133.9C244.501 133.6 244.501 133.2 244.201 132.8L242.801 131Z" fill="#1D1D1B"/>
<path d="M254.101 136.5C254.401 136.5 254.601 136.4 254.801 136.3C255.401 135.9 255.301 135 254.701 134.6C252.201 132.7 252.301 129.2 252.301 127.2V119.2H253.801C257.701 119 257.101 114.2 257.101 114.2C257.101 113.8 256.701 113.4 256.301 113.4H252.301L252.401 108.8C252.401 108.3 252.101 108.1 251.601 108.1C251.601 108.1 246.301 108.8 245.601 114V128C245.601 133.7 249.001 136.5 254.101 136.5Z" fill="#1D1D1B"/>
<path d="M268.7 136.5C275.2 136.5 279.2 133 279.2 127.1V121.8C279.2 115.9 275.2 112.3 268.7 112.3C262.2 112.3 258.2 115.9 258.2 121.8V127.1C258.2 133 262.2 136.5 268.7 136.5ZM265.1 121.9C265.1 119.7 266.4 118.4 268.7 118.4C271 118.4 272.3 119.7 272.3 121.9V127.2C272.3 129.4 271 130.6 268.7 130.6C266.4 130.6 265.1 129.4 265.1 127.2V121.9Z" fill="#1D1D1B"/>
<path d="M296.7 112.3C292.9 112.3 289.7 113.4 287.6 114.7C287.3 114.9 287.3 115.2 287.5 115.7L288.3 117.2C289.3 119.6 291.9 118.8 292.8 118.6C293.8 118.4 294.9 118.2 295.9 118.2C298.8 118.2 299.6 119.5 299.6 121.8V122.2C298.5 122.1 297.2 121.9 295.8 121.9C289.8 121.9 286.2 124.2 286.2 128.8C286.2 134 290.2 136.4 296.6 136.4C299.6 136.4 306.4 134.7 306.4 127.1V122.1C306.4 115.5 302.8 112.3 296.7 112.3ZM299.7 128C299.7 129.7 298.4 131 296.7 131C294.6 131 293.2 130.2 293.2 128.7C293.2 127.3 294.3 126.5 296.7 126.5C297.7 126.5 298.9 126.6 299.8 126.8V128H299.7Z" fill="#1D1D1B"/>
<path d="M325.7 131C324.6 129.2 320.8 130.5 319.3 130.5C317 130.5 315.5 129.3 315.5 126.8V121.8C315.5 119.5 317 118.2 319.4 118.2C320.7 118.2 323.6 119.7 325.4 117.2L326.6 115.4C326.9 115 326.8 114.6 326.4 114.3C324.1 112.9 321.7 112.2 319.1 112.2C312.5 112.2 308.7 115.9 308.7 121.7V126.7C308.7 132.6 312.5 136.3 319.2 136.3C322.3 136.3 324.8 135.5 327 133.9C327.4 133.6 327.4 133.2 327.1 132.8L325.7 131Z" fill="#1D1D1B"/>
<path d="M337.001 136.5C337.301 136.5 337.501 136.4 337.701 136.3C338.301 135.9 338.201 135 337.601 134.6C335.101 132.7 335.201 129.2 335.201 127.2V119.2H336.701C340.601 119 340.001 114.2 340.001 114.2C340.001 113.8 339.601 113.4 339.201 113.4H335.201L335.301 108.8C335.301 108.3 335.001 108.1 334.501 108.1C334.501 108.1 329.201 108.8 328.501 114V128C328.501 133.7 331.901 136.5 337.001 136.5Z" fill="#1D1D1B"/>
<path d="M351.601 136.5C358.101 136.5 362.101 133 362.101 127.1V121.8C362.101 115.9 358.101 112.3 351.601 112.3C345.101 112.3 341.101 115.9 341.101 121.8V127.1C341.101 133 345.101 136.5 351.601 136.5ZM348.001 121.8C348.001 119.6 349.301 118.3 351.601 118.3C353.901 118.3 355.201 119.6 355.201 121.8V127.1C355.201 129.3 353.901 130.5 351.601 130.5C349.301 130.5 348.001 129.3 348.001 127.1V121.8Z" fill="#1D1D1B"/>
<path d="M260.901 154.5C254.901 154.5 251.301 156.8 251.301 161.4C251.301 166.6 255.301 169 261.701 169C264.701 169 271.501 167.3 271.501 159.7V154.7C271.501 148 267.901 144.8 261.801 144.8C258.001 144.8 254.801 145.9 252.701 147.2C252.401 147.4 252.401 147.7 252.601 148.2L253.401 149.7C254.401 152.1 257.001 151.3 257.901 151.1C258.901 150.9 260.001 150.7 261.001 150.7C263.901 150.7 264.701 152 264.701 154.3V154.7C263.501 154.6 262.201 154.5 260.901 154.5ZM264.601 160.4C264.601 162.1 263.301 163.4 261.601 163.4C259.501 163.4 258.101 162.6 258.101 161.1C258.101 159.7 259.201 158.9 261.601 158.9C262.601 158.9 263.801 159 264.701 159.2V160.4H264.601Z" fill="#1D1D1B"/>
<path d="M291.9 166.5C292.3 166.2 292.3 165.8 292 165.4L290.7 163.4C289.6 161.6 285.8 162.9 284.3 162.9C282 162.9 280.5 161.7 280.5 159.2V154.2C280.5 151.9 282 150.6 284.4 150.6C285.7 150.6 288.6 152.1 290.4 149.6L291.6 147.8C291.9 147.4 291.8 147 291.4 146.7C289.1 145.3 286.7 144.6 284.1 144.6C277.5 144.6 273.7 148.3 273.7 154.1V159.1C273.7 165 277.5 168.7 284.2 168.7C287.1 169 289.7 168.1 291.9 166.5Z" fill="#1D1D1B"/>
<path d="M299.4 140.6C299.4 140.6 294.1 141.3 293.4 146.5V160.5C293.4 166.2 296.8 168.9 302 168.9C302.3 168.9 302.5 168.8 302.7 168.7C303.3 168.3 303.2 167.4 302.6 167C300.1 165.1 300.2 161.6 300.2 159.6V151.6H301.7C305.6 151.4 305 146.6 305 146.6C305 146.2 304.6 145.8 304.2 145.8H300.2L300.3 141.2C300.2 140.8 299.9 140.6 299.4 140.6Z" fill="#1D1D1B"/>
<path d="M316.6 169C323.1 169 327.1 165.5 327.1 159.6V154.3C327.1 148.4 323.1 144.8 316.6 144.8C310.1 144.8 306.1 148.4 306.1 154.3V159.6C306 165.4 310.1 169 316.6 169ZM312.9 154.3C312.9 152.1 314.2 150.8 316.5 150.8C318.8 150.8 320.1 152.1 320.1 154.3V159.6C320.1 161.8 318.8 163 316.5 163C314.2 163 312.9 161.8 312.9 159.6V154.3Z" fill="#1D1D1B"/>
<path d="M343.8 154.4C337.8 154.4 334.2 156.7 334.2 161.3C334.2 166.5 338.2 168.9 344.6 168.9C347.6 168.9 354.4 167.2 354.4 159.6V154.6C354.4 147.9 350.8 144.7 344.7 144.7C340.9 144.7 337.7 145.8 335.6 147.1C335.3 147.3 335.3 147.6 335.5 148.1L336.3 149.6C337.3 152 339.9 151.2 340.8 151C341.8 150.8 342.9 150.6 343.9 150.6C346.8 150.6 347.6 151.9 347.6 154.2V154.6C346.4 154.6 345.1 154.4 343.8 154.4ZM347.5 160.4C347.5 162.1 346.2 163.4 344.5 163.4C342.4 163.4 341 162.6 341 161.1C341 159.7 342.1 158.9 344.5 158.9C345.5 158.9 346.7 159 347.6 159.2V160.4H347.5Z" fill="#1D1D1B"/>
<path d="M212.901 185.7C206.901 185.7 203.301 188 203.301 192.6C203.301 197.8 207.301 200.2 213.701 200.2C216.701 200.2 223.501 198.5 223.501 190.9V185.9C223.501 179.2 219.901 176 213.801 176C210.001 176 206.801 177.1 204.701 178.4C204.401 178.6 204.401 178.9 204.601 179.4L205.401 180.9C206.401 183.3 209.001 182.5 209.901 182.3C210.901 182.1 212.001 181.9 213.001 181.9C215.901 181.9 216.701 183.2 216.701 185.5V185.9C215.601 185.8 214.301 185.7 212.901 185.7ZM216.701 191.7C216.701 193.4 215.401 194.7 213.701 194.7C211.601 194.7 210.201 193.9 210.201 192.4C210.201 191 211.301 190.2 213.701 190.2C214.701 190.2 215.901 190.3 216.801 190.5V191.7H216.701Z" fill="#1D1D1B"/>
<path d="M242.7 194.7C241.6 192.9 237.8 194.2 236.3 194.2C234 194.2 232.5 193 232.5 190.5V185.5C232.5 183.2 234 181.9 236.4 181.9C237.7 181.9 240.6 183.4 242.4 180.9L243.6 179.1C243.9 178.7 243.8 178.3 243.4 178C241.1 176.6 238.7 175.9 236.1 175.9C229.5 175.9 225.7 179.6 225.7 185.4V190.4C225.7 196.3 229.5 200 236.2 200C239.3 200 241.8 199.2 244 197.6C244.4 197.3 244.4 196.9 244.1 196.5L242.7 194.7Z" fill="#1D1D1B"/>
<path d="M254.701 199.9C255.301 199.5 255.201 198.6 254.601 198.2C252.101 196.3 252.201 192.8 252.201 190.8V182.8H253.701C257.601 182.6 257.001 177.8 257.001 177.8C257.001 177.4 256.601 177 256.201 177H252.201L252.301 172.4C252.301 171.9 252.001 171.7 251.501 171.7C251.501 171.7 246.201 172.4 245.501 177.6V191.6C245.501 197.3 248.901 200 254.101 200C254.301 200.2 254.501 200.1 254.701 199.9Z" fill="#1D1D1B"/>
<path d="M268.601 200.2C275.101 200.2 279.101 196.7 279.101 190.8V185.5C279.101 179.6 275.101 176 268.601 176C262.101 176 258.101 179.6 258.101 185.5V190.8C258.101 196.7 262.101 200.2 268.601 200.2ZM265.001 185.5C265.001 183.3 266.301 182 268.601 182C270.901 182 272.201 183.3 272.201 185.5V190.8C272.201 193 270.901 194.2 268.601 194.2C266.301 194.2 265.001 193 265.001 190.8V185.5Z" fill="#1D1D1B"/>
<path d="M295.8 185.7C289.8 185.7 286.2 188 286.2 192.6C286.2 197.8 290.2 200.2 296.6 200.2C299.6 200.2 306.4 198.5 306.4 190.9V185.9C306.4 179.2 302.8 176 296.7 176C292.9 176 289.7 177.1 287.6 178.4C287.3 178.6 287.3 178.9 287.5 179.4L288.3 180.9C289.3 183.3 291.9 182.5 292.8 182.3C293.8 182.1 294.9 181.9 295.9 181.9C298.8 181.9 299.6 183.2 299.6 185.5V185.9C298.4 185.8 297.2 185.7 295.8 185.7ZM299.6 191.7C299.6 193.4 298.3 194.7 296.6 194.7C294.5 194.7 293.1 193.9 293.1 192.4C293.1 191 294.2 190.2 296.6 190.2C297.6 190.2 298.8 190.3 299.7 190.5V191.7H299.6Z" fill="#1D1D1B"/>
<path d="M325.601 194.7C324.501 192.9 320.701 194.2 319.201 194.2C316.901 194.2 315.401 193 315.401 190.5V185.5C315.401 183.2 316.901 181.9 319.301 181.9C320.601 181.9 323.501 183.4 325.301 180.9L326.501 179.1C326.801 178.7 326.701 178.3 326.301 178C324.001 176.6 321.601 175.9 319.001 175.9C312.401 175.9 308.601 179.6 308.601 185.4V190.4C308.601 196.3 312.401 200 319.101 200C322.201 200 324.701 199.2 326.901 197.6C327.301 197.3 327.301 196.9 327.001 196.5L325.601 194.7Z" fill="#1D1D1B"/>
<path d="M337.6 199.9C338.2 199.5 338.1 198.6 337.5 198.2C335 196.3 335.1 192.8 335.1 190.8V182.8H336.6C340.5 182.6 339.9 177.8 339.9 177.8C339.9 177.4 339.5 177 339.1 177H335.1L335.2 172.4C335.2 171.9 334.9 171.7 334.4 171.7C334.4 171.7 329.1 172.4 328.4 177.6V191.6C328.4 197.3 331.8 200 337 200C337.2 200.1 337.4 200 337.6 199.9Z" fill="#1D1D1B"/>
<path d="M351.501 200.2C358.001 200.2 362.001 196.7 362.001 190.8V185.5C362.001 179.6 358.001 176 351.501 176C345.001 176 341.001 179.6 341.001 185.5V190.8C341.001 196.6 345.001 200.2 351.501 200.2ZM347.901 185.5C347.901 183.3 349.201 182 351.501 182C353.801 182 355.101 183.3 355.101 185.5V190.8C355.101 193 353.801 194.2 351.501 194.2C349.201 194.2 347.901 193 347.901 190.8V185.5Z" fill="#1D1D1B"/>
</g>
</g>
<path d="M112.8 45H119.7V77.3H112.8V45Z" fill="#553581"/>
<path d="M125.899 57.2L125.399 52.7H130.999L131.499 55.6C132.299 54.4 133.399 53.5 134.599 52.9C135.799 52.3 137.199 52 138.799 52C141.299 52 143.199 52.7 144.499 54.1C145.799 55.5 146.499 57.7 146.499 60.5V77.3H139.699V61.8C139.699 60.3 139.499 59.1 139.099 58.4C138.699 57.7 137.899 57.2 136.699 57.2C135.899 57.2 135.199 57.4 134.499 57.8C133.899 58.2 133.399 58.7 132.999 59.4C132.599 60 132.499 60.8 132.499 61.5V77.3H125.799V57.2H125.899Z" fill="#553581"/>
<path d="M152.1 51.5004C152.1 49.6004 152.3 48.0004 152.8 46.6004C153.2 45.2004 154.1 44.1004 155.4 43.2004C156.7 42.3004 158.7 41.9004 161.2 41.9004C162.8 41.9004 164.4 42.1004 166 42.5004C167.6 42.9004 169 43.5004 170.4 44.2004L168.8 48.6004C167.8 48.1004 166.7 47.8004 165.5 47.4004C164.3 47.1004 163.3 46.9004 162.5 46.9004C161.3 46.9004 160.4 47.2004 159.8 47.8004C159.2 48.4004 158.9 49.4004 158.9 50.8004V52.6004H173V77.2004H166.2V58.0004H158.9V87.5004H152.1V51.5004Z" fill="#553581"/>
<path d="M178.5 57.2L178 52.7H183.6L184.1 55.6C184.9 54.4 186 53.5 187.2 52.9C188.4 52.3 189.8 52 191.4 52C193.9 52 195.8 52.7 197.1 54.1C198.4 55.5 199.1 57.7 199.1 60.5V77.3H192.3V61.8C192.3 60.3 192.1 59.1 191.7 58.4C191.3 57.7 190.5 57.2 189.3 57.2C188.5 57.2 187.8 57.4 187.1 57.8C186.5 58.2 186 58.7 185.6 59.4C185.2 60.1 185.1 60.8 185.1 61.5V77.3H178.4V57.2H178.5Z" fill="#553581"/>
<path d="M205.2 48.2C204.5 47.5 204.2 46.7 204.2 45.6C204.2 44.6 204.5 43.7 205.2 43C205.9 42.3 206.8 42 207.8 42C208.9 42 209.8 42.3 210.5 43C211.2 43.7 211.5 44.5 211.5 45.6C211.5 46.6 211.2 47.5 210.5 48.2C209.8 48.9 208.9 49.2 207.8 49.2C206.7 49.2 205.8 48.9 205.2 48.2ZM204.5 52.7H211.3V77.3H204.5V52.7Z" fill="#553581"/>
<path d="M219.6 76.9C218.4 76.1 217.7 75.1 217.3 73.9C216.9 72.7 216.8 71.2 216.8 69.4V43.5H223.6V52.7H230V57.9H223.6V69.2C223.6 70.6 223.9 71.5 224.5 72.1C225 72.7 225.8 72.9 226.8 73C227.7 73 228.7 72.6 229.7 72L231.4 76.4C230.6 76.9 229.6 77.3 228.5 77.6C227.3 77.9 226.1 78.1 224.9 78.1C222.5 78 220.8 77.7 219.6 76.9Z" fill="#553581"/>
<path d="M237.6 88.5002C236.2 87.4002 235.5 85.7002 235.5 83.7002C235.5 82.0002 235.9 80.5002 236.8 79.2002C237.7 77.8002 238.9 76.6002 240.4 75.5002C238.3 75.1002 236.8 74.3002 235.7 73.1002C234.6 71.9002 234.1 70.0002 234.1 67.7002V52.7002H240.9V67.0002C240.9 68.1002 241 68.9002 241.1 69.5002C241.3 70.1002 241.6 70.6002 242.1 71.0002C242.6 71.4002 243.3 71.6002 244.3 71.6002C244.9 71.6002 245.6 71.4002 246.1 71.1002C246.6 70.8002 247.1 70.3002 247.5 69.6002C247.9 69.0002 248 68.3002 248 67.5002V52.7002H254.8V73.2002C254.8 74.2002 254.8 75.4002 254.7 76.7002C254.6 78.0002 254.5 79.1002 254.4 79.9002C254 83.2002 252.9 85.8002 251.1 87.5002C249.3 89.2002 246.7 90.1002 243.5 90.1002C241 90.2002 239 89.7002 237.6 88.5002ZM247.4 83.8002C248 82.8002 248.3 81.3002 248.3 79.3002V74.7002C246.3 75.7002 244.7 76.8002 243.4 78.1002C242.2 79.4002 241.5 80.9002 241.5 82.6002C241.5 83.5002 241.8 84.2002 242.3 84.7002C242.8 85.2002 243.5 85.4002 244.5 85.4002C245.8 85.3002 246.8 84.8002 247.4 83.8002Z" fill="#553581"/>
<path d="M62.5004 141.6C58.1004 140.3 54.7004 138.9 52.4004 137.3L58.5004 122.3C60.7004 123.7 63.6004 125 67.0004 126.1C70.5004 127.2 73.2004 127.8 75.3004 127.8C77.8004 127.8 79.0004 126.9 79.1004 125C79.0004 124.2 78.7004 123.5 78.2004 123C77.6004 122.5 76.9004 122.1 76.0004 121.7C75.1004 121.3 73.7004 120.8 72.0004 120.2C68.8004 119.4 66.1004 118.3 63.6004 117C61.2004 115.7 59.2004 113.9 57.5004 111.4C55.8004 109 55.0004 105.9 55.0004 102.1C55.0004 98 56.0004 94.5 57.9004 91.6C59.8004 88.7 62.5004 86.5 65.8004 85.1C69.1004 83.7 72.8004 83 77.0004 83C81.3004 83 85.5004 83.8 89.4004 85.4C93.4004 87 96.7004 89.2 99.6004 92.1L90.3004 104.1C84.8004 100.3 80.5004 98.4 77.3004 98.4C76.2004 98.4 75.4004 98.6 74.8004 99.1C74.2004 99.5 73.9004 100.1 73.9004 100.9C73.9004 101.7 74.2004 102.4 74.9004 103C75.5004 103.6 76.4004 104.1 77.4004 104.5C78.4004 104.9 79.9004 105.5 81.7004 106.1C85.1004 107.2 88.0004 108.3 90.3004 109.6C92.6004 110.9 94.6004 112.7 96.1004 115.1C97.7004 117.5 98.4004 120.5 98.4004 124.3C98.5004 130.4 96.3004 135.1 92.0004 138.5C87.7004 141.9 82.0004 143.6 75.0004 143.6C71.1004 143.6 66.9004 143 62.5004 141.6Z" fill="#553581"/>
<path d="M116.8 99.9996H101.9V84.0996H150.4V99.9996H135V142.5H116.8V99.9996Z" fill="#553581"/>
<path d="M170.101 84.0996H190.101L210.101 142.6H190.801L187.701 132.1H172.201L169.101 142.6H151.301L170.101 84.0996ZM184.701 118.9L180.001 101.1H179.501L175.001 118.9H184.701Z" fill="#553581"/>
<path d="M213.801 84.0996H235.401C243.001 84.0996 248.901 85.3996 253.001 87.9996C257.101 90.5996 259.201 94.8996 259.201 100.9C259.201 104.1 258.401 107.1 256.701 109.7C255.001 112.3 252.901 114.3 250.401 115.5C251.201 115.9 252.001 116.5 252.601 117.4C253.201 118.3 253.901 119.4 254.401 120.8L264.001 142.6H244.401L236.801 123.4C236.401 122.5 235.901 121.9 235.301 121.6C234.701 121.2 233.801 121 232.801 121H232.001V142.6H213.801V84.0996ZM235.501 108.4C237.101 108.4 238.301 107.9 239.201 107C240.101 106.1 240.501 104.7 240.601 103C240.501 101.9 240.301 101.1 239.901 100.4C239.501 99.6996 238.901 99.1996 238.201 98.8996C237.401 98.5996 236.501 98.3996 235.301 98.3996H232.001V108.5H235.501V108.4Z" fill="#553581"/>
<path d="M279.9 99.9996H265V84.0996H313.5V99.9996H298.1V142.5H279.9V99.9996Z" fill="#553581"/>
</svg>
